<svg xmlns="http://www.w3.org/2000/svg" viewBox="30.871000289916992 4 962.258056640625 1016" width="1024" height="1024" class="colorable-icon" overflow="visible"><g id="skeleton-paths" stroke-width="45.0"><path id="path-0-0" d="M50.616 329.776L52.339 329.776L54.052 329.776L56.738 329.776L59.124 329.777L61.810 329.777L64.196 329.777L66.882 329.778L69.268 329.778L71.954 329.778L74.341 329.778L77.027 329.779L79.413 329.779L82.099 329.779L84.485 329.780L87.171 329.780L89.557 329.780L92.243 329.781L94.630 329.781L97.316 329.781L99.702 329.781L102.388 329.782L104.774 329.782L107.460 329.782L109.846 329.783L112.532 329.783L114.919 329.783L117.605 329.784L119.991 329.784L122.677 329.784L125.063 329.784L127.749 329.785L130.135 329.785L132.821 329.785L135.208 329.786L137.893 329.786L140.280 329.786L142.966 329.787L145.352 329.787L148.038 329.787L150.424 329.787L153.110 329.788L155.496 329.788L158.182 329.788L160.569 329.789L163.255 329.789L165.641 329.789L168.327 329.790L170.713 329.790L173.399 329.790L175.785 329.790L178.471 329.791L180.858 329.791L183.544 329.791L185.930 329.792L188.616 329.792L191.002 329.792L193.688 329.793L196.074 329.793L198.760 329.793L201.147 329.793L203.833 329.794L206.219 329.794L208.905 329.794L211.291 329.795L213.977 329.795L216.363 329.795L219.049 329.796L221.435 329.796L224.121 329.796L226.508 329.796L229.194 329.797L231.580 329.797L234.266 329.797L236.652 329.798L239.338 329.798L241.724 329.798L244.410 329.799L246.797 329.799L249.483 329.799L251.869 329.799L254.555 329.800L256.941 329.800L259.627 329.800L262.013 329.801L264.699 329.801L267.086 329.801L269.772 329.802L272.158 329.802L274.844 329.802L277.230 329.802L279.916 329.803L282.302 329.803L284.988 329.803L287.375 329.804L290.060 329.804L292.447 329.804L295.133 329.805L297.519 329.805L300.205 329.805L302.591 329.805L305.277 329.806L307.663 329.806L310.349 329.806L312.736 329.807L315.422 329.807L317.808 329.807L320.494 329.808L322.880 329.808L325.566 329.808L327.952 329.808L330.638 329.809L333.025 329.809L335.711 329.809L338.097 329.810L340.783 329.810L343.169 329.810L345.855 329.811L348.241 329.811L350.927 329.811L353.314 329.811L356 329.812L358.386 329.812L361.072 329.812L363.458 329.813L366.144 329.813L368.530 329.813L371.216 329.814L373.602 329.814L376.288 329.814L378.675 329.814L381.361 329.815L383.747 329.815L386.433 329.815L388.819 329.816L391.505 329.816L393.891 329.816L396.577 329.817L398.964 329.817L401.650 329.817L404.036 329.817L406.722 329.818L409.108 329.818L411.794 329.818L414.180 329.819L416.866 329.819L419.253 329.819L421.939 329.820L424.325 329.820L427.011 329.820L429.397 329.820L432.083 329.821L434.469 329.821L437.155 329.821L439.541 329.822L442.227 329.822L444.614 329.822L447.300 329.823L449.686 329.823L452.372 329.823L454.758 329.823L457.444 329.824L459.830 329.824L462.516 329.824L464.903 329.825L467.589 329.825L469.975 329.825L472.661 329.826L475.047 329.826L477.733 329.826L480.119 329.826L482.805 329.827L485.192 329.827L487.878 329.827L490.264 329.828L492.950 329.828L495.336 329.828L498.022 329.829L500.408 329.829L503.094 329.829L505.481 329.829L508.166 329.830L510.553 329.830L513.239 329.830L515.625 329.831L518.311 329.831L520.697 329.831L523.383 329.832L525.769 329.832L528.455 329.832L530.842 329.832L533.528 329.833L535.914 329.833L538.600 329.833L540.986 329.834L543.672 329.834L546.058 329.834L548.744 329.835L551.131 329.835L553.817 329.835L556.203 329.835L558.889 329.836L561.275 329.836L563.961 329.836L566.347 329.837L569.033 329.837L571.420 329.837L574.106 329.838L576.492 329.838L579.178 329.838L581.564 329.838L584.250 329.839L586.636 329.839L589.322 329.839L591.708 329.840L594.394 329.840L596.781 329.840L599.467 329.841L601.853 329.841L604.539 329.841L606.925 329.841L609.611 329.842L611.997 329.842L614.683 329.842L617.070 329.843L619.756 329.843L622.142 329.843L624.828 329.844L627.214 329.844L629.900 329.844L632.286 329.844L634.972 329.845L637.359 329.845L640.045 329.845L642.431 329.846L645.117 329.846L647.503 329.846L650.189 329.847L652.575 329.847L655.261 329.847L657.648 329.848L660.333 329.848L662.720 329.848L665.406 329.848L667.792 329.849L670.478 329.849L672.864 329.849L675.550 329.850L677.936 329.850L680.622 329.850L683.009 329.851L685.695 329.851L688.081 329.851L690.767 329.851L693.153 329.852L695.839 329.852L698.225 329.852L700.911 329.853L703.298 329.853L705.984 329.853L708.370 329.854L711.056 329.854L713.442 329.854L716.128 329.854L718.514 329.855L721.200 329.855L723.587 329.855L726.273 329.856L728.659 329.856L731.345 329.856L733.731 329.857L736.417 329.857L738.803 329.857L741.489 329.857L743.875 329.858L746.561 329.858L748.948 329.858L751.634 329.859L754.020 329.859L756.706 329.859L759.092 329.860L761.778 329.860L764.164 329.860L766.850 329.860L769.237 329.861L771.923 329.861L774.309 329.861L776.995 329.862L779.381 329.862L782.067 329.862L784.453 329.863L787.139 329.863L789.526 329.863L792.212 329.863L794.598 329.864L797.284 329.864L799.670 329.864L802.356 329.865L804.742 329.865L807.428 329.865L809.815 329.866L812.500 329.866L814.887 329.866L817.573 329.866L819.959 329.867L822.645 329.867L825.031 329.867L827.717 329.868L830.103 329.868L832.789 329.868L835.176 329.869L837.862 329.869L840.248 329.869L842.934 329.869L845.320 329.870L848.006 329.870L850.392 329.870L853.078 329.871L855.465 329.871L858.151 329.871L860.537 329.872L863.223 329.872L865.609 329.872L868.295 329.872L870.681 329.873L873.367 329.873L875.754 329.873L878.440 329.874L880.826 329.874L883.512 329.874L885.898 329.875L888.584 329.875L890.970 329.875L893.656 329.875L896.042 329.876L898.728 329.876L901.115 329.876L903.801 329.877L906.187 329.877L908.873 329.877L911.259 329.878L913.945 329.878L916.331 329.878L919.017 329.878L921.404 329.879L924.090 329.879L926.476 329.879L929.162 329.880L931.548 329.880L934.234 329.880L936.620 329.881L939.306 329.881L941.693 329.881L944.379 329.881L946.765 329.882L949.451 329.882L951.837 329.882L954.523 329.883L956.909 329.883L959.595 329.883L961.982 329.884L964.667 329.884L967.054 329.884L969.740 329.884L971.453 329.885L973.176 329.885" stroke="#000000" stroke-width="45" fill="none" stroke-linecap="round" stroke-linejoin="round"></path><path id="path-1-0" d="M30.937 344.609L30.937 345.921L30.937 347.793L30.937 350.061L30.937 352.673L30.937 355.004L30.937 357.688L30.937 360.075L30.937 362.761L30.938 365.147L30.938 367.833L30.938 370.219L30.938 372.905L30.938 375.291L30.939 377.977L30.939 380.364L30.939 383.050L30.939 385.436L30.939 388.122L30.939 390.508L30.940 393.194L30.940 395.580L30.940 398.266L30.940 400.652L30.940 403.338L30.940 405.725L30.941 408.411L30.941 410.797L30.941 413.483L30.941 415.869L30.941 418.555L30.942 420.941L30.942 423.627L30.942 426.014L30.942 428.700L30.942 431.086L30.942 433.772L30.943 436.158L30.943 438.844L30.943 441.230L30.943 443.916L30.943 446.303L30.943 448.989L30.944 451.375L30.944 454.061L30.944 456.447L30.944 459.133L30.944 461.519L30.945 464.205L30.945 466.592L30.945 469.277L30.945 471.664L30.945 474.350L30.945 476.736L30.946 479.422L30.946 481.808L30.946 484.494L30.946 486.880L30.946 489.566L30.946 491.953L30.947 494.639L30.947 497.025L30.947 499.711L30.947 502.097L30.947 504.783L30.948 507.169L30.948 509.855L30.948 512.242L30.948 514.928L30.948 517.314L30.948 520L30.949 522.386L30.949 525.072L30.949 527.458L30.949 530.144L30.949 532.531L30.950 535.217L30.950 537.603L30.950 540.289L30.950 542.675L30.950 545.361L30.950 547.747L30.951 550.433L30.951 552.819L30.951 555.505L30.951 557.892L30.951 560.578L30.951 562.964L30.952 565.650L30.952 568.036L30.952 570.722L30.952 573.108L30.952 575.794L30.953 578.181L30.953 580.867L30.953 583.253L30.953 585.939L30.953 588.325L30.953 591.011L30.954 593.397L30.954 596.083L30.954 598.470L30.954 601.156L30.954 603.542L30.954 606.228L30.955 608.614L30.955 611.300L30.955 613.686L30.955 616.372L30.955 618.759L30.956 621.444L30.956 623.831L30.956 626.517L30.956 628.903L30.956 631.589L30.956 633.975L30.957 636.661L30.957 639.047L30.957 641.733L30.957 644.120L30.957 646.806L30.957 649.192L30.958 651.878L30.959 654.264L30.961 656.950L30.963 659.336L30.965 662.022L30.967 664.409L30.970 667.095L30.972 669.481L30.974 672.167L30.976 674.553L30.979 677.239L30.981 679.625L30.983 682.311L30.985 684.698L30.988 687.384L30.990 689.770L30.992 692.456L30.995 694.842L30.997 697.528L31 699.914L31.001 702.600L31.004 704.986L31.006 707.672L31.008 710.059L31.011 712.745L31.013 715.131L31.015 717.817L31.017 720.203L31.020 722.889L31.022 725.275L31.024 727.961L31.026 730.348L31.029 733.034L31.031 735.420L31.033 738.106L31.035 740.492L31.038 743.178L31.040 745.564L31.042 748.250L31.045 750.637L31.047 753.323L31.049 755.709L31.051 758.395L31.054 760.781L31.056 763.467L31.058 765.853L31.061 768.539L31.063 770.926L31.065 773.689L31.067 776.565L31.069 779.808L31.071 783.106L31.074 785.944L31.077 788.752L31.080 791.157L31.083 793.879L31.085 796.287L31.088 798.973L31.090 801.359L31.092 804.045L31.095 806.431L31.097 809.117L31.099 811.503L31.101 814.189L31.104 816.576L31.106 819.262L31.108 821.648L31.111 824.334L31.113 826.720L31.115 829.406L31.117 831.792L31.120 834.478L31.122 836.865L31.124 839.550L31.126 841.937L31.129 844.623L31.131 847.009L31.133 849.695L31.135 852.081L31.138 854.767L31.140 857.153L31.142 859.839L31.144 862.226L31.147 864.912L31.149 867.298L31.155 869.984L31.165 872.370L31.188 875.056L31.217 877.442L31.255 880.128L31.292 882.515L31.334 885.201L31.371 887.587L31.412 890.273L31.449 892.659L31.491 895.345L31.528 897.731L31.570 900.417L31.607 902.804L31.648 905.490L31.685 907.876L31.735 910.562L31.793 912.948L31.886 915.698L32.035 918.596L32.240 921.847L32.558 925.300L32.988 928.630L33.550 932.018L34.228 935.330L34.999 938.619L36.054 942.418L37.202 946.154L38.517 950.022L39.544 952.828L40.649 955.588L41.607 957.879L42.857 960.706L44.107 963.283L45.660 966.193L47.436 969.156L49.512 972.418L51.760 975.695L53.830 978.531L55.998 981.251L58.037 983.621L60.492 986.296L62.835 988.687L65.456 991.202L67.784 993.299L70.461 995.547L73.418 997.813L77.158 1000.478L81.050 1003.065L84.789 1005.381L87.844 1007.128L90.643 1008.587L93.094 1009.779L95.821 1011.006L98.839 1012.238L102.614 1013.633L106.458 1014.939L110.260 1016.083L113.623 1016.958L116.972 1017.717L120.249 1018.354L123.107 1018.846L126.060 1019.230L128.978 1019.491L132.277 1019.711L135.565 1019.841L138.381 1019.911L141.220 1019.941L143.616 1019.949L146.347 1019.954L148.733 1019.954L151.419 1019.954L153.806 1019.954L156.492 1019.954L158.878 1019.954L161.564 1019.954L163.950 1019.954L166.636 1019.955L169.022 1019.955L171.708 1019.955L174.095 1019.955L176.781 1019.955L179.167 1019.955L181.853 1019.955L184.239 1019.955L186.925 1019.955L189.311 1019.955L191.997 1019.955L194.384 1019.955L197.070 1019.955L199.456 1019.955L202.142 1019.955L204.528 1019.955L207.214 1019.955L209.600 1019.955L212.286 1019.955L214.672 1019.955L217.358 1019.955L219.745 1019.955L222.431 1019.955L224.817 1019.955L227.503 1019.955L229.889 1019.955L232.575 1019.955L234.961 1019.955L237.647 1019.955L240.034 1019.955L242.720 1019.955L245.106 1019.955L247.792 1019.955L250.178 1019.955L252.864 1019.956L255.250 1019.956L257.936 1019.956L260.323 1019.956L263.009 1019.956L265.395 1019.956L268.081 1019.956L270.467 1019.956L273.153 1019.956L275.539 1019.956L278.225 1019.956L280.612 1019.956L283.297 1019.956L285.684 1019.956L288.370 1019.956L290.756 1019.956L293.442 1019.956L295.828 1019.956L298.514 1019.956L300.900 1019.956L303.586 1019.956L305.973 1019.956L308.659 1019.956L311.045 1019.956L313.731 1019.956L316.117 1019.956L318.803 1019.956L321.189 1019.956L323.875 1019.956L326.262 1019.956L328.948 1019.956L331.334 1019.956L334.020 1019.956L336.406 1019.956L339.092 1019.956L341.478 1019.957L344.164 1019.957L346.551 1019.957L349.237 1019.957L351.623 1019.957L354.309 1019.957L356.695 1019.957L359.381 1019.957L361.767 1019.957L364.453 1019.957L366.839 1019.957L369.525 1019.957L371.912 1019.957L374.598 1019.957L376.984 1019.957L379.670 1019.957L382.056 1019.957L384.742 1019.957L387.128 1019.957L389.814 1019.957L392.201 1019.957L394.887 1019.957L397.273 1019.957L399.959 1019.957L402.345 1019.957L405.031 1019.957L407.417 1019.957L410.103 1019.957L412.490 1019.957L415.176 1019.957L417.562 1019.957L420.248 1019.957L422.634 1019.957L425.320 1019.957L427.706 1019.957L430.392 1019.958L432.779 1019.958L435.464 1019.958L437.851 1019.958L440.537 1019.958L442.923 1019.958L445.609 1019.958L447.995 1019.958L450.681 1019.958L453.067 1019.958L455.753 1019.958L458.140 1019.958L460.826 1019.958L463.212 1019.958L465.898 1019.958L468.284 1019.958L470.970 1019.958L473.356 1019.958L476.042 1019.958L478.429 1019.958L481.115 1019.958L483.501 1019.958L486.187 1019.958L488.573 1019.958L491.259 1019.958L493.645 1019.958L496.331 1019.958L498.718 1019.958L501.404 1019.958L503.790 1019.958L506.476 1019.958L508.862 1019.958L511.548 1019.958L513.934 1019.958L516.620 1019.959L519.006 1019.959L521.692 1019.959L524.079 1019.959L526.765 1019.959L529.151 1019.959L531.837 1019.959L534.223 1019.959L536.909 1019.959L539.295 1019.959L541.981 1019.959L544.368 1019.959L547.054 1019.959L549.440 1019.959L552.126 1019.959L554.512 1019.959L557.198 1019.959L559.584 1019.959L562.270 1019.959L564.657 1019.959L567.343 1019.959L569.729 1019.959L572.415 1019.959L574.801 1019.959L577.487 1019.959L579.873 1019.959L582.559 1019.959L584.946 1019.959L587.631 1019.959L590.018 1019.959L592.704 1019.959L595.090 1019.959L597.776 1019.959L600.162 1019.959L602.848 1019.959L605.234 1019.960L607.920 1019.960L610.307 1019.960L612.993 1019.960L615.379 1019.960L618.065 1019.960L620.451 1019.960L623.137 1019.960L625.523 1019.960L628.209 1019.960L630.596 1019.960L633.282 1019.960L635.668 1019.960L638.354 1019.960L640.740 1019.960L643.426 1019.960L645.812 1019.960L648.498 1019.960L650.885 1019.960L653.571 1019.960L655.957 1019.960L658.643 1019.960L661.029 1019.960L663.715 1019.960L666.101 1019.960L668.787 1019.960L671.173 1019.960L673.859 1019.960L676.246 1019.960L678.932 1019.960L681.318 1019.960L684.004 1019.960L686.390 1019.960L689.076 1019.960L691.462 1019.961L694.148 1019.961L696.535 1019.961L699.221 1019.961L701.607 1019.961L704.293 1019.961L706.679 1019.961L709.365 1019.961L711.751 1019.961L714.437 1019.961L716.824 1019.961L719.510 1019.961L721.896 1019.961L724.582 1019.961L726.968 1019.961L729.654 1019.961L732.040 1019.961L734.726 1019.961L737.113 1019.961L739.798 1019.961L742.185 1019.961L744.871 1019.961L747.257 1019.961L749.943 1019.961L752.329 1019.961L755.015 1019.961L757.401 1019.961L760.087 1019.961L762.474 1019.961L765.160 1019.961L767.546 1019.961L770.232 1019.961L772.618 1019.961L775.304 1019.961L777.690 1019.961L780.376 1019.962L782.763 1019.962L785.449 1019.962L787.835 1019.962L790.521 1019.962L792.907 1019.962L795.593 1019.962L797.979 1019.962L800.665 1019.962L803.052 1019.962L805.738 1019.962L808.124 1019.962L810.810 1019.962L813.196 1019.962L815.882 1019.962L818.268 1019.962L820.954 1019.962L823.340 1019.962L826.026 1019.962L828.413 1019.962L831.099 1019.962L833.485 1019.962L836.171 1019.962L838.557 1019.962L841.243 1019.962L843.629 1019.962L846.315 1019.962L848.702 1019.962L851.370 1019.960L853.663 1019.958L856.384 1019.956L859.210 1019.953L862.559 1019.951L865.900 1019.953L868.788 1019.961L871.617 1019.975L874.016 1019.992L876.845 1020L879.694 1019.985L882.967 1019.941L886.256 1019.861L889.117 1019.768L891.887 1019.636L894.207 1019.489L897.036 1019.247L899.945 1018.905L903.221 1018.458L906.571 1017.885L909.927 1017.201L913.884 1016.211L917.794 1015.128L921.703 1013.899L924.673 1012.900L927.513 1011.801L929.999 1010.793L932.755 1009.569L935.207 1008.402L937.790 1007.063L940.198 1005.729L943.037 1004.034L946.099 1002.050L949.570 999.648L952.929 997.136L955.814 994.837L958.387 992.607L960.567 990.594L962.939 988.266L965.125 985.984L967.499 983.343L969.546 980.912L971.609 978.303L973.356 975.940L975.253 973.160L977.154 970.124L979.192 966.633L981.066 963.153L982.559 960.186L983.866 957.278L984.997 954.442L986.237 951.045L987.388 947.541L988.451 943.895L989.445 940.002L990.311 936.087L991.038 932.317L991.520 929.345L991.871 926.586L992.114 924.263L992.351 921.514L992.516 919.085L992.659 916.330L992.740 913.943L992.798 911.257L992.826 908.871L992.843 906.185L992.851 903.799L992.854 901.113L992.853 898.727L992.850 896.041L992.847 893.654L992.845 890.968L992.846 888.582L992.849 885.896L992.854 883.510L992.860 880.824L992.865 878.438L992.870 875.752L992.875 873.365L992.881 870.679L992.886 868.293L992.891 865.607L992.896 863.221L992.902 860.535L992.907 858.149L992.912 855.463L992.917 853.076L992.923 850.390L992.928 848.004L992.933 845.318L992.938 842.932L992.944 840.246L992.949 837.860L992.954 835.174L992.959 832.788L992.965 830.102L992.970 827.715L992.975 825.029L992.980 822.643L992.986 819.957L992.990 817.571L992.994 814.885L992.997 812.499L992.998 809.813L992.999 807.426L993 804.740L993 802.354L993 799.668L993.001 797.282L993.002 794.596L993.003 792.210L993.003 789.524L993.004 787.137L993.005 784.451L993.005 782.065L993.006 779.379L993.007 776.993L993.007 774.307L993.008 771.921L993.009 769.235L993.009 766.848L993.010 764.163L993.010 761.776L993.011 759.090L993.012 756.704L993.012 754.018L993.013 751.632L993.014 748.946L993.014 746.560L993.015 743.874L993.016 741.487L993.016 738.801L993.017 736.415L993.018 733.729L993.018 731.343L993.019 728.657L993.019 726.271L993.020 723.585L993.021 721.198L993.021 718.512L993.022 716.126L993.023 713.440L993.023 711.054L993.024 708.368L993.025 705.982L993.025 703.296L993.026 700.909L993.026 698.223L993.027 695.837L993.028 693.151L993.028 690.765L993.029 688.079L993.030 685.693L993.030 683.007L993.031 680.621L993.032 677.935L993.032 675.548L993.033 672.862L993.034 670.476L993.034 667.790L993.035 665.404L993.035 662.718L993.036 660.332L993.037 657.646L993.037 655.259L993.038 652.573L993.039 650.187L993.039 647.501L993.040 645.115L993.041 642.429L993.041 640.043L993.042 637.357L993.043 634.970L993.043 632.284L993.044 629.898L993.044 627.212L993.045 624.826L993.046 622.140L993.046 619.754L993.047 617.068L993.048 614.681L993.048 611.996L993.049 609.609L993.050 606.923L993.050 604.537L993.051 601.851L993.052 599.465L993.052 596.779L993.053 594.393L993.053 591.707L993.054 589.320L993.055 586.634L993.055 584.248L993.056 581.562L993.057 579.176L993.057 576.490L993.058 574.104L993.059 571.418L993.059 569.031L993.060 566.345L993.061 563.959L993.061 561.273L993.062 558.887L993.062 556.201L993.063 553.815L993.064 551.129L993.064 548.742L993.065 546.057L993.066 543.670L993.066 540.984L993.067 538.598L993.068 535.912L993.068 533.526L993.069 530.840L993.070 528.454L993.070 525.768L993.071 523.381L993.071 520.695L993.072 518.309L993.073 515.623L993.073 513.237L993.074 510.551L993.075 508.165L993.075 505.479L993.076 503.092L993.077 500.406L993.077 498.020L993.078 495.334L993.079 492.948L993.079 490.262L993.080 487.876L993.080 485.190L993.081 482.803L993.082 480.117L993.082 477.731L993.083 475.045L993.084 472.659L993.084 469.973L993.085 467.587L993.086 464.901L993.086 462.515L993.087 459.829L993.088 457.442L993.088 454.756L993.089 452.370L993.089 449.684L993.090 447.298L993.091 444.612L993.091 442.226L993.092 439.540L993.093 437.153L993.093 434.467L993.094 432.081L993.095 429.395L993.095 427.009L993.096 424.323L993.097 421.937L993.097 419.251L993.098 416.864L993.098 414.178L993.099 411.792L993.100 409.106L993.100 406.720L993.101 404.034L993.102 401.648L993.102 398.962L993.103 396.575L993.104 393.890L993.104 391.503L993.105 388.817L993.106 386.431L993.106 383.745L993.107 381.359L993.107 378.673L993.108 376.287L993.109 373.601L993.109 371.214L993.110 368.528L993.111 366.142L993.111 363.456L993.112 361.070L993.113 358.384L993.113 355.998L993.114 353.290L993.114 350.846L993.115 347.995L993.115 346.136L993.115 344.201" stroke="#000000" stroke-width="45" fill="none" stroke-linecap="round" stroke-linejoin="round"></path><path id="path-2-0" d="M30.871 314.561L30.873 311.761L30.875 308.738L30.878 304.950L30.881 301.973L30.884 299.208L30.887 296.822L30.890 294.136L30.892 291.749L30.895 289.063L30.898 286.677L30.901 283.991L30.904 281.605L30.907 278.919L30.909 276.533L30.913 273.847L30.915 271.460L30.918 268.774L30.921 266.388L30.924 263.702L30.927 261.316L30.930 258.630L30.932 256.244L30.935 253.558L30.938 251.171L30.941 248.485L30.944 246.099L30.947 243.413L30.949 241.027L30.952 238.341L30.955 235.955L30.958 233.269L30.961 230.883L30.964 228.197L30.967 225.810L30.970 223.124L30.972 220.738L30.975 218.052L30.978 215.666L30.986 212.948L30.998 210.598L31.041 207.902L31.106 205.630L31.248 202.885L31.422 200.559L31.719 197.771L32.044 195.450L32.516 192.709L32.996 190.421L33.645 187.701L34.458 184.935L35.689 181.233L37.088 177.483L38.723 173.551L40.326 170.187L42.459 166.271L45.025 162.064L47.928 157.623L50.715 153.750L53.034 150.803L55.292 148.209L57.379 145.995L59.756 143.609L61.965 141.529L64.368 139.403L66.605 137.553L69.289 135.497L72.319 133.376L76.188 130.887L80.062 128.567L83.772 126.516L86.609 125.082L89.466 123.804L92.310 122.670L95.570 121.455L98.816 120.364L101.710 119.460L104.623 118.683L107.567 118.034L111.245 117.357L115.050 116.778L118.828 116.308L121.900 116.012L124.887 115.801L127.733 115.642L130.897 115.481L134.023 115.353L136.821 115.263L139.584 115.223L141.970 115.217L144.656 115.223L147.043 115.232L149.729 115.242L152.115 115.251L154.804 115.263L157.142 115.275L159.848 115.290L162.193 115.301L164.973 115.312L167.320 115.317L170.041 115.324L172.388 115.330L175.090 115.339L177.476 115.349L180.162 115.359L182.548 115.368L185.234 115.378L187.621 115.387L190.307 115.398L192.693 115.407L194.606 115.414L195.953 115.419" stroke="#000000" stroke-width="45" fill="none" stroke-linecap="round" stroke-linejoin="round"></path><path id="path-3-0" d="M216.444 130.662L216.437 132.133L216.430 134.242L216.419 136.774L216.407 139.561L216.393 141.961L216.375 144.655L216.360 147.041L216.350 149.727L216.350 152.113L216.363 154.799L216.387 157.185L216.449 159.928L216.539 162.332L216.705 165.040L216.905 167.334L217.231 170.031L217.597 172.424L218.165 175.265L218.997 178.232L220.370 181.984L222.125 185.934L224.275 189.774L226.374 192.915L228.745 195.725L230.956 198.027L233.460 200.263L235.802 202.053L238.495 203.782L241.109 205.150L244.093 206.437L246.755 207.358L249.556 208.154L251.868 208.592L254.594 208.922L257.461 209.052L260.823 209.111L264.256 209.004L267.240 208.742L270.173 208.263L272.633 207.627L275.524 206.738L278.184 205.679L281.115 204.275L283.684 202.740L286.454 200.723L288.947 198.592L291.600 195.964L293.760 193.493L295.818 190.751L297.410 188.211L298.939 185.342L300.145 182.735L301.275 179.800L302.112 177.270L302.911 174.250L303.454 171.803L303.945 168.934L304.233 166.655L304.481 163.921L304.631 161.611L304.754 158.910L304.829 156.530L304.875 153.820L304.895 151.418L304.901 148.732L304.902 146.345L304.905 143.603L304.912 141.202L304.928 138.470L304.946 136.140L304.970 133.355L304.987 131.565L305.006 129.628" stroke="#000000" stroke-width="45" fill="none" stroke-linecap="round" stroke-linejoin="round"></path><path id="path-4-0" d="M325.688 115.414L327.034 115.414L328.948 115.414L331.334 115.414L334.020 115.415L336.406 115.415L339.092 115.415L341.478 115.415L344.164 115.415L346.551 115.415L349.237 115.415L351.623 115.415L354.309 115.415L356.695 115.415L359.381 115.415L361.767 115.415L364.453 115.415L366.839 115.415L369.525 115.415L371.912 115.415L374.598 115.415L376.984 115.416L379.670 115.416L382.056 115.416L384.742 115.416L387.128 115.416L389.814 115.416L392.201 115.416L394.887 115.416L397.273 115.416L399.959 115.416L402.345 115.416L405.031 115.416L407.417 115.416L410.103 115.416L412.490 115.416L415.176 115.416L417.562 115.416L420.248 115.416L422.634 115.417L425.320 115.417L427.706 115.417L430.392 115.417L432.779 115.417L435.464 115.417L437.851 115.417L440.537 115.417L442.923 115.417L445.609 115.417L447.995 115.417L450.681 115.417L453.067 115.417L455.753 115.417L458.140 115.417L460.826 115.417L463.212 115.417L465.898 115.418L468.284 115.418L470.970 115.418L473.356 115.418L476.042 115.418L478.429 115.418L481.115 115.418L483.501 115.418L486.187 115.418L488.573 115.418L491.259 115.418L493.645 115.418L496.331 115.418L498.718 115.418L501.404 115.418L503.790 115.418L506.476 115.418L508.862 115.418L511.548 115.419L513.934 115.419L516.620 115.419L519.006 115.419L521.692 115.419L524.079 115.419L526.765 115.419L529.151 115.419L531.837 115.419L534.223 115.419L536.909 115.419L539.295 115.419L541.981 115.419L544.368 115.419L547.054 115.419L549.440 115.419L552.126 115.419L554.512 115.419L557.198 115.420L559.584 115.420L562.270 115.420L564.657 115.420L567.343 115.420L569.729 115.420L572.415 115.420L574.801 115.420L577.487 115.420L579.873 115.420L582.559 115.420L584.946 115.420L587.631 115.420L590.018 115.420L592.704 115.420L595.090 115.420L597.776 115.420L600.162 115.421L602.848 115.421L605.234 115.421L607.920 115.421L610.307 115.421L612.993 115.421L615.379 115.421L618.065 115.421L620.451 115.421L623.137 115.421L625.523 115.421L628.209 115.421L630.596 115.421L633.282 115.421L635.668 115.421L638.354 115.421L640.740 115.421L643.426 115.421L645.812 115.422L648.498 115.422L650.885 115.422L653.571 115.422L655.957 115.422L658.643 115.422L661.029 115.422L663.715 115.422L666.101 115.422L668.787 115.422L671.173 115.422L673.859 115.422L676.246 115.422L678.932 115.422L681.318 115.422L684.004 115.422L686.390 115.422L689.076 115.422L691.462 115.423L694.148 115.423L695.861 115.423L697.585 115.423" stroke="#000000" stroke-width="45" fill="none" stroke-linecap="round" stroke-linejoin="round"></path><path id="path-5-0" d="M717.948 132.623L717.929 135.961L717.905 139.748L717.884 144.972L717.906 150.075L718.028 155.104L718.302 160.101L718.803 165.071L719.622 170.078L720.886 175.193L722.699 180.378L725.164 185.609L728.288 190.678L732.079 195.408L736.468 199.624L741.316 203.156L746.482 205.925L751.707 207.873L756.950 209.025L762.148 209.479L767.384 209.229L772.742 208.297L778.165 206.569L783.706 203.877L789.004 200.232L793.890 195.679L797.950 190.568L801.111 185.114L803.365 179.542L804.771 174.073L805.576 168.755L805.933 163.614L806.097 158.528L806.157 153.456L806.185 148.384L806.208 143.351L806.243 138.316L806.277 134.757L806.313 131.687" stroke="#000000" stroke-width="45" fill="none" stroke-linecap="round" stroke-linejoin="round"></path><path id="path-6-0" d="M827.839 115.396L829.185 115.395L831.099 115.394L833.485 115.393L836.171 115.391L838.557 115.390L841.243 115.389L843.629 115.387L846.315 115.386L848.719 115.385L851.433 115.384L853.824 115.384L856.625 115.383L859.464 115.381L862.773 115.379L866.027 115.377L868.911 115.375L871.677 115.373L874.063 115.372L876.749 115.371L879.135 115.369L881.821 115.368L884.207 115.367L886.928 115.367L889.285 115.368L891.995 115.385L894.280 115.412L896.983 115.476L899.309 115.558L902.056 115.713L904.440 115.897L907.239 116.195L910.153 116.617L913.889 117.285L917.779 118.110L921.592 119.036L924.574 119.874L927.277 120.729L929.546 121.541L932.190 122.536L934.681 123.577L937.452 124.808L939.914 126.010L942.474 127.355L944.842 128.693L947.542 130.337L950.158 132.034L953.043 134.037L955.566 135.911L958.236 138.056L960.619 140.119L963.310 142.622L965.713 145.009L968.231 147.687L970.315 150.064L972.529 152.797L974.742 155.827L977.317 159.653L979.794 163.644L982.022 167.563L983.849 171.201L985.591 175.187L987.297 179.670L988.923 184.645L990.275 189.650L991.274 194.175L991.956 198.067L992.367 201.049L992.641 203.831L992.803 206.217L992.911 208.903L992.953 211.289L992.971 213.975L992.975 216.361L992.979 219.047L992.983 221.434L992.988 224.120L992.992 226.506L992.996 229.192L993 231.578L993.004 234.264L993.008 236.650L993.013 239.336L993.016 241.723L993.021 244.408L993.025 246.795L993.029 249.481L993.033 251.867L993.037 254.553L993.041 256.939L993.046 259.625L993.050 262.011L993.054 264.697L993.058 267.084L993.062 269.770L993.066 272.156L993.071 274.842L993.075 277.228L993.079 279.914L993.083 282.300L993.087 284.986L993.091 287.373L993.096 290.059L993.100 292.445L993.104 295.131L993.108 297.517L993.112 300.203L993.116 302.589L993.120 305.297L993.123 307.720L993.126 310.558L993.127 312.386L993.129 314.335" stroke="#000000" stroke-width="45" fill="none" stroke-linecap="round" stroke-linejoin="round"></path><path id="path-7-0" d="M717.985 100.553L717.994 98.322L718.005 95.511L718.022 91.953L718.037 88.952L718.055 86.174L718.071 83.788L718.089 81.102L718.105 78.716L718.122 76.030L718.138 73.643L718.156 70.957L718.172 68.571L718.190 65.885L718.212 63.499L718.252 60.813L718.314 58.427L718.406 55.698L718.500 53.327L718.631 50.673L718.781 48.493L719.068 45.879L719.452 43.500L720.063 40.546L720.845 37.707L721.837 34.581L723.010 31.536L724.256 28.667L725.730 25.857L727.268 23.394L729.213 20.805L731.244 18.486L733.668 16.047L735.974 13.998L738.538 12.017L740.946 10.440L743.759 8.899L746.704 7.605L749.898 6.408L753.024 5.494L755.700 4.851L758.457 4.446L760.818 4.264L763.525 4.252L765.729 4.377L768.292 4.658L770.582 5.042L773.443 5.737L776.490 6.844L779.990 8.398L783.534 10.309L786.602 12.171L789.499 14.253L791.933 16.313L794.488 18.835L796.545 21.275L798.463 24.030L799.905 26.615L801.277 29.504L802.301 32.079L803.247 34.916L803.921 37.735L804.577 40.981L805.055 44.260L805.441 47.169L805.706 49.973L805.882 52.359L806.012 55.045L806.075 57.431L806.101 60.142L806.104 62.511L806.098 65.202L806.102 67.455L806.120 70.117L806.149 72.425L806.191 75.219L806.223 77.650L806.252 80.406L806.269 82.793L806.288 85.479L806.305 87.865L806.316 90.548L806.327 92.932L806.323 95.677L806.328 97.447L806.310 99.308" stroke="#000000" stroke-width="45" fill="none" stroke-linecap="round" stroke-linejoin="round"></path><path id="path-8-0" d="M216.837 98.590L216.839 94.986L216.842 91.144L216.847 85.826L216.852 80.754L216.857 75.682L216.863 70.610L216.868 65.537L216.883 60.521L216.940 55.514L217.130 50.520L217.518 45.657L218.131 41.306L218.887 37.556L219.938 34.019L221.491 30.012L223.915 25.467L227.155 20.769L231.124 16.465L235.502 12.755L240.032 9.756L244.658 7.449L249.143 5.853L253.438 4.788L257.256 4.220L260.291 4L263.189 4.103L265.920 4.437L269.131 5L272.350 5.813L275.365 6.778L278.308 8.001L280.903 9.308L283.617 10.948L285.986 12.661L288.412 14.709L290.554 16.738L292.837 19.243L295.014 22.087L297.230 25.444L299.112 28.782L300.558 31.723L301.664 34.619L302.572 37.614L303.399 40.987L304.066 44.327L304.478 47.203L304.702 49.973L304.785 52.359L304.844 55.086L304.886 57.477L304.936 60.310L304.973 63.126L305.010 66.419L305.037 69.663L305.066 72.554L305.096 75.334L305.126 77.720L305.160 80.406L305.186 82.793L305.206 85.479L305.209 87.865L305.200 90.561L305.184 92.858L305.162 95.585L305.148 97.231L305.131 99.212" stroke="#000000" stroke-width="45" fill="none" stroke-linecap="round" stroke-linejoin="round"></path><path id="path-connection-1" d="M50.616 329.776L30.906 329.773" stroke="#000000" stroke-width="45" fill="none" stroke-linecap="round" stroke-linejoin="round"></path><path id="path-connection-2" d="M30.937 344.609L30.906 329.773" stroke="#000000" stroke-width="45" fill="none" stroke-linecap="round" stroke-linejoin="round"></path><path id="path-connection-3" d="M30.871 314.561L30.906 329.773" stroke="#000000" stroke-width="45" fill="none" stroke-linecap="round" stroke-linejoin="round"></path><path id="path-connection-4" d="M973.176 329.885L993.126 329.887" stroke="#000000" stroke-width="45" fill="none" stroke-linecap="round" stroke-linejoin="round"></path><path id="path-connection-5" d="M993.115 344.201L993.126 329.887" stroke="#000000" stroke-width="45" fill="none" stroke-linecap="round" stroke-linejoin="round"></path><path id="path-connection-6" d="M993.129 314.335L993.126 329.887" stroke="#000000" stroke-width="45" fill="none" stroke-linecap="round" stroke-linejoin="round"></path><path id="path-connection-7" d="M216.837 98.590L216.643 115.499" stroke="#000000" stroke-width="45" fill="none" stroke-linecap="round" stroke-linejoin="round"></path><path id="path-connection-8" d="M195.953 115.419L216.643 115.499" stroke="#000000" stroke-width="45" fill="none" stroke-linecap="round" stroke-linejoin="round"></path><path id="path-connection-9" d="M216.444 130.662L216.643 115.499" stroke="#000000" stroke-width="45" fill="none" stroke-linecap="round" stroke-linejoin="round"></path><path id="path-connection-10" d="M305.131 99.212L305.086 115.414" stroke="#000000" stroke-width="45" fill="none" stroke-linecap="round" stroke-linejoin="round"></path><path id="path-connection-11" d="M305.006 129.628L305.086 115.414" stroke="#000000" stroke-width="45" fill="none" stroke-linecap="round" stroke-linejoin="round"></path><path id="path-connection-12" d="M325.688 115.414L305.086 115.414" stroke="#000000" stroke-width="45" fill="none" stroke-linecap="round" stroke-linejoin="round"></path><path id="path-connection-13" d="M697.585 115.423L717.969 115.423" stroke="#000000" stroke-width="45" fill="none" stroke-linecap="round" stroke-linejoin="round"></path><path id="path-connection-14" d="M717.948 132.623L717.969 115.423" stroke="#000000" stroke-width="45" fill="none" stroke-linecap="round" stroke-linejoin="round"></path><path id="path-connection-15" d="M717.985 100.553L717.969 115.423" stroke="#000000" stroke-width="45" fill="none" stroke-linecap="round" stroke-linejoin="round"></path><path id="path-connection-16" d="M806.313 131.687L806.365 115.407" stroke="#000000" stroke-width="45" fill="none" stroke-linecap="round" stroke-linejoin="round"></path><path id="path-connection-17" d="M827.839 115.396L806.365 115.407" stroke="#000000" stroke-width="45" fill="none" stroke-linecap="round" stroke-linejoin="round"></path><path id="path-connection-18" d="M806.310 99.308L806.365 115.407" stroke="#000000" stroke-width="45" fill="none" stroke-linecap="round" stroke-linejoin="round"></path></g><g id="skeleton-paths" stroke-width="45.0"><path id="path-0-0" d="M512.067 642.307L512.067 640.961L512.068 639.047L512.070 636.661L512.071 633.975L512.072 631.589L512.074 628.903L512.075 626.517L512.077 623.831L512.078 621.444L512.079 618.759L512.081 616.372L512.082 613.686L512.084 611.300L512.085 608.614L512.086 606.228L512.088 603.542L512.089 601.156L512.091 598.470L512.092 596.083L512.093 593.397L512.095 591.011L512.096 588.325L512.097 585.939L512.099 583.253L512.100 580.867L512.102 578.181L512.103 575.794L512.105 573.108L512.106 570.722L512.107 568.036L512.109 565.650L512.110 562.964L512.111 560.578L512.113 557.892L512.114 555.505L512.116 552.819L512.117 550.433L512.118 547.747L512.120 545.361L512.121 542.675L512.123 540.289L512.124 537.603L512.125 535.217L512.127 532.531L512.128 530.144L512.130 527.458L512.131 525.072L512.132 522.386L512.134 520L512.135 517.314L512.136 514.928L512.138 512.242L512.139 509.855L512.141 507.169L512.142 504.783L512.143 502.097L512.145 499.711L512.137 497.025L512.127 494.639L512.109 492.725L512.103 491.379" stroke="#000000" stroke-width="45" fill="none" stroke-linecap="round" stroke-linejoin="round"></path><path id="path-1-0" d="M342.888 663.250L345.958 663.237L349.584 663.230L354.657 663.222L359.729 663.221L364.801 663.219L369.873 663.218L374.945 663.217L380.018 663.216L385.090 663.215L390.162 663.214L395.234 663.213L400.307 663.211L405.379 663.210L410.451 663.209L415.523 663.208L420.596 663.207L425.668 663.206L430.740 663.205L435.812 663.203L440.884 663.202L445.957 663.201L451.029 663.200L456.101 663.199L461.173 663.198L466.246 663.197L471.318 663.195L476.390 663.194L481.462 663.193L485.089 663.192L488.158 663.192" stroke="#000000" stroke-width="45" fill="none" stroke-linecap="round" stroke-linejoin="round"></path><path id="path-2-0" d="M512.133 684.643L512.133 686.366L512.134 688.079L512.134 690.765L512.134 693.151L512.135 695.837L512.135 698.223L512.136 700.909L512.136 703.296L512.137 705.982L512.137 708.368L512.137 711.054L512.138 713.440L512.138 716.126L512.139 718.512L512.139 721.198L512.140 723.585L512.140 726.271L512.140 728.657L512.141 731.343L512.141 733.729L512.142 736.415L512.142 738.801L512.143 741.487L512.143 743.874L512.143 746.563L512.144 748.898L512.145 751.593L512.145 753.953L512.146 756.743L512.146 759.126L512.146 761.831L512.146 764.171L512.147 766.848L512.147 769.235L512.148 771.921L512.148 774.307L512.149 776.993L512.149 779.379L512.149 782.065L512.150 784.451L512.150 787.137L512.151 789.524L512.151 792.210L512.151 794.596L512.152 797.282L512.152 799.668L512.153 802.354L512.153 804.740L512.154 807.426L512.154 809.813L512.154 812.499L512.155 814.885L512.155 817.571L512.156 819.957L512.156 822.643L512.157 825.029L512.157 827.715L512.165 830.102L512.173 832.015L512.189 833.362" stroke="#000000" stroke-width="45" fill="none" stroke-linecap="round" stroke-linejoin="round"></path><path id="path-3-0" d="M533.649 663.215L534.996 663.215L536.909 663.215L539.295 663.215L541.981 663.215L544.368 663.215L547.054 663.215L549.440 663.214L552.126 663.214L554.512 663.214L557.198 663.214L559.584 663.214L562.270 663.214L564.657 663.214L567.343 663.213L569.729 663.213L572.415 663.213L574.801 663.213L577.487 663.213L579.873 663.213L582.559 663.213L584.946 663.213L587.631 663.212L590.018 663.212L592.704 663.212L595.090 663.212L597.815 663.212L600.209 663.212L603.045 663.212L605.871 663.212L609.164 663.212L612.404 663.211L615.288 663.211L618.065 663.211L620.451 663.211L623.137 663.211L625.523 663.210L628.209 663.210L630.596 663.210L633.282 663.210L635.668 663.210L638.354 663.210L640.740 663.210L643.426 663.209L645.812 663.209L648.498 663.209L650.885 663.209L653.571 663.209L655.957 663.209L658.643 663.209L661.029 663.209L663.715 663.208L666.101 663.208L668.787 663.208L671.173 663.208L673.859 663.209L676.246 663.211L678.159 663.214L679.506 663.218" stroke="#000000" stroke-width="45" fill="none" stroke-linecap="round" stroke-linejoin="round"></path><path id="path-connection-1" d="M512.067 642.307L512.092 663.201" stroke="#000000" stroke-width="45" fill="none" stroke-linecap="round" stroke-linejoin="round"></path><path id="path-connection-2" d="M488.158 663.192L512.092 663.201" stroke="#000000" stroke-width="45" fill="none" stroke-linecap="round" stroke-linejoin="round"></path><path id="path-connection-3" d="M512.133 684.643L512.092 663.201" stroke="#000000" stroke-width="45" fill="none" stroke-linecap="round" stroke-linejoin="round"></path><path id="path-connection-4" d="M533.649 663.215L512.092 663.201" stroke="#000000" stroke-width="45" fill="none" stroke-linecap="round" stroke-linejoin="round"></path></g></svg>