<svg xmlns="http://www.w3.org/2000/svg" viewBox="67.18299865722656 4 889.634033203125 1016" width="1024" height="1024" class="colorable-icon" overflow="visible"><g id="skeleton-paths" stroke-width="45.0"><path id="path-0-0" d="M558.665 906.307L560.272 907.014L561.930 907.685L564.453 908.656L566.641 909.402L569.038 910.079L571.043 910.522L573.334 910.883L575.229 911.090L577.432 911.216L579.291 911.229L581.595 911.169L583.931 911.081L586.733 910.985L589.451 910.897L591.866 910.811L594.147 910.722L596.120 910.640L598.358 910.544L600.303 910.458L602.644 910.353L604.991 910.252L607.781 910.139L610.463 910.036L612.854 909.941L615.123 909.850L617.096 909.768L619.318 909.675L621.291 909.593L623.513 909.501L625.487 909.419L627.708 909.326L629.682 909.244L631.903 909.152L633.877 909.070L636.098 908.981L638.373 908.900L641.024 908.809L644.030 908.708L646.192 908.629L648.249 908.555" stroke="black" stroke-width="45" fill="none" stroke-linecap="round" stroke-linejoin="round"></path><path id="path-1-0" d="M657.437 918.237L657.522 920.255L657.611 922.671L657.717 925.847L657.764 929.128L657.781 931.701L657.747 934.163" stroke="black" stroke-width="45" fill="none" stroke-linecap="round" stroke-linejoin="round"></path><path id="path-2-0" d="M593.842 953.848L595.643 953.509L597.846 953.099L600.672 952.599L603.033 952.198L605.343 951.828L607.658 951.464L610.355 951.037L613.167 950.604L615.928 950.178L618.781 949.749L621.509 949.329L623.967 948.958L626.352 948.587L628.818 948.200L631.877 947.690L635.091 947.147L638.363 946.577L641.591 946.008L644.025 945.571L646.346 945.146" stroke="black" stroke-width="45" fill="none" stroke-linecap="round" stroke-linejoin="round"></path><path id="path-3-0" d="M476.874 908.899L475.721 910.021L474.123 911.626L472.193 913.642L470.188 915.845L468.544 917.783L466.890 919.865L465.482 921.792L464.028 923.950L462.767 925.977L461.455 928.306L460.290 930.632L459.071 933.300L458.053 935.777L457.156 938.072L456.444 940.155L455.832 942.101L455.254 944.294L454.803 946.252L454.380 948.522L454.091 950.425L453.815 952.683L453.640 954.566L453.511 956.858L453.512 959.232L453.605 961.949L453.848 964.808L454.192 967.373L454.670 969.984L455.288 972.468L456.087 975.265L457.083 978.149L458.236 981.029L459.391 983.532L460.643 985.896L461.853 987.968L463.309 990.270L464.767 992.421L466.479 994.775L468.082 996.819L469.918 998.975L471.691 1000.882L473.764 1002.945L475.704 1004.691L477.824 1006.411L479.784 1007.822L482.038 1009.236L484.130 1010.444L486.434 1011.611L488.387 1012.616L490.666 1013.654L493.131 1014.728L496.389 1015.933L500.064 1017.108L503.670 1018.101L506.867 1018.812L509.270 1019.255L511.598 1019.569L513.578 1019.779L515.837 1019.938L517.811 1020L520.115 1019.966L522.472 1019.802L525.175 1019.517L527.858 1019.112L530.271 1018.665L532.558 1018.126L534.594 1017.569L536.886 1016.851L538.946 1016.154L541.247 1015.287L543.192 1014.487L545.504 1013.438L547.602 1012.392L549.971 1011.092L552.049 1009.825L554.377 1008.229L556.781 1006.372L559.497 1004.109L562.113 1001.736L564.338 999.594L566.340 997.460L568.043 995.485L569.873 993.205L571.443 991.106L573.025 988.840L574.348 986.776L575.703 984.490L576.831 982.446L577.990 980.143L579.024 977.830L580.137 975.066L581.136 972.217L581.998 969.536L582.761 966.871L583.431 964.522L583.945 962.650L584.327 961.353" stroke="black" stroke-width="45" fill="none" stroke-linecap="round" stroke-linejoin="round"></path><path id="path-4-0" d="M506.396 894.034L508.929 893.691L511.949 893.413L516.135 893.165L520.332 893.203L523.319 893.334L525.858 893.553" stroke="black" stroke-width="45" fill="none" stroke-linecap="round" stroke-linejoin="round"></path><path id="path-5-0" d="M672.272 643.947L674.617 644.777L677.445 645.772L681.104 647.052L684.436 648.208L687.165 649.150L689.048 649.799L690.404 650.267" stroke="black" stroke-width="45" fill="none" stroke-linecap="round" stroke-linejoin="round"></path><path id="path-6-0" d="M556.070 876.659L558.440 874.115L561.219 871.134L565.057 867.021L568.884 862.910L572.696 858.781L576.468 854.650L580.302 850.412L584.111 846.181L587.945 841.908L591.696 837.712L595.428 833.518L599.144 829.305L602.816 825.068L606.440 820.783L610.013 816.438L613.462 812.141L616.834 807.846L620.024 803.699L623.126 799.594L626.184 795.472L629.241 791.285L632.343 786.962L635.353 782.697L638.295 778.457L641.141 774.288L643.952 770.092L646.676 765.927L649.308 761.782L651.823 757.693L654.324 753.533L656.830 749.292L659.369 744.953L661.863 740.652L664.309 736.400L666.691 732.226L669.096 727.986L671.478 723.749L673.848 719.472L676.095 715.309L678.296 711.100L680.396 706.967L682.516 702.724L684.573 698.570L686.676 694.317L688.730 690.161L690.832 685.907L692.895 681.746L694.404 678.702L695.650 676.207" stroke="black" stroke-width="45" fill="none" stroke-linecap="round" stroke-linejoin="round"></path><path id="path-7-0" d="M330.504 679.181L331.419 681.096L332.459 683.223L333.850 686.065L335.239 688.867L336.598 691.602L337.776 693.967L338.953 696.319L340.084 698.565L341.421 701.198L342.770 703.820L344.035 706.248L345.323 708.683L346.636 711.150L348.099 713.878L349.592 716.651L351.138 719.508L352.926 722.803L354.929 726.478L356.958 730.179L358.805 733.519L360.416 736.401L361.949 739.127L363.441 741.757L364.791 744.120L366.178 746.508L367.667 749.027L369.577 752.210L371.775 755.809L373.992 759.387L375.977 762.525L377.546 764.951L379.012 767.157L380.343 769.122L381.907 771.401L383.669 773.959L385.935 777.225L388.539 780.959L391.354 784.963L393.965 788.649L396.260 791.868L398.051 794.361L399.789 796.766L401.617 799.272L403.918 802.417L406.296 805.657L408.659 808.859L410.598 811.471L412.463 813.943L414.043 816.020L415.704 818.191L417.175 820.110L418.873 822.313L420.760 824.668L422.954 827.328L425.292 830.026L427.407 832.409L429.487 834.705L431.243 836.628L433.154 838.710L434.905 840.604L436.937 842.796L438.817 844.827L440.943 847.124L442.841 849.173L444.983 851.481L446.893 853.530L448.972 855.753L450.763 857.657L452.706 859.709L454.485 861.577L456.551 863.736L458.468 865.730L460.642 867.978L462.588 869.979L464.786 872.224L466.745 874.212L468.959 876.441L470.933 878.414L473.164 880.627L474.590 882.034L476.029 883.446" stroke="black" stroke-width="45" fill="none" stroke-linecap="round" stroke-linejoin="round"></path><path id="path-8-0" d="M338.655 648.477L340.518 647.818L342.396 647.152L345.647 646L348.034 645.155L350.329 644.342" stroke="black" stroke-width="45" fill="none" stroke-linecap="round" stroke-linejoin="round"></path><path id="path-9-0" d="M375.190 651.097L375.675 652.848L376.132 654.528L376.891 657.042L377.548 659.092L378.371 661.416L379.136 663.445L380.035 665.726L380.898 667.808L381.875 670.067L382.819 672.123L383.897 674.312L384.921 676.256L386.144 678.456L387.299 680.403L388.741 682.729L390.049 684.706L391.575 686.933L392.914 688.770L394.596 691.006L396.215 693.060L398.105 695.391L399.782 697.373L401.648 699.496L403.399 701.411L405.395 703.522L407.215 705.376L409.246 707.347L411.157 709.110L413.348 711.040L415.347 712.722L417.479 714.436L419.393 715.902L421.576 717.493L423.697 718.962L426.188 720.606L428.709 722.176L431.431 723.816L434.034 725.309L436.317 726.575L438.492 727.719L440.490 728.728L442.829 729.866L445.417 731.071L448.562 732.463L451.802 733.831L455.052 735.127L458.116 736.264L461.434 737.405L464.670 738.455L467.854 739.430L470.711 740.230L473.976 741.055L477.640 741.887L481.329 742.667L484.700 743.302L487.520 743.767L490.304 744.173L493.017 744.510L495.420 744.779L497.863 744.991L500.192 745.154L502.904 745.314L505.613 745.429L508.014 745.497L510.456 745.505L512.788 745.467L515.503 745.388L518.169 745.263L520.501 745.121L522.880 744.911L525.228 744.649L527.985 744.304L530.822 743.898L533.735 743.427L537.050 742.818L540.235 742.180L543.447 741.484L546.213 740.825L549.005 740.111L551.758 739.350L554.528 738.529L557.415 737.613L560.358 736.628L563.403 735.565L566.718 734.340L569.936 733.098L573.057 731.836L575.476 730.811L577.846 729.754L579.944 728.781L582.358 727.620L584.815 726.371L587.397 725.016L590.129 723.509L592.780 721.975L595.747 720.167L598.590 718.346L601.159 716.634L603.429 715.032L605.378 713.581L607.559 711.876L609.619 710.194L611.969 708.179L614.067 706.296L616.363 704.126L618.352 702.140L620.564 699.817L622.391 697.810L624.373 695.537L625.928 693.666L627.737 691.397L629.240 689.413L630.895 687.142L632.271 685.139L633.731 682.901L635.021 680.808L636.344 678.548L637.479 676.495L638.628 674.288L639.602 672.315L640.608 670.149L641.441 668.251L642.402 665.918L643.218 663.860L644.127 661.471L644.836 659.500L645.643 657.099L646.339 654.858L646.918 652.983L647.326 651.606" stroke="black" stroke-width="45" fill="none" stroke-linecap="round" stroke-linejoin="round"></path><path id="path-10-0" d="M400.001 583.279L401.452 584.323L402.938 585.303L405.276 586.782L407.793 588.280L410.858 590.100L414.066 591.985L417.184 593.794L419.679 595.211L422.101 596.553L424.414 597.819L427.160 599.286L429.821 600.677L432.241 601.871L434.562 602.949L436.983 603.984L439.727 605.117L442.562 606.236L445.004 607.159L447.408 608.045L449.777 608.862L452.895 609.906L456.558 611.038L460.598 612.216L464.351 613.228L467.619 614.050L470.138 614.644L472.566 615.182L475.010 615.674L478.128 616.261L481.368 616.816L484.611 617.330L487.521 617.732L490.303 618.078L493.002 618.375L495.356 618.617L497.658 618.821L499.632 618.967L501.853 619.103L503.827 619.203L506.048 619.295L508.022 619.354L510.244 619.393L512.217 619.404L514.439 619.397L516.412 619.366L518.634 619.308L520.608 619.230L522.832 619.120L524.751 619.002L527.049 618.834L529.379 618.624L532.187 618.345L534.922 618.034L537.316 617.745L539.671 617.413L542.011 617.041L544.821 616.564L547.716 616.021L550.631 615.436L553.399 614.822L556.141 614.179L558.809 613.509L561.666 612.764L564.397 612.011L566.890 611.306L569.173 610.612L571.205 609.959L573.376 609.223L575.390 608.514L577.691 607.672L580.149 606.724L582.957 605.602L585.850 604.384L588.744 603.105L591.527 601.814L594.202 600.512L596.455 599.369L598.729 598.160L600.770 597.041L603.085 595.757L605.177 594.571L607.498 593.233L609.973 591.775L612.711 590.171L615.569 588.474L617.980 587.031L619.760 585.933L620.923 585.203" stroke="black" stroke-width="45" fill="none" stroke-linecap="round" stroke-linejoin="round"></path><path id="path-11-0" d="M651.676 627.686L651.775 624.912L651.854 621.714L651.905 617.355L651.884 613.099L651.827 608.874L651.775 604.602L651.741 601.513L651.722 598.873" stroke="black" stroke-width="45" fill="none" stroke-linecap="round" stroke-linejoin="round"></path><path id="path-12-0" d="M372.043 624.833L372.044 623.276L372.044 621.629L372.045 619.219L372.046 617.083L372.047 614.815L372.048 612.813L372.050 610.592L372.051 608.618L372.053 606.397L372.054 604.423L372.056 602.181L372.058 599.786L372.060 597.814L372.063 595.825" stroke="black" stroke-width="45" fill="none" stroke-linecap="round" stroke-linejoin="round"></path><path id="path-13-0" d="M308.257 285.011L309.409 286.439L310.694 287.886L312.708 290.039L314.583 291.853L316.713 293.717L318.763 295.316L321.221 297.041L323.835 298.617L326.976 300.276L330.201 301.654L333.359 302.779L335.931 303.451L338.263 303.940L340.244 304.231L342.436 304.485L344.411 304.609L346.632 304.662L348.616 304.638L350.844 304.521L352.878 304.351L355.280 303.988L357.891 303.386L361.182 302.346L364.874 300.961L368.893 299.321L372.971 297.617L376.984 295.943L380.656 294.429L383.981 293.067L387.018 291.834L390.258 290.531L393.508 289.232L396.621 287.998L399.140 287.004L401.385 286.133L403.364 285.368L405.480 284.553L407.471 283.788L409.746 282.926L412.285 282.002L415.533 280.860L419.276 279.598L423.397 278.257L427.589 276.950L431.676 275.729L435.258 274.694L438.451 273.814L441.203 273.095L444.072 272.382L446.877 271.719L449.404 271.144L451.855 270.617L454.188 270.145L456.841 269.628L459.573 269.127L462.409 268.637L465.216 268.179L468.069 267.744L470.775 267.357L473.556 266.985L476.257 266.650L478.657 266.365L481.103 266.099L483.429 265.871L486.135 265.623L488.791 265.404L491.168 265.219L493.518 265.055L495.524 264.927L497.795 264.794L499.722 264.698L502.017 264.604L504.380 264.536L507.092 264.475L509.789 264.438L512.140 264.423L514.469 264.433L516.441 264.459L518.773 264.507L521.101 264.577L523.825 264.676L526.519 264.800L528.916 264.923L531.265 265.064L533.257 265.193L535.619 265.360L537.945 265.561L540.654 265.817L543.371 266.113L545.776 266.384L548.103 266.671L550.003 266.919L552.183 267.223L554.136 267.515L556.403 267.869L558.393 268.197L560.703 268.587L563.108 269.025L566.207 269.616L569.421 270.265L572.613 270.935L575.137 271.487L577.575 272.046L579.995 272.630L583.083 273.400L586.259 274.219L589.411 275.057L591.901 275.740L594.303 276.425L596.688 277.133L599.760 278.072L602.978 279.088L606.162 280.118L608.726 280.987L611.002 281.793L612.991 282.533L615.251 283.396L617.746 284.370L620.543 285.476L623.400 286.615L625.746 287.556L628.063 288.496L630.234 289.391L632.852 290.485L635.621 291.640L638.563 292.863L641.798 294.202L645.032 295.549L648.257 296.922L651.261 298.232L654.541 299.680L658.194 301.189L662.152 302.625L665.845 303.699L669.064 304.358L671.545 304.669L673.855 304.789L675.828 304.803L678.053 304.719L679.973 304.563L682.273 304.242L684.651 303.759L687.599 303.038L690.627 302.102L693.373 301.119L695.958 299.962L697.976 298.918L700.234 297.613L702.157 296.389L704.439 294.829L706.419 293.325L708.503 291.585L710.304 289.929L711.679 288.626L712.702 287.611" stroke="black" stroke-width="45" fill="none" stroke-linecap="round" stroke-linejoin="round"></path><path id="path-14-0" d="M656.669 553.497L657.724 552.252L658.819 550.950L660.520 548.900L662.123 546.904L663.893 544.623L665.446 542.538L667.081 540.222L668.531 538.052L670.113 535.585L671.507 533.367L673 530.965L674.461 528.588L676.049 525.969L677.616 523.353L679.014 521L680.417 518.611L681.813 516.206L683.349 513.535L684.902 510.791L686.410 508.059L687.892 505.297L689.336 502.515L690.742 499.734L692.126 496.925L693.481 494.101L694.802 491.279L696.102 488.428L697.372 485.555L698.637 482.597L700.010 479.252L701.469 475.551L702.975 471.580L704.323 467.882L705.473 464.579L706.377 461.863L707.257 459.224L708.125 456.829L709.363 454.241L710.837 451.974L712.924 449.722L715.143 447.961L717.836 446.254L720.226 444.961L722.756 443.602L724.778 442.468L727.105 441.043L729.231 439.639L731.666 437.955L733.762 436.415L736 434.664L738.021 432.975L740.370 430.878L742.717 428.602L745.244 426.004L747.680 423.266L749.988 420.427L752.179 417.468L754.127 414.594L755.688 412.134L756.992 409.895L758.052 407.908L759.209 405.576L760.394 402.948L761.752 399.657L763.149 395.889L764.514 391.749L765.713 387.597L766.679 383.819L767.414 380.565L767.928 378.038L768.329 375.683L768.629 373.684L768.902 371.390L769.104 369.433L769.288 367.148L769.411 365.248L769.516 363.031L769.586 361.108L769.659 358.882L769.721 356.909L769.788 354.639L769.846 352.650L769.894 350.341L769.910 348.408L769.909 346.152L769.881 344.260L769.847 342.044L769.767 340.106L769.626 337.838L769.419 335.841L769.087 333.476L768.604 331.123L767.910 328.310L766.997 325.468L765.981 322.837L764.746 320.399L763.445 318.350L761.832 316.269L760.173 314.470L758.146 312.568L756.098 310.864L753.508 308.859L750.953 306.806L748.266 304.396L746.322 301.918L745.155 300.135L744.576 298.531" stroke="black" stroke-width="45" fill="none" stroke-linecap="round" stroke-linejoin="round"></path><path id="path-15-0" d="M279.590 296.292L278.603 298.897L277.193 301.629L274.885 304.757L272.611 307.065L270.090 309.073L267.938 310.864L265.663 312.863L263.810 314.656L261.997 316.651L260.553 318.568L259.181 320.790L258.091 322.936L257.132 325.208L256.418 327.198L255.812 329.256L255.300 331.117L254.820 333.265L254.464 335.199L254.185 337.453L254.036 339.369L253.927 341.580L253.891 343.504L253.881 345.721L253.897 347.695L253.923 349.960L253.958 352.347L254.004 355.022L254.079 357.812L254.171 360.163L254.297 362.510L254.413 364.459L254.547 366.697L254.676 368.671L254.863 370.935L255.133 373.304L255.482 375.953L255.911 378.679L256.306 381.010L256.743 383.282L257.151 385.223L257.669 387.453L258.315 389.890L259.188 392.938L260.203 396.129L261.269 399.212L262.230 401.686L263.239 404.015L264.445 406.480L266.101 409.555L268.018 412.829L270.024 415.996L271.756 418.512L273.489 420.816L275.111 422.824L277.064 425.107L278.929 427.159L281.021 429.325L282.882 431.139L284.972 433.042L286.952 434.723L289.230 436.530L291.320 438.076L293.670 439.671L295.902 441.046L298.475 442.498L300.829 443.725L303.449 445.061L305.852 446.348L308.595 448.291L310.924 450.652L313.096 453.704L314.538 456.723L315.614 459.544L316.416 462.177L317.131 464.484L317.881 466.803L318.568 468.846L319.336 471.050L320.068 473.086L320.854 475.221L321.543 477.062L322.333 479.145L323.100 481.106L324.048 483.475L325.042 485.850L326.220 488.597L327.471 491.391L328.786 494.236L330.127 497.030L331.474 499.756L332.704 502.194L333.907 504.538L334.971 506.576L336.147 508.788L337.475 511.225L339.204 514.318L341.302 517.983L343.483 521.695L345.582 525.155L347.512 528.194L349.613 531.365L351.775 534.522L354.017 537.682L355.938 540.291L357.828 542.734L359.459 544.764L361.313 546.997L362.538 548.441L363.857 549.977" stroke="black" stroke-width="45" fill="none" stroke-linecap="round" stroke-linejoin="round"></path><path id="path-16-0" d="M310.866 231.167L312.372 230.329L314.329 229.159L316.985 227.599L319.400 226.152L321.745 224.781L323.820 223.563L326.130 222.205L328.485 220.818L331.119 219.279L333.775 217.752L336.186 216.383L338.602 215.031L341.002 213.703L343.675 212.249L346.435 210.778L349.201 209.341L351.994 207.923L354.802 206.533L357.608 205.180L360.443 203.848L363.289 202.552L366.175 201.279L369.005 200.069L371.749 198.935L374.072 198.002L376.356 197.109L378.354 196.349L380.518 195.536L382.507 194.811L384.640 194.050L386.654 193.348L388.820 192.607L390.843 191.933L393.020 191.223L395.052 190.576L397.288 189.881L399.332 189.266L401.637 188.590L404.041 187.909L407.062 187.073L410.203 186.230L413.363 185.408L416.338 184.667L419.644 183.882L423.294 183.054L426.864 182.274L430.107 181.600L432.906 181.049L435.692 180.522L438.480 180.019L441.248 179.541L444.079 179.076L446.851 178.644L449.282 178.277L451.726 177.929L454.053 177.617L456.722 177.273L459.454 176.942L462.202 176.627L465.045 176.318L467.775 176.041L470.188 175.805L472.487 175.600L474.461 175.436L476.733 175.261L478.816 175.112L481.328 174.944L483.581 174.802L486.148 174.646L488.250 174.525L490.608 174.395L492.597 174.295L494.861 174.190L496.835 174.110L499.056 174.028L501.030 173.963L503.252 173.902L505.225 173.860L507.447 173.825L509.420 173.804L511.642 173.790L513.616 173.785L515.837 173.789L517.811 173.800L520.032 173.823L522.006 173.852L524.227 173.894L526.201 173.940L528.423 174.002L530.396 174.066L532.618 174.149L534.591 174.231L536.862 174.340L538.853 174.448L541.099 174.582L543.002 174.705L545.198 174.854L547.107 174.991L549.369 175.163L551.321 175.321L553.634 175.524L555.582 175.706L557.834 175.929L559.736 176.128L561.930 176.366L563.841 176.583L566.138 176.861L568.146 177.117L570.538 177.441L572.848 177.772L575.563 178.179L578.253 178.602L580.620 178.993L582.927 179.402L584.846 179.763L587.220 180.224L589.546 180.703L592.290 181.281L594.999 181.876L597.425 182.420L599.848 182.981L602.270 183.563L605.470 184.344L609.103 185.260L612.726 186.191L615.968 187.061L618.378 187.723L620.819 188.411L623.212 189.103L626.410 190.052L629.980 191.164L633.642 192.348L636.942 193.464L639.465 194.357L641.765 195.184L643.669 195.897L645.964 196.762L648.471 197.757L651.696 199.078L655.251 200.598L658.789 202.153L662.039 203.637L664.922 205.006L667.732 206.385L670.530 207.796L673.304 209.218L676.081 210.668L678.777 212.096L681.201 213.394L683.640 214.708L686.202 216.103L689.316 217.821L692.559 219.633L695.717 221.419L698.633 223.084L701.491 224.724L704.351 226.385L706.883 227.867L709.269 229.297L710.749 230.191L712.151 231.047" stroke="black" stroke-width="45" fill="none" stroke-linecap="round" stroke-linejoin="round"></path><path id="path-17-0" d="M283.237 221.332L283.324 219.685L283.418 218.098L283.591 215.666L283.770 213.354L283.985 210.881L284.193 208.271L284.397 206.003L284.621 203.714L284.826 201.929L285.082 199.816L285.327 197.889L285.651 195.551L285.955 193.495L286.325 191.202L286.749 188.821L287.339 185.734L288.004 182.479L288.696 179.246L289.368 176.356L290.167 173.156L291.154 169.497L292.338 165.369L293.640 161.142L295.024 156.942L296.488 152.769L298.023 148.639L299.587 144.636L301.053 141.025L302.379 137.845L303.437 135.367L304.488 132.960L305.530 130.659L306.738 128.037L308 125.431L309.204 123.060L310.549 120.635L311.743 118.578L313.099 116.390L314.182 114.685L315.548 112.631L316.752 110.788L318.347 108.380L319.944 105.968L321.893 103.086L323.835 100.274L325.596 97.780L327.242 95.513L328.688 93.579L330.349 91.408L331.863 89.469L333.615 87.279L335.109 85.451L336.978 83.223L338.678 81.248L340.758 78.890L342.620 76.839L344.766 74.542L346.702 72.530L348.910 70.296L350.899 68.337L353.161 66.156L355.194 64.242L357.508 62.112L359.588 60.245L361.963 58.160L364.036 56.380L366.338 54.440L368.617 52.601L371.490 50.356L374.544 48.062L377.668 45.770L380.602 43.709L383.812 41.549L387.417 39.239L390.995 37.016L394.192 35.130L396.592 33.773L398.844 32.571L400.816 31.542L403.011 30.428L405.065 29.409L407.427 28.271L409.959 27.094L413.045 25.693L416.229 24.286L419.452 22.898L422.465 21.647L425.755 20.342L429.401 18.960L433.443 17.500L437.496 16.120L441.129 14.946L444.286 13.988L446.700 13.285L449.127 12.619L451.475 11.999L454.142 11.316L456.825 10.663L459.185 10.108L461.568 9.581L463.464 9.180L465.681 8.732L467.579 8.367L469.894 7.939L471.811 7.604L474.056 7.231L475.963 6.935L478.292 6.591L480.218 6.321L482.418 6.027L484.224 5.799L486.298 5.549L487.994 5.356L489.892 5.155L491.932 4.962L494.716 4.729L498.185 4.484L502.160 4.260L506.336 4.095L510.531 4.008L514.726 4L518.922 4.069L523.091 4.213L527.264 4.434L531.428 4.729L535.621 5.099L539.815 5.543L543.988 6.055L548.185 6.641L552.378 7.298L556.577 8.025L560.713 8.815L564.800 9.668L568.908 10.605L573.087 11.640L577.327 12.774L581.582 13.995L585.811 15.291L590.016 16.660L594.197 18.099L598.357 19.604L602.466 21.171L606.585 22.830L610.758 24.608L615.037 26.519L619.293 28.514L623.549 30.626L627.707 32.819L631.982 35.200L636.154 37.655L640.365 40.276L644.553 43.070L648.782 46.070L653.113 49.336L657.316 52.690L661.549 56.262L665.646 59.922L669.815 63.843L673.857 67.847L677.822 71.978L681.526 76.039L685.143 80.234L688.545 84.404L691.870 88.698L694.974 92.880L697.982 97.056L700.884 101.176L703.751 105.325L706.583 109.497L709.370 113.701L712.042 117.882L714.574 122.082L716.879 126.210L719.057 130.432L721.059 134.621L722.973 138.897L724.727 143.087L726.375 147.273L727.909 151.424L729.359 155.602L730.717 159.816L731.980 164.032L733.148 168.233L734.231 172.399L735.241 176.593L736.171 180.819L737.017 185.085L737.772 189.310L738.447 193.543L739.045 197.740L739.573 201.971L740.028 206.168L740.410 210.397L740.740 214.722L740.955 217.864L741.136 220.647" stroke="black" stroke-width="45" fill="none" stroke-linecap="round" stroke-linejoin="round"></path><path id="path-18-0" d="M67.217 1010.430L67.211 1009.316L67.201 1007.734L67.191 1005.760L67.185 1003.538L67.183 1001.565L67.184 999.343L67.185 997.370L67.186 995.148L67.186 993.175L67.187 990.953L67.188 988.979L67.189 986.758L67.189 984.784L67.190 982.563L67.191 980.589L67.191 978.368L67.192 976.394L67.193 974.172L67.194 972.199L67.194 969.977L67.195 968.004L67.196 965.782L67.197 963.808L67.197 961.587L67.198 959.613L67.199 957.392L67.199 955.418L67.200 953.197L67.201 951.223L67.202 949.001L67.202 947.028L67.203 944.806L67.204 942.833L67.205 940.611L67.205 938.637L67.206 936.416L67.207 934.442L67.207 932.221L67.208 930.247L67.209 928.026L67.210 926.052L67.210 923.830L67.211 921.857L67.212 919.635L67.212 917.662L67.213 915.440L67.214 913.466L67.215 911.245L67.215 909.271L67.216 907.050L67.217 905.076L67.218 902.855L67.218 900.881L67.221 898.659L67.227 896.686L67.240 894.464L67.257 892.491L67.281 890.269L67.306 888.296L67.348 886.017L67.414 883.620L67.505 880.919L67.621 878.135L67.732 875.784L67.871 873.462L68.008 871.522L68.194 869.231L68.417 866.829L68.685 864.123L68.996 861.275L69.332 858.491L69.702 855.675L70.111 852.848L70.535 850.128L71 847.363L71.497 844.645L72.036 841.887L72.602 839.174L73.185 836.560L73.717 834.277L74.289 831.977L74.813 829.979L75.438 827.702L76.030 825.678L76.749 823.318L77.561 820.837L78.595 817.789L79.719 814.654L80.851 811.627L81.824 809.159L82.701 807.025L83.495 805.161L84.376 803.147L85.319 801.052L86.464 798.608L87.722 796.034L89.122 793.272L90.529 790.593L91.835 788.184L93.192 785.792L94.691 783.280L96.646 780.132L98.972 776.537L101.391 772.921L103.643 769.685L105.455 767.180L107.131 764.948L108.602 763.043L110.274 760.931L111.890 758.941L113.746 756.708L115.431 754.729L117.288 752.606L119 750.701L121.023 748.509L122.920 746.501L125.098 744.248L127.059 742.261L129.289 740.060L131.286 738.153L133.482 736.131L135.398 734.438L137.591 732.568L139.932 730.657L142.653 728.492L145.391 726.381L147.780 724.588L150.079 722.926L152.414 721.312L155.073 719.521L157.883 717.692L160.225 716.195L162.466 714.811L164.201 713.779L166.361 712.541L168.233 711.500L170.421 710.317L172.294 709.337L174.575 708.205L176.575 707.260L178.841 706.253L180.646 705.480L182.931 704.533L185.219 703.603L188.096 702.451L190.907 701.333L193.390 700.343L195.693 699.419L197.508 698.691L199.715 697.813L201.534 697.099L203.843 696.200L205.819 695.441L208.302 694.505L210.397 693.727L212.766 692.865L214.615 692.192L216.897 691.367L218.719 690.699L220.991 689.870L222.798 689.200L225.051 688.367L226.971 687.657L229.232 686.833L231.078 686.161L233.359 685.333L235.355 684.605L237.829 683.706L239.924 682.947L242.219 682.120L244.186 681.411L246.358 680.630L248.337 679.917L250.520 679.134L252.498 678.423L254.656 677.651L256.627 676.945L258.835 676.158L260.825 675.449L263.085 674.647L264.947 673.987L267.235 673.178L269.050 672.536L271.409 671.704L273.217 671.068L275.586 670.235L277.394 669.602L279.765 668.772L281.572 668.142L283.945 667.315L285.752 666.689L288.084 665.880L289.851 665.271L292.130 664.485L293.932 663.867L296.253 663.070L298.105 662.437L300.487 661.622L302.775 660.834L305.571 659.868L307.588 659.167L309.202 658.608" stroke="black" stroke-width="45" fill="none" stroke-linecap="round" stroke-linejoin="round"></path><path id="path-19-0" d="M715.907 658.760L717.032 659.145L718.601 659.682L720.585 660.359L722.758 661.102L724.753 661.784L726.917 662.526L728.938 663.220L731.098 663.961L733.122 664.657L735.277 665.398L737.302 666.094L739.451 666.834L741.474 667.531L743.682 668.291L745.682 668.981L747.910 669.749L749.770 670.391L752.026 671.171L753.870 671.808L756.201 672.614L758.049 673.253L760.382 674.061L762.229 674.702L764.587 675.520L766.451 676.168L768.855 677.004L770.701 677.648L773.067 678.474L774.974 679.142L777.368 679.981L779.434 680.705L781.704 681.499L783.711 682.201L785.909 682.970L787.910 683.670L790.178 684.468L792.437 685.270L795.102 686.225L797.774 687.190L800.233 688.080L802.566 688.929L804.564 689.658L806.725 690.450L808.614 691.146L810.807 691.958L812.775 692.690L815.014 693.530L816.932 694.251L819.257 695.134L821.650 696.047L824.466 697.135L827.207 698.206L829.654 699.179L831.895 700.084L833.872 700.890L836.101 701.817L838.505 702.852L841.224 704.070L844.031 705.385L846.413 706.540L848.695 707.712L850.490 708.685L852.751 709.969L854.747 711.132L857.113 712.534L859.033 713.698L861.337 715.139L863.690 716.666L866.430 718.477L869.303 720.428L872.192 722.452L875.138 724.585L877.909 726.669L880.297 728.512L882.565 730.327L884.583 731.987L886.947 733.993L889.349 736.109L892.003 738.508L894.621 740.951L896.945 743.169L899.229 745.426L901.189 747.421L903.292 749.615L905.073 751.518L906.986 753.605L908.711 755.533L910.627 757.724L912.316 759.706L914.161 761.953L915.972 764.257L917.974 766.884L919.931 769.542L921.678 771.988L923.401 774.508L924.804 776.632L926.249 778.883L927.356 780.665L928.655 782.817L929.771 784.738L931.117 787.125L932.367 789.430L933.836 792.177L935.259 794.933L936.508 797.416L937.636 799.773L938.511 801.675L939.540 803.969L940.407 805.962L941.399 808.321L942.144 810.159L942.941 812.201L943.577 813.886L944.359 816.022L945.116 818.120L945.988 820.626L946.678 822.664L947.426 825.016L947.980 826.836L948.693 829.291L949.323 831.599L950.072 834.442L950.754 837.204L951.334 839.646L951.880 842.141L952.357 844.489L952.895 847.253L953.387 849.969L953.811 852.419L954.184 854.774L954.474 856.737L954.772 858.960L955.009 860.889L955.254 863.099L955.447 864.935L955.652 867.118L955.812 869.018L955.973 871.367L956.087 873.404L956.193 875.710L956.269 877.684L956.345 879.905L956.405 881.879L956.463 884.100L956.507 886.074L956.548 888.296L956.577 890.269L956.606 892.491L956.629 894.464L956.654 896.686L956.677 898.659L956.703 900.881L956.726 902.855L956.752 905.076L956.774 907.050L956.796 909.271L956.809 911.245L956.816 913.466L956.817 915.440L956.815 917.662L956.814 919.635L956.812 921.857L956.811 923.830L956.810 926.052L956.809 928.026L956.807 930.247L956.806 932.221L956.804 934.442L956.803 936.416L956.802 938.637L956.801 940.611L956.799 942.833L956.798 944.806L956.797 947.028L956.795 949.001L956.794 951.223L956.793 953.197L956.791 955.418L956.790 957.392L956.789 959.613L956.787 961.587L956.786 963.808L956.785 965.782L956.783 968.004L956.782 969.977L956.781 972.199L956.779 974.172L956.778 976.394L956.777 978.368L956.775 980.589L956.774 982.563L956.773 984.784L956.771 986.758L956.770 988.979L956.769 990.953L956.767 993.175L956.766 995.148L956.765 997.370L956.763 999.343L956.762 1001.565L956.761 1003.538L956.760 1005.760L956.756 1007.734L956.753 1009.316L956.747 1010.430" stroke="black" stroke-width="45" fill="none" stroke-linecap="round" stroke-linejoin="round"></path><path id="path-extension-1" d="M648.249 908.555L657.015 908.237" stroke="black" stroke-width="45" fill="none" stroke-linecap="round" stroke-linejoin="round"></path><path id="path-extension-2" d="M657.437 918.237L657.015 908.237" stroke="black" stroke-width="45" fill="none" stroke-linecap="round" stroke-linejoin="round"></path><path id="path-extension-3" d="M657.747 934.163L657.627 943.079" stroke="black" stroke-width="45" fill="none" stroke-linecap="round" stroke-linejoin="round"></path><path id="path-extension-4" d="M593.842 953.848L586.110 955.301" stroke="black" stroke-width="45" fill="none" stroke-linecap="round" stroke-linejoin="round"></path><path id="path-extension-5" d="M646.346 945.146L657.627 943.079" stroke="black" stroke-width="45" fill="none" stroke-linecap="round" stroke-linejoin="round"></path><path id="path-extension-6" d="M584.327 961.353L586.110 955.301" stroke="black" stroke-width="45" fill="none" stroke-linecap="round" stroke-linejoin="round"></path><path id="path-extension-7" d="M744.576 298.531L733.257 267.210" stroke="black" stroke-width="45" fill="none" stroke-linecap="round" stroke-linejoin="round"></path><path id="path-extension-8" d="M279.590 296.292L291.653 264.428" stroke="black" stroke-width="45" fill="none" stroke-linecap="round" stroke-linejoin="round"></path><path id="path-connection-1" d="M657.015 908.237L657.015 908.237" stroke="black" stroke-width="45" fill="none" stroke-linecap="round" stroke-linejoin="round"></path><path id="path-connection-2" d="M657.627 943.079L657.627 943.079" stroke="black" stroke-width="45" fill="none" stroke-linecap="round" stroke-linejoin="round"></path><path id="path-connection-3" d="M586.110 955.301L586.110 955.301" stroke="black" stroke-width="45" fill="none" stroke-linecap="round" stroke-linejoin="round"></path><path id="path-connection-4" d="M558.665 906.307L535.698 895.184" stroke="black" stroke-width="45" fill="none" stroke-linecap="round" stroke-linejoin="round"></path><path id="path-connection-5" d="M525.858 893.553L535.698 895.184" stroke="black" stroke-width="45" fill="none" stroke-linecap="round" stroke-linejoin="round"></path><path id="path-connection-6" d="M556.070 876.659L535.698 895.184" stroke="black" stroke-width="45" fill="none" stroke-linecap="round" stroke-linejoin="round"></path><path id="path-connection-7" d="M476.874 908.899L489.503 896.423" stroke="black" stroke-width="45" fill="none" stroke-linecap="round" stroke-linejoin="round"></path><path id="path-connection-8" d="M506.396 894.034L489.503 896.423" stroke="black" stroke-width="45" fill="none" stroke-linecap="round" stroke-linejoin="round"></path><path id="path-connection-9" d="M476.029 883.446L489.503 896.423" stroke="black" stroke-width="45" fill="none" stroke-linecap="round" stroke-linejoin="round"></path><path id="path-connection-10" d="M715.907 658.760L654.118 637.921" stroke="black" stroke-width="45" fill="none" stroke-linecap="round" stroke-linejoin="round"></path><path id="path-connection-11" d="M647.326 651.606L654.118 637.921" stroke="black" stroke-width="45" fill="none" stroke-linecap="round" stroke-linejoin="round"></path><path id="path-connection-12" d="M651.676 627.686L654.118 637.921" stroke="black" stroke-width="45" fill="none" stroke-linecap="round" stroke-linejoin="round"></path><path id="path-connection-13" d="M672.272 643.947L654.118 637.921" stroke="black" stroke-width="45" fill="none" stroke-linecap="round" stroke-linejoin="round"></path><path id="path-connection-14" d="M690.404 650.267L705.974 655.526" stroke="black" stroke-width="45" fill="none" stroke-linecap="round" stroke-linejoin="round"></path><path id="path-connection-15" d="M695.650 676.207L705.974 655.526" stroke="black" stroke-width="45" fill="none" stroke-linecap="round" stroke-linejoin="round"></path><path id="path-connection-16" d="M338.655 648.477L319.105 655.307" stroke="black" stroke-width="45" fill="none" stroke-linecap="round" stroke-linejoin="round"></path><path id="path-connection-17" d="M330.504 679.181L319.105 655.307" stroke="black" stroke-width="45" fill="none" stroke-linecap="round" stroke-linejoin="round"></path><path id="path-connection-18" d="M350.329 644.342L371.754 637.558" stroke="black" stroke-width="45" fill="none" stroke-linecap="round" stroke-linejoin="round"></path><path id="path-connection-19" d="M375.190 651.097L371.754 637.558" stroke="black" stroke-width="45" fill="none" stroke-linecap="round" stroke-linejoin="round"></path><path id="path-connection-20" d="M309.202 658.608L371.754 637.558" stroke="black" stroke-width="45" fill="none" stroke-linecap="round" stroke-linejoin="round"></path><path id="path-connection-21" d="M372.043 624.833L371.754 637.558" stroke="black" stroke-width="45" fill="none" stroke-linecap="round" stroke-linejoin="round"></path><path id="path-connection-22" d="M400.001 583.279L374.824 563.959" stroke="black" stroke-width="45" fill="none" stroke-linecap="round" stroke-linejoin="round"></path><path id="path-connection-23" d="M372.063 595.825L374.824 563.959" stroke="black" stroke-width="45" fill="none" stroke-linecap="round" stroke-linejoin="round"></path><path id="path-connection-24" d="M363.857 549.977L374.824 563.959" stroke="black" stroke-width="45" fill="none" stroke-linecap="round" stroke-linejoin="round"></path><path id="path-connection-25" d="M620.923 585.203L647.591 566.336" stroke="black" stroke-width="45" fill="none" stroke-linecap="round" stroke-linejoin="round"></path><path id="path-connection-26" d="M651.722 598.873L647.591 566.336" stroke="black" stroke-width="45" fill="none" stroke-linecap="round" stroke-linejoin="round"></path><path id="path-connection-27" d="M656.669 553.497L647.591 566.336" stroke="black" stroke-width="45" fill="none" stroke-linecap="round" stroke-linejoin="round"></path><path id="path-connection-28" d="M310.866 231.167L281.114 248.867" stroke="black" stroke-width="45" fill="none" stroke-linecap="round" stroke-linejoin="round"></path><path id="path-connection-29" d="M283.237 221.332L281.114 248.867" stroke="black" stroke-width="45" fill="none" stroke-linecap="round" stroke-linejoin="round"></path><path id="path-connection-30" d="M308.257 285.011L281.114 248.867" stroke="black" stroke-width="45" fill="none" stroke-linecap="round" stroke-linejoin="round"></path><path id="path-connection-31" d="M712.151 231.047L744.342 252.406" stroke="black" stroke-width="45" fill="none" stroke-linecap="round" stroke-linejoin="round"></path><path id="path-connection-32" d="M741.136 220.647L744.342 252.406" stroke="black" stroke-width="45" fill="none" stroke-linecap="round" stroke-linejoin="round"></path><path id="path-connection-33" d="M712.702 287.611L744.342 252.406" stroke="black" stroke-width="45" fill="none" stroke-linecap="round" stroke-linejoin="round"></path></g></svg>