<svg xmlns="http://www.w3.org/2000/svg" viewBox="4.953999996185303 4 1014.092041015625 1016" width="1024" height="1024" class="colorable-icon" overflow="visible"><g id="skeleton-paths" stroke-width="45.0"><path id="path-0-0" d="M540.251 508.525L537.174 507.276L533.632 505.902L528.818 504.101L524.090 502.466L519.393 500.971L514.677 499.594L509.986 498.341L505.334 497.216L500.707 496.206L496.039 495.300L491.389 494.502L486.703 493.810L482.039 493.235L477.349 492.770L472.660 492.414L468.010 492.165L463.348 492.013L458.690 491.938L454 491.910L449.308 491.903L444.617 491.904L439.926 491.905L435.235 491.906L430.545 491.907L425.854 491.908L421.163 491.909L416.472 491.911L411.781 491.912L407.090 491.913L402.399 491.914L397.708 491.915L393.017 491.916L388.326 491.918L383.635 491.919L378.944 491.920L374.253 491.921L369.562 491.922L364.871 491.923L360.180 491.924L355.489 491.926L350.798 491.927L346.107 491.928L341.416 491.929L336.725 491.930L332.034 491.931L327.343 491.933L322.652 491.934L317.961 491.935L313.270 491.936L308.579 491.937L303.888 491.938L299.197 491.939L294.506 491.941L289.815 491.942L285.124 491.943L280.433 491.944L275.742 491.946L271.051 491.947L266.361 491.954L261.670 491.984L257.019 492.072L252.364 492.255L248.119 492.508L244.204 492.809L241.249 493.077L238.427 493.367L236.227 493.626L233.594 493.961L230.996 494.337L227.966 494.803L224.856 495.339L221.758 495.904L218.645 496.508L215.539 497.139L212.432 497.828L208.839 498.695L204.884 499.732L200.895 500.803L197.374 501.796L194.685 502.583L192.132 503.387L189.877 504.137L187.404 504.986L185.152 505.773L182.772 506.615L180.552 507.422L178.070 508.368L175.358 509.454L172.315 510.718L169.102 512.092L165.929 513.491L162.734 514.936L159.564 516.426L156.435 517.955L153.312 519.543L150.211 521.177L147.141 522.834L144.070 524.529L141.030 526.260L137.914 528.106L134.424 530.256L130.828 532.541L127.194 534.897L123.878 537.146L120.400 539.581L116.959 542.066L113.495 544.616L110.628 546.786L107.895 548.932L105.610 550.782L103.236 552.748L101.179 554.493L98.914 556.444L96.777 558.318L94.309 560.517L92.038 562.600L89.500 564.996L87.263 567.172L84.764 569.641L82.557 571.848L80.115 574.343L77.991 576.581L75.747 579.038L73.835 581.185L71.750 583.561L69.835 585.759L67.591 588.403L65.345 591.138L62.867 594.250L60.521 597.267L58.472 599.941L56.625 602.405L55.042 604.579L53.363 606.955L51.831 609.183L50.193 611.618L48.706 613.876L47.114 616.340L45.659 618.620L44.100 621.107L42.689 623.416L41.150 626.051L39.569 628.859L37.906 631.867L36.271 634.864L34.977 637.273L33.643 639.851L32.576 641.982L31.294 644.611L30.296 646.698L29.066 649.315L27.865 651.956L26.460 655.106L25.146 658.208L24.066 660.838L23.148 663.202L22.393 665.212L21.579 667.412L20.760 669.642L19.861 672.155L18.903 674.995L17.780 678.511L16.687 682.107L15.672 685.548L14.945 688.118L14.232 690.747L13.574 693.371L12.811 696.531L12.128 699.586L11.557 702.211L11.017 704.865L10.502 707.517L9.906 710.662L9.363 713.740L8.920 716.383L8.546 718.949L8.254 721.094L7.928 723.637L7.657 725.795L7.349 728.357L7.107 730.491L6.856 732.986L6.681 735.053L6.505 737.511L6.373 739.670L6.226 742.177L6.102 744.384L5.968 746.868L5.856 749.075L5.742 751.559L5.652 753.766L5.557 756.250L5.477 758.457L5.393 760.941L5.326 763.148L5.261 765.632L5.211 767.839L5.160 770.323L5.117 772.530L5.074 775.014L5.043 777.221L5.017 779.705L4.999 781.912L4.981 784.396L4.967 786.603L4.957 789.087L4.954 791.294L4.955 793.778L4.960 795.985L4.968 798.469L4.976 800.676L4.989 803.160L5.004 805.367L5.025 807.851L5.046 810.058L5.070 812.542L5.092 814.749L5.119 817.233L5.145 819.440L5.176 821.924L5.204 824.131L5.236 826.615L5.264 828.822L5.296 831.306L5.325 833.513L5.357 835.997L5.386 838.204L5.417 840.688L5.443 842.895L5.471 845.379L5.494 847.586L5.519 850.070L5.540 852.277L5.562 854.761L5.578 856.968L5.592 859.452L5.601 861.658L5.611 864.143L5.617 866.349L5.620 868.834L5.617 871.040L5.608 873.525L5.596 875.731L5.581 878.215L5.564 880.422L5.538 882.906L5.507 885.113L5.465 887.597L5.425 889.804L5.372 892.288L5.312 894.495L5.236 896.979L5.168 899.186L5.132 901.670L5.151 903.877L5.264 906.418L5.517 909.108L6 912.482L6.639 915.945L7.413 919.306L8.126 921.940L9.050 924.631L10.187 927.366L11.676 930.597L13.296 933.722L14.849 936.479L16.470 939.004L18.030 941.182L19.907 943.545L21.792 945.717L23.998 948.062L26.058 950.089L28.314 952.130L30.401 953.856L32.742 955.624L34.967 957.160L37.462 958.709L39.819 960.030L42.523 961.376L45.332 962.585L48.354 963.774L51.332 964.764L53.892 965.526L56.498 966.120L58.695 966.538L61.179 966.905L63.301 967.146L65.814 967.344L68.042 967.447L70.582 967.508L72.789 967.522L75.273 967.526L77.480 967.526L79.964 967.526L82.171 967.526L84.655 967.527L86.862 967.527L89.346 967.527L91.553 967.528L94.037 967.528L96.244 967.528L98.728 967.528L100.935 967.529L103.419 967.529L105.625 967.529L108.110 967.530L110.316 967.530L112.801 967.530L115.007 967.530L117.491 967.531L119.698 967.531L122.182 967.531L124.389 967.532L126.873 967.532L129.080 967.532L131.564 967.532L133.771 967.533L136.255 967.533L138.462 967.533L140.946 967.533L143.153 967.534L145.637 967.534L147.844 967.534L150.328 967.535L152.535 967.535L155.019 967.535L157.226 967.535L159.710 967.536L161.917 967.536L164.401 967.536L166.608 967.537L169.092 967.537L171.299 967.537L173.783 967.537L175.990 967.538L178.474 967.538L180.681 967.538L183.165 967.539L185.372 967.539L187.856 967.539L190.063 967.539L192.547 967.540L194.754 967.540L197.238 967.540L199.445 967.541L201.929 967.541L204.136 967.541L206.620 967.541L208.827 967.542L211.311 967.542L213.518 967.542L216.002 967.542L218.209 967.543L220.693 967.543L222.900 967.543L225.384 967.544L227.591 967.544L230.075 967.544L232.282 967.544L234.766 967.545L236.973 967.545L239.457 967.545L241.664 967.546L244.148 967.546L246.355 967.546L248.839 967.546L251.046 967.547L253.530 967.547L255.737 967.547L258.221 967.548L260.428 967.548L262.912 967.548L265.118 967.548L267.603 967.549L269.809 967.549L272.294 967.549L274.500 967.549L276.984 967.550L279.191 967.550L281.675 967.550L283.882 967.551L286.366 967.551L288.573 967.551L291.057 967.551L293.264 967.552L295.748 967.552L297.955 967.552L300.439 967.553L302.646 967.553L305.130 967.553L307.337 967.553L309.821 967.554L312.028 967.554L314.512 967.554L316.719 967.555L319.203 967.555L321.410 967.555L323.894 967.555L326.101 967.556L328.585 967.556L330.792 967.556L333.276 967.557L335.483 967.557L337.967 967.557L340.174 967.557L342.658 967.558L344.865 967.558L347.349 967.558L349.556 967.558L352.040 967.559L354.247 967.559L356.731 967.559L358.938 967.560L361.422 967.560L363.629 967.560L366.113 967.560L368.320 967.561L370.804 967.561L373.011 967.561L375.495 967.562L377.702 967.562L380.186 967.562L382.393 967.562L384.877 967.563L387.084 967.563L389.568 967.563L391.775 967.564L394.259 967.564L396.466 967.564L398.950 967.564L401.157 967.565L403.641 967.565L405.848 967.565L408.332 967.566L410.539 967.566L413.023 967.566L415.230 967.566L417.714 967.567L419.921 967.567L422.405 967.567L424.611 967.567L427.096 967.568L429.302 967.568L431.787 967.568L433.993 967.569L436.478 967.569L438.684 967.569L441.168 967.569L443.375 967.570L445.859 967.570L448.066 967.570L450.550 967.571L452.757 967.571L455.241 967.571L457.448 967.571L459.932 967.572L462.139 967.572L464.623 967.572L466.830 967.573L469.314 967.573L471.521 967.573L474.005 967.573L476.212 967.574L478.696 967.574L480.903 967.574L483.387 967.574L485.594 967.575L488.078 967.575L490.285 967.575L492.769 967.576L494.976 967.576L497.460 967.576L499.667 967.576L502.151 967.577L504.358 967.577L506.842 967.577L509.049 967.578L511.533 967.578L513.740 967.578L516.224 967.578L518.431 967.579L520.915 967.579L523.122 967.579L525.606 967.580L527.813 967.580L530.297 967.580L532.504 967.580L534.988 967.581L537.195 967.581L539.679 967.581L541.886 967.581L544.370 967.582L546.577 967.582L549.061 967.582L551.268 967.583L553.752 967.583L555.959 967.583L558.443 967.583L560.650 967.584L563.134 967.584L565.341 967.584L567.825 967.585L570.032 967.585L572.516 967.585L574.723 967.585L577.207 967.586L579.414 967.586L581.898 967.586L584.105 967.587L586.589 967.587L588.795 967.587L591.280 967.587L593.486 967.588L595.971 967.588L598.177 967.588L600.661 967.589L602.868 967.589L605.352 967.589L607.559 967.589L610.043 967.590L612.250 967.590L614.734 967.590L616.941 967.590L619.425 967.591L621.632 967.591L624.116 967.591L626.323 967.592L628.807 967.592L631.014 967.592L633.498 967.592L635.705 967.593L638.189 967.593L640.396 967.593L642.880 967.594L645.087 967.594L647.571 967.599L649.778 967.609L652.262 967.625L654.469 967.634L656.953 967.612L659.160 967.549L661.725 967.396L664.457 967.097L667.938 966.581L671.585 965.857L675.251 964.976L678.519 963.954L681.665 962.833L684.727 961.547L687.512 960.259L690.297 958.739L692.806 957.211L695.527 955.390L697.877 953.675L700.354 951.677L702.561 949.703L705.083 947.198L707.566 944.339L710.318 940.764L712.810 937.074L714.978 933.427L716.648 930.093L718.021 926.825L719.194 923.642L720.094 920.829L720.836 918.176L721.356 915.859L721.853 913.273L722.242 910.506L722.611 907.453L722.888 904.312L723.068 901.703L723.167 899.131L723.212 896.983L723.236 894.495L723.236 892.288L723.213 889.804L723.178 887.597L723.128 885.113L723.078 882.906L723.024 880.422L722.980 878.215L722.944 875.731L722.926 873.525L722.918 871.755L722.921 870.510" stroke="black" stroke-width="45" fill="none" stroke-linecap="round" stroke-linejoin="round"></path><path id="path-1-0" d="M550.884 540.795L549.740 542.751L548.481 544.963L546.963 547.676L545.516 550.404L544.105 553.197L542.449 556.603L540.785 560.128L539.164 563.703L537.747 566.978L536.417 570.221L535.211 573.294L534.181 576.032L533.263 578.580L532.498 580.802L531.670 583.304L530.842 585.963L529.845 589.331L528.845 592.861L527.874 596.470L527.038 599.744L526.289 602.855L525.592 605.904L524.950 608.908L524.333 611.994L523.769 615.109L523.263 618.213L522.806 621.327L522.399 624.482L522.039 627.573L521.721 630.766L521.468 633.763L521.283 636.436L521.156 638.976L521.074 641.183L520.999 643.667L520.950 645.874L520.931 648.385L520.953 650.581L521.032 653.138L521.129 655.323L521.263 657.886L521.385 660.014L521.559 662.541L521.736 664.703L521.984 667.208L522.227 669.323L522.548 671.816L522.859 674.027L523.240 676.565L523.585 678.713L524.017 681.200L524.432 683.406L524.956 685.995L525.432 688.173L526.014 690.690L526.525 692.787L527.154 695.320L527.840 697.937L528.823 701.455L530.064 705.549L531.558 710.131L533.194 714.781L534.901 719.288L536.540 723.351L538.079 726.961L539.310 729.732L540.521 732.338L541.527 734.421L542.776 736.906L543.946 739.166L545.371 741.827L546.644 744.140L548.139 746.765L549.735 749.439L551.898 752.934L554.240 756.570L556.629 760.193L558.587 763.042L560.409 765.585L562.033 767.749L563.813 770.069L565.470 772.190L567.359 774.546L569.197 776.766L571.384 779.314L573.444 781.640L575.802 784.237L577.934 786.518L580.371 789.050L582.574 791.261L585.095 793.701L587.366 795.829L589.862 798.106L592.030 800.046L594.326 802.044L596.390 803.778L598.748 805.681L601.023 807.472L603.595 809.463L605.916 811.211L608.421 813.027L610.583 814.523L612.994 816.161L615.118 817.572L617.642 819.226L619.951 820.679L622.548 822.255L624.880 823.606L627.502 825.079L630.283 826.585L633.672 828.361L637.167 830.130L640.538 831.767L643.279 833.029L645.902 834.176L648.704 835.343L652.282 836.768L656.442 838.326L661.024 839.925L665.732 841.438L670.475 842.826L675.120 844.055L679.313 845.083L683.006 845.912L686.282 846.594L689.407 847.198L692.572 847.765L695.602 848.263L698.760 848.742L701.969 849.168L704.224 849.460L706.301 849.693" stroke="black" stroke-width="45" fill="none" stroke-linecap="round" stroke-linejoin="round"></path><path id="path-2-0" d="M580.644 503.124L583.466 500.402L586.686 497.399L591.191 493.337L595.585 489.566L600.137 485.859L604.680 482.361L609.413 478.923L614.102 475.722L618.887 472.628L623.473 469.817L628.137 467.125L632.760 464.614L637.530 462.167L642.233 459.900L646.848 457.808L651.422 455.888L656 454.091L660.651 452.405L665.336 450.825L670.063 449.368L674.792 448.041L679.495 446.847L684.155 445.790L688.786 444.852L693.330 444.044L697.427 443.397L700.914 442.918L703.703 442.583L706.139 442.326L708.533 442.103L710.794 441.916L713.245 441.743L715.452 441.609L717.936 441.488L720.143 441.412L722.627 441.357L724.834 441.332L727.318 441.324L729.525 441.343L732.009 441.387L734.216 441.444L736.700 441.523L738.907 441.611L741.415 441.746L743.606 441.898L746.185 442.124L748.830 442.399L751.886 442.740L754.932 443.124L757.461 443.467L759.989 443.859L762.116 444.217L764.815 444.705L767.464 445.237L770.476 445.875L773.467 446.561L776.104 447.192L778.846 447.894L781.470 448.625L784.542 449.513L787.590 450.447L790.357 451.319L792.938 452.172L795.187 452.953L797.571 453.825L799.789 454.677L802.292 455.684L805.006 456.812L808.074 458.128L811.123 459.484L813.784 460.718L816.327 461.949L818.493 463.028L820.885 464.258L822.914 465.333L825.499 466.762L828.219 468.316L831.442 470.206L834.505 472.066L837.198 473.758L839.713 475.399L841.940 476.901L844.433 478.639L846.785 480.337L849.397 482.274L851.706 484.030L854.097 485.898L856.193 487.592L858.525 489.540L860.730 491.432L863.262 493.670L865.564 495.768L868.117 498.177L870.355 500.353L872.839 502.836L875.015 505.072L877.468 507.686L879.865 510.359L882.502 513.379L885.002 516.351L887.141 518.965L889.178 521.579L891.198 524.289L893.467 527.424L895.733 530.674L897.921 533.946L900.238 537.607L902.667 541.633L905.024 545.694L907.074 549.392L908.808 552.713L910.538 556.220L912.209 559.757L913.819 563.322L915.256 566.690L916.742 570.412L918.261 574.460L919.674 578.409L920.849 581.921L921.701 584.585L922.504 587.236L923.169 589.492L923.914 592.136L924.625 594.832L925.482 598.273L926.324 601.862L927.109 605.436L927.688 608.276L928.177 610.901L928.548 613.046L928.937 615.479L929.262 617.669L929.608 620.227L929.889 622.477L930.165 624.979L930.373 627.102L930.584 629.548L930.753 631.748L930.922 634.265L931.050 636.495L931.154 638.976L931.214 641.183L931.254 643.667L931.273 645.874L931.268 648.358L931.233 650.565L931.143 653.111L931.035 655.354L930.884 657.926L930.745 660.043L930.564 662.493L930.382 664.589L930.129 667.174L929.870 669.468L929.550 672.088L929.267 674.210L928.931 676.602L928.633 678.589L928.233 681.074L927.865 683.208L927.379 685.807L926.930 688.017L926.341 690.706L925.673 693.520L924.779 697.063L923.835 700.628L922.862 704.051L922.058 706.740L921.224 709.301L920.474 711.547L919.559 714.163L918.555 716.919L917.356 720.061L916.043 723.318L914.647 726.605L913.051 730.162L911.398 733.706L909.667 737.239L907.926 740.595L905.919 744.249L903.865 747.884L901.824 751.354L900.197 754.026L898.444 756.732L896.586 759.496L894.340 762.758L892.089 765.920L890.068 768.670L888.065 771.255L886.232 773.547L884.023 776.224L881.708 778.924L879.050 781.927L876.329 784.884L873.836 787.533L871.306 790.115L869.068 792.315L867.260 794.046L865.969 795.246" stroke="black" stroke-width="45" fill="none" stroke-linecap="round" stroke-linejoin="round"></path><path id="path-3-0" d="M749.521 849.155L752.404 848.781L755.754 848.295L760.474 847.538L765.160 846.663L769.861 845.664L774.530 844.552L779.176 843.331L783.817 842.001L788.545 840.522L793.311 838.905L798.137 837.138L802.826 835.295L807.530 833.327L812.229 831.222L817.018 828.951L821.817 826.538L825.197 824.791L828.084 823.248" stroke="black" stroke-width="45" fill="none" stroke-linecap="round" stroke-linejoin="round"></path><path id="path-4-0" d="M865.260 829.528L867.512 832.317L870.292 835.760L874.073 840.442L877.964 845.261L881.750 849.952L885.567 854.680L889.304 859.308L893.028 863.920L896.838 868.638L900.613 873.313L904.504 878.133L908.290 882.822L912.107 887.550L915.843 892.178L919.568 896.790L923.378 901.509L927.153 906.184L931.044 911.004L934.825 915.686L938.716 920.506L942.500 925.193L946.316 929.919L950.050 934.544L953.777 939.159L957.588 943.879L961.370 948.563L965.186 953.290L968.921 957.917L972.647 962.531L976.457 967.250L980.239 971.934L984.056 976.662L987.793 981.290L991.517 985.902L995.327 990.620L999.109 995.304L1002.926 1000.033L1006.664 1004.662L1010.396 1009.285L1014.147 1013.931L1016.802 1017.219L1019.046 1020" stroke="black" stroke-width="45" fill="none" stroke-linecap="round" stroke-linejoin="round"></path><path id="path-connection-1" d="M540.251 508.525L564.414 518.336" stroke="black" stroke-width="45" fill="none" stroke-linecap="round" stroke-linejoin="round"></path><path id="path-connection-2" d="M550.884 540.795L564.414 518.336" stroke="black" stroke-width="45" fill="none" stroke-linecap="round" stroke-linejoin="round"></path><path id="path-connection-3" d="M580.644 503.124L564.414 518.336" stroke="black" stroke-width="45" fill="none" stroke-linecap="round" stroke-linejoin="round"></path><path id="path-connection-4" d="M722.921 870.510L722.968 852.078" stroke="black" stroke-width="45" fill="none" stroke-linecap="round" stroke-linejoin="round"></path><path id="path-connection-5" d="M706.301 849.693L722.968 852.078" stroke="black" stroke-width="45" fill="none" stroke-linecap="round" stroke-linejoin="round"></path><path id="path-connection-6" d="M749.521 849.155L722.968 852.078" stroke="black" stroke-width="45" fill="none" stroke-linecap="round" stroke-linejoin="round"></path><path id="path-connection-7" d="M865.969 795.246L850.134 810.793" stroke="black" stroke-width="45" fill="none" stroke-linecap="round" stroke-linejoin="round"></path><path id="path-connection-8" d="M828.084 823.248L850.134 810.793" stroke="black" stroke-width="45" fill="none" stroke-linecap="round" stroke-linejoin="round"></path><path id="path-connection-9" d="M865.260 829.528L850.134 810.793" stroke="black" stroke-width="45" fill="none" stroke-linecap="round" stroke-linejoin="round"></path></g><g id="skeleton-paths" stroke-width="45.0"><path id="path-0-0" d="M273.323 30.005L271.567 31.036L269.868 32.057L267.218 33.674L264.473 35.429L261.107 37.654L257.598 40.063L254.030 42.604L250.755 45.056L247.551 47.550L244.453 50.063L241.718 52.346L238.968 54.751L236.326 57.171L233.427 59.902L230.691 62.568L228.348 64.904L226.122 67.211L224.134 69.332L221.857 71.846L219.807 74.185L217.638 76.748L215.806 78.979L213.844 81.443L212.074 83.745L210.137 86.335L208.445 88.657L206.713 91.096L205.206 93.297L203.606 95.727L202.151 98.006L200.540 100.597L198.880 103.362L197.140 106.332L195.459 109.317L194.108 111.786L192.737 114.410L191.625 116.609L190.377 119.167L189.417 121.210L188.255 123.776L187.094 126.470L185.575 130.141L183.979 134.239L182.305 138.818L180.731 143.482L179.318 148.062L178.132 152.157L177.214 155.638L176.556 158.257L175.965 160.874L175.399 163.517L174.767 166.618L174.183 169.665L173.712 172.254L173.290 174.823L172.967 176.963L172.608 179.492L172.331 181.609L172.038 184.042L171.816 186.175L171.586 188.680L171.410 190.894L171.233 193.471L171.109 195.682L170.985 198.242L170.902 200.376L170.826 202.813L170.795 204.943L170.797 207.440L170.848 210.076L170.932 213.020L171.050 216.121L171.170 218.766L171.333 221.487L171.553 224.149L171.840 227.157L172.179 230.256L172.486 232.886L172.839 235.574L173.241 238.228L173.819 241.658L174.467 245.214L175.176 248.819L175.870 252.053L176.720 255.627L177.762 259.656L179.040 264.227L180.467 268.935L182.025 273.629L183.681 278.265L185.438 282.816L187.091 286.895L188.667 290.557L190.118 293.739L191.650 296.919L193.302 300.197L195.007 303.433L196.743 306.615L198.437 309.578L199.978 312.212L201.538 314.760L202.977 317.022L204.598 319.468L206.120 321.702L207.795 324.090L209.359 326.265L211.163 328.665L212.924 330.939L215.067 333.616L217.349 336.387L219.928 339.447L222.559 342.463L224.941 345.112L227.384 347.705L229.552 349.918L231.945 352.287L234.040 354.288L236.365 356.428L238.541 358.359L241.097 360.566L243.475 362.569L246.075 364.701L248.342 366.488L250.748 368.320L252.914 369.919L255.375 371.679L257.609 373.239L260.112 374.911L262.233 376.298L264.758 377.891L267.326 379.458L270.303 381.221L273.278 382.915L275.976 384.409L278.709 385.861L281.451 387.252L284.518 388.750L287.689 390.230L290.943 391.683L294.618 393.235L298.712 394.867L303.239 396.563L307.898 398.193L312.606 399.705L317.234 401.075L321.353 402.212L324.898 403.110L327.497 403.729L330.056 404.285L332.157 404.722L334.827 405.244L337.474 405.711L340.577 406.226L343.617 406.686L346.255 407.070L348.962 407.414L351.620 407.694L354.714 407.958L357.782 408.170L360.440 408.328L362.993 408.461L365.115 408.552L367.615 408.628L369.833 408.658L372.368 408.657L374.574 408.625L377.059 408.563L379.265 408.484L381.817 408.358L384.515 408.181L387.549 407.948L390.754 407.663L393.810 407.351L396.864 406.999L399.913 406.596L403.033 406.130L406.217 405.618L409.414 405.043L412.528 404.435L416.212 403.624L420.324 402.621L425.009 401.374L429.737 399.982L434.437 398.462L439.008 396.857L443.151 395.298L446.870 393.800L450.155 392.388L453.345 390.941L456.511 389.430L459.709 387.833L462.836 386.216L465.897 384.574L468.485 383.157L471.113 381.669L473.417 380.337L475.989 378.804L478.298 377.387L480.767 375.800L483.016 374.299L485.434 372.625L487.653 371.054L490.139 369.244L492.474 367.489L495.047 365.481L497.308 363.660L499.751 361.632L501.979 359.730L504.538 357.462L506.855 355.340L509.416 352.916L511.653 350.739L514.138 348.236L516.308 345.958L518.629 343.436L520.587 341.251L522.676 338.855L524.546 336.637L526.597 334.117L528.400 331.843L530.333 329.340L532.073 327.010L534.038 324.274L535.930 321.509L537.929 318.550L539.797 315.688L541.436 313.136L542.974 310.588L544.324 308.278L545.778 305.721L547.098 303.347L548.530 300.662L549.948 297.857L551.465 294.759L552.908 291.722L554.137 289.062L555.286 286.436L556.448 283.627L557.862 280.040L559.421 275.872L561.028 271.292L562.552 266.585L563.932 261.968L565.086 257.778L566.027 254.088L566.795 250.778L567.482 247.613L568.121 244.390L568.681 241.281L569.198 238.137L569.673 234.981L570.094 231.946L570.477 228.845L570.789 225.878L571.052 223.174L571.272 220.573L571.444 218.346L571.593 215.868L571.689 213.661L571.758 211.177L571.797 208.970L571.825 206.486L571.832 204.279L571.808 201.795L571.747 199.588L571.638 197.103L571.520 194.959L571.363 192.489L571.210 190.369L570.997 187.812L570.786 185.628L570.494 182.962L570.145 180.285L569.723 177.242L569.239 174.117L568.721 171.088L568.128 167.919L567.515 164.889L566.932 162.140L566.314 159.468L565.621 156.771L564.831 153.829L563.976 150.850L563.231 148.299L562.436 145.734L561.732 143.513L560.860 140.916L559.899 138.164L558.755 135.020L557.509 131.737L556.175 128.426L554.640 124.835L553.039 121.265L551.378 117.714L549.790 114.506L548.171 111.382L546.542 108.364L545.032 105.646L543.510 103.028L542.106 100.717L540.547 98.230L539.086 95.954L537.473 93.503L535.953 91.267L534.257 88.871L532.658 86.688L530.890 84.344L529.237 82.201L527.334 79.811L525.485 77.565L523.240 74.934L520.867 72.260L518.172 69.309L515.511 66.503L513.158 64.088L510.861 61.817L508.768 59.812L506.297 57.525L503.980 55.450L501.430 53.226L499.211 51.338L496.768 49.326L494.497 47.520L491.920 45.533L489.600 43.785L487.144 41.984L484.941 40.423L482.521 38.772L480.266 37.281L477.802 35.687L475.515 34.244L473.009 32.712L470.687 31.349L468.071 29.870L465.375 28.400L462.368 26.803L459.255 25.215L456.048 23.652L452.502 22.011L448.924 20.425L445.318 18.901L441.923 17.546L438.186 16.150L434.148 14.725L430.197 13.403L426.709 12.307L424.042 11.519L421.367 10.778L418.670 10.082L415.658 9.338L412.562 8.629L409.533 7.985L406.412 7.367L403.376 6.821L400.705 6.371L398.042 5.969L395.820 5.661L393.317 5.341L391.223 5.105L388.713 4.855L386.563 4.669L383.994 4.464L381.852 4.312L379.305 4.162L377.102 4.073L374.574 4.017L372.368 4L369.884 4L367.677 4.018L365.111 4.076L362.497 4.189L359.571 4.361L356.613 4.579L353.986 4.795L351.305 5.045L349.003 5.280L346.381 5.582L343.696 5.941L340.699 6.377L337.540 6.882L334.465 7.429L331.346 8.035L328.230 8.701L325.152 9.412L321.602 10.306L317.660 11.390L313.226 12.693L309.095 14.002L305.452 15.238L302.624 16.257L300.086 17.216L297.879 18.087L295.415 19.107L292.735 20.269L289.737 21.616L286.586 23.089L284.462 24.102L282.566 25.043" stroke="black" stroke-width="45" fill="none" stroke-linecap="round" stroke-linejoin="round"></path><path id="path-extension-1" d="M273.323 30.005L277.414 27.602" stroke="black" stroke-width="45" fill="none" stroke-linecap="round" stroke-linejoin="round"></path><path id="path-extension-2" d="M282.566 25.043L277.414 27.602" stroke="black" stroke-width="45" fill="none" stroke-linecap="round" stroke-linejoin="round"></path><path id="path-connection-1" d="M277.414 27.602L277.414 27.602" stroke="black" stroke-width="45" fill="none" stroke-linecap="round" stroke-linejoin="round"></path></g></svg>