<svg xmlns="http://www.w3.org/2000/svg" viewBox="4 9.01099967956543 1016 1005.97802734375" width="1024" height="1024" class="colorable-icon" overflow="visible"><g id="skeleton-paths" stroke-width="45.0"><path id="path-0-0" d="M395.393 501.702L396.906 501.688L399.056 501.668L401.738 501.644L404.756 501.621L407.437 501.604L410.455 501.587L413.136 501.576L416.154 501.565L418.835 501.559L421.854 501.554L424.535 501.551L427.553 501.550L430.234 501.552L433.252 501.555L435.933 501.559L438.951 501.565L441.633 501.572L444.651 501.581L447.332 501.589L450.350 501.599L453.031 501.608L456.040 501.613L458.707 501.611L461.742 501.603L464.475 501.601L467.562 501.612L470.257 501.633L473.230 501.662L475.860 501.680L478.846 501.695L481.527 501.701L484.545 501.706L487.227 501.708L490.245 501.710L492.926 501.710L495.944 501.708L498.625 501.703L501.643 501.696L504.325 501.687L507.343 501.675L510.024 501.660L513.042 501.641L515.723 501.621L518.741 501.597L521.422 501.569L524.440 501.535L527.122 501.502L530.140 501.461L532.821 501.419L535.839 501.367L538.520 501.317L541.538 501.257L544.219 501.197L547.226 501.102L549.899 501.018L552.922 500.910L555.570 500.836L558.598 500.769L561.160 500.724L564.206 500.676L566.815 500.577L569.947 500.427L572.663 500.309L575.765 500.223L578.514 500.212L581.544 499.976L584.198 499.767L586.939 499.282L589.655 499.464L592.494 499.602L595.544 499.235L598.455 499.088L600.291 498.866L602.307 498.711" stroke="black" stroke-width="45" fill="none" stroke-linecap="round" stroke-linejoin="round"></path><path id="path-1-0" d="M537.970 785.714L540.119 785.741L542.173 785.744L545.416 785.714L548.630 785.643L552.287 785.545L555.965 785.441L559.174 785.349L562.295 785.252L564.920 785.158L568.012 785.024L570.739 784.883L573.936 784.694L577.172 784.470L580.790 784.201L584.472 783.902L587.633 783.628L590.951 783.310L594.217 782.957L597.904 782.537L601.580 782.074L604.737 781.649L608.037 781.157L611.384 780.609L615.664 779.851L619.971 779.037L624.191 778.169L627.489 777.437L630.789 776.625L634.056 775.756L637.830 774.700L641.567 773.584L644.898 772.530L647.993 771.474L650.700 770.486L653.764 769.288L657.150 767.859L660.894 766.204L664.715 764.398L667.938 762.794L671.169 761.053L673.985 759.442L677.102 757.558L679.882 755.785L682.853 753.794L685.561 751.893L688.589 749.654L691.415 747.441L694.623 744.762L697.471 742.219L700.579 739.240L703.248 736.500L706.064 733.426L708.408 730.704L710.897 727.593L713.408 724.150L716.335 719.819L719.177 715.314L721.694 711.026L723.578 707.544L725.242 704.149L726.753 700.749L728.306 697.065L729.750 693.312L731.119 689.449L732.524 684.979L733.808 680.480L734.939 676.038L735.799 672.080L736.501 668.337L737.096 664.634L737.552 661.472L737.933 658.134L738.203 654.851L738.423 651.147L738.554 647.344L738.588 643.658L738.550 639.801L738.409 636.096L738.238 632.834L737.962 629.620L737.598 626.453L737.105 622.766L736.517 619.061L735.943 615.816L735.250 612.496L734.424 609.094L733.267 604.798L731.956 600.349L730.517 595.858L729.026 591.671L727.225 587.172L725.090 582.386L722.796 577.643L720.544 573.428L718.593 570.073L716.623 566.984L714.782 564.279L712.599 561.286L710.441 558.493L707.766 555.262L704.809 551.968L701.043 548.073L697.125 544.280L693.107 540.645L689.734 537.807L686.355 535.196L682.946 532.782L678.832 530.043L674.563 527.380L670.402 524.937L666.930 523.034L663.570 521.354L660.084 519.759L655.574 517.868L650.153 515.824L645.755 514.238L641.717 512.908" stroke="black" stroke-width="45" fill="none" stroke-linecap="round" stroke-linejoin="round"></path><path id="path-2-0" d="M441.459 786.047L445.706 786.054L450.231 786.068L456.366 786.073L462.139 786.072L467.838 786.061L473.538 786.051L479.237 786.041L484.936 786.030L490.654 786.022L496.537 786.020L500.791 786.022L504.603 786.028" stroke="black" stroke-width="45" fill="none" stroke-linecap="round" stroke-linejoin="round"></path><path id="path-3-0" d="M387.424 785.184L389.925 785.240L392.905 785.303L396.654 785.384L399.857 785.440L402.965 785.482L405.851 785.507L409.532 785.537L412.068 785.558L415.041 785.581" stroke="black" stroke-width="45" fill="none" stroke-linecap="round" stroke-linejoin="round"></path><path id="path-4-0" d="M298.835 784.676L302.285 784.649L306.359 784.642L312.058 784.659L317.758 784.719L323.457 784.807L329.156 784.909L334.855 785.008L340.555 785.088L346.272 785.153L352.333 785.217L358.206 785.208L362.712 785.198L365.771 785.063" stroke="black" stroke-width="45" fill="none" stroke-linecap="round" stroke-linejoin="round"></path><path id="path-5-0" d="M375.406 515.047L375.407 518.761L375.408 522.931L375.409 528.660L375.411 534.297L375.412 539.943L375.413 545.643L375.414 551.342L375.416 557.041L375.417 562.740L375.418 568.440L375.419 574.139L375.421 579.838L375.422 585.537L375.423 591.237L375.425 596.936L375.426 602.635L375.427 608.335L375.428 614.034L375.430 619.733L375.431 625.432L375.432 631.132L375.433 636.831L375.435 642.530L375.436 648.229L375.437 653.929L375.439 659.628L375.440 665.327L375.441 671.026L375.442 676.726L375.444 682.425L375.445 688.124L375.446 693.824L375.447 699.523L375.449 705.222L375.450 710.921L375.451 716.621L375.453 722.320L375.454 728.019L375.455 733.718L375.456 739.418L375.458 745.117L375.459 750.816L375.460 756.516L375.461 760.590L375.462 764.039" stroke="black" stroke-width="45" fill="none" stroke-linecap="round" stroke-linejoin="round"></path><path id="path-6-0" d="M440.762 231.252L442.995 231.213L445.717 231.161L448.938 231.097L452.180 231.037L454.913 230.994L457.949 230.956L460.630 230.927L463.648 230.895L466.329 230.867L469.347 230.836L472.029 230.809L475.047 230.780L477.728 230.757L480.746 230.731L483.427 230.711L486.445 230.690L489.127 230.674L492.151 230.658L494.844 230.646L497.966 230.632L500.849 230.628L504.399 230.637L506.753 230.652L509.320 230.676" stroke="black" stroke-width="45" fill="none" stroke-linecap="round" stroke-linejoin="round"></path><path id="path-7-0" d="M534.613 230.834L538.738 231.033L543.214 231.305L549.315 231.713L555.085 232.178L560.804 232.687L566.510 233.247L572.214 233.864L577.910 234.551L583.592 235.320L589.230 236.168L594.872 237.124L600.518 238.200L606.193 239.419L611.819 240.786L617.445 242.344L623.048 244.111L628.874 246.189L634.653 248.511L640.525 251.173L646.212 254.103L651.932 257.417L657.661 261.161L663.355 265.314L669.053 269.962L674.450 274.852L679.632 280.054L684.341 285.312L688.718 290.747L692.711 296.307L696.402 302.071L699.740 307.922L702.705 313.775L705.252 319.505L707.440 325.200L709.277 330.898L710.803 336.640L712.015 342.383L712.919 348.086L713.539 353.779L713.890 359.466L714.006 365.166L713.906 370.871L713.561 376.600L712.962 382.325L712.065 388.069L710.880 393.778L709.375 399.507L707.515 405.275L705.313 411.039L702.722 416.869L699.799 422.615L696.458 428.412L692.676 434.193L688.474 439.937L683.774 445.669L678.808 451.114L673.528 456.346L668.101 461.168L662.478 465.684L656.480 469.982L650.328 473.940L645.701 476.737L641.888 478.864" stroke="black" stroke-width="45" fill="none" stroke-linecap="round" stroke-linejoin="round"></path><path id="path-8-0" d="M375.359 258.854L375.360 262.304L375.361 266.378L375.361 272.077L375.362 277.777L375.363 283.476L375.364 289.175L375.365 294.875L375.366 300.574L375.366 306.273L375.367 311.972L375.368 317.672L375.369 323.371L375.370 329.070L375.371 334.769L375.371 340.469L375.372 346.168L375.373 351.867L375.374 357.567L375.375 363.266L375.376 368.965L375.376 374.664L375.377 380.364L375.378 386.063L375.379 391.762L375.380 397.461L375.381 403.161L375.381 408.860L375.382 414.559L375.383 420.259L375.384 425.958L375.385 431.657L375.386 437.356L375.387 443.056L375.387 448.755L375.388 454.454L375.389 460.153L375.390 465.853L375.391 471.446L375.392 477.155L375.393 481.145L375.394 484.833" stroke="black" stroke-width="45" fill="none" stroke-linecap="round" stroke-linejoin="round"></path><path id="path-9-0" d="M387.495 231.724L390.096 231.728L392.228 231.727L395.418 231.719L398 231.713L400.986 231.707L403.748 231.705L407.042 231.696L410.313 231.677L413.071 231.657L415.321 231.634" stroke="black" stroke-width="45" fill="none" stroke-linecap="round" stroke-linejoin="round"></path><path id="path-10-0" d="M427.804 210.956L427.912 209.010L428.016 207.131L428.178 204.083L428.284 201.436L428.380 198.317L428.435 195.678L428.502 192.637L428.562 190.005L428.630 186.979L428.685 184.298L428.737 181.280L428.774 178.599L428.804 175.581L428.820 172.899L428.826 169.881L428.820 167.200L428.778 164.062L428.741 162.031L428.671 159.834" stroke="black" stroke-width="45" fill="none" stroke-linecap="round" stroke-linejoin="round"></path><path id="path-11-0" d="M298.835 232.218L302.285 232.281L306.359 232.317L312.058 232.337L317.758 232.304L323.457 232.243L329.156 232.171L334.855 232.111L340.555 232.082L346.257 232.093L352.267 232.138L356.620 232.182L360.741 232.221" stroke="black" stroke-width="45" fill="none" stroke-linecap="round" stroke-linejoin="round"></path><path id="path-12-0" d="M427.968 855.228L427.963 851.778L427.985 847.746L428.038 842.078L428.126 836.426L428.229 830.687L428.334 824.941L428.399 820.810L428.452 817.324" stroke="black" stroke-width="45" fill="none" stroke-linecap="round" stroke-linejoin="round"></path><path id="path-13-0" d="M521.885 809.784L521.830 813.233L521.803 817.308L521.797 823.007L521.845 828.706L521.923 834.406L522.007 840.105L522.074 845.804L522.113 849.879L522.127 853.328" stroke="black" stroke-width="45" fill="none" stroke-linecap="round" stroke-linejoin="round"></path><path id="path-14-0" d="M521.888 155.938L521.841 157.451L521.789 159.601L521.736 162.282L521.701 165.300L521.691 167.982L521.698 171L521.718 173.681L521.753 176.699L521.792 179.380L521.843 182.398L521.891 185.079L521.945 188.097L521.991 190.779L522.036 193.797L522.069 196.478L522.092 199.496L522.100 202.177L522.089 205.195L522.061 207.877L522.030 210.026L522.001 211.540" stroke="black" stroke-width="45" fill="none" stroke-linecap="round" stroke-linejoin="round"></path><path id="path-extension-1" d="M395.393 501.702L375.400 501.895" stroke="black" stroke-width="45" fill="none" stroke-linecap="round" stroke-linejoin="round"></path><path id="path-extension-2" d="M602.307 498.711L606.958 498.352" stroke="black" stroke-width="45" fill="none" stroke-linecap="round" stroke-linejoin="round"></path><path id="path-extension-3" d="M641.717 512.908L603.462 500.302" stroke="black" stroke-width="45" fill="none" stroke-linecap="round" stroke-linejoin="round"></path><path id="path-extension-4" d="M375.462 764.039L375.467 785.117" stroke="black" stroke-width="45" fill="none" stroke-linecap="round" stroke-linejoin="round"></path><path id="path-extension-5" d="M641.888 478.864L606.958 498.352" stroke="black" stroke-width="45" fill="none" stroke-linecap="round" stroke-linejoin="round"></path><path id="path-extension-6" d="M375.359 258.854L375.356 231.950" stroke="black" stroke-width="45" fill="none" stroke-linecap="round" stroke-linejoin="round"></path><path id="path-extension-7" d="M427.804 210.956L426.675 231.464" stroke="black" stroke-width="45" fill="none" stroke-linecap="round" stroke-linejoin="round"></path><path id="path-extension-8" d="M428.452 817.324L428.927 785.826" stroke="black" stroke-width="45" fill="none" stroke-linecap="round" stroke-linejoin="round"></path><path id="path-connection-1" d="M441.459 786.047L415.041 785.581" stroke="black" stroke-width="45" fill="none" stroke-linecap="round" stroke-linejoin="round"></path><path id="path-connection-2" d="M387.424 785.184L365.771 785.063" stroke="black" stroke-width="45" fill="none" stroke-linecap="round" stroke-linejoin="round"></path><path id="path-connection-3" d="M375.406 515.047L375.394 484.833" stroke="black" stroke-width="45" fill="none" stroke-linecap="round" stroke-linejoin="round"></path><path id="path-connection-4" d="M440.762 231.252L415.321 231.634" stroke="black" stroke-width="45" fill="none" stroke-linecap="round" stroke-linejoin="round"></path><path id="path-connection-5" d="M387.495 231.724L360.741 232.221" stroke="black" stroke-width="45" fill="none" stroke-linecap="round" stroke-linejoin="round"></path><path id="path-connection-6" d="M606.958 498.352L606.958 498.352" stroke="black" stroke-width="45" fill="none" stroke-linecap="round" stroke-linejoin="round"></path><path id="path-connection-7" d="M537.970 785.714L522.269 785.840" stroke="black" stroke-width="45" fill="none" stroke-linecap="round" stroke-linejoin="round"></path><path id="path-connection-8" d="M504.603 786.028L522.269 785.840" stroke="black" stroke-width="45" fill="none" stroke-linecap="round" stroke-linejoin="round"></path><path id="path-connection-9" d="M521.885 809.784L522.269 785.840" stroke="black" stroke-width="45" fill="none" stroke-linecap="round" stroke-linejoin="round"></path><path id="path-connection-10" d="M534.613 230.834L521.636 230.440" stroke="black" stroke-width="45" fill="none" stroke-linecap="round" stroke-linejoin="round"></path><path id="path-connection-11" d="M509.320 230.676L521.636 230.440" stroke="black" stroke-width="45" fill="none" stroke-linecap="round" stroke-linejoin="round"></path><path id="path-connection-12" d="M522.001 211.540L521.636 230.440" stroke="black" stroke-width="45" fill="none" stroke-linecap="round" stroke-linejoin="round"></path></g><g id="skeleton-paths" stroke-width="45.0"><path id="path-0-0" d="M852.577 886.083L849.180 889.048L844.931 892.664L839.013 897.638L832.977 902.570L827.214 907.156L821.441 911.632L815.886 915.807L810.133 920.009L804.465 924.010L798.717 927.965L793.010 931.771L787.339 935.432L781.691 938.959L776.116 942.345L770.420 945.706L764.690 948.984L758.863 952.200L753.192 955.248L747.463 958.238L741.843 961.080L736.047 963.900L730.351 966.589L724.491 969.279L718.734 971.838L712.894 974.331L707.218 976.667L701.472 978.961L695.753 981.174L689.902 983.353L684.143 985.416L678.397 987.402L672.739 989.293L667.094 991.099L661.485 992.816L655.878 994.456L650.205 996.062L644.473 997.615L638.734 999.101L633.027 1000.502L627.385 1001.822L621.721 1003.087L616.051 1004.290L610.335 1005.435L604.603 1006.513L598.900 1007.519L593.168 1008.465L587.485 1009.337L581.778 1010.155L576.101 1010.894L570.411 1011.580L564.701 1012.204L559.012 1012.774L553.334 1013.278L547.654 1013.703L541.972 1014.062L536.237 1014.368L530.535 1014.630L524.820 1014.832L519.132 1014.950L513.433 1014.989L507.733 1014.977L502.034 1014.919L496.346 1014.806L490.632 1014.601L484.931 1014.324L479.198 1013.996L473.514 1013.622L467.836 1013.187L462.163 1012.656L456.478 1012.060L450.752 1011.405L445.087 1010.711L439.440 1009.945L433.817 1009.097L428.141 1008.176L422.394 1007.196L416.682 1006.173L410.959 1005.080L405.320 1003.925L399.667 1002.704L394.029 1001.420L388.374 1000.072L382.714 998.639L377.107 997.138L371.501 995.564L365.854 993.915L360.183 992.191L354.410 990.345L348.632 988.400L342.737 986.346L336.945 984.264L331.226 982.140L325.550 979.947L319.863 977.672L314.079 975.301L308.408 972.909L302.825 970.481L297.316 967.980L291.723 965.338L286 962.555L280.176 959.639L274.475 956.696L268.791 953.649L263.204 950.557L257.471 947.298L251.684 943.908L245.943 940.437L240.201 936.840L234.556 933.207L228.735 929.361L223.004 925.469L217.297 921.457L211.759 917.444L206.165 913.278L200.567 909L194.787 904.443L189.122 899.839L183.346 895.014L177.796 890.251L172.166 885.278L166.671 880.256L161.027 874.952L155.369 869.480L149.689 863.822L144.200 858.180L138.885 852.545L133.852 847.058L128.846 841.439L123.967 835.779L119.064 829.943L114.361 824.176L109.893 818.548L105.565 812.902L101.332 807.235L97.080 801.387L93.011 795.638L89.088 789.886L85.322 784.189L81.594 778.442L77.916 772.661L74.333 766.873L70.932 761.135L67.687 755.451L64.606 749.893L61.546 744.256L58.609 738.683L55.691 732.933L52.934 727.298L50.226 721.581L47.629 715.949L45.088 710.260L42.627 704.551L40.285 698.899L38.004 693.146L35.814 687.395L33.655 681.539L31.616 675.825L29.646 670.126L27.778 664.466L25.998 658.798L24.325 653.186L22.734 647.615L21.181 642.031L19.659 636.386L18.218 630.719L16.879 625.035L15.634 619.333L14.446 613.662L13.294 608.008L12.194 602.343L11.185 596.679L10.273 590.946L9.446 585.254L8.650 579.503L7.896 573.844L7.203 568.180L6.620 562.584L6.133 556.877L5.713 551.165L5.320 545.433L4.951 539.816L4.625 534.184L4.365 528.545L4.185 522.845L4.071 517.146L4.013 511.447L4 505.748L4.039 500.048L4.151 494.349L4.350 488.702L4.632 483.057L4.962 477.427L5.336 471.694L5.757 465.989L6.262 460.282L6.851 454.632L7.522 448.964L8.255 443.278L9.029 437.649L9.856 431.968L10.744 426.325L11.728 420.602L12.788 414.946L13.915 409.248L15.077 403.612L16.280 397.993L17.546 392.434L18.897 386.868L20.365 381.207L21.926 375.474L23.550 369.683L25.222 363.908L26.956 358.154L28.789 352.432L30.701 346.737L32.677 341.063L34.691 335.402L36.750 329.803L38.909 324.168L41.182 318.531L43.585 312.808L46.061 307.087L48.584 301.387L51.168 295.705L53.836 290.068L56.573 284.512L59.444 278.882L62.343 273.330L65.358 267.685L68.418 262.143L71.654 256.499L75.061 250.791L78.612 244.997L82.256 239.194L85.973 233.439L89.765 227.774L93.734 222.075L97.822 216.362L102.085 210.556L106.435 204.800L110.874 199.138L115.528 193.434L120.213 187.848L125.099 182.158L130.003 176.580L135.182 170.855L140.546 165.114L146.120 159.332L151.789 153.637L157.414 148.138L163.038 142.801L168.631 137.654L174.322 132.579L180.086 127.613L185.803 122.833L191.644 118.113L197.376 113.617L203.212 109.174L208.847 105.018L214.495 100.978L220.073 97.116L225.625 93.379L231.287 89.690L236.965 86.100L242.816 82.508L248.536 79.094L254.245 75.790L259.904 72.615L265.599 69.518L271.243 66.538L276.953 63.621L282.598 60.826L288.411 58.039L294.085 55.405L299.814 52.829L305.344 50.418L310.925 48.064L316.583 45.759L322.298 43.519L328.012 41.354L333.521 39.346L339.053 37.395L344.633 35.498L350.339 33.627L356.090 31.819L361.844 30.084L367.578 28.428L373.261 26.854L378.907 25.366L384.582 23.941L390.320 22.567L396.053 21.267L401.784 20.034L407.479 18.878L413.216 17.778L418.909 16.757L424.545 15.807L430.171 14.927L435.791 14.111L441.477 13.355L447.156 12.662L452.646 12.054L457.552 11.553L461.685 11.167L465.283 10.861L469.206 10.566L473.878 10.255L479.263 9.938L484.936 9.647L490.636 9.407L496.335 9.220L502.034 9.090L507.733 9.020L513.433 9.011L519.132 9.064L524.831 9.177L530.530 9.352L536.184 9.589L541.840 9.882L547.482 10.240L553.215 10.657L558.911 11.138L564.613 11.675L570.224 12.274L575.911 12.942L581.584 13.670L587.336 14.468L593.025 15.320L598.742 16.237L604.438 17.217L610.158 18.263L615.889 19.380L621.605 20.558L627.314 21.800L633.003 23.104L638.680 24.472L644.347 25.903L649.994 27.396L655.604 28.944L661.217 30.563L666.869 32.263L672.565 34.049L678.277 35.911L683.967 37.839L689.606 39.821L695.295 41.900L700.998 44.062L706.791 46.338L712.565 48.686L718.304 51.101L724.114 53.635L729.853 56.220L735.609 58.896L741.225 61.593L746.886 64.409L752.580 67.330L758.337 70.386L763.966 73.461L769.580 76.624L775.106 79.834L780.764 83.224L786.461 86.751L792.214 90.426L797.924 94.186L803.694 98.110L809.472 102.162L815.329 106.389L821.125 110.684L826.876 115.049L832.576 119.493L838.193 124.016L843.853 128.730L849.632 133.703L855.420 138.830L861.156 144.079L866.693 149.318L872.247 154.760L877.689 160.250L883.068 165.863L888.258 171.440L893.364 177.108L898.292 182.734L903.059 188.356L907.647 193.929L912.169 199.583L916.510 205.174L920.799 210.867L924.964 216.566L929.153 222.455L933.170 228.281L937.051 234.097L940.716 239.747L944.262 245.364L947.668 250.925L951.047 256.620L954.350 262.339L957.605 268.127L960.723 273.860L963.752 279.632L966.711 285.438L969.557 291.174L972.348 296.988L974.985 302.695L977.580 308.472L980.025 314.082L982.394 319.687L984.639 325.249L986.827 330.852L988.959 336.474L991.034 342.114L993.032 347.781L994.948 353.475L996.798 359.191L998.591 364.925L1000.312 370.683L1001.954 376.420L1003.498 382.126L1004.971 387.787L1006.377 393.484L1007.731 399.206L1009.016 404.963L1010.218 410.660L1011.350 416.368L1012.403 422.024L1013.400 427.742L1014.313 433.419L1015.161 439.163L1015.936 444.865L1016.659 450.629L1017.313 456.341L1017.892 462.085L1018.392 467.769L1018.827 473.468L1019.202 479.151L1019.503 484.850L1019.720 490.550L1019.862 496.249L1019.955 501.948L1020 507.647L1019.991 513.347L1019.919 519.046L1019.801 524.745L1019.636 530.444L1019.410 536.144L1019.104 541.843L1018.716 547.522L1018.263 553.216L1017.753 558.898L1017.188 564.606L1016.569 570.304L1015.884 575.988L1015.128 581.713L1014.301 587.443L1013.402 593.212L1012.445 598.954L1011.424 604.648L1010.333 610.356L1009.169 616.039L1007.934 621.758L1006.630 627.445L1005.261 633.135L1003.803 638.866L1002.261 644.629L1000.638 650.391L998.967 656.079L997.247 661.676L995.445 667.331L993.546 673.045L991.534 678.899L989.478 684.646L987.358 690.343L985.197 695.930L982.917 701.600L980.552 707.296L978.038 713.144L975.480 718.910L972.788 724.769L970.085 730.458L967.246 736.245L964.401 741.863L961.408 747.598L958.347 753.272L955.110 759.100L951.822 764.826L948.461 770.518L945.067 776.087L941.526 781.739L937.859 787.419L934.063 793.133L930.186 798.789L926.140 804.510L921.965 810.242L917.619 816.032L913.207 821.736L908.699 827.387L903.994 833.095L899.135 838.813L893.977 844.697L888.673 850.550L883.291 856.318L878.002 861.796L872.806 867.019L869.134 870.647L865.940 873.734" stroke="black" stroke-width="45" fill="none" stroke-linecap="round" stroke-linejoin="round"></path><path id="path-extension-1" d="M852.577 886.083L858.610 880.817" stroke="black" stroke-width="45" fill="none" stroke-linecap="round" stroke-linejoin="round"></path><path id="path-extension-2" d="M865.940 873.734L858.610 880.817" stroke="black" stroke-width="45" fill="none" stroke-linecap="round" stroke-linejoin="round"></path><path id="path-connection-1" d="M858.610 880.817L858.610 880.817" stroke="black" stroke-width="45" fill="none" stroke-linecap="round" stroke-linejoin="round"></path></g></svg>