<svg xmlns="http://www.w3.org/2000/svg" viewBox="4 17.658000946044922 1016 988.6839599609375" width="1024" height="1024" class="colorable-icon" overflow="visible"><g id="skeleton-paths" stroke-width="45.0"><path id="path-0-0" d="M413.197 698.356L414.344 698.350L415.975 698.342L417.978 698.332L420.459 698.321L423.108 698.306L425.523 698.293L427.657 698.278" stroke="#000000" stroke-width="45" fill="none" stroke-linecap="round" stroke-linejoin="round"></path><path id="path-1-0" d="M433.879 992.875L434.975 991.676L436.534 989.970L438.478 987.842L440.588 985.531L442.401 983.547L444.365 981.399L446.163 979.435L448.249 977.157L450.178 975.049L452.358 972.665L454.302 970.538L456.411 968.228L458.223 966.244L460.188 964.096L461.981 962.127L464.051 959.831L465.948 957.690L468.079 955.261L469.970 953.090L472.023 950.731L473.780 948.697L475.618 946.554L477.243 944.648L479.004 942.577L480.607 940.652L482.422 938.270L484.130 935.497L485.843 931.972L486.994 928.488L487.559 925.156L487.536 922.234L487.229 919.326L486.807 916.437L486.348 913.531L485.847 910.702L485.329 907.917L484.881 905.607L484.419 903.234L484.043 901.295L483.567 898.837L483.095 896.405L482.543 893.554L482.002 890.763L481.526 888.311L481.037 885.788L480.550 883.273L480.006 880.466L479.467 877.687L479.020 875.379L478.559 873.003L478.184 871.065L477.707 868.606L477.236 866.175L476.683 863.325L476.142 860.534L475.667 858.083L475.178 855.559L474.691 853.044L474.146 850.237L473.591 847.370L473.048 844.572L472.492 841.700L471.935 838.825L471.382 835.974L470.824 833.095L470.283 830.305L469.808 827.856L469.319 825.330L468.831 822.814L468.287 820.007L467.731 817.140L467.189 814.342L466.632 811.469L466.075 808.594L465.522 805.743L464.964 802.865L464.424 800.076L463.949 797.628L463.460 795.102L462.972 792.585L462.428 789.777L461.872 786.910L461.329 784.112L460.772 781.234L460.231 778.444L459.756 775.994L459.284 773.559L458.892 771.535L458.450 769.255L458.068 767.287L457.601 764.874L457.113 762.357L456.568 759.548L456.012 756.680L455.470 753.882L454.912 751.004L454.371 748.215L453.897 745.766L453.425 743.330L453.032 741.305L452.590 739.023L452.209 737.056L451.741 734.644L451.254 732.126L450.713 729.317L450.163 726.446L449.616 723.553L448.964 720.075L448.468 717.414L447.975 714.772" stroke="#000000" stroke-width="45" fill="none" stroke-linecap="round" stroke-linejoin="round"></path><path id="path-2-0" d="M395.379 711.888L395.023 713.626L394.526 715.987L393.875 719.195L393.253 722.277L392.779 724.682L392.313 727.034L391.926 728.986L391.460 731.341L391.072 733.295L390.610 735.628L390.219 737.603L389.748 739.977L389.352 741.975L388.872 744.402L388.388 746.843L387.821 749.705L387.266 752.511L386.795 754.886L386.329 757.242L385.937 759.218L385.467 761.592L385.071 763.591L384.612 765.910L384.225 767.860L383.767 770.174L383.380 772.130L382.897 774.565L382.411 777.021L381.839 779.908L381.283 782.716L380.812 785.091L380.345 787.449L379.955 789.420L379.484 791.795L379.089 793.788L378.608 796.217L378.124 798.658L377.557 801.523L377.001 804.330L376.531 806.706L376.064 809.063L375.678 811.011L375.211 813.370L374.824 815.320L374.362 817.657L373.972 819.623L373.501 821.998L373.107 823.986L372.626 826.418L372.142 828.859L371.574 831.725L371.018 834.535L370.548 836.911L370.080 839.271L369.690 841.238L369.220 843.612L368.825 845.601L368.344 848.033L367.861 850.474L367.293 853.340L366.737 856.149L366.266 858.525L365.799 860.884L365.409 862.852L364.938 865.227L364.544 867.217L364.062 869.648L363.579 872.089L363.011 874.954L362.455 877.763L361.985 880.139L361.518 882.498L361.132 884.445L360.664 886.805L360.278 888.754L359.815 891.092L359.426 893.055L358.956 895.430L358.562 897.414L358.080 899.849L357.599 902.290L357.036 905.184L356.500 908.017L356.065 910.448L355.690 912.821L355.425 914.774L355.145 917.073L354.940 919.001L354.724 921.321L354.705 923.747L355.045 926.963L356.024 930.653L357.467 934.376L359.302 937.772L361.293 940.711L363.519 943.555L365.782 946.269L367.802 948.613L369.753 950.843L371.504 952.828L373.541 955.139L375.424 957.284L377.563 959.706L379.486 961.858L381.600 964.172L383.436 966.140L385.432 968.259L387.261 970.190L389.377 972.429L391.338 974.499L393.555 976.838L395.535 978.924L397.764 981.272L399.744 983.357L401.973 985.705L403.953 987.791L406.182 990.139L407.603 991.636L409.033 993.142" stroke="#000000" stroke-width="45" fill="none" stroke-linecap="round" stroke-linejoin="round"></path><path id="path-3-0" d="M348.269 521.685L350.709 523.394L353.600 525.319L357.322 527.719L360.670 529.726L363.624 531.360L366.493 532.843L369.401 534.245L372.405 535.598L375.820 537.004L379.639 538.432L383.795 539.843L387.604 541.020L391.005 541.956L393.871 542.651L396.726 543.267L399.544 543.804L402.071 544.252L404.503 544.625L406.492 544.895L408.839 545.167L411.282 545.394L414.101 545.614L416.914 545.776L419.359 545.876L421.736 545.916L423.771 545.902L426.060 545.845L428.122 545.753L430.524 545.610L433.010 545.407L435.795 545.137L438.566 544.806L441.030 544.465L443.487 544.064L445.641 543.670L448.092 543.176L450.617 542.592L453.890 541.750L457.662 540.660L461.440 539.483L464.831 538.320L467.363 537.380L469.882 536.379L472.427 535.296L475.215 534.074L478.129 532.703L480.842 531.343L483.822 529.755L486.613 528.173L489.222 526.635L491.593 525.136L493.680 523.746L495.895 522.195L497.345 521.152L498.717 520.135" stroke="#000000" stroke-width="45" fill="none" stroke-linecap="round" stroke-linejoin="round"></path><path id="path-4-0" d="M524.456 526.074L524.977 529.141L525.645 532.456L526.686 536.963L527.932 541.283L529.423 545.572L530.608 548.716L531.706 551.329" stroke="#000000" stroke-width="45" fill="none" stroke-linecap="round" stroke-linejoin="round"></path><path id="path-5-0" d="M452.142 690.402L453.364 688.841L454.546 687.330L456.404 684.958L458.334 682.494L460.527 679.695L462.838 676.745L465.139 673.808L467.461 670.844L469.673 668.020L471.584 665.581L473.418 663.240L475.060 661.145L476.906 658.788L478.559 656.675L480.398 654.321L482.319 651.852L484.509 649.032L486.704 646.192L488.601 643.728L490.349 641.438L491.845 639.465L493.523 637.245L495.125 635.123L496.929 632.732L498.545 630.587L500.241 628.329L501.739 626.327L503.350 624.169L504.831 622.176L506.532 619.873L508.419 617.295L510.817 613.987L513.503 610.239L516.154 606.497L518.499 603.142L520.302 600.524L521.925 598.132L523.309 596.058L524.793 593.803L526.146 591.718L527.675 589.281L528.707 587.622L529.788 585.814" stroke="#000000" stroke-width="45" fill="none" stroke-linecap="round" stroke-linejoin="round"></path><path id="path-6-0" d="M311.741 584.520L312.786 586.308L313.816 587.979L315.357 590.430L316.744 592.526L318.358 594.902L320.085 597.402L322.003 600.144L323.947 602.888L325.693 605.321L327.506 607.818L329.093 609.989L330.907 612.451L332.730 614.905L334.781 617.656L336.862 620.444L338.964 623.260L341.111 626.138L343.338 629.110L345.591 632.082L347.881 635.073L350.077 637.910L351.982 640.371L353.856 642.779L355.791 645.233L358.011 648.026L360.277 650.821L362.250 653.229L364.097 655.452L365.679 657.350L367.451 659.474L369.143 661.503L371.049 663.789L372.759 665.843L374.622 668.080L376.333 670.134L378.248 672.434L379.959 674.488L381.810 676.709L383.504 678.739L385.466 681.090L387.289 683.275L388.756 685.035L389.798 686.287" stroke="#000000" stroke-width="45" fill="none" stroke-linecap="round" stroke-linejoin="round"></path><path id="path-7-0" d="M309.517 556.926L310.163 555.695L311.026 553.953L312.183 551.417L313.517 548.066L314.838 544.205L316.133 539.865L317.238 535.443L318.173 530.807L318.766 527.453L319.219 524.358" stroke="#000000" stroke-width="45" fill="none" stroke-linecap="round" stroke-linejoin="round"></path><path id="path-8-0" d="M604.338 585.971L604.449 584.231L604.618 581.972L604.859 579.230L605.141 576.483L605.408 574.254L605.705 571.948L605.973 570.082L606.315 567.905L606.653 565.965L607.098 563.552L607.627 561.013L608.347 557.796L609.150 554.506L609.980 551.280L610.678 548.743L611.387 546.295L612.112 543.958L612.970 541.272L613.903 538.509L614.768 536.022L615.703 533.485L616.667 531.044L617.847 528.195L619.068 525.423L620.210 522.944L621.344 520.620L622.349 518.625L623.488 516.434L624.451 514.624L625.640 512.462L626.738 510.519L628.118 508.138L629.397 506L630.843 503.647L632.176 501.542L633.653 499.278L635.042 497.211L636.579 494.987L638.024 492.957L639.604 490.796L641.078 488.839L642.746 486.689L644.371 484.656L646.301 482.312L648.136 480.146L650.262 477.732L652.206 475.610L654.449 473.276L656.484 471.246L658.820 469.005L660.912 467.060L663.345 464.870L665.795 462.754L668.590 460.408L671.327 458.191L673.764 456.269L676.028 454.552L678.027 453.087L680.214 451.533L682.266 450.121L684.515 448.622L686.609 447.273L688.905 445.844L691.015 444.578L693.386 443.209L695.819 441.866L698.557 440.397L701.397 438.932L704.326 437.487L707.639 435.949L711.261 434.363L714.948 432.828L718.239 431.531L720.865 430.553L723.191 429.736L725.258 429.051L727.527 428.341L729.624 427.720L731.894 427.081L733.786 426.570L735.978 426.011L737.910 425.543L740.277 425L742.235 424.570L744.535 424.104L746.489 423.736L748.883 423.322L750.852 423.004L753.110 422.675L755.388 422.393L758.490 422.063L762.192 421.740L766.346 421.453L770.642 421.254L774.935 421.163L779.256 421.167L783.548 421.274L787.842 421.478L792.126 421.798L796.438 422.224L800.731 422.762L805.021 423.415L809.314 424.188L813.626 425.083L817.920 426.088L822.210 427.212L826.508 428.459L830.800 429.834L835.139 431.358L839.463 433.019L843.825 434.824L848.127 436.750L852.439 438.825L856.807 441.096L861.174 443.523L865.486 446.081L869.737 448.781L874.013 451.676L878.368 454.807L882.693 458.114L887.022 461.630L891.389 465.407L895.792 469.444L900.077 473.617L904.165 477.880L907.942 482.106L911.532 486.399L914.902 490.707L918.090 495.022L921.173 499.466L924.007 503.784L926.765 508.241L929.234 512.484L931.612 516.852L933.767 521.107L935.831 525.460L937.717 529.727L939.484 534.004L941.109 538.259L942.627 542.554L944.032 546.887L945.323 551.258L946.494 555.654L947.534 560.042L948.440 564.383L949.217 568.689L949.881 572.981L950.438 577.296L950.895 581.627L951.234 585.944L951.447 590.296L951.521 594.610L951.468 598.966L951.293 603.266L951 607.608L950.601 611.925L950.112 616.263L949.534 620.568L948.860 624.868L948.071 629.172L947.167 633.482L946.136 637.826L944.974 642.179L943.683 646.538L942.270 650.870L940.715 655.231L939.031 659.583L937.204 663.957L935.264 668.270L933.161 672.626L930.881 677.040L928.460 681.432L925.850 685.848L923.114 690.179L920.141 694.607L917.079 698.896L913.799 703.209L910.317 707.484L906.489 711.894L902.400 716.305L899.368 719.460L896.739 722.063" stroke="#000000" stroke-width="45" fill="none" stroke-linecap="round" stroke-linejoin="round"></path><path id="path-9-0" d="M824.828 763.874L826.615 763.326L828.720 762.664L831.785 761.671L834.736 760.680L837.298 759.786L839.767 758.865L842.328 757.812L845.482 756.410L848.759 754.869L851.958 753.310L854.585 751.991L857.133 750.681L859.700 749.316L862.487 747.829L865.269 746.275L867.019 745.307L868.531 744.392" stroke="#000000" stroke-width="45" fill="none" stroke-linecap="round" stroke-linejoin="round"></path><path id="path-10-0" d="M603.857 606.650L604.061 609.663L604.325 612.659L604.697 616.470L605.018 619.145L605.371 621.665L605.748 623.994L606.220 626.722L606.750 629.491L607.247 631.937L607.809 634.469L608.430 636.992L609.274 640.200L610.181 643.432L611.106 646.565L611.875 649.024L612.639 651.318L613.352 653.355L614.209 655.688L615.185 658.221L616.318 661.049L617.498 663.899L618.550 666.343L619.577 668.648L620.543 670.731L621.697 673.140L622.981 675.690L624.442 678.491L625.967 681.288L627.318 683.685L628.698 686.028L629.914 688.006L631.386 690.344L632.755 692.447L634.304 694.766L635.716 696.803L637.344 699.069L638.931 701.207L640.750 703.579L642.410 705.676L644.258 707.925L645.993 709.960L647.970 712.209L649.769 714.192L651.756 716.312L653.609 718.224L655.782 720.398L657.815 722.369L660.048 724.468L662.006 726.251L664.086 728.092L665.971 729.711L668.128 731.507L670.205 733.180L672.620 735.062L675.101 736.916L677.850 738.921L680.631 740.875L683.114 742.565L685.580 744.159L687.996 745.638L690.693 747.247L693.424 748.819L695.901 750.207L698.417 751.550L700.943 752.839L703.764 754.234L706.653 755.609L709.142 756.760L711.571 757.833L713.539 758.658L715.898 759.609L717.982 760.405L720.385 761.290L722.818 762.123L726.004 763.153L729.677 764.260L733.356 765.313L736.681 766.191L739.169 766.805L741.625 767.363L743.560 767.777L745.836 768.235L747.774 768.598L750.128 769.015L752.159 769.355L754.542 769.710L756.942 770.005L759.758 770.297L762.584 770.554L765.029 770.761L767.464 770.932L769.501 771.015L771.834 771.034L773.791 770.990L776.060 770.927L778.038 770.876L780.321 770.835L782.302 770.815L784.637 770.781L786.699 770.723L789.043 770.605L791.076 770.458L793.364 770.259L795.417 770.045L797.776 769.751L799.998 769.421L802.785 768.904L804.705 768.526L806.856 768.020" stroke="#000000" stroke-width="45" fill="none" stroke-linecap="round" stroke-linejoin="round"></path><path id="path-11-0" d="M259.388 210.643L260.577 209.525L262.223 208.088L264.272 206.376L266.491 204.690L268.515 203.289L270.842 201.823L273.382 200.429L276.620 198.930L280.276 197.578L283.964 196.501L287.339 195.809L290.347 195.449L293.207 195.265L296.094 195.233L298.880 195.303L301.765 195.490L304.578 195.765L307.052 196.049L309.543 196.369L311.984 196.675L314.801 197.015L317.711 197.346L320.580 197.645L323.474 197.914L326.329 198.137L328.777 198.308L331.187 198.439L333.113 198.501L335.366 198.539L337.342 198.549L339.632 198.559L341.665 198.565L343.954 198.561L345.987 198.551L348.275 198.541L350.308 198.540L352.656 198.539L354.668 198.534L357.099 198.507L359.439 198.457L362.291 198.378L365.038 198.271L367.531 198.153L369.881 198.004L371.914 197.852L374.263 197.646L376.277 197.447L378.701 197.181L381.036 196.903L383.883 196.550L386.638 196.185L389.160 195.836L391.627 195.460L394.219 195.027L397.443 194.451L400.694 193.838L403.935 193.190L406.806 192.577L409.777 191.907L412.607 191.239L415.168 190.614L417.613 189.983L420.174 189.287L423.453 188.360L427.287 187.230L431.527 185.925L435.860 184.523L440.173 183.057L444.389 181.558L448.232 180.141L451.695 178.820L454.807 177.592L457.753 176.400L460.590 175.223L462.970 174.215L465.448 173.137L467.930 172.031L470.798 170.734L473.726 169.378L476.625 167.998L479.526 166.583L482.414 165.144L485.282 163.703L488.162 162.247L490.955 160.831L493.325 159.628L495.583 158.481L497.391 157.568L498.933 156.790L499.953 156.280" stroke="#000000" stroke-width="45" fill="none" stroke-linecap="round" stroke-linejoin="round"></path><path id="path-12-0" d="M517.182 159.377L519.675 160.944L522.790 162.960L527.083 165.815L531.507 168.907L535.841 172.089L540.238 175.541L544.554 179.205L548.687 183.053L552.644 187.022L556.305 190.955L559.863 195.005L563.303 199.220L566.797 203.792L569.308 207.203L571.450 210.215" stroke="#000000" stroke-width="45" fill="none" stroke-linecap="round" stroke-linejoin="round"></path><path id="path-13-0" d="M527.584 491.306L528.678 489.880L529.850 488.327L531.641 485.926L533.229 483.755L534.874 481.455L536.304 479.404L537.823 477.164L539.194 475.084L540.657 472.811L541.987 470.701L543.455 468.324L544.939 465.863L546.543 463.146L548.110 460.423L549.491 457.969L550.855 455.467L552.196 452.925L553.654 450.101L555.049 447.334L556.253 444.914L557.402 442.543L558.548 440.094L559.799 437.311L561.076 434.350L562.339 431.306L563.726 427.855L565.215 424.042L566.765 419.947L568.149 416.122L569.328 412.698L570.248 409.879L571.372 407.002L572.953 404.250L575.227 401.345L577.992 398.922L580.661 396.934L583.311 395.193L585.502 393.636L587.807 391.838L589.859 390.084L592.222 387.899L594.579 385.508L597.115 382.779L599.473 380.032L601.437 377.607L603.170 375.271L604.587 373.212L606.065 370.912L607.359 368.755L608.665 366.430L609.767 364.336L610.864 362.100L611.832 359.980L612.839 357.633L613.719 355.451L614.582 353.181L615.319 351.107L616.061 348.829L616.707 346.723L617.378 344.312L618.011 341.820L618.679 338.962L619.275 336.080L619.728 333.635L620.079 331.201L620.302 328.816L620.485 326.095L620.574 323.285L620.609 320.892L620.577 318.420L620.487 316.405L620.302 314.046L620.051 312.020L619.679 309.716L619.269 307.675L618.703 305.457L618.102 303.426L617.187 301.036L615.903 298.291L613.873 294.898L611.445 291.510L608.676 288.423L606.174 286.124L603.391 284.124L600.641 281.847L597.824 278.629L595.696 274.464L594.529 270.373L594.028 267.636L593.942 265.980" stroke="#000000" stroke-width="45" fill="none" stroke-linecap="round" stroke-linejoin="round"></path><path id="path-14-0" d="M234.904 284.620L233.638 285.609L232.015 287.016L230.074 288.814L228.214 290.869L226.715 292.839L225.242 295.289L223.913 297.990L222.574 301.336L221.463 304.534L220.606 307.550L220.076 309.830L219.692 312.069L219.429 314.037L219.204 316.313L219.079 318.346L219.017 320.635L219.032 322.668L219.132 325.024L219.321 327.411L219.584 330.058L219.911 332.692L220.254 335.051L220.692 337.547L221.256 340.198L222.027 343.419L222.886 346.665L223.789 349.761L224.550 352.213L225.413 354.674L226.343 357.065L227.533 359.896L228.803 362.669L230.034 365.208L231.318 367.628L232.542 369.772L233.946 372.071L235.301 374.152L236.945 376.481L238.880 378.971L241.442 381.983L244.220 385.003L247.024 387.807L249.359 389.936L251.687 391.802L253.880 393.374L256.555 395.087L259.115 396.580L262.143 398.532L264.832 400.795L267.499 403.805L269.324 406.863L270.636 409.618L271.562 412.224L272.481 414.813L273.656 418.083L274.887 421.411L276.177 424.708L277.248 427.271L278.360 429.730L279.466 432.069L280.787 434.834L282.165 437.678L283.590 440.587L285.025 443.465L286.483 446.331L288.039 449.299L289.813 452.566L291.669 455.883L293.485 459.039L294.993 461.592L296.428 463.943L297.734 466.031L299.189 468.309L300.551 470.394L302.044 472.626L303.436 474.659L305.029 476.923L306.578 479.076L308.351 481.491L309.965 483.644L311.679 485.876L313.228 487.834L314.426 489.327L315.344 490.456" stroke="#000000" stroke-width="45" fill="none" stroke-linecap="round" stroke-linejoin="round"></path><path id="path-15-0" d="M240.651 241.958L240.617 243.426L240.602 244.885L240.603 247.173L240.638 249.206L240.712 251.495L240.806 253.528L240.955 255.856L241.151 258.299L241.398 261.032L241.667 263.890L241.914 266.317L242.198 268.856L242.388 270.390L242.606 272.101" stroke="#000000" stroke-width="45" fill="none" stroke-linecap="round" stroke-linejoin="round"></path><path id="path-16-0" d="M234.586 207.273L234.563 205.370L234.560 203.636L234.560 200.853L234.582 198.259L234.591 195.699L234.614 193.192L234.650 191.027L234.708 188.653L234.808 186.445L234.900 184.022L235.021 181.902L235.120 179.760L235.247 177.937L235.422 175.756L235.618 173.835L235.877 171.522L236.124 169.548L236.437 167.234L236.734 165.211L237.103 162.879L237.534 160.442L238.127 157.345L238.808 154.071L239.529 150.828L240.170 148.183L240.824 145.684L241.545 143.179L242.459 140.152L243.469 137.002L244.509 133.921L245.409 131.401L246.309 129.049L247.110 127.067L248.126 124.682L249.047 122.605L250.141 120.225L251.062 118.285L252.210 115.927L253.217 113.893L254.407 111.557L255.398 109.677L256.621 107.450L257.768 105.447L259.143 103.122L260.434 101.030L261.886 98.749L263.259 96.671L264.769 94.456L266.188 92.448L267.817 90.223L269.414 88.113L271.258 85.750L272.954 83.646L274.762 81.471L276.382 79.588L278.204 77.535L279.965 75.610L282.029 73.425L283.977 71.427L286.126 69.294L288.031 67.464L290.165 65.485L292.165 63.688L294.581 61.594L297.084 59.509L299.936 57.210L302.713 55.054L305.164 53.210L307.506 51.527L309.887 49.897L312.628 48.075L315.559 46.197L318.569 44.357L321.838 42.451L325.139 40.613L328.377 38.881L331.408 37.347L334.682 35.789L338.329 34.146L341.950 32.582L345.238 31.233L347.747 30.257L350.174 29.360L352.249 28.628L354.604 27.821L357.043 27.036L360.235 26.059L363.893 25.010L367.532 24.015L370.850 23.175L373.844 22.485L377.209 21.775L380.528 21.122L383.854 20.514L386.886 20.027L390.251 19.546L393.575 19.118L396.754 18.742L399.233 18.486L401.570 18.282L403.625 18.131L406.025 17.986L408.261 17.877L410.750 17.779L412.997 17.715L415.240 17.670L417.423 17.658L419.444 17.669L421.728 17.722L424.117 17.806L426.943 17.931L429.793 18.084L432.302 18.245L434.708 18.434L436.705 18.615L439.046 18.849L441.451 19.118L444.244 19.451L447.144 19.830L449.967 20.237L452.790 20.680L455.570 21.161L458.025 21.610L460.605 22.123L463.066 22.665L465.856 23.311L468.565 23.986L470.938 24.612L473.358 25.289L475.453 25.935L477.859 26.703L480.188 27.539L482.837 28.532L485.547 29.645L488.072 30.737L490.644 31.947L493.323 33.319L496.534 35.079L499.831 36.998L503.011 38.969L505.662 40.707L508.172 42.461L510.321 44.031L512.680 45.853L515.079 47.828L517.786 50.157L520.564 52.682L523.250 55.266L525.889 57.932L528.410 60.618L530.626 63.057L532.773 65.566L534.596 67.799L536.610 70.387L538.378 72.733L540.327 75.279L542.096 77.410L544.212 79.474L546.250 81.042L548.822 82.539L551.532 83.867L554.795 85.396L557.979 86.975L560.762 88.509L563.186 90.058L565.190 91.537L567.381 93.304L569.410 95.074L571.699 97.211L573.738 99.241L575.882 101.524L577.659 103.548L579.460 105.728L580.991 107.703L582.578 109.880L583.984 111.926L585.527 114.340L587.077 116.937L588.753 119.908L590.274 122.761L591.526 125.251L592.585 127.560L593.452 129.574L594.338 131.810L595.097 133.780L595.898 136.028L596.595 138.054L597.313 140.377L597.919 142.469L598.542 144.850L599.053 146.892L599.619 149.345L600.127 151.780L600.679 154.616L601.179 157.503L601.615 160.329L602.006 163.214L602.331 165.984L602.599 168.453L602.822 170.831L602.989 172.864L603.135 175.181L603.226 177.210L603.282 179.576L603.306 181.598L603.309 183.985L603.288 185.930L603.237 188.204L603.164 190.115L603.062 192.414L602.958 194.442L602.832 196.759L602.716 198.792L602.558 201.138L602.361 203.723L602.101 206.724L601.891 209.165L601.722 210.968" stroke="#000000" stroke-width="45" fill="none" stroke-linecap="round" stroke-linejoin="round"></path><path id="path-17-0" d="M4 931.758L4.127 930.122L4.294 928.056L4.560 925.191L4.811 922.781L5.087 920.405L5.320 918.413L5.583 916.061L5.846 913.600L6.138 910.829L6.447 907.894L6.739 905.120L7.039 902.270L7.325 899.538L7.587 897.008L7.841 894.547L8.052 892.472L8.282 890.116L8.514 887.662L8.772 884.872L9.050 881.938L9.330 879.062L9.617 876.198L9.900 873.392L10.139 871.032L10.383 868.617L10.587 866.603L10.830 864.197L11.081 861.716L11.363 858.918L11.653 856.053L11.896 853.641L12.144 851.194L12.391 848.750L12.675 845.941L12.964 843.074L13.208 840.665L13.448 838.294L13.649 836.307L13.887 833.951L14.137 831.476L14.420 828.688L14.710 825.826L14.955 823.410L15.210 820.944L15.460 818.601L15.755 815.866L16.049 813.119L16.314 810.603L16.567 808.136L16.780 806.055L17.018 803.695L17.266 801.246L17.547 798.464L17.836 795.606L18.082 793.185L18.335 790.726L18.595 788.285L18.897 785.495L19.223 782.556L19.557 779.762L19.920 776.914L20.305 774.171L20.655 771.681L21.039 769.171L21.449 766.726L21.933 764.070L22.478 761.359L22.960 759.102L23.522 756.708L24.008 754.792L24.624 752.480L25.182 750.487L25.914 748.025L26.726 745.501L27.701 742.639L28.689 739.925L29.583 737.571L30.555 735.190L31.616 732.752L32.906 729.922L34.251 727.142L35.533 724.618L36.893 722.132L38.162 719.951L39.599 717.582L40.863 715.586L42.302 713.358L43.661 711.354L45.231 709.131L46.713 707.140L48.421 704.950L50.086 702.905L52.091 700.557L53.994 698.428L56.208 696.074L58.229 694.034L60.485 691.993L62.416 690.320L64.589 688.573L66.571 686.807L68.949 684.824L71.091 683.073L73.406 681.384L75.444 679.961L77.671 678.435L79.746 677.040L82.081 675.500L84.161 674.146L86.456 672.671L88.261 671.527L90.463 670.191L92.286 669.136L94.680 667.808L96.698 666.728L99.165 665.441L101.196 664.408L103.492 663.267L105.454 662.312L107.828 661.177L109.906 660.196L112.240 659.110L114.238 658.194L116.638 657.105L118.726 656.163L121.087 655.107L122.940 654.283L125.199 653.292L126.989 652.515L129.288 651.529L131.249 650.696L133.762 649.634L135.886 648.739L138.256 647.744L140.124 646.961L142.405 646.008L144.423 645.166L146.859 644.152L148.942 643.287L151.184 642.359L153.189 641.528L155.412 640.608L157.443 639.769L159.727 638.829L161.767 637.987L164.180 636.995L166.285 636.127L168.569 635.188L170.547 634.370L172.772 633.451L174.785 632.619L177.050 631.686L178.906 630.918L181.182 629.974L183.167 629.145L185.627 628.118L187.730 627.237L190.080 626.251L192.081 625.410L194.333 624.459L196.182 623.677L198.425 622.726L200.396 621.890L202.903 620.821L205.024 619.915L207.389 618.898L209.225 618.110L211.482 617.142L213.464 616.296L215.920 615.248L218.020 614.353L220.364 613.356L222.358 612.509L224.605 611.561L226.453 610.783L228.699 609.840L230.676 609.007L233.187 607.949L235.309 607.052L237.673 606.053L239.534 605.258L241.781 604.288L243.785 603.411L246.261 602.324L248.359 601.402L250.678 600.374L252.525 599.546L254.750 598.529L256.734 597.610L259.176 596.470L261.243 595.496L263.613 594.359L265.559 593.413L267.946 592.229L269.853 591.275L272.229 590.052L274.134 589.054L276.654 587.678L278.685 586.545L281.215 585.060L283.125 583.912L284.819 582.856L285.773 582.266" stroke="#000000" stroke-width="45" fill="none" stroke-linecap="round" stroke-linejoin="round"></path><path id="path-18-0" d="M552.371 577.852L553.574 578.576L555.302 579.530L557.451 580.690L559.939 581.961L562.004 582.996L564.406 584.187L566.350 585.145L568.742 586.315L571.159 587.488L573.990 588.851L576.822 590.199L579.250 591.341L581.591 592.426L583.532 593.316L585.184 594.072L586.334 594.591" stroke="#000000" stroke-width="45" fill="none" stroke-linecap="round" stroke-linejoin="round"></path><path id="path-19-0" d="M816.008 787.642L816.286 790.239L816.614 793.301L817.077 797.617L817.540 801.941L818.004 806.262L818.468 810.587L818.931 814.910L819.395 819.231L819.858 823.556L820.322 827.879L820.786 832.200L821.249 836.525L821.713 840.848L822.177 845.169L822.640 849.494L823.104 853.817L823.567 858.139L824.031 862.463L824.495 866.786L824.958 871.108L825.422 875.432L825.886 879.755L826.349 884.077L826.813 888.401L827.277 892.724L827.740 897.046L828.202 901.371L828.659 905.694L829.110 910.016L829.562 914.358L830.011 918.664L830.449 922.973L830.753 926.013L830.991 928.619" stroke="#000000" stroke-width="45" fill="none" stroke-linecap="round" stroke-linejoin="round"></path><path id="path-20-0" d="M890.182 751.018L890.966 752.251L892.063 753.962L893.416 756.063L894.974 758.459L896.242 760.398L897.814 762.794L899.061 764.691L900.670 767.137L901.917 769.034L903.519 771.470L904.763 773.362L906.317 775.724L907.572 777.632L909.104 779.961L910.449 782.006L911.969 784.318L913.337 786.397L914.821 788.655L916.191 790.737L917.676 792.995L919.045 795.077L920.530 797.334L921.899 799.417L923.384 801.674L924.753 803.756L926.238 806.014L927.607 808.096L929.092 810.354L930.462 812.436L931.946 814.693L933.316 816.776L934.801 819.033L936.170 821.115L937.655 823.373L939.024 825.455L940.509 827.713L941.878 829.795L943.363 832.052L944.732 834.135L946.217 836.392L947.587 838.474L949.071 840.732L950.441 842.814L951.926 845.072L953.295 847.154L954.779 849.411L956.146 851.489L957.658 853.788L958.956 855.761L960.460 858.048L961.994 860.381L964.169 863.689L966.675 867.499L969.520 871.825L972.371 876.161L975.192 880.450L977.674 884.224L979.879 887.578L981.435 889.943L983.052 892.402L984.269 894.252L985.816 896.606L987.054 898.488L988.581 900.809L989.919 902.844L991.435 905.150L992.801 907.226L994.285 909.483L995.654 911.565L997.139 913.823L998.508 915.905L999.992 918.163L1001.362 920.245L1002.846 922.503L1004.216 924.585L1005.700 926.843L1007.070 928.925L1008.554 931.183L1009.924 933.265L1011.408 935.523L1012.778 937.605L1014.260 939.868L1015.612 941.955L1017.054 944.210L1018.331 946.206L1019.310 947.731L1020 948.768" stroke="#000000" stroke-width="45" fill="none" stroke-linecap="round" stroke-linejoin="round"></path><path id="path-extension-1" d="M413.197 698.356L399.909 698.428" stroke="#000000" stroke-width="45" fill="none" stroke-linecap="round" stroke-linejoin="round"></path><path id="path-extension-2" d="M433.879 992.875L421.564 1006.342" stroke="#000000" stroke-width="45" fill="none" stroke-linecap="round" stroke-linejoin="round"></path><path id="path-extension-3" d="M395.379 711.888L398.133 698.438" stroke="#000000" stroke-width="45" fill="none" stroke-linecap="round" stroke-linejoin="round"></path><path id="path-extension-4" d="M409.033 993.142L421.564 1006.342" stroke="#000000" stroke-width="45" fill="none" stroke-linecap="round" stroke-linejoin="round"></path><path id="path-extension-5" d="M348.269 521.685L330.802 509.448" stroke="#000000" stroke-width="45" fill="none" stroke-linecap="round" stroke-linejoin="round"></path><path id="path-extension-6" d="M498.717 520.135L514.379 508.528" stroke="#000000" stroke-width="45" fill="none" stroke-linecap="round" stroke-linejoin="round"></path><path id="path-extension-7" d="M524.456 526.074L520.684 503.855" stroke="#000000" stroke-width="45" fill="none" stroke-linecap="round" stroke-linejoin="round"></path><path id="path-extension-8" d="M311.741 584.520L303.882 571.074" stroke="#000000" stroke-width="45" fill="none" stroke-linecap="round" stroke-linejoin="round"></path><path id="path-extension-9" d="M389.798 686.287L398.486 696.718" stroke="#000000" stroke-width="45" fill="none" stroke-linecap="round" stroke-linejoin="round"></path><path id="path-extension-10" d="M309.517 556.926L302.941 569.463" stroke="#000000" stroke-width="45" fill="none" stroke-linecap="round" stroke-linejoin="round"></path><path id="path-extension-11" d="M319.219 524.358L322.275 503.475" stroke="#000000" stroke-width="45" fill="none" stroke-linecap="round" stroke-linejoin="round"></path><path id="path-extension-12" d="M259.388 210.643L240.978 227.956" stroke="#000000" stroke-width="45" fill="none" stroke-linecap="round" stroke-linejoin="round"></path><path id="path-extension-13" d="M499.953 156.280L506.811 152.853" stroke="#000000" stroke-width="45" fill="none" stroke-linecap="round" stroke-linejoin="round"></path><path id="path-extension-14" d="M517.182 159.377L506.811 152.853" stroke="#000000" stroke-width="45" fill="none" stroke-linecap="round" stroke-linejoin="round"></path><path id="path-extension-15" d="M571.450 210.215L592.591 239.934" stroke="#000000" stroke-width="45" fill="none" stroke-linecap="round" stroke-linejoin="round"></path><path id="path-extension-16" d="M527.584 491.306L520.191 500.948" stroke="#000000" stroke-width="45" fill="none" stroke-linecap="round" stroke-linejoin="round"></path><path id="path-extension-17" d="M593.942 265.980L592.591 239.934" stroke="#000000" stroke-width="45" fill="none" stroke-linecap="round" stroke-linejoin="round"></path><path id="path-extension-18" d="M234.904 284.620L243.358 278.013" stroke="#000000" stroke-width="45" fill="none" stroke-linecap="round" stroke-linejoin="round"></path><path id="path-extension-19" d="M315.344 490.456L322.834 499.658" stroke="#000000" stroke-width="45" fill="none" stroke-linecap="round" stroke-linejoin="round"></path><path id="path-extension-20" d="M240.651 241.958L240.978 227.956" stroke="#000000" stroke-width="45" fill="none" stroke-linecap="round" stroke-linejoin="round"></path><path id="path-extension-21" d="M242.606 272.101L243.358 278.013" stroke="#000000" stroke-width="45" fill="none" stroke-linecap="round" stroke-linejoin="round"></path><path id="path-extension-22" d="M234.586 207.273L234.902 233.670" stroke="#000000" stroke-width="45" fill="none" stroke-linecap="round" stroke-linejoin="round"></path><path id="path-extension-23" d="M601.722 210.968L598.251 247.892" stroke="#000000" stroke-width="45" fill="none" stroke-linecap="round" stroke-linejoin="round"></path><path id="path-extension-24" d="M285.773 582.266L301.240 572.707" stroke="#000000" stroke-width="45" fill="none" stroke-linecap="round" stroke-linejoin="round"></path><path id="path-extension-25" d="M816.008 787.642L813.736 766.433" stroke="#000000" stroke-width="45" fill="none" stroke-linecap="round" stroke-linejoin="round"></path><path id="path-connection-1" d="M824.828 763.874L806.856 768.020" stroke="#000000" stroke-width="45" fill="none" stroke-linecap="round" stroke-linejoin="round"></path><path id="path-connection-2" d="M421.564 1006.342L421.564 1006.342" stroke="#000000" stroke-width="45" fill="none" stroke-linecap="round" stroke-linejoin="round"></path><path id="path-connection-3" d="M240.978 227.956L240.978 227.956" stroke="#000000" stroke-width="45" fill="none" stroke-linecap="round" stroke-linejoin="round"></path><path id="path-connection-4" d="M506.811 152.853L506.811 152.853" stroke="#000000" stroke-width="45" fill="none" stroke-linecap="round" stroke-linejoin="round"></path><path id="path-connection-5" d="M592.591 239.934L592.591 239.934" stroke="#000000" stroke-width="45" fill="none" stroke-linecap="round" stroke-linejoin="round"></path><path id="path-connection-6" d="M243.358 278.013L243.358 278.013" stroke="#000000" stroke-width="45" fill="none" stroke-linecap="round" stroke-linejoin="round"></path><path id="path-connection-7" d="M427.657 698.278L445.351 698.568" stroke="#000000" stroke-width="45" fill="none" stroke-linecap="round" stroke-linejoin="round"></path><path id="path-connection-8" d="M447.975 714.772L445.351 698.568" stroke="#000000" stroke-width="45" fill="none" stroke-linecap="round" stroke-linejoin="round"></path><path id="path-connection-9" d="M452.142 690.402L445.351 698.568" stroke="#000000" stroke-width="45" fill="none" stroke-linecap="round" stroke-linejoin="round"></path><path id="path-connection-10" d="M552.371 577.852L539.437 569.944" stroke="#000000" stroke-width="45" fill="none" stroke-linecap="round" stroke-linejoin="round"></path><path id="path-connection-11" d="M531.706 551.329L539.437 569.944" stroke="#000000" stroke-width="45" fill="none" stroke-linecap="round" stroke-linejoin="round"></path><path id="path-connection-12" d="M529.788 585.814L539.437 569.944" stroke="#000000" stroke-width="45" fill="none" stroke-linecap="round" stroke-linejoin="round"></path><path id="path-connection-13" d="M604.338 585.971L603.431 602.302" stroke="#000000" stroke-width="45" fill="none" stroke-linecap="round" stroke-linejoin="round"></path><path id="path-connection-14" d="M586.334 594.591L603.431 602.302" stroke="#000000" stroke-width="45" fill="none" stroke-linecap="round" stroke-linejoin="round"></path><path id="path-connection-15" d="M603.857 606.650L603.431 602.302" stroke="#000000" stroke-width="45" fill="none" stroke-linecap="round" stroke-linejoin="round"></path><path id="path-connection-16" d="M896.739 722.063L881.268 737.006" stroke="#000000" stroke-width="45" fill="none" stroke-linecap="round" stroke-linejoin="round"></path><path id="path-connection-17" d="M868.531 744.392L881.268 737.006" stroke="#000000" stroke-width="45" fill="none" stroke-linecap="round" stroke-linejoin="round"></path><path id="path-connection-18" d="M890.182 751.018L881.268 737.006" stroke="#000000" stroke-width="45" fill="none" stroke-linecap="round" stroke-linejoin="round"></path></g></svg>