<svg xmlns="http://www.w3.org/2000/svg" viewBox="4 22.674999237060547 1016 978.6500854492188" width="1024" height="1024" class="colorable-icon" overflow="visible"><g id="skeleton-paths" stroke-width="45.0"><path id="path-0-0" d="M821.652 920.309L822.496 923.508L823.453 927.044L824.761 931.544L825.920 935.124L827.085 938.236L828.207 940.894L829.622 943.897L831.420 947.354L833.670 951.344L836.165 955.422L838.467 958.873L840.864 962.100L843.138 964.892L845.904 968.041L848.563 970.845L851.750 973.939L855.098 976.865L858.945 979.987L862.894 982.903L866.951 985.598L871.365 988.231L875.887 990.659L880.187 992.788L883.702 994.348L886.809 995.566L889.564 996.516L892.671 997.467L896.008 998.317L899.680 999.169L903.420 999.884L906.610 1000.411L909.844 1000.802L912.591 1001.039L915.724 1001.212L918.462 1001.265L921.604 1001.202L924.365 1001.055L927.511 1000.779L930.104 1000.491L933.195 1000.056L935.821 999.619L939.157 998.969L942.512 998.160L946.872 996.947L951.321 995.507L955.659 993.931L959.120 992.497L962.355 990.958L965.360 989.401L968.871 987.445L972.420 985.255L976.251 982.712L980.165 979.810L983.877 976.808L987.503 973.578L990.747 970.377L993.646 967.287L996.351 964.116L998.616 961.240L1000.878 958.147L1002.759 955.315L1004.740 952.059L1006.660 948.490L1008.821 944.037L1010.963 939.018L1012.856 933.981L1014.351 929.330L1015.333 925.687L1016.118 922.342L1016.634 919.723L1017.116 916.747L1017.457 914.088L1017.772 910.869L1017.995 908.016L1018.135 904.837L1018.188 902.085L1018.157 899.003L1018.066 896.264L1017.843 893.061L1017.446 889.603L1016.731 885.074L1015.676 879.950L1014.463 874.924L1013.135 870.555L1012.007 867.261L1010.646 863.973L1009.169 860.679L1007.298 856.899L1005.143 853.003L1002.693 849.025L999.916 844.965L997.040 841.120L994.390 837.862L991.635 834.811L988.652 831.851L985.140 828.556L981.488 825.394L978.234 822.749L975.102 820.444L972.321 818.565L969.224 816.633L966.318 814.961L963.196 813.301L960.367 811.911L957.220 810.504L953.725 809.128L949.353 807.621L944.881 806.245L940.501 805.119L937.085 804.372L933.718 803.832L931.061 803.481L928.033 803.191L925.499 803.027L922.410 802.908L919.664 802.871L916.522 802.890L913.784 802.980L910.681 803.159L907.976 803.389L904.823 803.754L901.902 804.207L898.255 804.900L894.382 805.846L889.678 807.211L884.656 808.974L879.774 810.907L875.431 812.866L871.996 814.583L869.661 815.833L868.007 816.770" stroke="black" stroke-width="45" fill="none" stroke-linecap="round" stroke-linejoin="round"></path><path id="path-1-0" d="M822.981 878.367L823.910 874.546L825.282 870.234L827.453 864.243L830.025 858.298L831.998 854.123L833.793 850.284" stroke="black" stroke-width="45" fill="none" stroke-linecap="round" stroke-linejoin="round"></path><path id="path-2-0" d="M121.435 803.607L125.493 804.437L129.905 805.532L136.178 807.376L142.115 809.609L148.204 812.444L154.133 815.739L160.188 819.621L166.010 823.956L171.656 828.760L177.047 834.105L181.964 839.663L186.462 845.501L190.301 851.266L193.694 857.178L196.580 863.132L198.977 869.102L200.859 875.280L201.980 879.705L202.734 883.784" stroke="black" stroke-width="45" fill="none" stroke-linecap="round" stroke-linejoin="round"></path><path id="path-3-0" d="M87.797 803.476L83.539 804.245L78.953 805.326L72.777 807.043L66.961 809.159L61.237 811.707L55.427 814.752L49.642 818.270L43.881 822.325L38.258 826.929L32.805 832.067L27.729 837.596L23.158 843.408L19.190 849.279L15.776 855.193L12.951 860.851L10.572 866.546L8.636 872.180L7.044 877.889L5.827 883.521L4.926 889.115L4.348 894.790L4.130 900.493L4.317 906.252L4.903 911.951L5.803 917.682L6.989 923.345L8.497 929.094L10.392 934.845L12.746 940.761L15.532 946.611L18.894 952.598L22.777 958.479L27.328 964.412L32.267 969.957L37.634 975.177L43.146 979.791L48.895 983.959L54.701 987.597L60.564 990.780L66.350 993.472L72.144 995.721L77.968 997.551L83.840 999.011L89.698 1000.105L95.499 1000.859L101.296 1001.265L107.075 1001.325L112.888 1001.021L118.718 1000.350L124.610 999.314L130.510 997.903L136.364 996.119L142.204 993.917L148.062 991.264L154.127 988.015L160.199 984.229L166.341 979.770L172.126 974.897L177.612 969.569L182.536 963.950L186.953 958.135L190.893 952.047L194.246 946.058L197.124 939.986L199.413 934.072L200.880 929.813L201.902 926.233" stroke="black" stroke-width="45" fill="none" stroke-linecap="round" stroke-linejoin="round"></path><path id="path-4-0" d="M647.422 418.486L644.712 417.708L641.761 417.018L638.386 416.266L635.018 415.739L632.364 415.416L629.264 415.138L626.687 414.968L623.589 414.797L620.862 414.703L617.744 414.646L615.005 414.652L611.908 414.718L609.196 414.823L605.991 415.048L603.233 415.290L599.743 415.760L596.249 416.463L591.495 417.704L586.317 419.412L580.531 421.658L574.872 424.297L569.109 427.467L563.459 431.073L557.642 435.339L552.106 440.016L546.672 445.302L541.756 450.840L537.210 456.749L533.326 462.604L530.004 468.517L527.290 474.235L525 480.006L523.093 485.675L521.506 491.451L520.294 497.231L519.454 502.983L518.996 508.739L518.893 514.404L519.126 520.177L519.699 525.915L520.621 531.673L521.903 537.393L523.606 543.207L525.760 549.132L528.426 555.228L531.579 561.314L535.196 567.290L539.345 573.115L543.967 578.710L549.222 584.156L554.711 589.094L560.522 593.586L566.276 597.413L572.187 600.792L578.114 603.692L584.061 606.146L589.955 608.144L595.822 609.692L601.672 610.858L607.561 611.655L613.420 612.078L619.260 612.053L625.080 611.575L630.912 610.673L636.816 609.501L642.758 608.126L647.024 607.090L650.621 606.137" stroke="black" stroke-width="45" fill="none" stroke-linecap="round" stroke-linejoin="round"></path><path id="path-5-0" d="M683.292 588.899L684.721 587.575L686.679 585.672L689.200 583.095L691.940 580.095L694.311 577.319L696.731 574.318L698.772 571.604L700.874 568.605L702.700 565.758L704.613 562.491L706.503 558.809L708.625 554.181L710.753 548.900L712.600 543.828L714.021 539.376L714.954 536.005L715.738 532.611L716.359 529.134L716.936 525.297L717.349 521.348L717.588 517.567L717.680 513.590L717.578 509.774L717.387 506.427L717.008 503.151L716.462 499.819L715.567 495.310L714.307 490.097L712.625 484.311L710.522 478.461L708.073 472.800L705.520 467.618L702.912 463.027L700.260 458.906L697.368 454.904L694.200 450.955L690.842 447.184L688.225 444.422L685.865 442.115" stroke="black" stroke-width="45" fill="none" stroke-linecap="round" stroke-linejoin="round"></path><path id="path-6-0" d="M232.941 118.707L234.486 118.708L236.682 118.708L239.420 118.709L242.502 118.710L245.241 118.711L248.323 118.712L251.061 118.712L254.143 118.713L256.881 118.714L259.964 118.715L262.702 118.716L265.784 118.717L268.522 118.717L271.604 118.718L274.342 118.719L277.425 118.720L280.163 118.721L283.245 118.722L285.983 118.723L289.065 118.723L291.804 118.724L294.886 118.725L297.624 118.726L300.706 118.727L303.444 118.728L306.526 118.728L309.265 118.729L312.347 118.730L315.085 118.731L318.167 118.732L320.905 118.733L323.987 118.734L326.726 118.734L329.808 118.735L332.546 118.736L335.628 118.737L338.366 118.738L341.449 118.739L344.187 118.739L347.269 118.740L350.007 118.741L353.089 118.742L355.828 118.743L358.910 118.744L361.648 118.744L364.730 118.745L367.468 118.746L370.550 118.747L373.289 118.748L376.371 118.749L379.109 118.749L382.191 118.750L384.929 118.751L388.011 118.752L390.750 118.753L393.832 118.754L396.570 118.755L399.652 118.755L402.390 118.756L405.473 118.757L408.211 118.758L411.293 118.759L414.031 118.760L417.113 118.760L419.851 118.761L422.934 118.762L425.672 118.763L428.754 118.764L431.492 118.765L434.574 118.766L437.313 118.766L440.395 118.767L443.133 118.768L446.215 118.769L448.953 118.770L452.035 118.771L454.774 118.771L457.856 118.772L460.594 118.773L463.676 118.774L466.414 118.775L469.496 118.776L472.235 118.776L475.317 118.777L478.055 118.778L481.137 118.779L483.875 118.780L486.958 118.781L489.696 118.781L492.778 118.782L495.516 118.783L498.598 118.784L501.336 118.785L504.419 118.786L507.157 118.787L510.239 118.787L512.977 118.788L516.059 118.789L518.798 118.790L521.880 118.791L524.618 118.792L527.700 118.792L530.438 118.793L533.520 118.794L536.259 118.795L539.341 118.796L542.079 118.797L545.161 118.798L547.899 118.798L550.981 118.799L553.720 118.800L556.802 118.801L559.540 118.802L562.622 118.803L565.360 118.803L568.443 118.804L571.181 118.805L574.263 118.806L577.001 118.807L580.083 118.808L582.822 118.808L585.904 118.809L588.642 118.810L591.724 118.811L594.462 118.812L597.544 118.813L600.283 118.813L603.365 118.814L606.103 118.815L609.185 118.816L611.923 118.817L615.005 118.818L617.744 118.818L620.826 118.819L623.564 118.820L626.646 118.821L629.384 118.822L632.467 118.823L635.205 118.824L638.287 118.824L641.025 118.825L644.107 118.826L646.845 118.827L649.928 118.828L652.666 118.829L655.748 118.829L658.486 118.830L661.568 118.831L664.307 118.832L667.389 118.833L670.127 118.834L673.209 118.835L675.947 118.835L679.029 118.836L681.768 118.837L684.850 118.838L687.588 118.839L690.670 118.840L693.408 118.840L696.490 118.841L699.229 118.842L702.311 118.843L705.049 118.844L708.131 118.845L710.869 118.845L713.952 118.846L716.690 118.847L719.772 118.848L722.510 118.849L725.592 118.850L728.331 118.850L731.413 118.851L734.151 118.852L737.233 118.853L739.971 118.854L743.053 118.855L745.792 118.856L748.874 118.856L751.612 118.857L754.694 118.858L757.432 118.859L760.514 118.860L763.253 118.861L766.335 118.861L769.073 118.862L772.155 118.863L774.893 118.864L777.976 118.865L780.714 118.866L783.796 118.867L786.534 118.867L789.616 118.855L791.582 118.843L793.559 118.814" stroke="black" stroke-width="45" fill="none" stroke-linecap="round" stroke-linejoin="round"></path><path id="path-7-0" d="M822.137 138.398L822.843 142.625L823.888 147.160L825.638 153.403L827.848 159.266L830.622 165.259L833.842 171.190L836.416 175.639L838.710 179.256" stroke="black" stroke-width="45" fill="none" stroke-linecap="round" stroke-linejoin="round"></path><path id="path-8-0" d="M688.200 401.111L691.204 397.397L694.553 393.203L699.356 387.170L703.997 381.303L708.673 375.386L713.251 369.594L717.810 363.823L722.476 357.919L727.104 352.061L731.779 346.146L736.355 340.356L740.917 334.583L745.583 328.678L750.211 322.820L754.885 316.906L759.459 311.119L764.023 305.343L768.690 299.437L773.319 293.579L777.991 287.667L782.563 281.881L787.129 276.104L791.797 270.195L796.426 264.338L801.097 258.427L805.668 252.644L810.235 246.864L814.904 240.954L819.533 235.097L824.203 229.187L828.775 223.402L832.043 219.265L834.870 215.686" stroke="black" stroke-width="45" fill="none" stroke-linecap="round" stroke-linejoin="round"></path><path id="path-9-0" d="M689.160 622.427L691.903 625.951L695.180 630.199L699.583 635.953L703.993 641.745L708.355 647.481L712.824 653.340L717.297 659.199L721.768 665.055L726.247 670.922L730.720 676.781L735.191 682.638L739.670 688.504L744.142 694.363L748.614 700.220L753.093 706.087L757.565 711.945L762.037 717.802L766.516 723.669L770.988 729.527L775.460 735.384L779.939 741.251L784.411 747.109L788.882 752.967L793.365 758.839L797.747 764.578L802.163 770.363L806.541 776.097L811.020 781.964L815.494 787.825L820.060 793.805L824.702 799.885L828.084 804.316L830.907 808.013" stroke="black" stroke-width="45" fill="none" stroke-linecap="round" stroke-linejoin="round"></path><path id="path-10-0" d="M233.278 901.147L236.800 901.148L240.961 901.149L246.782 901.151L252.602 901.153L258.422 901.154L264.243 901.156L270.063 901.157L275.884 901.159L281.704 901.161L287.524 901.162L293.345 901.164L299.165 901.165L304.985 901.167L310.806 901.169L316.626 901.170L322.446 901.172L328.267 901.173L334.087 901.175L339.907 901.177L345.728 901.178L351.548 901.180L357.369 901.181L363.189 901.183L369.009 901.185L374.830 901.186L380.650 901.188L386.470 901.189L392.291 901.191L398.111 901.193L403.931 901.194L409.752 901.196L415.572 901.197L421.393 901.199L427.213 901.201L433.033 901.202L438.854 901.204L444.674 901.205L450.494 901.207L456.315 901.209L462.135 901.210L467.955 901.212L473.776 901.213L479.596 901.215L485.416 901.217L491.237 901.218L497.057 901.220L502.878 901.221L508.698 901.223L514.518 901.225L520.339 901.226L526.159 901.228L531.979 901.230L537.800 901.231L543.620 901.233L549.440 901.234L555.261 901.236L561.081 901.238L566.902 901.239L572.722 901.241L578.542 901.242L584.363 901.244L590.183 901.246L596.003 901.247L601.824 901.249L607.644 901.250L613.464 901.252L619.285 901.254L625.105 901.255L630.925 901.257L636.746 901.258L642.566 901.260L648.387 901.262L654.207 901.263L660.027 901.265L665.848 901.266L671.668 901.268L677.488 901.270L683.309 901.271L689.129 901.273L694.949 901.274L700.770 901.276L706.590 901.278L712.410 901.279L718.231 901.281L724.051 901.282L729.872 901.284L735.692 901.286L741.512 901.287L747.333 901.289L753.153 901.290L758.973 901.292L764.794 901.294L770.614 901.295L776.434 901.297L782.255 901.298L786.416 901.299L789.939 901.299" stroke="black" stroke-width="45" fill="none" stroke-linecap="round" stroke-linejoin="round"></path><path id="path-11-0" d="M105.098 777.980L105.170 776.002L105.227 774.037L105.292 770.955L105.319 768.217L105.329 765.134L105.328 762.396L105.328 759.314L105.328 756.576L105.328 753.494L105.327 750.755L105.327 747.673L105.327 744.935L105.327 741.853L105.327 739.115L105.326 736.033L105.326 733.294L105.326 730.212L105.326 727.474L105.325 724.392L105.325 721.654L105.325 718.572L105.325 715.833L105.325 712.751L105.324 710.013L105.324 706.931L105.324 704.193L105.324 701.110L105.323 698.372L105.323 695.290L105.323 692.552L105.323 689.470L105.323 686.731L105.322 683.649L105.322 680.911L105.322 677.829L105.322 675.091L105.321 672.009L105.321 669.270L105.321 666.188L105.321 663.450L105.321 660.368L105.320 657.630L105.320 654.548L105.320 651.809L105.320 648.727L105.319 645.989L105.319 642.907L105.319 640.169L105.319 637.086L105.319 634.348L105.318 631.266L105.318 628.528L105.318 625.446L105.318 622.708L105.317 619.625L105.317 616.887L105.317 613.805L105.317 611.067L105.317 607.985L105.316 605.246L105.316 602.164L105.316 599.426L105.316 596.344L105.315 593.606L105.315 590.524L105.315 587.785L105.315 584.703L105.315 581.965L105.314 578.883L105.314 576.145L105.314 573.063L105.314 570.324L105.313 567.242L105.313 564.504L105.313 561.422L105.313 558.684L105.313 555.601L105.312 552.863L105.312 549.781L105.312 547.043L105.312 543.961L105.311 541.223L105.311 538.140L105.311 535.402L105.311 532.320L105.311 529.582L105.310 526.500L105.310 523.761L105.310 520.679L105.310 517.941L105.309 514.859L105.309 512.121L105.309 509.039L105.309 506.300L105.309 503.218L105.308 500.480L105.308 497.398L105.308 494.660L105.308 491.578L105.308 488.839L105.307 485.757L105.307 483.019L105.307 479.937L105.307 477.199L105.306 474.116L105.306 471.378L105.306 468.296L105.306 465.558L105.306 462.476L105.305 459.737L105.305 456.655L105.305 453.917L105.305 450.835L105.304 448.097L105.304 445.015L105.304 442.276L105.304 439.194L105.304 436.456L105.303 433.374L105.303 430.636L105.303 427.554L105.303 424.815L105.302 421.733L105.302 418.995L105.302 415.913L105.302 413.175L105.302 410.092L105.301 407.354L105.301 404.272L105.301 401.534L105.301 398.452L105.300 395.714L105.300 392.631L105.300 389.893L105.300 386.811L105.300 384.073L105.299 380.991L105.299 378.252L105.299 375.170L105.299 372.432L105.298 369.350L105.298 366.612L105.298 363.530L105.298 360.791L105.298 357.709L105.297 354.971L105.297 351.889L105.297 349.151L105.297 346.069L105.296 343.330L105.296 340.248L105.296 337.510L105.296 334.428L105.296 331.690L105.295 328.607L105.295 325.869L105.295 322.787L105.295 320.049L105.294 316.967L105.294 314.228L105.294 311.146L105.294 308.408L105.294 305.326L105.293 302.588L105.293 299.506L105.293 296.767L105.293 293.685L105.292 290.947L105.292 287.865L105.292 285.127L105.292 282.045L105.292 279.306L105.291 276.224L105.291 273.486L105.291 270.404L105.291 267.666L105.290 264.583L105.290 261.845L105.290 258.763L105.290 256.025L105.290 252.943L105.289 250.205L105.289 248.009L105.289 246.464" stroke="black" stroke-width="45" fill="none" stroke-linecap="round" stroke-linejoin="round"></path><path id="path-12-0" d="M125.924 219.162L129.523 218.209L133.607 216.949L138.863 215.220L143.340 213.502L146.854 211.966L150.187 210.275L153.238 208.588L156.782 206.488L160.214 204.253L163.988 201.609L167.764 198.679L171.194 195.832L174.546 192.745L177.332 189.944L180.234 186.796L182.638 183.992L185.111 180.842L187.174 178.023L189.329 174.815L191.017 172.161L192.851 169.009L194.343 166.217L196.021 162.832L197.362 159.851L198.692 156.660L199.735 153.837L200.740 150.804L201.549 147.955L202.297 144.880L202.889 141.966L203.303 139.744L203.605 137.996" stroke="black" stroke-width="45" fill="none" stroke-linecap="round" stroke-linejoin="round"></path><path id="path-13-0" d="M821.806 104.870L822.107 102.784L822.552 100.032L823.177 96.709L824.014 93.174L824.853 90.149L825.953 86.801L827.209 83.549L828.824 79.812L830.597 76.142L832.322 72.789L834.265 69.435L836.518 65.941L839.263 62.004L842.175 58.194L844.804 55.007L847.348 52.209L849.642 49.866L852.319 47.317L854.991 44.952L858.094 42.410L860.947 40.234L864.174 37.995L867.005 36.169L870.308 34.229L873.401 32.566L877.073 30.748L880.808 29.101L884.853 27.535L888.931 26.174L892.890 25.034L896.498 24.169L900.032 23.572L903.582 23.173L907.318 22.916L910.579 22.772L913.784 22.713L916.522 22.688L919.604 22.675L922.342 22.678L925.425 22.704L928.163 22.750L931.271 22.882L933.984 23.073L937.153 23.437L940.436 24.022L944.692 25.006L949.140 26.303L953.690 27.848L957.799 29.498L961.763 31.278L965.645 33.225L969.523 35.384L973.413 37.758L977.406 40.459L981.395 43.451L985.713 47.084L989.827 50.894L993.788 54.944L997.195 58.924L1000.640 63.564L1003.992 68.665L1007.079 73.818L1009.543 78.489L1011.414 82.594L1013 86.515L1014.357 90.233L1015.469 93.511L1016.418 96.727L1017.138 99.569L1017.873 102.804L1018.405 105.578L1018.960 108.727L1019.370 111.354L1019.763 114.534L1019.995 117.915L1020 122.280L1019.814 126.691L1019.398 131.134L1018.875 135.057L1018.188 139.124L1017.370 143.040L1016.545 146.557L1015.583 149.874L1014.734 152.491L1013.590 155.677L1012.312 158.799L1010.580 162.817L1008.703 166.700L1006.837 170.317L1004.918 173.593L1003.084 176.473L1000.897 179.638L998.729 182.567L996.205 185.747L993.865 188.485L991.162 191.385L988.539 193.958L985.456 196.764L982.616 199.141L979.554 201.511L976.791 203.461L973.736 205.467L970.855 207.213L967.656 209.012L964.795 210.510L961.584 212.049L958.146 213.478L953.542 215.167L948.207 216.835L942.985 218.294L938.273 219.336L934.402 219.977L930.546 220.427L926.875 220.711L923.582 220.860L920.402 220.885L917.664 220.845L914.535 220.750L911.792 220.622L908.558 220.365L905.357 219.978L901.591 219.399L897.906 218.660L894.542 217.883L891.228 216.907L887.729 215.710L883.310 213.976L878.297 211.795L874.391 210.019L871.044 208.389" stroke="black" stroke-width="45" fill="none" stroke-linecap="round" stroke-linejoin="round"></path><path id="path-14-0" d="M88.524 220.528L86.360 219.976L84.332 219.535L80.947 218.724L77.598 217.848L73.596 216.630L69.540 215.200L65.469 213.568L61.504 211.777L57.720 209.861L54.356 208.019L50.983 205.921L47.661 203.608L43.991 200.867L40.431 197.978L37.271 195.269L34.129 192.273L31.121 189.079L27.864 185.353L24.865 181.598L22.349 178.249L20.075 174.842L18.021 171.359L15.903 167.423L14.006 163.512L12.335 159.775L10.793 156.011L9.401 152.220L8.281 148.802L7.373 145.453L6.656 142.117L5.861 137.942L5.153 133.624L4.551 129.437L4.203 126.101L4.026 122.955L4 120.217L4.075 117.134L4.246 114.396L4.550 111.322L4.916 108.658L5.435 105.583L6.023 102.679L6.777 99.239L7.647 95.831L8.551 92.494L9.648 89.096L10.901 85.729L12.479 81.942L14.202 78.245L15.882 74.885L17.665 71.717L19.374 68.929L21.452 65.841L23.545 62.952L26.001 59.808L28.290 57.078L30.748 54.337L33.015 51.969L35.650 49.391L38.284 46.987L41.342 44.395L44.155 42.170L47.373 39.845L50.745 37.643L54.513 35.345L58.216 33.260L61.358 31.612L64.626 30.094L67.940 28.752L71.664 27.343L75.371 26.141L78.568 25.185L81.937 24.395L85.169 23.814L88.868 23.317L92.501 23.035L95.748 22.886L98.934 22.844L101.672 22.832L104.754 22.819L107.492 22.807L110.634 22.811L113.380 22.848L116.559 22.985L119.228 23.208L122.390 23.607L125.018 24.067L128.183 24.750L131.299 25.609L135.012 26.744L138.723 28.036L142.067 29.307L145.214 30.658L148.038 31.995L151.165 33.596L154.088 35.212L157.207 37.083L160.023 38.912L163.119 41.094L165.997 43.271L169.131 45.815L171.846 48.177L174.606 50.755L176.988 53.136L179.484 55.776L181.715 58.293L184.157 61.282L186.701 64.758L189.642 69.168L192.465 73.798L194.974 78.352L196.990 82.580L198.861 87.361L200.699 92.685L202.052 96.999L203.174 100.539" stroke="black" stroke-width="45" fill="none" stroke-linecap="round" stroke-linejoin="round"></path><path id="path-extension-1" d="M868.007 816.770L846.776 828.798" stroke="black" stroke-width="45" fill="none" stroke-linecap="round" stroke-linejoin="round"></path><path id="path-extension-2" d="M833.793 850.284L842.781 831.061" stroke="black" stroke-width="45" fill="none" stroke-linecap="round" stroke-linejoin="round"></path><path id="path-extension-3" d="M202.734 883.784L205.942 901.140" stroke="black" stroke-width="45" fill="none" stroke-linecap="round" stroke-linejoin="round"></path><path id="path-extension-4" d="M201.902 926.233L207.170 907.783" stroke="black" stroke-width="45" fill="none" stroke-linecap="round" stroke-linejoin="round"></path><path id="path-extension-5" d="M232.941 118.707L208.932 118.700" stroke="black" stroke-width="45" fill="none" stroke-linecap="round" stroke-linejoin="round"></path><path id="path-extension-6" d="M830.907 808.013L844.955 826.413" stroke="black" stroke-width="45" fill="none" stroke-linecap="round" stroke-linejoin="round"></path><path id="path-extension-7" d="M233.278 901.147L209.066 901.141" stroke="black" stroke-width="45" fill="none" stroke-linecap="round" stroke-linejoin="round"></path><path id="path-extension-8" d="M203.605 137.996L206.934 118.700" stroke="black" stroke-width="45" fill="none" stroke-linecap="round" stroke-linejoin="round"></path><path id="path-extension-9" d="M203.174 100.539L207.638 114.618" stroke="black" stroke-width="45" fill="none" stroke-linecap="round" stroke-linejoin="round"></path><path id="path-connection-1" d="M821.652 920.309L817.021 901.805" stroke="black" stroke-width="45" fill="none" stroke-linecap="round" stroke-linejoin="round"></path><path id="path-connection-2" d="M822.981 878.367L817.021 901.805" stroke="black" stroke-width="45" fill="none" stroke-linecap="round" stroke-linejoin="round"></path><path id="path-connection-3" d="M789.939 901.299L817.021 901.805" stroke="black" stroke-width="45" fill="none" stroke-linecap="round" stroke-linejoin="round"></path><path id="path-connection-4" d="M105.098 777.980L104.638 800.301" stroke="black" stroke-width="45" fill="none" stroke-linecap="round" stroke-linejoin="round"></path><path id="path-connection-5" d="M121.435 803.607L104.638 800.301" stroke="black" stroke-width="45" fill="none" stroke-linecap="round" stroke-linejoin="round"></path><path id="path-connection-6" d="M87.797 803.476L104.638 800.301" stroke="black" stroke-width="45" fill="none" stroke-linecap="round" stroke-linejoin="round"></path><path id="path-connection-7" d="M688.200 401.111L668.467 424.766" stroke="black" stroke-width="45" fill="none" stroke-linecap="round" stroke-linejoin="round"></path><path id="path-connection-8" d="M647.422 418.486L668.467 424.766" stroke="black" stroke-width="45" fill="none" stroke-linecap="round" stroke-linejoin="round"></path><path id="path-connection-9" d="M685.865 442.115L668.467 424.766" stroke="black" stroke-width="45" fill="none" stroke-linecap="round" stroke-linejoin="round"></path><path id="path-connection-10" d="M689.160 622.427L671.305 600.389" stroke="black" stroke-width="45" fill="none" stroke-linecap="round" stroke-linejoin="round"></path><path id="path-connection-11" d="M650.621 606.137L671.305 600.389" stroke="black" stroke-width="45" fill="none" stroke-linecap="round" stroke-linejoin="round"></path><path id="path-connection-12" d="M683.292 588.899L671.305 600.389" stroke="black" stroke-width="45" fill="none" stroke-linecap="round" stroke-linejoin="round"></path><path id="path-connection-13" d="M821.806 104.870L819.326 118.434" stroke="black" stroke-width="45" fill="none" stroke-linecap="round" stroke-linejoin="round"></path><path id="path-connection-14" d="M793.559 118.814L819.326 118.434" stroke="black" stroke-width="45" fill="none" stroke-linecap="round" stroke-linejoin="round"></path><path id="path-connection-15" d="M822.137 138.398L819.326 118.434" stroke="black" stroke-width="45" fill="none" stroke-linecap="round" stroke-linejoin="round"></path><path id="path-connection-16" d="M834.870 215.686L849.447 197.228" stroke="black" stroke-width="45" fill="none" stroke-linecap="round" stroke-linejoin="round"></path><path id="path-connection-17" d="M871.044 208.389L849.447 197.228" stroke="black" stroke-width="45" fill="none" stroke-linecap="round" stroke-linejoin="round"></path><path id="path-connection-18" d="M838.710 179.256L849.447 197.228" stroke="black" stroke-width="45" fill="none" stroke-linecap="round" stroke-linejoin="round"></path><path id="path-connection-19" d="M105.289 246.464L105.173 224.714" stroke="black" stroke-width="45" fill="none" stroke-linecap="round" stroke-linejoin="round"></path><path id="path-connection-20" d="M125.924 219.162L105.173 224.714" stroke="black" stroke-width="45" fill="none" stroke-linecap="round" stroke-linejoin="round"></path><path id="path-connection-21" d="M88.524 220.528L105.173 224.714" stroke="black" stroke-width="45" fill="none" stroke-linecap="round" stroke-linejoin="round"></path></g></svg>