<svg xmlns="http://www.w3.org/2000/svg" viewBox="104.5780029296875 4 814.843994140625 1016" width="1024" height="1024" class="colorable-icon" overflow="visible"><g id="skeleton-paths" stroke-width="45.0"><path id="path-0-0" d="M606.670 511.362L605.669 510.392L604.283 509.177L602.429 507.730L600.065 506.292L597.433 505.159L594.443 504.118L591.691 503.472L589.455 503.019L587.353 502.757L585.514 502.602L583.375 502.517L581.479 502.510L579.345 502.514L577.450 502.524L575.316 502.537L573.420 502.547L571.286 502.550L569.390 502.547L567.257 502.544L565.361 502.548L563.227 502.552L561.331 502.553L559.197 502.544L557.302 502.530L555.168 502.512L553.272 502.499L551.138 502.492L549.243 502.496L547.064 502.533L544.636 502.687L541.609 503.065L538.010 503.914L534.332 505.396L530.541 507.676L527.117 510.688L524 514.292L521.604 518.250L519.903 522.345L519 526.396L518.746 530.431L519.231 534.500L520.392 538.671L522.445 542.919L525.283 546.971L528.917 550.637L532.945 553.504L537.193 555.569L541.371 556.778L545.482 557.430L549.522 557.673L553.548 557.757L557.578 557.766L561.608 557.777L565.637 557.787L569.667 557.797L573.696 557.808L577.726 557.818L581.763 557.802L585.844 557.691L589.952 557.318L594.239 556.378L598.523 554.658L602.831 552.022L606.604 548.676L609.170 546.010L610.918 543.576" stroke="black" stroke-width="45" fill="none" stroke-linecap="round" stroke-linejoin="round"></path><path id="path-1-0" d="M744.385 449.463L746.585 449.472L748.703 449.481L751.194 449.492L753.408 449.503L755.304 449.512L757.437 449.523L759.333 449.532L761.467 449.543L763.363 449.552L765.497 449.563L767.392 449.572L769.526 449.582L771.422 449.592L773.560 449.603L775.407 449.613L777.630 449.626L779.018 449.634L780.676 449.644" stroke="black" stroke-width="45" fill="none" stroke-linecap="round" stroke-linejoin="round"></path><path id="path-2-0" d="M713.532 524.005L714.938 523.903L716.323 523.831L718.474 523.665L720.389 523.508L722.538 523.292L724.415 523.074L726.590 522.778L728.809 522.414L731.395 521.968L733.981 521.454L736.257 520.975L738.540 520.390L740.499 519.870L742.682 519.196L744.541 518.614L746.758 517.814L749.077 516.932L751.774 515.803L754.449 514.585L756.856 513.396L759.147 512.153L761.155 510.976L763.292 509.625L765.227 508.313L767.374 506.742L769.377 505.182L771.653 503.273L773.682 501.451L775.814 499.392L777.581 497.553L779.454 495.453L781.296 493.178L783.301 490.545L785.293 487.653L787.139 484.692L788.962 481.403L790.573 478.223L792.005 475.148L793.142 472.338L793.885 470.346L794.501 468.462" stroke="black" stroke-width="45" fill="none" stroke-linecap="round" stroke-linejoin="round"></path><path id="path-3-0" d="M702.167 500.381L703.007 498.676L703.941 496.751L705.029 494.488L706.073 492.276L706.912 490.458L707.918 488.270L708.785 486.353L709.808 484.077L710.781 481.864L711.926 479.243L713.078 476.559L714.091 474.184L715.045 471.901L715.802 470.050L716.701 467.805L717.511 465.725L718.463 463.307L719.337 461.116L720.029 459.417L720.555 458.156" stroke="black" stroke-width="45" fill="none" stroke-linecap="round" stroke-linejoin="round"></path><path id="path-4-0" d="M809.990 450.121L812.525 450.093L815.426 449.984L819.478 449.673L823.554 449.054L827.676 448.070L831.917 446.660L836.067 444.776L840.177 442.361L844.093 439.362L847.794 435.879L851.145 431.926L853.981 427.787L856.271 423.531L858 419.355L859.281 415.185L860.197 411.045L860.813 406.906L861.181 402.821L861.352 398.770L861.409 394.744L861.417 390.714L861.419 386.685L861.420 382.655L861.421 378.626L861.422 374.596L861.423 370.567L861.424 366.537L861.425 362.507L861.426 358.478L861.428 354.448L861.429 350.419L861.430 346.389L861.431 342.360L861.432 338.330L861.435 334.300L861.437 330.271L861.397 326.244L861.255 322.201L860.921 318.167L860.347 314.116L859.472 310.109L858.245 306.056L856.586 301.994L854.377 297.800L851.547 293.612L848.122 289.549L844.154 285.871L839.986 282.779L835.665 280.279L831.532 278.400L827.406 277.005L823.279 276.086L820.287 275.575L817.639 275.331" stroke="black" stroke-width="45" fill="none" stroke-linecap="round" stroke-linejoin="round"></path><path id="path-5-0" d="M727.670 432.530L727.921 431.539L728.323 429.907L728.861 427.659L729.550 424.661L730.234 421.595L730.895 418.482L731.455 415.666L732.023 412.551L732.567 409.417L733.074 406.349L733.430 404.081L733.741 401.944L733.993 400.114L734.287 397.886L734.538 395.900L734.804 393.686L735.019 391.808L735.254 389.624L735.480 387.399L735.735 384.773L735.979 382.128L736.185 379.794L736.362 377.552L736.490 375.689L736.614 373.501L736.706 371.273L736.794 368.643L736.857 366.003L736.906 363.672L736.944 361.441L736.975 359.545L737.004 357.411L737.023 355.515L737.040 353.381L737.050 351.486L737.055 349.352L737.054 347.456L737.051 345.322L737.048 343.426L737.048 341.293L737.049 339.397L737.046 337.263L737.034 335.367L737.008 333.234L736.974 331.338L736.923 329.204L736.869 327.308L736.794 325.166L736.717 323.311L736.595 321.170L736.457 319.336L736.247 317.143L736.034 315.265L735.747 313.012L735.472 311.050L735.135 308.809L734.843 306.987L734.497 304.938L734.197 303.235L733.810 301.107L733.478 299.282L733.042 297.053L732.784 295.727L732.463 294.285" stroke="black" stroke-width="45" fill="none" stroke-linecap="round" stroke-linejoin="round"></path><path id="path-6-0" d="M746.648 274.531L749.260 274.527L752.220 274.525L756.347 274.522L760.385 274.520L764.444 274.517L768.468 274.514L772.503 274.511L776.532 274.509L780.653 274.507L783.627 274.507L786.238 274.507" stroke="black" stroke-width="45" fill="none" stroke-linecap="round" stroke-linejoin="round"></path><path id="path-7-0" d="M236.563 274.532L238.188 274.533L239.534 274.534L241.859 274.536L244.052 274.537L246.680 274.539L249.246 274.541L251.536 274.542L253.740 274.544L255.636 274.545L257.770 274.546L259.666 274.547L261.799 274.548L263.695 274.549L265.829 274.550L267.725 274.551L269.872 274.552L271.739 274.553L273.945 274.553L275.312 274.553L276.881 274.554" stroke="black" stroke-width="45" fill="none" stroke-linecap="round" stroke-linejoin="round"></path><path id="path-8-0" d="M291.184 294.462L290.854 295.998L290.527 297.675L290.042 300.173L289.561 302.779L289.075 305.497L288.534 308.676L288.037 311.775L287.590 314.774L287.287 317.055L287.045 319.353L286.861 321.606L286.677 324.283L286.539 326.859L286.442 329.157L286.385 331.338L286.354 333.234L286.331 335.367L286.320 337.263L286.318 339.397L286.325 341.293L286.340 343.426L286.360 345.322L286.389 347.456L286.419 349.352L286.458 351.486L286.496 353.381L286.541 355.515L286.583 357.411L286.627 359.551L286.665 361.414L286.710 363.570L286.758 365.432L286.828 367.636L286.900 369.493L286.995 371.652L287.086 373.517L287.200 375.663L287.310 377.559L287.446 379.707L287.575 381.579L287.738 383.748L287.889 385.608L288.081 387.803L288.254 389.649L288.471 391.820L288.667 393.665L288.914 395.851L289.135 397.708L289.417 399.936L289.660 401.777L289.969 403.982L290.235 405.784L290.574 407.968L290.869 409.785L291.246 412L291.661 414.297L292.242 417.335L292.861 420.445L293.498 423.492L294 425.817L294.358 427.404L294.589 428.449" stroke="black" stroke-width="45" fill="none" stroke-linecap="round" stroke-linejoin="round"></path><path id="path-9-0" d="M212.532 274.911L210.881 274.979L208.630 275.116L206.108 275.270L203.504 275.525L201.091 275.926L198.030 276.638L194.632 277.689L191.224 278.929L188.225 280.258L185.872 281.473L183.593 282.895L181.296 284.588L178.768 286.668L176.387 288.889L174.420 290.893L172.739 292.901L171.378 294.742L169.951 297.043L168.677 299.413L167.378 302.116L166.307 304.690L165.336 307.323L164.570 309.901L163.947 312.402L163.525 314.527L163.215 316.617L163.018 318.463L162.867 320.592L162.795 322.488L162.760 324.622L162.753 326.518L162.751 328.651L162.750 330.547L162.749 332.681L162.748 334.577L162.747 336.711L162.746 338.606L162.745 340.740L162.744 342.636L162.744 344.770L162.743 346.665L162.742 348.799L162.741 350.695L162.740 352.829L162.739 354.725L162.738 356.858L162.738 358.754L162.737 360.888L162.736 362.784L162.735 364.918L162.734 366.813L162.733 368.947L162.732 370.843L162.731 372.977L162.731 374.872L162.730 377.006L162.729 378.902L162.728 381.036L162.727 382.932L162.726 385.065L162.725 386.961L162.724 389.095L162.724 390.991L162.724 393.125L162.725 395.020L162.731 397.154L162.741 399.050L162.767 401.184L162.810 403.080L162.909 405.215L163.042 407.069L163.273 409.209L163.637 411.442L164.255 414.339L165.076 417.398L166.098 420.483L167.074 422.929L168.188 425.233L169.244 427.140L170.589 429.359L171.935 431.275L173.656 433.434L175.658 435.522L178.065 437.822L180.619 439.969L182.930 441.709L185.261 443.182L187.690 444.436L190.694 445.752L193.735 446.883L196.694 447.768L199.021 448.309L201.318 448.660L203.232 448.866L205.386 449.016L207.208 449.083L209.358 449.120L211.266 449.129L213.445 449.132L215.340 449.129L217.474 449.126L219.370 449.123L221.504 449.120L223.399 449.118L225.533 449.115L227.429 449.112L229.563 449.109L231.459 449.106L233.592 449.103L235.488 449.101L237.658 449.098L239.562 449.096L241.737 449.094L243.548 449.092L245.663 449.089L247.478 449.086L249.660 449.082L251.568 449.078L253.740 449.075L255.636 449.072L257.770 449.069L259.666 449.066L261.799 449.063L263.695 449.061L265.829 449.058L267.725 449.055L269.859 449.052L271.754 449.049L273.984 449.046L276.356 449.044L278.382 449.042L280.292 449.040" stroke="black" stroke-width="45" fill="none" stroke-linecap="round" stroke-linejoin="round"></path><path id="path-10-0" d="M300.070 264.730L300.575 263.430L301.276 261.659L302.123 259.504L303.054 257.199L303.830 255.301L304.747 253.126L305.568 251.213L306.524 249.017L307.358 247.114L308.296 244.998L309.109 243.181L310.113 240.959L310.991 239.033L312.014 236.807L312.857 234.998L313.899 232.776L314.807 230.867L315.876 228.663L316.777 226.888L317.920 224.720L318.940 222.867L320.140 220.748L321.137 219.046L322.442 216.884L323.936 214.483L326.005 211.267L328.375 207.706L330.801 204.181L333.015 201.072L334.776 198.683L336.401 196.547L337.831 194.719L339.502 192.638L341.352 190.405L343.485 187.884L345.726 185.310L347.742 183.043L349.813 180.795L351.646 178.857L353.749 176.692L355.641 174.793L357.789 172.692L359.715 170.858L361.818 168.901L363.654 167.238L365.688 165.439L367.583 163.807L369.860 161.896L372.227 159.972L374.910 157.844L377.523 155.833L379.837 154.093L381.981 152.529L383.851 151.206L385.957 149.754L388.273 148.220L391.137 146.372L394.162 144.477L397.086 142.694L399.515 141.259L401.780 139.972L403.802 138.858L406.063 137.651L408.418 136.437L410.968 135.154L413.528 133.905L415.700 132.872L417.986 131.830L420.362 130.793L423.446 129.498L426.877 128.113L430.349 126.763L433.450 125.603L435.912 124.719L438.223 123.929L440.514 123.181L443.014 122.388L445.593 121.600L448.246 120.824L451.376 119.955L454.439 119.137L457.550 118.340L460.273 117.689L463.397 116.991L466.439 116.351L469.533 115.734L472.229 115.238L474.891 114.779L477.581 114.349L480.237 113.952L482.994 113.570L485.615 113.237L487.942 112.963L490.241 112.725L492.721 112.515L495.969 112.278L499.754 112.077L503.810 111.925L507.897 111.865L511.909 111.868L515.922 111.928L519.946 112.025L523.960 112.153L528.015 112.319L532.050 112.531L536.072 112.837L540.076 113.244L544.061 113.755L548.079 114.351L552.101 115.027L556.147 115.782L560.187 116.616L564.213 117.529L568.205 118.515L572.231 119.593L576.249 120.744L580.366 121.988L584.436 123.292L588.505 124.667L592.499 126.112L596.456 127.631L600.438 129.259L604.477 131.009L608.591 132.896L612.729 134.902L616.760 136.962L620.775 139.124L624.718 141.361L628.750 143.765L632.779 146.292L636.815 148.952L640.875 151.768L644.916 154.717L649.062 157.897L653.171 161.214L657.291 164.701L661.312 168.290L665.167 171.905L668.957 175.659L672.548 179.401L676.138 183.341L679.533 187.262L682.855 191.292L686.007 195.323L689.049 199.412L692.006 203.592L694.811 207.749L697.461 211.851L699.936 215.860L702.292 219.832L704.574 223.835L706.795 227.889L708.910 231.903L710.973 235.981L712.923 239.996L714.832 244.080L716.617 248.054L718.340 252.063L720.008 256.135L721.210 259.147L722.236 261.801" stroke="black" stroke-width="45" fill="none" stroke-linecap="round" stroke-linejoin="round"></path><path id="path-11-0" d="M631.735 525.873L633.078 525.868L634.428 525.862L636.550 525.851L638.446 525.840L640.580 525.828L642.475 525.818L644.609 525.806L646.505 525.795L648.639 525.783L650.535 525.773L652.653 525.762L654.527 525.754L656.672 525.749L658.704 525.745L661.178 525.741L662.875 525.736L664.626 525.731" stroke="black" stroke-width="45" fill="none" stroke-linecap="round" stroke-linejoin="round"></path><path id="path-12-0" d="M303.350 458.828L303.967 460.532L304.776 462.755L306.093 466.280L307.531 470.022L308.942 473.582L310.243 476.759L311.468 479.646L312.816 482.733L314.185 485.803L315.572 488.846L316.865 491.612L318.160 494.318L319.483 497.020L320.821 499.698L322.189 502.378L323.556 505.008L324.761 507.300L326 509.623L327.202 511.846L328.634 514.465L330.091 517.082L331.406 519.410L332.731 521.693L334.099 523.977L335.971 527.023L338.177 530.497L340.491 534.049L342.721 537.333L344.812 540.274L347.143 543.422L349.490 546.501L351.859 549.529L353.822 551.973L355.826 554.388L357.827 556.725L360.095 559.316L362.445 561.919L364.821 564.476L367.229 567.003L369.663 569.489L372.091 571.915L374.586 574.341L377.083 576.695L379.353 578.788L381.697 580.875L384.016 582.877L386.638 585.087L389.206 587.192L391.471 589.006L393.584 590.644L395.436 592.041L397.598 593.626L399.961 595.306L402.694 597.197L405.501 599.085L408.296 600.895L410.922 602.553L413.564 604.157L415.979 605.581L418.563 607.052L421.057 608.425L423.426 609.700L425.789 610.921L428.157 612.096L430.799 613.370L433.525 614.636L436.321 615.883L439.475 617.221L442.987 618.636L446.867 620.120L450.857 621.555L454.885 622.904L458.848 624.136L462.383 625.171L465.432 625.998L467.748 626.592L469.989 627.122L471.863 627.548L474.026 628.015L475.863 628.395L478.067 628.825L479.880 629.158L482.065 629.533L483.884 629.821L486.132 630.154L487.958 630.407L490.108 630.682L491.910 630.893L494.147 631.124L496.086 631.300L498.326 631.471L500.138 631.589L502.246 631.708L504.047 631.793L506.218 631.879L508.121 631.928L510.337 631.958L512.251 631.957L514.413 631.933L516.247 631.892L518.367 631.826L520.210 631.755L522.331 631.656L524.170 631.553L526.337 631.404L528.255 631.246L530.438 631.041L532.334 630.842L534.491 630.594L536.377 630.358L538.588 630.053L540.789 629.719L543.379 629.301L546.007 628.845L548.356 628.416L550.703 627.952L552.959 627.461L555.505 626.886L558.059 626.267L560.302 625.710L562.541 625.115L564.484 624.581L566.675 623.936L568.621 623.350L570.757 622.668L572.628 622.070L574.727 621.363L576.629 620.716L578.855 619.915L581.203 619.032L583.883 617.982L586.539 616.907L588.870 615.935L591.122 614.954L593.412 613.909L596.022 612.684L598.684 611.390L601.076 610.195L603.441 608.962L605.817 607.669L608.387 606.238L610.964 604.752L613.157 603.461L615.366 602.105L617.290 600.888L619.496 599.451L621.762 597.917L624.315 596.150L627 594.233L629.431 592.460L631.792 590.682L633.762 589.162L635.886 587.484L637.824 585.915L639.971 584.132L641.867 582.512L643.912 580.707L645.772 579.013L647.914 577.005L649.856 575.135L652.006 573.002L653.881 571.086L655.968 568.895L657.801 566.921L659.769 564.751L661.437 562.873L663.224 560.816L664.840 558.917L666.630 556.777L668.219 554.841L670.066 552.519L671.291 550.953L672.705 549.102" stroke="black" stroke-width="45" fill="none" stroke-linecap="round" stroke-linejoin="round"></path><path id="path-13-0" d="M224.088 252.543L224.470 250.192L224.963 247.312L225.684 243.253L226.443 239.226L227.224 235.297L228.047 231.384L228.943 227.359L229.907 223.257L230.925 219.156L231.972 215.156L233.065 211.199L234.225 207.218L235.458 203.197L236.763 199.155L238.131 195.134L239.551 191.168L241.057 187.182L242.644 183.195L244.334 179.147L246.105 175.112L247.953 171.105L249.864 167.161L251.887 163.194L253.979 159.268L256.240 155.191L258.543 151.190L260.967 147.119L263.453 143.101L266.046 139.051L268.721 135.013L271.446 131.038L274.288 127.035L277.228 123.031L280.306 118.976L283.445 114.978L286.704 110.974L290.157 106.886L293.740 102.782L297.433 98.693L301.102 94.770L304.813 90.932L308.587 87.158L312.446 83.425L316.474 79.667L320.538 76.008L324.674 72.417L328.708 69.045L332.846 65.720L336.916 62.568L341.068 59.466L345.077 56.577L349.102 53.776L353.072 51.109L357.021 48.542L360.936 46.088L364.781 43.761L368.717 41.468L372.703 39.230L376.855 36.989L380.971 34.854L385.028 32.841L388.929 30.998L392.817 29.258L396.790 27.576L400.848 25.945L404.943 24.386L408.908 22.955L412.830 21.621L416.732 20.358L420.735 19.117L424.773 17.911L428.802 16.753L432.795 15.648L436.789 14.580L440.840 13.535L444.917 12.528L448.987 11.570L453.009 10.674L456.993 9.828L461.020 9.019L465.057 8.263L469.140 7.559L473.192 6.930L477.204 6.365L481.192 5.865L485.143 5.427L489.055 5.046L492.611 4.742L495.653 4.518L498.084 4.367L500.182 4.259L502.228 4.173L504.162 4.106L506.260 4.052L508.156 4.019L510.290 4L512.186 4L514.320 4.022L516.215 4.057L518.357 4.115L520.221 4.178L522.409 4.265L524.638 4.368L527.267 4.502L529.906 4.655L532.236 4.810L534.481 4.990L536.352 5.161L538.548 5.385L540.797 5.642L543.405 5.960L546.117 6.321L548.799 6.710L551.497 7.133L554.184 7.584L556.800 8.050L559.419 8.541L561.996 9.055L564.275 9.522L566.660 10.035L569.031 10.570L572.098 11.280L575.187 12.015L578.288 12.762L581.059 13.444L584.187 14.239L587.680 15.158L591.197 16.115L594.364 17.003L597.098 17.802L600.152 18.720L603.556 19.786L607.051 20.909L610.189 21.952L612.639 22.792L614.831 23.569L616.746 24.265L618.913 25.076L621.345 26.016L624.373 27.232L627.404 28.478L630.447 29.780L633.158 30.978L636.297 32.415L639.376 33.854L642.482 35.344L644.837 36.502L647.044 37.621L648.806 38.537L650.921 39.658L652.846 40.705L655.118 41.964L657.089 43.087L659.330 44.394L661.504 45.703L664.049 47.253L666.543 48.805L668.831 50.241L670.986 51.629L672.897 52.885L675.051 54.331L677.102 55.734L679.392 57.329L681.430 58.774L683.683 60.407L686.007 62.140L688.656 64.152L691.316 66.216L693.542 67.975L695.623 69.648L697.310 71.035L699.369 72.744L701.276 74.361L703.540 76.312L705.548 78.084L707.791 80.104L709.761 81.916L711.878 83.899L713.685 85.623L715.628 87.509L717.393 89.251L719.345 91.210L721.081 92.981L722.959 94.934L724.674 96.752L726.576 98.801L728.259 100.645L730.070 102.663L731.714 104.530L733.603 106.715L735.330 108.752L737.193 110.986L738.780 112.926L740.423 114.965L741.857 116.782L743.454 118.838L744.962 120.816L746.639 123.051L748.119 125.060L749.652 127.182L750.995 129.074L752.434 131.140L753.746 133.057L755.151 135.145L756.431 137.080L757.848 139.264L759.110 141.240L760.483 143.437L761.629 145.295L762.953 147.497L764.270 149.725L765.769 152.294L767.230 154.845L768.525 157.153L769.789 159.492L771.014 161.841L772.349 164.457L773.626 167.021L774.733 169.284L775.752 171.438L776.661 173.410L777.649 175.613L778.520 177.586L779.416 179.672L780.178 181.465L781.067 183.634L782.014 185.996L783.071 188.725L784.117 191.486L784.956 193.764L785.771 196.024L786.531 198.234L787.533 201.242L788.625 204.674L789.692 208.115L790.600 211.163L791.261 213.468L791.890 215.757L792.409 217.706L793.002 219.997L793.556 222.240L794.168 224.780L794.758 227.336L795.265 229.584L795.765 231.907L796.169 233.880L796.606 236.124L796.932 237.927L797.297 240.060L797.596 241.877L797.952 244.095L798.249 245.946L798.598 248.170L798.945 250.430L799.339 253.042L799.623 254.977L799.839 256.451" stroke="black" stroke-width="45" fill="none" stroke-linecap="round" stroke-linejoin="round"></path><path id="path-extension-1" d="M606.670 511.362L621.682 525.911" stroke="black" stroke-width="45" fill="none" stroke-linecap="round" stroke-linejoin="round"></path><path id="path-extension-2" d="M610.918 543.576L622.817 527.011" stroke="black" stroke-width="45" fill="none" stroke-linecap="round" stroke-linejoin="round"></path><path id="path-extension-3" d="M744.385 449.463L722.992 449.378" stroke="black" stroke-width="45" fill="none" stroke-linecap="round" stroke-linejoin="round"></path><path id="path-extension-4" d="M631.735 525.873L623.612 525.904" stroke="black" stroke-width="45" fill="none" stroke-linecap="round" stroke-linejoin="round"></path><path id="path-connection-1" d="M720.555 458.156L727.670 432.530" stroke="black" stroke-width="45" fill="none" stroke-linecap="round" stroke-linejoin="round"></path><path id="path-connection-2" d="M780.676 449.644L800.518 450.041" stroke="black" stroke-width="45" fill="none" stroke-linecap="round" stroke-linejoin="round"></path><path id="path-connection-3" d="M794.501 468.462L800.518 450.041" stroke="black" stroke-width="45" fill="none" stroke-linecap="round" stroke-linejoin="round"></path><path id="path-connection-4" d="M809.990 450.121L800.518 450.041" stroke="black" stroke-width="45" fill="none" stroke-linecap="round" stroke-linejoin="round"></path><path id="path-connection-5" d="M664.626 525.731L690.179 525.668" stroke="black" stroke-width="45" fill="none" stroke-linecap="round" stroke-linejoin="round"></path><path id="path-connection-6" d="M713.532 524.005L690.179 525.668" stroke="black" stroke-width="45" fill="none" stroke-linecap="round" stroke-linejoin="round"></path><path id="path-connection-7" d="M702.167 500.381L690.179 525.668" stroke="black" stroke-width="45" fill="none" stroke-linecap="round" stroke-linejoin="round"></path><path id="path-connection-8" d="M672.705 549.102L690.179 525.668" stroke="black" stroke-width="45" fill="none" stroke-linecap="round" stroke-linejoin="round"></path><path id="path-connection-9" d="M817.639 275.331L802.449 274.217" stroke="black" stroke-width="45" fill="none" stroke-linecap="round" stroke-linejoin="round"></path><path id="path-connection-10" d="M799.839 256.451L802.449 274.217" stroke="black" stroke-width="45" fill="none" stroke-linecap="round" stroke-linejoin="round"></path><path id="path-connection-11" d="M786.238 274.507L802.449 274.217" stroke="black" stroke-width="45" fill="none" stroke-linecap="round" stroke-linejoin="round"></path><path id="path-connection-12" d="M722.236 261.801L727.622 274.554" stroke="black" stroke-width="45" fill="none" stroke-linecap="round" stroke-linejoin="round"></path><path id="path-connection-13" d="M732.463 294.285L727.622 274.554" stroke="black" stroke-width="45" fill="none" stroke-linecap="round" stroke-linejoin="round"></path><path id="path-connection-14" d="M746.648 274.531L727.622 274.554" stroke="black" stroke-width="45" fill="none" stroke-linecap="round" stroke-linejoin="round"></path><path id="path-connection-15" d="M212.532 274.911L220.512 274.553" stroke="black" stroke-width="45" fill="none" stroke-linecap="round" stroke-linejoin="round"></path><path id="path-connection-16" d="M224.088 252.543L220.512 274.553" stroke="black" stroke-width="45" fill="none" stroke-linecap="round" stroke-linejoin="round"></path><path id="path-connection-17" d="M236.563 274.532L220.512 274.553" stroke="black" stroke-width="45" fill="none" stroke-linecap="round" stroke-linejoin="round"></path><path id="path-connection-18" d="M291.184 294.462L295.855 274.557" stroke="black" stroke-width="45" fill="none" stroke-linecap="round" stroke-linejoin="round"></path><path id="path-connection-19" d="M300.070 264.730L295.855 274.557" stroke="black" stroke-width="45" fill="none" stroke-linecap="round" stroke-linejoin="round"></path><path id="path-connection-20" d="M276.881 274.554L295.855 274.557" stroke="black" stroke-width="45" fill="none" stroke-linecap="round" stroke-linejoin="round"></path><path id="path-connection-21" d="M294.589 428.449L299.475 449.025" stroke="black" stroke-width="45" fill="none" stroke-linecap="round" stroke-linejoin="round"></path><path id="path-connection-22" d="M280.292 449.040L299.475 449.025" stroke="black" stroke-width="45" fill="none" stroke-linecap="round" stroke-linejoin="round"></path><path id="path-connection-23" d="M303.350 458.828L299.475 449.025" stroke="black" stroke-width="45" fill="none" stroke-linecap="round" stroke-linejoin="round"></path><path id="path-connection-24" d="M622.817 527.011L622.817 527.011" stroke="black" stroke-width="45" fill="none" stroke-linecap="round" stroke-linejoin="round"></path></g><g id="skeleton-paths" stroke-width="45.0"><path id="path-0-0" d="M349.800 664.277L347.905 664.811L345.308 665.668L341.585 666.956L337.629 668.415L333.652 669.917L329.678 671.426L325.705 672.939L321.766 674.441L317.783 675.962L313.777 677.491L309.651 679.063L305.556 680.620L301.488 682.168L297.530 683.676L293.542 685.198L289.531 686.729L285.405 688.301L281.315 689.856L277.252 691.402L273.265 692.921L269.326 694.430L265.344 695.966L261.342 697.522L257.229 699.129L253.150 700.722L249.096 702.299L245.148 703.830L241.168 705.372L237.165 706.925L233.050 708.527L228.972 710.124L224.925 711.719L220.988 713.280L217.026 714.863L213.068 716.462L208.969 718.176L204.922 719.961L200.807 721.913L196.835 723.923L192.827 726.050L188.887 728.223L184.859 730.517L180.803 732.932L176.743 735.491L172.692 738.263L168.637 741.298L164.558 744.611L160.517 748.154L156.623 751.832L152.873 755.640L149.282 759.581L145.898 763.559L142.690 767.619L139.756 771.614L136.985 775.670L134.426 779.719L132.040 783.778L129.833 787.833L127.824 791.808L125.952 795.800L124.248 799.732L122.689 803.641L121.370 807.225L120.286 810.383L119.373 813.240L118.464 816.301L117.496 819.845L116.545 823.696L115.680 827.634L114.938 831.535L114.278 835.496L113.714 839.489L113.245 843.479L112.863 847.510L112.541 851.545L112.254 855.598L111.987 859.573L111.726 863.558L111.465 867.561L111.200 871.635L110.935 875.701L110.671 879.754L110.410 883.738L110.148 887.731L109.886 891.734L109.622 895.799L109.358 899.858L109.093 903.911L108.833 907.917L108.576 911.964L108.333 916.003L108.103 920.056L107.888 924.037L107.670 928.047L107.447 932.094L107.220 936.171L106.994 940.225L106.765 944.198L106.517 948.203L106.248 952.248L105.966 956.330L105.669 960.382L105.361 964.351L105.039 968.331L104.753 972.317L104.578 976.346L104.610 980.342L104.908 984.298L105.528 988.177L106.525 992.066L108.046 996.080L110.146 1000.198L112.852 1004.340L116.032 1008.112L119.632 1011.433L123.520 1014.122L127.612 1016.245L131.710 1017.791L135.812 1018.830L139.847 1019.471L143.908 1019.809L147.922 1019.954L151.949 1019.995L155.964 1020L159.993 1020L164.023 1020L168.052 1020L172.082 1020L176.111 1020L180.141 1020L184.171 1020L188.200 1020L192.230 1020L196.259 1020L200.289 1020L204.318 1020L208.348 1020L212.378 1020L216.407 1020L220.437 1020L224.466 1020L228.496 1020L232.525 1020L236.555 1020L240.585 1020L244.614 1020L248.644 1020L252.673 1020L256.703 1020L260.733 1020L264.762 1020L268.792 1019.999L272.821 1019.999L276.851 1019.999L280.880 1019.999L284.910 1019.999L288.940 1019.999L292.969 1019.999L296.999 1019.999L301.028 1019.999L305.058 1019.999L309.087 1019.999L313.117 1019.999L317.147 1019.999L321.176 1019.998L325.206 1019.998L329.235 1019.998L333.265 1019.998L337.294 1019.998L341.324 1019.998L345.354 1019.998L349.383 1019.998L353.413 1019.998L357.442 1019.998L361.472 1019.998L365.502 1019.998L369.531 1019.998L373.561 1019.998L377.590 1019.998L381.620 1019.998L385.649 1019.998L389.679 1019.998L393.709 1019.998L397.738 1019.998L401.768 1019.998L405.797 1019.998L409.827 1019.998L413.856 1019.998L417.886 1019.998L421.916 1019.998L425.945 1019.998L429.975 1019.997L434.004 1019.997L438.034 1019.997L442.063 1019.997L446.093 1019.997L450.123 1019.997L454.152 1019.997L458.182 1019.997L462.211 1019.997L466.241 1019.997L470.271 1019.997L474.300 1019.997L478.330 1019.997L482.359 1019.997L486.389 1019.997L490.418 1019.997L494.448 1019.997L498.478 1019.997L502.507 1019.997L506.537 1019.997L510.566 1019.997L514.596 1019.997L518.625 1019.997L522.655 1019.997L526.685 1019.997L530.714 1019.997L534.744 1019.997L538.773 1019.996L542.803 1019.996L546.832 1019.996L550.862 1019.996L554.892 1019.996L558.921 1019.996L562.951 1019.996L566.980 1019.996L571.010 1019.996L575.040 1019.996L579.069 1019.996L583.099 1019.996L587.128 1019.996L591.158 1019.996L595.187 1019.996L599.217 1019.996L603.247 1019.996L607.276 1019.996L611.306 1019.996L615.335 1019.996L619.365 1019.996L623.394 1019.996L627.424 1019.996L631.454 1019.996L635.483 1019.996L639.513 1019.996L643.542 1019.996L647.572 1019.995L651.601 1019.995L655.631 1019.995L659.661 1019.995L663.690 1019.995L667.720 1019.995L671.749 1019.995L675.779 1019.995L679.809 1019.995L683.838 1019.995L687.868 1019.995L691.897 1019.995L695.927 1019.995L699.956 1019.995L703.986 1019.995L708.016 1019.995L712.045 1019.995L716.075 1019.995L720.104 1019.995L724.134 1019.995L728.163 1019.995L732.193 1019.995L736.223 1019.995L740.252 1019.995L744.282 1019.995L748.311 1019.995L752.341 1019.995L756.370 1019.995L760.400 1019.994L764.430 1019.994L768.459 1019.994L772.489 1019.994L776.518 1019.994L780.548 1019.994L784.578 1019.994L788.607 1019.994L792.637 1019.994L796.666 1019.994L800.696 1019.994L804.725 1019.994L808.755 1019.994L812.785 1019.994L816.814 1019.994L820.844 1019.994L824.873 1019.994L828.903 1019.994L832.932 1019.994L836.962 1019.994L840.992 1019.994L845.021 1019.994L849.051 1019.994L853.080 1019.994L857.110 1019.994L861.140 1019.994L865.169 1019.994L869.178 1019.971L873.198 1019.909L877.207 1019.767L881.281 1019.523L885.317 1019.119L889.442 1018.428L893.565 1017.312L897.805 1015.601L901.996 1013.187L906.014 1010.112L909.682 1006.448L912.766 1002.436L915.230 998.253L917.022 994.035L918.251 989.900L918.990 985.804L919.342 981.734L919.422 977.699L919.326 973.640L919.132 969.636L918.886 965.586L918.626 961.563L918.375 957.508L918.140 953.492L917.914 949.468L917.689 945.434L917.461 941.392L917.229 937.339L916.996 933.331L916.761 929.313L916.524 925.305L916.288 921.283L916.050 917.243L915.813 913.212L915.568 909.159L915.314 905.140L915.050 901.113L914.779 897.111L914.509 893.081L914.242 889.059L913.980 885.006L913.724 880.978L913.467 876.941L913.209 872.938L912.944 868.916L912.674 864.903L912.397 860.850L912.110 856.829L911.803 852.789L911.471 848.777L911.100 844.738L910.678 840.704L910.177 836.654L909.588 832.597L908.893 828.529L908.095 824.464L907.176 820.393L906.139 816.361L904.990 812.375L903.733 808.439L902.364 804.522L900.839 800.549L899.170 796.572L897.311 792.505L895.308 788.454L893.103 784.318L890.736 780.197L888.192 776.085L885.510 772.055L882.620 768.045L879.557 764.085L876.219 760.073L872.700 756.140L868.889 752.183L864.960 748.393L860.880 744.722L856.852 741.330L852.765 738.112L848.751 735.159L844.682 732.378L840.618 729.797L836.555 727.391L832.556 725.173L828.674 723.157L824.758 721.258L820.808 719.461L816.672 717.686L812.561 715.993L808.409 714.333L804.400 712.757L800.404 711.203L796.453 709.676L792.415 708.115L788.350 706.540L784.234 704.942L780.213 703.379L776.210 701.823L772.189 700.260L768.120 698.678L764.003 697.082L759.985 695.530L755.988 693.998L752.040 692.493L748.066 690.982L744.092 689.472L740.118 687.962L736.147 686.451L732.111 684.914L728.049 683.367L723.921 681.801L719.876 680.276L715.855 678.766L711.890 677.279L707.913 675.780L703.891 674.264L699.881 672.755L695.781 671.236L691.745 669.760L687.622 668.290L684.744 667.269L682.265 666.411" stroke="black" stroke-width="45" fill="none" stroke-linecap="round" stroke-linejoin="round"></path><path id="path-1-0" d="M366.651 672.458L368.599 675.019L370.947 678.081L374.178 682.271L377.383 686.373L380.553 690.377L383.821 694.443L387.092 698.452L390.490 702.546L393.828 706.495L397.300 710.531L400.774 714.515L404.415 718.644L408.053 722.726L411.758 726.786L415.377 730.636L419.095 734.447L422.850 738.160L426.825 741.954L430.848 745.662L434.967 749.324L439.063 752.829L443.152 756.203L447.241 759.457L451.228 762.521L455.212 765.476L459.174 768.291L463.111 770.976L467.137 773.585L471.125 776.022L475.214 778.360L479.277 780.498L483.313 782.435L487.316 784.147L491.310 785.625L495.380 786.888L499.513 787.923L503.682 788.712L507.814 789.231L511.912 789.430L515.988 789.306L520.055 788.840L524.162 788.083L528.212 787.070L532.353 785.827L536.389 784.409L540.481 782.775L544.558 780.905L548.708 778.784L552.916 776.440L557.069 773.947L561.177 771.322L565.309 768.519L569.417 765.582L573.518 762.510L577.537 759.354L581.497 756.108L585.506 752.690L589.601 749.065L593.762 745.257L597.917 741.330L601.994 737.349L606.025 733.289L609.932 729.242L613.734 725.198L617.391 721.207L620.987 717.192L624.543 713.132L628.056 709.049L631.543 704.936L635.032 700.763L638.372 696.715L641.667 692.659L644.728 688.823L647.849 684.842L650.946 680.785L654.122 676.559L656.402 673.467L658.264 670.949" stroke="black" stroke-width="45" fill="none" stroke-linecap="round" stroke-linejoin="round"></path><path id="path-extension-1" d="M349.800 664.277L358.551 661.812" stroke="black" stroke-width="45" fill="none" stroke-linecap="round" stroke-linejoin="round"></path><path id="path-extension-2" d="M682.265 666.411L665.823 660.724" stroke="black" stroke-width="45" fill="none" stroke-linecap="round" stroke-linejoin="round"></path><path id="path-extension-3" d="M366.651 672.458L358.551 661.812" stroke="black" stroke-width="45" fill="none" stroke-linecap="round" stroke-linejoin="round"></path><path id="path-extension-4" d="M658.264 670.949L665.823 660.724" stroke="black" stroke-width="45" fill="none" stroke-linecap="round" stroke-linejoin="round"></path><path id="path-connection-1" d="M358.551 661.812L358.551 661.812" stroke="black" stroke-width="45" fill="none" stroke-linecap="round" stroke-linejoin="round"></path><path id="path-connection-2" d="M665.823 660.724L665.823 660.724" stroke="black" stroke-width="45" fill="none" stroke-linecap="round" stroke-linejoin="round"></path></g></svg>