<svg xmlns="http://www.w3.org/2000/svg" viewBox="4 162.2989959716797 1016 699.4019775390625" width="1024" height="1024" class="colorable-icon" overflow="visible"><g id="skeleton-paths" stroke-width="45.0"><path id="path-0-0" d="M412.659 518.065L414.472 519.634L416.541 521.442L419.631 524.132L422.622 526.731L425.250 528.984L427.781 531.124L430.063 533.032L432.617 535.163L434.899 537.066L437.385 539.137L439.667 541.040L442.222 543.170L444.504 545.073L446.993 547.141L449.288 549.030L451.872 551.129L454.197 552.979L456.647 554.904L458.844 556.583L461.258 558.364L463.530 559.948L466.030 561.613L468.362 563.099L471.005 564.715L473.854 566.320L477.353 568.141L480.988 569.865L484.527 571.392L487.414 572.489L490.120 573.377L492.463 574.047L495.114 574.712L497.388 575.203L500.042 575.677L502.224 575.995L504.849 576.267L507.015 576.407L509.716 576.483L512.350 576.452L515.454 576.336L518.486 576.079L521.227 575.740L523.865 575.274L526.210 574.774L528.926 574.106L531.848 573.233L535.066 572.151L538.247 570.882L540.904 569.683L543.539 568.353L545.872 567.106L548.595 565.625L551.421 564.013L554.629 562.124L557.875 560.117L560.727 558.273L563.337 556.475L565.566 554.861L567.961 553.067L570.179 551.361L572.665 549.398L575.002 547.513L577.591 545.392L579.879 543.496L582.377 541.409L584.664 539.493L587.382 537.207L590.172 534.861L593.294 532.224L596.473 529.545L599.657 526.880L602.876 524.216L606.123 521.586L608.328 519.817L610.338 518.240" stroke="#000000" stroke-width="45" fill="none" stroke-linecap="round" stroke-linejoin="round"></path><path id="path-1-0" d="M637.810 518.718L639.541 520.248L641.250 521.778L643.847 524.076L646.078 526.049L648.515 528.180L650.758 530.129L653.377 532.384L655.799 534.454L658.590 536.829L661.382 539.201L664.505 541.854L667.684 544.556L670.848 547.245L674.034 549.953L677.160 552.609L679.956 554.986L682.644 557.270L684.907 559.193L687.370 561.286L689.634 563.210L692.169 565.365L694.434 567.289L696.902 569.389L699.167 571.318L701.857 573.614L704.640 575.993L707.758 578.659L710.873 581.323L713.663 583.709L716.342 586.001L718.598 587.931L721.053 590.031L723.312 591.963L725.840 594.126L728.098 596.058L730.562 598.164L732.829 600.103L735.461 602.356L737.879 604.427L740.492 606.667L742.740 608.594L745.191 610.696L747.448 612.630L749.973 614.796L752.230 616.730L754.693 618.841L756.960 620.785L759.594 623.042L762.010 625.114L764.620 627.352L766.866 629.278L769.315 631.378L771.572 633.312L774.098 635.478L776.354 637.412L778.818 639.525L781.080 641.463L783.768 643.768L786.544 646.148L789.659 648.819L792.770 651.485L795.561 653.878L798.234 656.170L800.486 658.100L802.944 660.208L805.206 662.147L807.897 664.453L810.671 666.832L813.787 669.503L816.898 672.167L819.694 674.559L822.368 676.845L824.622 678.770L827.074 680.863L829.334 682.793L831.864 684.954L834.124 686.883L836.585 688.985L838.845 690.915L841.375 693.075L843.635 695.005L846.104 697.114L848.369 699.048L851.063 701.349L853.843 703.722L856.964 706.387L860.079 709.048L862.876 711.436L865.552 713.722L867.807 715.647L870.259 717.741L872.519 719.671L875.049 721.831L877.309 723.761L879.779 725.870L882.045 727.805L884.739 730.107L887.518 732.479L890.639 735.145L893.754 737.805L896.552 740.194L899.228 742.479L901.482 744.403L903.934 746.497L906.194 748.427L908.724 750.587L910.984 752.517L913.444 754.619L915.705 756.549L918.235 758.709L920.495 760.639L922.964 762.748L925.229 764.682L927.923 766.983L930.702 769.356L933.815 772.014L936.983 774.720L940.141 777.416L943.318 780.128L946.496 782.839L949.659 785.529L952.843 788.232L956.030 790.932L959.199 793.615L962.391 796.319L965.523 798.971L968.327 801.346L971.016 803.621L973.281 805.538L975.753 807.631L978.035 809.565L980.696 811.823L983.129 813.920L985.818 816.326L988.114 818.530L989.928 820.324L991.148 821.614" stroke="#000000" stroke-width="45" fill="none" stroke-linecap="round" stroke-linejoin="round"></path><path id="path-2-0" d="M34.018 854.161L37.122 855.768L40.608 857.187L45.545 858.809L50.388 859.843L55.211 860.524L59.956 860.972L64.701 861.196L69.467 861.270L74.270 861.254L79.073 861.236L83.876 861.236L88.679 861.258L93.483 861.288L98.286 861.314L103.089 861.334L107.892 861.350L112.695 861.366L117.499 861.382L122.302 861.397L127.105 861.413L131.908 861.429L136.711 861.445L141.515 861.461L146.318 861.477L151.121 861.493L155.924 861.509L160.727 861.525L165.531 861.541L170.334 861.557L175.137 861.572L179.940 861.588L184.743 861.604L189.547 861.620L194.350 861.635L199.153 861.646L203.956 861.652L208.759 861.654L213.563 861.653L218.366 861.651L223.169 861.649L227.972 861.647L232.775 861.645L237.579 861.643L242.382 861.641L247.185 861.640L251.988 861.638L256.791 861.636L261.595 861.634L266.398 861.632L271.201 861.630L276.004 861.628L280.807 861.627L285.610 861.625L290.414 861.623L295.217 861.621L300.020 861.619L304.823 861.617L309.626 861.615L314.430 861.614L319.233 861.612L324.036 861.610L328.839 861.608L333.642 861.606L338.446 861.604L343.249 861.602L348.052 861.601L352.855 861.599L357.658 861.597L362.462 861.595L367.265 861.593L372.068 861.591L376.871 861.589L381.674 861.588L386.478 861.586L391.281 861.584L396.084 861.582L400.887 861.580L405.690 861.578L410.494 861.577L415.297 861.575L420.100 861.573L424.903 861.571L429.706 861.569L434.510 861.567L439.313 861.565L444.116 861.564L448.919 861.562L453.722 861.560L458.526 861.556L463.329 861.552L468.132 861.545L472.935 861.537L477.738 861.528L482.541 861.520L487.345 861.511L492.148 861.503L496.951 861.494L501.754 861.486L506.557 861.477L511.361 861.469L516.164 861.460L520.967 861.452L525.770 861.443L530.573 861.435L535.377 861.426L540.180 861.418L544.983 861.409L549.786 861.401L554.589 861.392L559.393 861.384L564.196 861.375L569 861.367L573.802 861.358L578.605 861.350L583.409 861.341L588.212 861.333L593.015 861.324L597.818 861.316L602.621 861.307L607.425 861.299L612.228 861.290L617.031 861.282L621.834 861.273L626.637 861.265L631.441 861.256L636.244 861.248L641.047 861.239L645.850 861.231L650.653 861.222L655.457 861.214L660.260 861.205L665.063 861.197L669.866 861.188L674.669 861.181L679.473 861.178L684.276 861.181L689.079 861.189L693.882 861.200L698.685 861.211L703.488 861.223L708.292 861.235L713.095 861.246L717.898 861.258L722.701 861.270L727.504 861.281L732.308 861.293L737.111 861.305L741.914 861.316L746.717 861.328L751.520 861.340L756.324 861.351L761.127 861.363L765.930 861.375L770.733 861.386L775.536 861.398L780.340 861.410L785.143 861.421L789.946 861.433L794.749 861.445L799.552 861.456L804.356 861.468L809.159 861.480L813.962 861.491L818.765 861.503L823.568 861.515L828.372 861.526L833.175 861.538L837.978 861.550L842.781 861.561L847.584 861.573L852.388 861.584L857.191 861.596L861.994 861.608L866.797 861.619L871.600 861.631L876.404 861.643L881.207 861.654L886.010 861.666L890.813 861.678L895.616 861.689L900.419 861.698L905.223 861.701L910.026 861.693L914.829 861.677L919.632 861.655L924.435 861.631L929.239 861.608L934.042 861.585L938.828 861.563L943.636 861.541L948.431 861.516L953.268 861.482L958.066 861.408L962.870 861.236L967.669 860.869L972.497 860.214L977.349 859.190L982.221 857.673L985.695 856.401L988.676 855.038" stroke="#000000" stroke-width="45" fill="none" stroke-linecap="round" stroke-linejoin="round"></path><path id="path-3-0" d="M38.629 817.443L41.443 815.034L44.723 812.232L49.341 808.276L54.078 804.212L58.868 800.095L63.752 795.897L68.614 791.716L73.377 787.621L78.177 783.493L82.850 779.473L87.666 775.326L92.437 771.214L97.312 767.008L102.169 762.819L106.926 758.714L111.730 754.569L116.499 750.454L121.375 746.247L126.230 742.058L130.987 737.954L135.791 733.809L140.560 729.694L145.437 725.486L150.291 721.297L155.048 717.194L159.841 713.058L164.508 709.031L169.320 704.879L174.089 700.765L178.964 696.558L183.821 692.369L188.580 688.267L193.387 684.126L198.162 680.017L203.043 675.817L207.904 671.635L212.667 667.538L217.477 663.399L222.253 659.291L227.136 655.090L231.996 650.909L236.758 646.813L241.556 642.685L246.229 638.665L251.048 634.519L255.823 630.411L260.706 626.211L265.566 622.029L270.328 617.932L275.139 613.794L279.915 609.685L284.798 605.484L289.658 601.304L294.419 597.207L299.228 593.067L304 588.953L308.876 584.741L313.723 580.547L318.470 576.435L323.253 572.292L327.912 568.254L332.718 564.092L337.486 559.974L342.368 555.774L347.241 551.606L352.021 547.531L356.857 543.420L361.657 539.340L366.567 535.167L371.448 531.016L376.242 526.940L379.690 524.008L382.512 521.612" stroke="#000000" stroke-width="45" fill="none" stroke-linecap="round" stroke-linejoin="round"></path><path id="path-4-0" d="M32.464 200.867L33.870 202.011L35.809 203.696L38.196 205.812L40.914 208.257L43.650 210.654L46.760 213.296L49.801 215.823L52.471 218.034L55.027 220.150L57.323 222.050L59.885 224.170L62.175 226.065L64.667 228.127L66.957 230.022L69.519 232.142L71.808 234.037L74.301 236.099L76.590 237.993L79.153 240.114L81.438 242.004L83.988 244.113L86.647 246.313L89.712 248.850L92.930 251.518L96.128 254.175L99.337 256.848L102.543 259.525L105.730 262.185L108.936 264.862L112.142 267.539L115.329 270.200L118.535 272.877L121.741 275.554L124.928 278.215L128.133 280.892L131.339 283.569L134.526 286.230L137.732 288.907L140.938 291.584L144.125 294.245L147.330 296.922L150.536 299.599L153.723 302.260L156.929 304.937L160.135 307.614L163.321 310.275L166.527 312.952L169.733 315.629L172.919 318.291L176.125 320.968L179.331 323.645L182.517 326.307L185.723 328.984L188.928 331.661L192.115 334.323L195.320 337L198.526 339.677L201.712 342.338L204.921 345.018L208.070 347.648L210.887 350L213.593 352.261L215.872 354.164L218.352 356.235L220.632 358.140L223.185 360.272L225.466 362.177L227.949 364.251L230.230 366.156L232.783 368.288L235.064 370.193L237.547 372.267L239.828 374.172L242.381 376.304L244.661 378.209L247.145 380.283L249.425 382.188L251.979 384.320L254.259 386.225L256.742 388.299L259.023 390.204L261.576 392.336L263.857 394.241L266.340 396.315L268.621 398.220L271.174 400.352L273.455 402.257L275.938 404.331L278.219 406.236L280.771 408.368L283.051 410.274L285.534 412.349L287.813 414.255L290.364 416.390L292.644 418.296L295.125 420.372L297.404 422.279L299.956 424.413L302.235 426.320L304.716 428.396L306.995 430.303L309.547 432.437L311.826 434.344L314.308 436.420L316.587 438.327L319.138 440.461L321.419 442.366L323.903 444.439L326.185 446.341L328.741 448.470L331.023 450.370L333.568 452.489L336.223 454.700L339.277 457.244L342.487 459.918L345.678 462.577L348.887 465.250L352.096 467.923L355.286 470.580L358.497 473.254L361.648 475.878L364.466 478.226L367.177 480.484L369.458 482.387L371.939 484.470L374.212 486.403L376.834 488.669L379.229 490.768L381.812 493.047L383.433 494.481L384.947 495.813" stroke="#000000" stroke-width="45" fill="none" stroke-linecap="round" stroke-linejoin="round"></path><path id="path-5-0" d="M5.293 209.429L5.041 212.366L4.856 215.762L4.676 220.466L4.619 225.185L4.614 229.936L4.608 234.739L4.575 239.542L4.517 244.345L4.450 249.149L4.399 253.952L4.359 258.755L4.325 263.558L4.285 268.361L4.241 273.165L4.195 277.968L4.150 282.771L4.107 287.574L4.068 292.377L4.036 297.181L4.013 301.984L4 306.787L4 311.590L4.015 316.393L4.047 321.196L4.098 326L4.170 330.803L4.252 335.606L4.327 340.409L4.373 345.212L4.391 350.016L4.389 354.819L4.381 359.622L4.374 364.425L4.366 369.228L4.359 374.032L4.351 378.835L4.344 383.638L4.336 388.441L4.328 393.244L4.321 398.048L4.313 402.851L4.306 407.654L4.298 412.457L4.291 417.260L4.283 422.064L4.276 426.867L4.268 431.670L4.261 436.473L4.253 441.276L4.246 446.080L4.238 450.883L4.231 455.686L4.223 460.489L4.215 465.292L4.208 470.096L4.200 474.899L4.193 479.702L4.185 484.505L4.178 489.308L4.170 494.112L4.163 498.915L4.155 503.718L4.148 508.521L4.140 513.324L4.133 518.127L4.125 522.931L4.118 527.734L4.110 532.537L4.102 537.340L4.095 542.143L4.087 546.947L4.080 551.750L4.075 556.553L4.075 561.356L4.082 566.159L4.094 570.963L4.106 575.766L4.116 580.569L4.124 585.372L4.132 590.175L4.140 594.979L4.148 599.782L4.156 604.585L4.164 609.388L4.172 614.191L4.180 618.995L4.188 623.798L4.196 628.601L4.204 633.404L4.212 638.207L4.220 643.011L4.229 647.814L4.237 652.617L4.245 657.420L4.253 662.223L4.262 667.027L4.275 671.830L4.291 676.633L4.310 681.436L4.325 686.239L4.337 691.043L4.346 695.846L4.355 700.649L4.364 705.452L4.373 710.255L4.382 715.059L4.391 719.862L4.400 724.665L4.409 729.468L4.418 734.271L4.427 739.074L4.436 743.878L4.445 748.681L4.454 753.484L4.462 758.287L4.471 763.090L4.480 767.894L4.489 772.697L4.498 777.500L4.507 782.303L4.516 787.106L4.525 791.910L4.535 796.663L4.594 801.387L4.793 806.078L5.285 810.981L5.771 814.540L6.374 817.795" stroke="#000000" stroke-width="45" fill="none" stroke-linecap="round" stroke-linejoin="round"></path><path id="path-6-0" d="M1017.905 814.970L1018.339 812.800L1018.680 811.037L1019.209 808.251L1019.492 806.013L1019.664 803.446L1019.689 801.187L1019.691 798.643L1019.692 796.384L1019.694 793.840L1019.695 791.580L1019.696 789.037L1019.698 786.777L1019.699 784.234L1019.701 781.974L1019.702 779.430L1019.704 777.171L1019.705 774.627L1019.707 772.368L1019.708 769.824L1019.710 767.564L1019.711 765.021L1019.712 762.761L1019.714 760.218L1019.715 757.958L1019.717 755.414L1019.718 753.155L1019.720 750.611L1019.721 748.352L1019.723 745.808L1019.724 743.548L1019.726 741.005L1019.727 738.745L1019.729 736.202L1019.730 733.942L1019.732 731.398L1019.733 729.139L1019.735 726.595L1019.736 724.336L1019.737 721.792L1019.739 719.532L1019.740 716.989L1019.742 714.729L1019.743 712.186L1019.745 709.926L1019.746 707.382L1019.748 705.123L1019.749 702.579L1019.751 700.320L1019.752 697.776L1019.753 695.516L1019.755 692.973L1019.756 690.713L1019.758 688.170L1019.759 685.910L1019.761 683.367L1019.762 681.107L1019.764 678.563L1019.765 676.304L1019.767 673.760L1019.768 671.500L1019.770 668.957L1019.771 666.697L1019.773 664.154L1019.774 661.894L1019.775 659.351L1019.777 657.091L1019.779 654.505L1019.780 652.237L1019.782 649.646L1019.784 647.488L1019.786 644.966L1019.787 642.803L1019.788 640.200L1019.789 637.925L1019.790 635.335L1019.791 633.075L1019.793 630.531L1019.794 628.272L1019.796 625.728L1019.797 623.468L1019.799 620.925L1019.800 618.665L1019.802 616.122L1019.803 613.862L1019.805 611.319L1019.806 609.059L1019.808 606.515L1019.809 604.256L1019.811 601.712L1019.812 599.453L1019.814 596.909L1019.815 594.649L1019.816 592.106L1019.818 589.846L1019.819 587.303L1019.821 585.043L1019.822 582.499L1019.824 580.240L1019.825 577.696L1019.827 575.437L1019.828 572.893L1019.830 570.633L1019.831 568.090L1019.832 565.830L1019.835 563.287L1019.837 561.027L1019.842 558.483L1019.846 556.224L1019.851 553.680L1019.856 551.421L1019.862 548.877L1019.866 546.617L1019.872 544.074L1019.877 541.814L1019.882 539.271L1019.887 537.011L1019.892 534.467L1019.897 532.208L1019.903 529.664L1019.907 527.405L1019.913 524.861L1019.918 522.601L1019.923 520.058L1019.928 517.798L1019.933 515.255L1019.938 512.995L1019.943 510.451L1019.948 508.192L1019.954 505.648L1019.958 503.389L1019.964 500.845L1019.969 498.585L1019.974 496.042L1019.979 493.782L1019.984 491.239L1019.989 488.979L1019.994 486.436L1019.997 484.176L1020 481.632L1020 479.373L1020 476.829L1019.999 474.569L1019.998 472.026L1019.997 469.766L1019.996 467.223L1019.995 464.963L1019.994 462.420L1019.993 460.160L1019.992 457.616L1019.991 455.357L1019.990 452.813L1019.989 450.553L1019.988 448.010L1019.987 445.750L1019.986 443.207L1019.985 440.947L1019.984 438.404L1019.983 436.144L1019.982 433.600L1019.981 431.341L1019.980 428.797L1019.980 426.537L1019.979 423.994L1019.978 421.734L1019.977 419.191L1019.976 416.931L1019.975 414.388L1019.974 412.128L1019.973 409.584L1019.972 407.325L1019.971 404.781L1019.970 402.521L1019.969 399.978L1019.968 397.718L1019.967 395.175L1019.966 392.915L1019.965 390.372L1019.964 388.112L1019.963 385.568L1019.962 383.309L1019.961 380.765L1019.960 378.506L1019.959 375.962L1019.959 373.702L1019.957 371.107L1019.955 368.826L1019.951 366.213L1019.945 364.045L1019.936 361.524L1019.928 359.372L1019.917 356.790L1019.908 354.528L1019.898 351.946L1019.889 349.686L1019.878 347.143L1019.869 344.883L1019.859 342.340L1019.849 340.080L1019.839 337.536L1019.830 335.277L1019.819 332.733L1019.810 330.474L1019.800 327.930L1019.790 325.670L1019.780 323.127L1019.771 320.867L1019.760 318.324L1019.751 316.064L1019.741 313.520L1019.731 311.261L1019.721 308.717L1019.712 306.458L1019.701 303.914L1019.692 301.654L1019.682 299.111L1019.673 296.851L1019.662 294.308L1019.653 292.048L1019.643 289.504L1019.633 287.245L1019.623 284.701L1019.614 282.442L1019.603 279.898L1019.594 277.638L1019.584 275.095L1019.574 272.835L1019.564 270.292L1019.555 268.032L1019.544 265.489L1019.535 263.229L1019.525 260.685L1019.515 258.426L1019.505 255.882L1019.496 253.622L1019.485 251.079L1019.476 248.819L1019.470 246.276L1019.468 244.016L1019.475 241.473L1019.484 239.213L1019.496 236.669L1019.508 234.410L1019.524 231.866L1019.543 229.606L1019.566 227.063L1019.583 224.803L1019.587 222.260L1019.574 220L1019.537 217.457L1019.484 215.197L1019.322 212.623L1018.983 209.792L1018.615 207.448L1018.178 204.991" stroke="#000000" stroke-width="45" fill="none" stroke-linecap="round" stroke-linejoin="round"></path><path id="path-7-0" d="M638.904 494.423L640.094 493.433L641.810 492.005L644.076 490.120L646.632 487.992L648.916 486.091L651.403 484.021L653.687 482.120L656.243 479.992L658.527 478.091L661.014 476.021L663.298 474.120L665.854 471.992L668.138 470.091L670.625 468.021L672.909 466.121L675.465 463.993L677.749 462.092L680.236 460.022L682.520 458.121L685.076 455.993L687.345 454.105L689.883 451.994L692.526 449.798L695.598 447.247L698.822 444.572L702.032 441.909L705.247 439.243L708.462 436.577L711.658 433.928L714.873 431.262L718.088 428.596L721.284 425.946L724.499 423.280L727.714 420.614L730.910 417.965L734.125 415.299L737.340 412.633L740.521 409.995L743.727 407.337L746.769 404.815L749.446 402.595L752.006 400.473L754.308 398.564L756.869 396.441L759.156 394.544L761.646 392.479L763.934 390.583L766.494 388.459L768.782 386.563L771.272 384.498L773.560 382.601L776.120 380.478L778.408 378.581L780.898 376.516L783.186 374.620L785.746 372.496L788.034 370.600L790.524 368.535L792.812 366.638L795.372 364.515L797.660 362.618L800.150 360.553L802.438 358.657L804.998 356.533L807.286 354.637L809.776 352.572L812.064 350.675L814.624 348.552L816.912 346.655L819.402 344.590L821.689 342.694L824.250 340.571L826.537 338.674L829.028 336.609L831.315 334.712L833.876 332.589L836.163 330.692L838.654 328.627L840.941 326.731L843.502 324.608L845.789 322.711L848.280 320.646L850.567 318.749L853.128 316.626L855.401 314.741L857.942 312.634L860.588 310.440L863.661 307.892L866.885 305.219L870.096 302.557L873.311 299.891L876.526 297.226L879.722 294.576L882.937 291.910L886.152 289.244L889.347 286.594L892.563 283.928L895.778 281.263L898.973 278.613L902.188 275.947L905.404 273.281L908.585 270.643L911.791 267.984L914.834 265.461L917.511 263.242L920.070 261.120L922.371 259.212L924.932 257.089L927.219 255.192L929.710 253.127L931.997 251.231L934.558 249.107L936.845 247.211L939.336 245.146L941.623 243.249L944.184 241.126L946.471 239.229L948.962 237.165L951.252 235.271L953.817 233.153L956.111 231.264L958.611 229.210L960.907 227.324L963.477 225.213L965.773 223.327L968.274 221.273L970.570 219.388L973.140 217.276L975.431 215.386L977.907 213.304L980.153 211.361L982.641 209.151L984.847 207.157L987.248 204.962L989.457 202.934L991.263 201.265L992.602 200.032" stroke="#000000" stroke-width="45" fill="none" stroke-linecap="round" stroke-linejoin="round"></path><path id="path-8-0" d="M30.179 171.787L31.853 170.683L34.040 169.377L37.678 167.457L41.604 165.693L45.391 164.375L48.436 163.649L51.268 163.344L54.442 163.228L58.469 163.139L63.040 163.091L67.858 163.059L72.669 163.048L77.472 163.035L82.275 163.023L87.078 163.010L91.882 162.998L96.685 162.986L101.488 162.973L106.291 162.961L111.094 162.949L115.898 162.936L120.701 162.924L125.504 162.912L130.311 162.899L135.153 162.886L139.984 162.873L144.823 162.860L149.584 162.849L154.360 162.837L159.126 162.825L163.930 162.813L168.733 162.800L173.536 162.788L178.339 162.776L183.142 162.763L187.946 162.751L192.749 162.739L197.552 162.726L202.355 162.714L207.158 162.701L211.961 162.689L216.765 162.677L221.568 162.664L226.371 162.651L231.174 162.638L235.977 162.626L240.781 162.614L245.584 162.602L250.387 162.591L255.190 162.580L259.993 162.569L264.797 162.558L269.600 162.547L274.403 162.536L279.206 162.525L284.009 162.514L288.813 162.503L293.616 162.492L298.419 162.481L303.222 162.469L308.025 162.458L312.829 162.447L317.632 162.436L322.435 162.425L327.238 162.414L332.041 162.403L336.845 162.392L341.648 162.381L346.451 162.370L351.254 162.359L356.057 162.348L360.861 162.336L365.664 162.325L370.467 162.314L375.270 162.305L380.073 162.299L384.877 162.299L389.680 162.305L394.483 162.313L399.286 162.323L404.089 162.332L408.892 162.342L413.696 162.351L418.499 162.361L423.302 162.370L428.105 162.380L432.908 162.389L437.712 162.399L442.515 162.408L447.318 162.417L452.121 162.427L456.924 162.436L461.728 162.446L466.531 162.455L471.334 162.465L476.137 162.474L480.940 162.484L485.744 162.493L490.547 162.503L495.350 162.512L500.153 162.522L504.956 162.531L509.760 162.537L514.563 162.539L519.366 162.537L524.169 162.533L528.972 162.528L533.776 162.522L538.579 162.517L543.382 162.512L548.185 162.507L552.988 162.501L557.792 162.496L562.595 162.491L567.398 162.486L572.201 162.480L577.004 162.475L581.808 162.470L586.611 162.465L591.414 162.459L596.217 162.454L601.020 162.449L605.824 162.444L610.627 162.439L615.430 162.433L620.233 162.428L625.036 162.423L629.839 162.418L634.643 162.412L639.446 162.407L644.249 162.402L649.052 162.398L653.855 162.395L658.659 162.393L663.462 162.391L668.265 162.390L673.068 162.389L677.871 162.387L682.675 162.386L687.478 162.385L692.281 162.384L697.084 162.382L701.887 162.381L706.691 162.380L711.494 162.378L716.297 162.377L721.100 162.376L725.903 162.374L730.707 162.373L735.510 162.372L740.313 162.371L745.116 162.369L749.919 162.368L754.723 162.367L759.526 162.365L764.329 162.364L769.132 162.363L773.935 162.361L778.739 162.360L783.542 162.359L788.345 162.358L793.148 162.358L797.951 162.362L802.755 162.372L807.558 162.388L812.361 162.406L817.164 162.426L821.967 162.445L826.770 162.465L831.574 162.484L836.377 162.504L841.180 162.523L845.983 162.543L850.786 162.562L855.590 162.582L860.393 162.601L865.196 162.621L870 162.640L874.802 162.659L879.606 162.675L884.409 162.686L889.212 162.691L894.015 162.694L898.818 162.694L903.622 162.695L908.425 162.697L913.228 162.705L918.031 162.721L922.834 162.748L927.638 162.781L932.441 162.817L937.244 162.853L942.047 162.889L946.850 162.925L951.654 162.961L956.413 163.012L961.173 163.086L965.901 163.231L970.701 163.539L975.465 164.177L980.284 165.336L985.086 167.132L988.584 168.686L991.539 170.279" stroke="#000000" stroke-width="45" fill="none" stroke-linecap="round" stroke-linejoin="round"></path><path id="path-extension-1" d="M637.810 518.718L624.194 506.688" stroke="#000000" stroke-width="45" fill="none" stroke-linecap="round" stroke-linejoin="round"></path><path id="path-extension-2" d="M382.512 521.612L399.311 507.347" stroke="#000000" stroke-width="45" fill="none" stroke-linecap="round" stroke-linejoin="round"></path><path id="path-extension-3" d="M32.464 200.867L11.708 183.974" stroke="#000000" stroke-width="45" fill="none" stroke-linecap="round" stroke-linejoin="round"></path><path id="path-extension-4" d="M5.293 209.429L7.223 186.932" stroke="#000000" stroke-width="45" fill="none" stroke-linecap="round" stroke-linejoin="round"></path><path id="path-extension-5" d="M1018.178 204.991L1014.178 182.488" stroke="#000000" stroke-width="45" fill="none" stroke-linecap="round" stroke-linejoin="round"></path><path id="path-extension-6" d="M992.602 200.032L1012.569 181.621" stroke="#000000" stroke-width="45" fill="none" stroke-linecap="round" stroke-linejoin="round"></path><path id="path-extension-7" d="M30.179 171.787L11.708 183.974" stroke="#000000" stroke-width="45" fill="none" stroke-linecap="round" stroke-linejoin="round"></path><path id="path-extension-8" d="M991.539 170.279L1012.569 181.621" stroke="#000000" stroke-width="45" fill="none" stroke-linecap="round" stroke-linejoin="round"></path><path id="path-connection-1" d="M412.659 518.065L384.947 495.813" stroke="#000000" stroke-width="45" fill="none" stroke-linecap="round" stroke-linejoin="round"></path><path id="path-connection-2" d="M610.338 518.240L638.904 494.423" stroke="#000000" stroke-width="45" fill="none" stroke-linecap="round" stroke-linejoin="round"></path><path id="path-connection-3" d="M11.708 183.974L11.708 183.974" stroke="#000000" stroke-width="45" fill="none" stroke-linecap="round" stroke-linejoin="round"></path><path id="path-connection-4" d="M1012.569 181.621L1012.569 181.621" stroke="#000000" stroke-width="45" fill="none" stroke-linecap="round" stroke-linejoin="round"></path><path id="path-connection-5" d="M991.148 821.614L1012.152 844.054" stroke="#000000" stroke-width="45" fill="none" stroke-linecap="round" stroke-linejoin="round"></path><path id="path-connection-6" d="M988.676 855.038L1012.152 844.054" stroke="#000000" stroke-width="45" fill="none" stroke-linecap="round" stroke-linejoin="round"></path><path id="path-connection-7" d="M1017.905 814.970L1012.152 844.054" stroke="#000000" stroke-width="45" fill="none" stroke-linecap="round" stroke-linejoin="round"></path><path id="path-connection-8" d="M34.018 854.161L10.688 841.694" stroke="#000000" stroke-width="45" fill="none" stroke-linecap="round" stroke-linejoin="round"></path><path id="path-connection-9" d="M38.629 817.443L10.688 841.694" stroke="#000000" stroke-width="45" fill="none" stroke-linecap="round" stroke-linejoin="round"></path><path id="path-connection-10" d="M6.374 817.795L10.688 841.694" stroke="#000000" stroke-width="45" fill="none" stroke-linecap="round" stroke-linejoin="round"></path></g></svg>