<svg xmlns="http://www.w3.org/2000/svg" viewBox="236.2760009765625 -30 551.447998046875 1086" width="1024" height="1024" class="colorable-icon" overflow="visible"><g id="skeleton-paths" stroke-width="45.0"><path id="path-0-0" d="M465.466 791.290L463.523 790.685L461.726 790.089L458.960 789.141L456.336 788.160L453.479 787.042L450.750 785.911L448.376 784.888L446.087 783.839L443.764 782.712L441.140 781.395L438.477 779.998L436.092 778.703L433.729 777.341L431.399 775.926L428.845 774.325L426.338 772.693L424.116 771.207L421.907 769.652L419.875 768.163L417.472 766.325L415.009 764.347L412.299 762.093L409.640 759.775L407.301 757.667L405.019 755.497L403.069 753.566L400.919 751.340L399.051 749.332L396.961 746.980L394.934 744.581L392.717 741.850L390.539 739.025L388.506 736.256L386.573 733.488L384.847 730.886L383.343 728.537L381.938 726.205L380.533 723.716L378.896 720.663L377.250 717.434L375.778 714.408L374.643 711.946L373.712 709.797L372.910 707.865L372.033 705.645L371.107 703.161L369.998 699.959L368.812 696.275L367.619 692.227L366.554 688.249L365.697 684.706L365.033 681.673L364.561 679.328L364.141 676.991L363.755 674.542L363.317 671.405L362.927 668.246L362.600 665.232L362.386 662.879L362.229 660.652L362.120 658.709L362.026 656.521L361.969 654.577L361.932 652.389L361.928 650.445L361.953 648.257L362.001 646.313L362.084 644.125L362.185 642.182L362.330 639.968L362.481 638.055L362.683 635.869L362.877 634.032L363.136 631.847L363.382 629.986L363.708 627.747L364.015 625.823L364.409 623.541L364.761 621.648L365.212 619.396L365.717 617.108L366.413 614.137L367.181 611.061L367.976 608.063L368.683 605.587L369.384 603.312L370.072 601.221L370.823 599.027L371.535 597.038L372.300 594.972L373.001 593.153L373.876 590.995L374.875 588.676L376.258 585.623L377.766 582.455L379.362 579.255L380.666 576.758L381.977 574.385L383.240 572.221L384.802 569.633L386.411 567.088L387.957 564.718L389.557 562.408L391.317 560L393.365 557.295L395.487 554.607L397.347 552.335L399.186 550.201L400.862 548.339L402.856 546.210L404.729 544.285L406.936 542.112L409.190 540.009L411.779 537.679L414.331 535.486L416.615 533.588L418.747 531.900L420.636 530.463L422.705 528.944L424.651 527.570L426.799 526.114L428.800 524.812L431.146 523.360L433.591 521.923L436.311 520.384L439.028 518.919L441.768 517.516L444.940 515.992L448.461 514.402L451.986 512.881L455.134 511.604L457.545 510.685L459.869 509.850L461.858 509.176L464.103 508.442L466.429 507.737L469.366 506.895L472.483 506.053L475.588 505.267L478.106 504.670L480.420 504.171L482.271 503.796L484.394 503.398L486.260 503.072L488.615 502.691L490.924 502.356L493.556 502.004L496.125 501.704L498.422 501.458L500.681 501.260L502.625 501.120L504.812 501L506.756 500.925L508.944 500.874L510.888 500.854L513.076 500.861L515.020 500.892L517.208 500.958L519.152 501.043L521.383 501.174L523.334 501.316L525.591 501.513L527.487 501.704L529.696 501.955L531.561 502.191L533.760 502.500L535.666 502.796L537.925 503.180L540.279 503.627L543.417 504.277L547.025 505.100L550.642 505.981L553.902 506.845L556.707 507.663L559.841 508.661L563.292 509.850L566.825 511.131L570.086 512.400L572.975 513.607L575.793 514.853L578.588 516.160L581.342 517.516L584.083 518.936L586.752 520.387L589.054 521.681L591.310 523.009L593.209 524.175L595.448 525.592L597.454 526.913L599.659 528.413L601.594 529.787L603.744 531.374L605.769 532.926L608.008 534.706L609.978 536.334L612.084 538.145L613.985 539.843L616.078 541.778L617.924 543.545L619.892 545.507L621.663 547.347L623.674 549.521L625.496 551.565L627.543 553.970L629.571 556.488L631.975 559.625L634.315 562.826L636.548 566.030L638.401 568.853L640.082 571.542L641.619 574.128L642.967 576.476L644.205 578.752L645.241 580.740L646.278 582.803L647.194 584.696L648.175 586.810L649.046 588.753L649.987 590.947L650.767 592.843L651.650 595.078L652.403 597.075L653.245 599.422L654.055 601.833L654.916 604.541L655.739 607.274L656.417 609.638L657.052 612.007L657.630 614.393L658.313 617.451L658.959 620.608L659.548 623.730L659.967 626.162L660.322 628.496L660.584 630.410L660.863 632.655L661.067 634.526L661.278 636.712L661.429 638.610L661.578 640.804L661.682 642.748L661.771 644.936L661.821 646.880L661.848 649.068L661.845 651.012L661.812 653.200L661.754 655.143L661.661 657.331L661.554 659.275L661.410 661.463L661.254 663.410L661.050 665.597L660.838 667.562L660.555 669.858L660.194 672.353L659.692 675.451L659.134 678.594L658.521 681.699L657.879 684.573L657.081 687.767L656.220 690.961L655.322 694.080L654.576 696.502L653.829 698.761L653.165 700.659L652.327 702.953L651.359 705.429L650.085 708.534L648.707 711.707L647.297 714.794L646.073 717.327L644.823 719.764L643.441 722.281L641.637 725.400L639.636 728.696L637.616 731.882L635.920 734.431L634.346 736.670L632.937 738.586L631.255 740.778L629.378 743.101L627.154 745.759L624.806 748.435L622.647 750.808L620.443 753.097L618.486 755.045L616.236 757.181L614.195 759.042L611.934 761.021L609.956 762.689L607.726 764.491L605.351 766.314L602.612 768.350L599.818 770.340L597.372 772.026L595.061 773.541L593.047 774.807L590.763 776.184L588.328 777.584L585.236 779.281L581.756 781.097L578.177 782.884L574.876 784.435L571.913 785.729L569.028 786.911L565.988 788.068L562.773 789.220L560.221 790.095L557.961 790.836" stroke="#000000" stroke-width="45" fill="none" stroke-linecap="round" stroke-linejoin="round"></path><path id="path-1-0" d="M498.264 804.642L500.765 804.700L503.719 804.747L507.850 804.791L511.982 804.786L516.114 804.743L520.246 804.665L523.199 804.598L525.700 804.530" stroke="#000000" stroke-width="45" fill="none" stroke-linecap="round" stroke-linejoin="round"></path><path id="path-2-0" d="M236.276 1020L236.395 1018.936L236.583 1017.352L236.816 1015.445L237.115 1013.186L237.383 1011.296L237.731 1009.041L238.042 1007.159L238.433 1004.955L238.780 1003.121L239.217 1000.948L239.635 998.969L240.129 996.721L240.575 994.797L241.086 992.691L241.555 990.817L242.130 988.601L242.643 986.695L243.283 984.439L243.835 982.578L244.538 980.295L245.132 978.438L245.888 976.155L246.522 974.309L247.327 972.041L248 970.206L248.835 968.002L249.535 966.214L250.434 963.992L251.227 962.085L252.198 959.808L253.022 957.926L254.045 955.660L254.971 953.668L256.057 951.387L256.975 949.513L258.081 947.326L259.090 945.384L260.278 943.151L261.305 941.277L262.434 939.264L263.469 937.467L264.589 935.554L265.670 933.752L267.002 931.593L268.326 929.500L269.876 927.106L271.112 925.239L272.528 923.142L273.821 921.283L275.474 918.956L277 916.860L278.645 914.655L280.091 912.761L281.778 910.615L283.475 908.547L285.379 906.258L287.039 904.310L288.706 902.315L290.270 900.501L292.168 898.358L294.027 896.341L296.153 894.092L298.065 892.116L300.245 889.920L302.206 887.993L304.442 885.853L306.452 883.976L308.727 881.905L310.675 880.169L312.872 878.266L315.035 876.448L317.601 874.336L320.295 872.167L322.785 870.201L325.194 868.353L327.205 866.854L329.334 865.300L331.251 863.936L333.359 862.469L335.318 861.138L337.503 859.692L339.838 858.194L342.351 856.608L344.961 854.995L347.161 853.653L349.470 852.281L351.489 851.111L353.802 849.804L355.749 848.726L357.865 847.580L359.672 846.619L361.907 845.456L363.846 844.463L366.093 843.340L367.938 842.438L370.132 841.389L372.060 840.484L374.306 839.450L376.230 838.580L378.451 837.601L380.319 836.796L382.552 835.857L384.498 835.057L386.772 834.139L388.733 833.363L390.998 832.489L392.845 831.789L395.127 830.949L396.922 830.303L399.256 829.482L401.047 828.867L403.382 828.083L405.179 827.492L407.522 826.739L409.326 826.171L411.599 825.473L413.319 824.957L415.505 824.322L417.349 823.803L419.723 823.152L422.142 822.511L424.831 821.812L427.547 821.132L429.719 820.601L432 820.072L433.872 819.656L436.268 819.137L438.267 818.716L440.529 818.250L442.300 817.897L444.463 817.484L446.321 817.143L448.625 816.734L450.469 816.417L452.668 816.057L454.604 815.756L457.151 815.379L459.546 815.036L462.053 814.692L464.110 814.421L466.197 814.169L467.721 813.986L469.189 813.825" stroke="#000000" stroke-width="45" fill="none" stroke-linecap="round" stroke-linejoin="round"></path><path id="path-3-0" d="M558.117 814.199L561.286 814.673L564.840 815.215L569.524 815.953L573.868 816.679L578.038 817.426L582.135 818.212L586.247 819.052L590.336 819.942L594.467 820.897L598.637 821.919L602.832 823.013L606.984 824.158L611.138 825.370L615.253 826.632L619.410 827.968L623.530 829.359L627.642 830.809L631.781 832.338L635.884 833.918L639.960 835.560L644.020 837.270L648.075 839.057L652.243 840.975L656.350 842.949L660.523 845.039L664.631 847.191L668.842 849.492L673.072 851.907L677.333 854.442L681.552 857.065L685.721 859.769L689.906 862.610L694.013 865.518L698.170 868.593L702.243 871.743L706.411 875.109L710.557 878.619L714.690 882.281L718.832 886.131L722.940 890.134L726.959 894.225L730.825 898.352L734.506 902.478L738.091 906.686L741.514 910.894L744.784 915.110L747.841 919.242L750.768 923.388L753.503 927.436L756.125 931.491L758.609 935.519L761.007 939.592L763.319 943.710L765.550 947.892L767.660 952.051L769.671 956.231L771.522 960.297L773.293 964.413L774.953 968.520L776.562 972.751L778.060 976.964L779.450 981.152L780.712 985.258L781.868 989.334L782.936 993.444L783.928 997.613L784.833 1001.793L785.644 1005.950L786.338 1010.045L786.964 1014.156L787.371 1017.089L787.724 1019.586" stroke="#000000" stroke-width="45" fill="none" stroke-linecap="round" stroke-linejoin="round"></path><path id="path-extension-1" d="M465.466 791.290L508.777 804.790" stroke="#000000" stroke-width="45" fill="none" stroke-linecap="round" stroke-linejoin="round"></path><path id="path-extension-2" d="M557.961 790.836L515.560 804.749" stroke="#000000" stroke-width="45" fill="none" stroke-linecap="round" stroke-linejoin="round"></path><path id="path-connection-1" d="M498.264 804.642L469.189 813.825" stroke="#000000" stroke-width="45" fill="none" stroke-linecap="round" stroke-linejoin="round"></path><path id="path-connection-2" d="M525.700 804.530L558.117 814.199" stroke="#000000" stroke-width="45" fill="none" stroke-linecap="round" stroke-linejoin="round"></path><path id="path-connection-3" d="M508.777 804.790L508.777 804.790" stroke="#000000" stroke-width="45" fill="none" stroke-linecap="round" stroke-linejoin="round"></path><path id="path-connection-4" d="M515.560 804.749L515.560 804.749" stroke="#000000" stroke-width="45" fill="none" stroke-linecap="round" stroke-linejoin="round"></path><path id="path-connection-5" d="M512.191 805.854L512.191 805.854" stroke="#000000" stroke-width="45" fill="none" stroke-linecap="round" stroke-linejoin="round"></path></g><g id="skeleton-paths" stroke-width="45.0"><path id="path-0-0" d="M381.960 45.927L380.354 47.110L378.877 48.224L376.568 49.998L374.241 51.854L371.616 53.993L368.940 56.242L366.588 58.268L364.252 60.357L362.239 62.208L359.989 64.333L358.014 66.246L355.820 68.429L353.899 70.394L351.777 72.628L349.928 74.630L347.956 76.816L346.278 78.722L344.464 80.836L342.811 82.819L340.921 85.144L339.221 87.291L337.418 89.620L335.909 91.626L334.308 93.813L332.942 95.724L331.460 97.852L330.200 99.691L328.796 101.798L327.519 103.762L326.115 105.982L324.851 108.031L323.471 110.334L322.055 112.784L320.574 115.414L319.152 118.018L318.001 120.186L316.886 122.368L315.942 124.284L314.885 126.489L313.984 128.425L312.993 130.610L312.162 132.498L311.226 134.671L310.411 136.625L309.548 138.739L308.786 140.671L307.996 142.741L307.267 144.712L306.506 146.835L305.815 148.819L305.096 150.956L304.449 152.954L303.774 155.106L303.165 157.117L302.533 159.283L301.968 161.309L301.364 163.568L300.766 165.933L300.144 168.470L299.548 171.025L299.059 173.189L298.561 175.538L298.098 177.889L297.577 180.657L297.104 183.349L296.721 185.634L296.376 187.902L296.111 189.790L295.818 192.022L295.591 193.889L295.349 196.032L295.158 197.910L294.956 200.083L294.790 202.027L294.637 204.246L294.537 206.193L294.470 208.461L294.429 210.410L294.382 212.668L294.341 214.551L294.303 216.698L294.288 218.572L294.289 220.770L294.323 223.091L294.379 225.682L294.464 228.413L294.551 230.743L294.674 233.164L294.843 235.508L295.072 238.175L295.345 240.836L295.601 243.138L295.889 245.461L296.211 247.833L296.591 250.484L297.020 253.279L297.473 255.990L298.055 259.169L298.773 262.742L299.646 266.796L300.512 270.557L301.336 273.902L302.091 276.751L302.980 279.881L304.041 283.396L305.282 287.310L306.504 290.967L307.619 294.142L308.534 296.616L309.411 298.889L310.192 300.850L311.111 303.092L312.077 305.359L313.257 308.034L314.517 310.789L315.848 313.594L317.201 316.348L318.558 319.012L319.805 321.398L321.113 323.789L322.464 326.168L323.980 328.779L325.518 331.356L326.912 333.644L328.307 335.856L329.581 337.818L331.058 340.025L332.499 342.122L334.147 344.465L335.646 346.548L337.246 348.712L338.692 350.610L340.278 352.639L341.758 354.488L343.441 356.538L345.070 358.474L346.994 360.705L348.803 362.752L350.877 365.037L352.752 367.049L354.891 369.285L356.819 371.246L359.017 373.424L360.994 375.334L363.242 377.449L365.258 379.298L367.464 381.271L369.384 382.947L371.499 384.748L373.467 386.379L375.694 388.176L377.701 389.748L379.900 391.412L381.821 392.825L383.968 394.363L385.802 395.651L387.916 397.102L389.840 398.395L392.031 399.834L394.038 401.120L396.230 402.492L398.249 403.727L400.517 405.080L402.854 406.425L405.464 407.896L408.032 409.301L410.313 410.525L412.482 411.648L414.472 412.647L416.784 413.772L419.305 414.956L422.369 416.347L425.525 417.734L428.701 419.077L431.595 420.242L434.332 421.301L436.926 422.259L439.157 423.069L441.400 423.844L443.381 424.514L445.568 425.221L447.561 425.844L449.766 426.500L451.784 427.083L453.987 427.692L455.842 428.194L458.059 428.765L460.343 429.324L463.055 429.962L465.824 430.576L468.556 431.147L471.308 431.686L473.983 432.175L476.272 432.576L478.565 432.947L480.437 433.231L482.688 433.552L484.587 433.806L486.935 434.094L489.307 434.350L492.005 434.616L494.681 434.852L496.971 435.038L499.269 435.201L501.215 435.318L503.435 435.430L505.379 435.507L507.567 435.573L509.511 435.615L511.699 435.641L513.643 435.643L515.831 435.620L517.774 435.571L519.962 435.491L521.906 435.396L524.159 435.262L526.546 435.083L529.177 434.865L531.973 434.602L534.608 434.324L537.361 434.006L540.085 433.651L542.838 433.261L545.607 432.832L548.368 432.365L551.186 431.850L554.402 431.210L557.561 430.544L560.745 429.836L563.589 429.154L566.850 428.313L570.512 427.305L574.616 426.109L578.760 424.811L582.810 423.456L586.491 422.154L589.804 420.919L592.805 419.734L596.055 418.382L599.543 416.865L603.021 415.301L606.217 413.803L609.048 412.414L611.799 411.013L614.524 409.573L617.288 408.064L620.104 406.476L622.915 404.841L625.392 403.363L627.725 401.923L629.728 400.646L631.884 399.238L633.864 397.914L636 396.451L637.958 395.077L640.153 393.495L642.221 391.966L644.515 390.235L646.543 388.676L648.730 386.955L650.719 385.349L652.919 383.521L654.865 381.862L656.969 380.020L658.889 378.297L661.103 376.257L663.113 374.358L665.346 372.183L667.302 370.222L669.405 368.058L671.184 366.181L673.073 364.138L674.768 362.259L676.706 360.047L678.483 357.963L680.402 355.658L682.031 353.650L683.764 351.452L685.319 349.421L687.041 347.120L688.559 345.045L690.125 342.841L691.484 340.865L692.973 338.635L694.472 336.317L696.087 333.764L697.658 331.210L699.038 328.927L700.362 326.661L701.530 324.603L702.818 322.247L704.109 319.805L705.501 317.108L706.856 314.404L707.996 312.072L709.096 309.734L710.115 307.484L711.300 304.800L712.488 302.006L713.700 299.044L714.986 295.735L716.347 292.055L717.767 288.015L719.136 283.879L720.417 279.716L721.591 275.641L722.588 271.953L723.412 268.702L724.094 265.807L724.710 263.028L725.294 260.220L725.824 257.492L726.327 254.739L726.790 251.984L727.209 249.278L727.589 246.592L727.926 243.955L728.200 241.653L728.449 239.300L728.637 237.324L728.837 235.081L728.990 233.137L729.142 230.887L729.256 228.557L729.359 225.960L729.434 223.291L729.483 220.993L729.504 218.557L729.481 216.161L729.427 213.449L729.336 210.764L729.236 208.473L729.103 206.181L728.964 204.242L728.785 202.024L728.611 200.133L728.389 197.957L728.180 196.094L727.905 193.838L727.660 191.959L727.341 189.693L727.059 187.823L726.693 185.543L726.375 183.676L725.969 181.427L725.615 179.571L725.142 177.224L724.641 174.907L724.035 172.202L723.383 169.473L722.685 166.701L721.808 163.458L720.789 159.904L719.693 156.253L718.656 152.989L717.818 150.464L717.022 148.179L716.348 146.294L715.565 144.178L714.834 142.247L713.945 139.991L712.967 137.604L711.818 134.889L710.578 132.058L709.305 129.260L707.991 126.468L706.636 123.697L705.251 120.958L703.820 118.224L702.347 115.510L700.847 112.835L699.302 110.165L697.706 107.500L696.200 105.045L694.596 102.524L693.024 100.142L691.302 97.589L689.536 95.051L687.869 92.707L686.088 90.289L684.291 87.938L682.293 85.378L680.196 82.770L678.256 80.413L676.212 78.021L674.399 75.967L672.404 73.764L670.664 71.890L668.744 69.875L666.955 68.047L664.851 65.959L662.887 64.065L660.729 62.040L658.845 60.319L656.766 58.468L654.828 56.787L652.554 54.864L650.456 53.136L648.105 51.250L645.783 49.445L643.203 47.478L640.594 45.540L638.260 43.840L636.019 42.257L634.058 40.915L631.913 39.487L629.913 38.194L627.726 36.816L625.708 35.580L623.433 34.225L620.958 32.806L617.846 31.080L614.325 29.198L610.844 27.394L607.626 25.792L604.786 24.445L601.978 23.161L599.298 21.981L596.926 20.961L594.600 20.003L592.136 19.034L588.980 17.845L585.324 16.533L581.284 15.156L577.144 13.833L573.079 12.617L569.469 11.598L566.375 10.777L564.100 10.203L561.863 9.677L560.005 9.259L557.741 8.774L555.856 8.389L553.612 7.954L551.743 7.611L549.498 7.218L547.625 6.910L545.276 6.547L542.911 6.215L540.115 5.845L537.421 5.514L535.114 5.249L532.893 5.018L530.986 4.844L528.792 4.663L526.849 4.523L524.661 4.385L522.717 4.280L520.529 4.181L518.585 4.111L516.397 4.054L514.453 4.020L512.265 4L510.322 4L508.134 4.021L506.190 4.058L504.002 4.122L502.058 4.199L499.870 4.313L497.926 4.435L495.670 4.602L493.378 4.799L490.815 5.039L488.199 5.315L485.894 5.576L483.465 5.882L481.457 6.151L479.138 6.485L477.248 6.774L475.002 7.140L472.675 7.553L469.637 8.130L466.486 8.763L463.305 9.439L460.460 10.089L457.307 10.866L453.750 11.805L449.705 12.938L445.666 14.150L442.061 15.291L438.987 16.320L436.652 17.125L434.296 17.981L431.906 18.885L428.802 20.106L425.668 21.380L422.488 22.718L419.636 23.975L416.842 25.257L414.057 26.587L411.308 27.952L408.581 29.356L405.956 30.758L403.607 32.046L401.236 33.396L398.889 34.786L396.364 36.317L393.745 37.958L392.005 39.057L390.267 40.179" stroke="#000000" stroke-width="45" fill="none" stroke-linecap="round" stroke-linejoin="round"></path><path id="path-extension-1" d="M381.960 45.927L386.198 42.805" stroke="#000000" stroke-width="45" fill="none" stroke-linecap="round" stroke-linejoin="round"></path><path id="path-extension-2" d="M390.267 40.179L386.198 42.805" stroke="#000000" stroke-width="45" fill="none" stroke-linecap="round" stroke-linejoin="round"></path><path id="path-connection-1" d="M386.198 42.805L386.198 42.805" stroke="#000000" stroke-width="45" fill="none" stroke-linecap="round" stroke-linejoin="round"></path></g><g id="skeleton-paths" stroke-width="45.0"><path id="path-0-0" d="M498.209 116.444L497.124 117.522" stroke="#000000" stroke-width="45" fill="none" stroke-linecap="round" stroke-linejoin="round"></path><path id="path-1-0" d="M428.560 184.798L429.668 183.712L431.241 182.168L433.204 180.243L435.413 178.076L437.375 176.151L439.584 173.984L441.547 172.059L443.756 169.893L445.719 167.967L447.928 165.801L449.890 163.875L452.093 161.715L454.033 159.811L456.130 157.753L457.930 155.986L459.918 154.036L461.760 152.230L463.908 150.125L465.879 148.192L468.090 146.023L470.053 144.098L472.262 141.931L474.224 140.006L476.434 137.839L478.396 135.914L480.605 133.747L482.568 131.822L484.777 129.655L486.739 127.730L488.313 126.186L489.420 125.100" stroke="#000000" stroke-width="45" fill="none" stroke-linecap="round" stroke-linejoin="round"></path><path id="path-2-0" d="M512.526 344.923L512.561 342.423L512.603 339.469L512.656 335.337L512.699 331.205L512.725 327.073L512.736 322.942L512.737 318.810L512.737 314.678L512.736 310.546L512.736 306.415L512.735 302.283L512.735 298.151L512.734 294.019L512.733 289.888L512.733 285.756L512.732 281.624L512.732 277.492L512.731 273.361L512.731 269.229L512.730 265.097L512.730 260.965L512.729 256.834L512.728 252.702L512.728 248.570L512.727 244.438L512.727 240.306L512.726 236.175L512.726 232.043L512.725 227.911L512.724 223.779L512.724 219.648L512.723 215.516L512.723 211.384L512.722 207.252L512.722 203.121L512.720 198.989L512.716 194.857L512.709 190.725L512.699 186.594L512.687 182.462L512.675 178.330L512.663 174.198L512.651 170.066L512.638 165.935L512.626 161.803L512.618 157.671L512.619 153.539L512.634 149.408L512.661 145.276L512.696 141.144L512.722 138.190L512.745 135.690" stroke="#000000" stroke-width="45" fill="none" stroke-linecap="round" stroke-linejoin="round"></path><path id="path-3-0" d="M535.076 123.191L536.165 124.295L537.713 125.864L539.644 127.821L541.817 130.024L543.748 131.981L545.921 134.184L547.851 136.141L550.024 138.344L551.955 140.301L554.128 142.504L556.059 144.461L558.232 146.663L560.162 148.621L562.335 150.823L564.264 152.778L566.421 154.965L568.223 156.792L570.224 158.821L571.906 160.526L573.986 162.634L575.864 164.538L578.068 166.771L579.997 168.726L582.170 170.929L584.101 172.886L586.274 175.089L588.204 177.046L590.377 179.249L592.308 181.206L594.479 183.411L596.405 185.372L597.947 186.947L599.032 188.056" stroke="#000000" stroke-width="45" fill="none" stroke-linecap="round" stroke-linejoin="round"></path><path id="path-connection-1" d="M497.124 117.522L489.420 125.100" stroke="#000000" stroke-width="45" fill="none" stroke-linecap="round" stroke-linejoin="round"></path><path id="path-connection-2" d="M498.209 116.444L513.188 101.421" stroke="#000000" stroke-width="45" fill="none" stroke-linecap="round" stroke-linejoin="round"></path><path id="path-connection-3" d="M512.745 135.690L513.188 101.421" stroke="#000000" stroke-width="45" fill="none" stroke-linecap="round" stroke-linejoin="round"></path><path id="path-connection-4" d="M535.076 123.191L513.188 101.421" stroke="#000000" stroke-width="45" fill="none" stroke-linecap="round" stroke-linejoin="round"></path></g></svg>