<svg xmlns="http://www.w3.org/2000/svg" viewBox="-30 -20 1086 1045.1319580078125" width="1024" height="1024" class="colorable-icon" overflow="visible"><g id="skeleton-paths" stroke-width="45.0"><path id="path-0-0" d="M618.357 142.463L619.537 142.757L621.269 143.182L623.387 143.739L625.788 144.360L627.715 144.873L629.995 145.477L631.865 145.995L634.283 146.695L636.257 147.287L638.741 148.057L640.706 148.685L643.178 149.499L645.134 150.153L647.598 150.987L649.551 151.648L652.008 152.500L653.953 153.188L656.425 154.100L658.377 154.840L660.841 155.804L662.872 156.617L665.363 157.633L667.520 158.527L669.923 159.536L671.972 160.406L674.248 161.394L676.276 162.298L678.659 163.388L680.792 164.392L683.224 165.551L685.713 166.761L688.534 168.147L691.416 169.590L694.023 170.922L696.553 172.252L698.800 173.461L701.283 174.826L703.807 176.249L706.586 177.840L709.376 179.460L711.901 180.941L714.358 182.410L716.538 183.744L718.885 185.213L721.036 186.589L723.354 188.101L725.482 189.512L727.778 191.055L729.889 192.485L732.171 194.043L734.267 195.493L736.524 197.087L738.590 198.582L740.813 200.232L742.853 201.774L745.148 203.528L747.323 205.203L749.746 207.083L751.884 208.760L754.114 210.543L756.079 212.152L758.282 214.005L760.369 215.793L762.782 217.894L764.997 219.834L767.478 222.029L769.659 223.981L772 226.118L773.985 227.976L776.186 230.088L778.460 232.321L781.062 234.896L783.727 237.558L786.097 239.946L788.442 242.365L790.455 244.504L792.696 246.951L794.669 249.149L796.803 251.549L798.629 253.610L800.601 255.846L802.386 257.897L804.482 260.368L806.619 262.987L808.982 265.949L811.252 268.845L813.223 271.366L815.035 273.703L816.587 275.733L818.239 277.942L819.734 279.991L821.424 282.370L823.276 285.036L825.642 288.493L828.241 292.343L830.769 296.149L832.895 299.443L834.526 302.048L835.993 304.473L837.301 306.661L838.759 309.111L840.032 311.255L841.394 313.571L842.488 315.474L843.786 317.800L844.897 319.847L846.166 322.233L847.174 324.173L848.347 326.463L849.427 328.582L850.719 331.124L851.822 333.310L853.004 335.694L853.944 337.653L855.098 340.131L856.289 342.791L857.798 346.223L859.237 349.552L860.604 352.750L861.634 355.187L862.683 357.754L863.736 360.459L865.059 363.988L866.493 367.948L868.019 372.278L869.488 376.576L870.748 380.408L871.781 383.696L872.538 386.210L873.248 388.650L873.857 390.793L874.557 393.289L875.158 395.467L875.809 397.883L876.313 399.822L876.885 402.115L877.353 404.063L877.920 406.506L878.362 408.485L878.863 410.822L879.261 412.739L879.763 415.189L880.196 417.316L880.698 419.831L881.085 421.843L881.511 424.198L881.852 426.225L882.237 428.667L882.535 430.694L882.859 433.053L883.128 435.093L883.449 437.568L883.728 439.703L883.954 441.439L884.105 442.597" stroke="black" stroke-width="45" fill="none" stroke-linecap="round" stroke-linejoin="round"></path></g><g id="skeleton-paths" stroke-width="45.0"><path id="path-0-0" d="M589.266 274.380L590.785 274.828L592.828 275.428L595.655 276.274L598.044 277.018L600.414 277.811L602.347 278.499L604.666 279.352L606.770 280.151L609.220 281.099L611.420 281.968L613.851 282.957L615.904 283.824L618.326 284.894L620.824 286.044L623.734 287.412L626.697 288.855L629.623 290.335L632.537 291.864L635.379 293.405L637.938 294.829L640.419 296.261L642.614 297.570L644.978 299.014L647.135 300.364L649.528 301.906L652.032 303.581L654.839 305.503L657.789 307.586L660.445 309.509L663.037 311.446L665.191 313.099L667.582 314.986L670.051 317.005L672.876 319.370L675.753 321.852L678.297 324.103L680.826 326.438L683.175 328.683L685.722 331.171L688.151 333.608L690.360 335.878L692.587 338.244L694.575 340.412L696.719 342.814L698.540 344.916L700.414 347.132L702.038 349.098L703.862 351.371L705.796 353.862L707.991 356.770L710.170 359.733L712.039 362.349L713.734 364.798L715.164 366.928L716.683 369.246L718.055 371.399L719.509 373.758L720.825 375.954L722.265 378.418L723.504 380.580L724.811 382.925L725.850 384.860L727.077 387.220L728.146 389.333L729.360 391.782L730.329 393.819L731.375 396.094L732.273 398.129L733.259 400.409L734.120 402.453L735.086 404.814L735.942 406.944L736.922 409.473L737.697 411.541L738.562 413.943L739.233 415.921L740.041 418.366L740.689 420.442L741.442 422.899L742.024 424.893L742.725 427.394L743.265 429.438L743.888 431.931L744.350 433.906L744.870 436.301L745.277 438.303L745.740 440.718L746.114 442.741L746.535 445.182L746.782 446.680L747.048 448.364" stroke="black" stroke-width="45" fill="none" stroke-linecap="round" stroke-linejoin="round"></path></g><g id="skeleton-paths" stroke-width="45.0"><path id="path-0-0" d="M76.307 454.457L75.075 452.338L73.809 450.139L72.344 447.579L70.946 445.104L69.726 442.918L68.331 440.412L66.945 437.906L65.408 435.118L63.833 432.238L62.267 429.347L60.698 426.412L59.176 423.531L57.815 420.925L56.474 418.335L55.176 415.805L53.732 412.983L52.331 410.222L51.080 407.751L49.876 405.337L48.656 402.853L47.278 400.008L45.846 397.018L44.427 394.033L43.019 391.046L41.620 388.055L40.241 385.072L38.870 382.065L37.524 379.061L36.174 375.999L34.715 372.637L33.255 369.248L31.802 365.845L30.470 362.675L29.054 359.226L27.521 355.414L25.861 351.196L24.182 346.863L22.521 342.501L20.888 338.126L19.319 333.803L17.923 329.818L16.771 326.401L15.906 323.747L15.167 321.398L14.515 319.296L13.790 316.875L13.042 314.300L12.201 311.260L11.370 308.155L10.592 305.097L9.911 302.359L9.280 299.646L8.751 297.298L8.233 294.819L7.830 292.815L7.390 290.490L7.029 288.475L6.619 286.043L6.298 284.032L5.959 281.765L5.698 279.882L5.403 277.564L5.168 275.521L4.920 273.093L4.735 271.039L4.534 268.630L4.387 266.605L4.237 264.265L4.140 262.232L4.059 259.891L4.017 257.810L4 255.468L4.015 253.387L4.072 251.041L4.148 249.003L4.277 246.615L4.456 244.171L4.709 241.284L5.022 238.341L5.323 235.798L5.659 233.391L5.959 231.507L6.353 229.277L6.743 227.297L7.254 224.834L7.871 222.268L8.751 218.930L9.915 215.101L11.309 210.940L12.743 207.090L14.130 203.721L15.291 201.120L16.485 198.642L17.575 196.534L18.923 194.043L20.217 191.814L21.717 189.381L23.131 187.271L24.817 184.959L26.489 182.800L28.440 180.425L30.233 178.335L32.155 176.187L33.873 174.307L35.787 172.216L37.614 170.230L39.747 167.934L41.745 165.816L44.017 163.431L46.057 161.309L48.361 158.928L50.412 156.818L52.727 154.448L54.788 152.348L57.113 149.988L59.183 147.896L61.516 145.545L63.592 143.459L65.932 141.115L68.019 139.024L70.425 136.618L72.844 134.197L75.528 131.524L78.200 128.871L80.565 126.531L82.940 124.177L85.012 122.121L87.359 119.785L89.444 117.707L91.788 115.367L93.868 113.285L96.207 110.939L98.281 108.852L100.596 106.517L102.635 104.450L104.831 102.221L106.734 100.292L108.829 98.189L110.784 96.260L112.995 94.127L114.999 92.262L117.292 90.250L119.771 88.255L122.690 86.035L125.798 83.865L128.480 82.094L131.117 80.513L133.455 79.222L136.209 77.791L138.975 76.494L141.502 75.372L143.858 74.451L145.840 73.694L148.201 72.898L150.816 72.100L153.975 71.288L157.157 70.568L160.034 70.025L162.518 69.636L164.731 69.366L167.003 69.141L169.132 68.984L171.439 68.887L173.520 68.857L175.890 68.890L177.963 68.968L180.405 69.132L182.890 69.387L185.762 69.748L188.721 70.207L191.697 70.781L195.136 71.606L198.906 72.720L202.759 74.006L206.210 75.348L208.966 76.560L211.521 77.850L213.752 79.098L216.265 80.679L218.869 82.522L221.787 84.808L224.705 87.378L227.465 90.124L230.075 93.002L232.517 96.014L234.848 99.154L237.230 102.657L239.467 106.111L241.525 109.359L243.143 111.953L244.713 114.506L246.314 117.133L248.128 120.116L249.884 123.020L251.440 125.588L252.909 128.023L254.216 130.195L255.683 132.632L257.275 135.269L259.307 138.615L261.618 142.404L263.934 146.191L266.030 149.607L267.658 152.255L269.196 154.746L270.458 156.787L271.908 159.127L273.215 161.235L274.751 163.704L276.112 165.887L277.620 168.291L278.895 170.325L280.354 172.642L281.669 174.732L283.204 177.158L284.757 179.606L286.482 182.324L288.209 185.048L289.768 187.514L291.290 189.913L292.654 192.056L294.197 194.468L295.587 196.634L297.129 199.028L298.431 201.049L299.923 203.358L301.264 205.440L302.789 207.798L304.168 209.930L305.715 212.311L307.351 214.824L309.200 217.663L311.105 220.584L312.787 223.161L314.431 225.677L316.021 228.105L317.785 230.794L319.556 233.485L321.155 235.906L322.717 238.268L324.117 240.382L325.644 242.689L327.050 244.822L328.592 247.194L329.914 249.273L331.297 251.549L332.386 253.475L333.594 255.831L334.570 257.918L335.617 260.454L336.495 263.061L337.424 266.480L338.181 269.977L338.767 273.385L339.082 276.015L339.240 278.451L339.274 280.532L339.204 282.881L339.048 284.911L338.763 287.247L338.454 289.252L337.973 291.645L337.495 293.739L336.746 296.319L335.850 299.039L334.674 302.096L333.324 305.112L332.035 307.637L330.435 310.247L328.641 312.847L326.364 315.824L324.029 318.650L321.902 321.075L319.843 323.367L317.985 325.439L315.858 327.840L313.919 330.039L311.833 332.408L310.040 334.445L308.069 336.682L306.242 338.755L304.121 341.162L302.183 343.362L300.098 345.730L298.306 347.766L296.335 350.002L294.519 352.064L292.357 354.518L290.136 357.040L287.646 359.867L285.113 362.743L282.590 365.608L280.049 368.492L277.635 371.234L275.525 373.631L273.581 375.838L271.893 377.762L269.997 380.013L268.081 382.463L266.034 385.299L264.195 388.159L262.707 390.753L261.438 393.393L260.319 396.174L259.168 399.574L258.199 402.971L257.450 406.215L256.993 408.718L256.679 411.134L256.506 413.202L256.428 415.604L256.464 417.688L256.605 420.060L256.774 422.024L257.051 424.319L257.365 426.314L257.850 428.766L258.371 430.894L259.031 433.291L259.670 435.329L260.492 437.803L261.479 440.390L262.720 443.369L264.109 446.303L265.460 448.924L266.877 451.414L268.220 453.589L269.746 455.897L271.217 457.980L272.868 460.205L274.425 462.231L276.131 464.414L277.715 466.419L279.555 468.726L281.553 471.214L283.854 474.065L286.154 476.912L288.157 479.384L290.076 481.756L291.799 483.881L293.848 486.406L295.976 489.025L298.361 491.957L300.748 494.884L302.890 497.501L304.952 500.003L306.692 502.101L308.516 504.292L310.144 506.247L312.028 508.507L314.076 510.956L316.428 513.759L318.863 516.640L321.044 519.211L323.155 521.687L324.933 523.771L326.870 526.038L328.652 528.117L330.733 530.529L332.660 532.751L334.839 535.250L336.773 537.462L338.992 539.996L341.209 542.518L343.703 545.347L346.209 548.167L348.463 550.694L350.630 553.112L352.456 555.147L354.449 557.362L356.290 559.403L358.441 561.772L360.427 563.950L362.662 566.387L364.643 568.540L366.788 570.867L368.638 572.871L370.663 575.056L372.536 577.067L374.723 579.401L376.743 581.545L379.021 583.955L381.046 586.092L383.329 588.493L385.361 590.622L387.654 593.014L389.695 595.135L391.991 597.507L394.028 599.605L396.235 601.870L398.143 603.821L400.230 605.948L402.159 607.905L404.406 610.175L406.481 612.261L408.822 614.603L410.908 616.680L413.260 619.011L415.354 621.080L417.713 623.405L419.812 625.468L422.182 627.782L424.292 629.829L426.723 632.174L429.161 634.514L431.886 637.127L434.615 639.735L437.058 642.059L439.513 644.374L441.660 646.383L444 648.564L446.013 650.437L448.195 652.466L450.194 654.320L452.524 656.468L454.690 658.448L457.058 660.598L459.102 662.445L461.314 664.441L463.334 666.265L465.682 668.376L467.865 670.328L470.397 672.569L472.952 674.816L475.798 677.308L478.643 679.794L481.182 682.006L483.647 684.142L485.735 685.936L488.067 687.927L490.504 689.995L493.279 692.344L496.153 694.769L498.721 696.925L501.227 699.015L503.341 700.764L505.648 702.660L507.760 704.389L510.216 706.395L512.487 708.247L514.963 710.260L517.099 711.988L519.337 713.785L521.328 715.374L523.634 717.200L526.196 719.221L529.435 721.761L532.787 724.379L536.040 726.907L538.620 728.897L540.959 730.691L542.975 732.224L545.243 733.939L547.414 735.574L549.865 737.417L552.065 739.071L554.384 740.806L556.436 742.340L558.654 744.008L560.687 745.554L562.894 747.230L564.940 748.758L567.184 750.380L569.301 751.831L571.686 753.380L573.823 754.668L576.186 756.005L578.190 757.037L580.534 758.171L582.628 759.084L585.045 760.010L587.206 760.735L589.748 761.422L592.350 762.015L595.399 762.574L598.375 763.013L600.992 763.305L603.433 763.455L605.514 763.488L607.870 763.427L609.915 763.294L612.392 763.017L614.988 762.595L618.224 761.943L621.460 761.143L624.707 760.166L627.626 759.148L630.539 757.968L633.023 756.841L635.568 755.503L637.778 754.185L640.160 752.595L642.271 751.030L644.570 749.137L646.708 747.276L649.160 745.075L651.372 743.069L653.817 740.843L655.951 738.897L658.242 736.807L660.229 734.996L662.431 732.989L664.493 731.112L666.907 728.915L669.091 726.925L671.572 724.664L674.009 722.441L676.786 719.910L679.591 717.355L682.148 715.027L684.657 712.742L686.813 710.777L689.108 708.684L691.096 706.870L693.279 704.880L695.304 703.035L697.572 700.969L699.596 699.123L701.852 697.093L703.899 695.284L706.297 693.242L708.677 691.356L711.415 689.338L714.142 687.514L716.614 685.992L719.006 684.686L721.549 683.526L724.763 682.269L728.079 681.148L731.267 680.241L733.728 679.649L736.124 679.204L738.187 678.899L740.551 678.657L742.632 678.539L744.974 678.516L747.055 678.588L749.431 678.768L751.510 679.012L753.885 679.382L755.810 679.758L758.204 680.339L760.185 680.893L762.846 681.792L765.259 682.805L768.189 684.192L770.930 685.694L773.493 687.175L775.948 688.708L778.042 690.047L780.435 691.588L782.907 693.178L786.242 695.324L789.990 697.736L793.801 700.188L797.100 702.310L799.679 703.970L802.061 705.503L804.191 706.874L806.518 708.371L808.662 709.751L810.989 711.248L813.133 712.628L815.460 714.125L817.604 715.504L819.931 717.002L822.075 718.381L824.402 719.878L826.546 721.258L828.873 722.755L831.016 724.133L833.385 725.657L835.485 727.007L837.877 728.547L840.350 730.138L843.682 732.283L847.565 734.782L851.956 737.607L856.290 740.395L860.178 742.896L863.476 745.018L866.056 746.678L868.440 748.212L870.570 749.583L872.897 751.081L875.041 752.460L877.368 753.958L879.512 755.337L881.839 756.835L883.984 758.215L886.358 759.745L888.421 761.073L890.643 762.504L892.465 763.678L894.728 765.135L896.874 766.520L899.499 768.217L901.725 769.663L904.127 771.231L906.133 772.560L908.499 774.139L910.627 775.584L912.978 777.206L915.053 778.675L917.369 780.362L919.559 782.002L921.987 783.874L924.127 785.580L926.418 787.489L928.480 789.299L930.877 791.516L933.284 793.919L935.904 796.662L938.347 799.409L940.406 801.840L942.313 804.324L944.101 806.875L946.023 809.820L947.785 812.753L949.193 815.274L950.420 817.763L951.478 820.208L952.604 823.153L953.634 826.163L954.436 828.858L955.137 831.468L955.652 833.952L956.185 836.801L956.583 839.649L956.873 842.178L957.042 844.615L957.107 846.696L957.103 849.038L957.031 851.119L956.876 853.468L956.689 855.498L956.400 857.943L955.987 860.557L955.286 864.130L954.275 868.181L952.970 872.567L951.569 876.557L950.122 880.125L948.642 883.291L947.111 886.285L945.469 889.135L943.996 891.539L942.243 894.043L940.334 896.588L937.987 899.548L935.544 902.479L933.297 905.050L931.106 907.435L929.228 909.420L927.166 911.570L925.250 913.555L923.009 915.860L920.939 917.968L918.601 920.325L916.520 922.406L914.170 924.740L912.077 926.810L909.716 929.133L907.614 931.193L905.244 933.507L903.135 935.560L900.758 937.868L898.645 939.917L896.265 942.221L894.149 944.267L891.763 946.568L889.642 948.612L887.336 950.831L885.357 952.742L883.219 954.818L881.270 956.723L879.016 958.934L876.932 960.980L874.581 963.294L872.486 965.361L870.133 967.693L868.050 969.771L865.711 972.117L863.626 974.210L861.215 976.611L858.763 978.996L856.032 981.616L853.252 984.177L850.744 986.408L848.222 988.494L846.040 990.193L843.538 992.014L840.938 993.770L837.983 995.673L835.068 997.448L832.482 998.958L829.897 1000.348L827.189 1001.680L823.882 1003.196L820.476 1004.658L817.137 1005.987L814.468 1006.978L811.997 1007.799L809.953 1008.459L807.560 1009.155L805.426 1009.763L803 1010.380L800.942 1010.892L798.593 1011.425L796.560 1011.860L794.244 1012.301L792.219 1012.645L789.824 1013.011L787.735 1013.300L785.383 1013.593L783.388 1013.816L781.029 1014.047L778.934 1014.215L776.543 1014.364L774.462 1014.457L772.120 1014.529L770.039 1014.564L767.697 1014.566L765.616 1014.541L763.273 1014.478L761.193 1014.396L758.798 1014.263L756.698 1014.120L754.330 1013.925L752.328 1013.733L750.025 1013.483L747.961 1013.233L745.563 1012.914L743.460 1012.607L741.013 1012.210L738.590 1011.778L735.749 1011.241L732.884 1010.656L730.319 1010.111L727.758 1009.530L725.203 1008.920L721.951 1008.109L718.590 1007.238L715.277 1006.353L712.673 1005.632L710.261 1004.950L708.222 1004.345L705.824 1003.632L703.687 1002.959L701.213 1002.186L698.705 1001.363L695.420 1000.283L691.606 998.980L687.394 997.513L683.472 996.118L680.060 994.881L677.387 993.902L674.997 993.013L672.902 992.232L670.524 991.338L667.854 990.313L664.471 988.985L660.578 987.422L656.345 985.699L652.140 983.962L648.323 982.369L644.912 980.926L642.282 979.798L639.796 978.711L637.793 977.819L635.307 976.698L632.754 975.534L629.780 974.171L626.782 972.786L623.804 971.399L620.814 969.994L617.830 968.568L614.793 967.095L611.482 965.459L608.181 963.815L604.924 962.180L602.356 960.886L599.936 959.654L597.986 958.656L595.597 957.416L593.540 956.338L591.164 955.078L589.243 954.049L586.940 952.806L584.832 951.664L582.326 950.304L580.178 949.138L577.840 947.858L575.904 946.792L573.553 945.478L571.526 944.336L569.185 943.005L567.297 941.921L565.041 940.618L562.995 939.427L560.600 938.033L558.423 936.761L556.031 935.361L553.824 934.061L551.393 932.616L549.233 931.321L546.803 929.848L544.293 928.309L540.935 926.238L537.014 923.806L532.591 921.043L528.096 918.201L523.621 915.331L519.159 912.440L514.712 909.530L510.408 906.691L506.558 904.128L503.302 901.938L500.765 900.220L498.424 898.626L496.334 897.200L494.051 895.637L491.948 894.196L489.683 892.637L487.596 891.192L485.206 889.519L482.602 887.678L479.629 885.567L476.639 883.433L474.051 881.583L471.657 879.864L469.592 878.376L467.218 876.654L464.647 874.770L461.707 872.601L458.764 870.414L456.211 868.511L453.855 866.747L451.823 865.224L449.540 863.505L447.363 861.858L444.923 860L442.748 858.330L440.471 856.569L438.455 855.003L436.280 853.310L434.279 851.752L432.033 849.997L429.889 848.317L427.478 846.419L425.323 844.709L423.073 842.913L421.092 841.322L418.874 839.535L416.758 837.824L414.384 835.901L412.260 834.175L409.951 832.293L407.833 830.560L405.468 828.613L403.361 826.867L401.072 824.959L398.974 823.203L396.617 821.225L394.506 819.450L392.299 817.590L390.357 815.950L388.203 814.123L386.156 812.376L383.780 810.336L381.573 808.430L379.075 806.265L376.844 804.325L374.422 802.216L372.347 800.406L370.104 798.443L368.058 796.643L365.689 794.547L363.500 792.599L360.981 790.347L358.453 788.078L355.634 785.546L352.771 782.965L349.935 780.395L347.099 777.810L344.330 775.270L341.870 773.005L339.404 770.725L337.256 768.735L334.825 766.481L332.667 764.478L330.236 762.217L328.078 760.203L325.736 758.011L323.728 756.127L321.557 754.086L319.575 752.222L317.281 750.058L315.160 748.053L312.766 745.784L310.632 743.755L308.237 741.466L306.114 739.427L303.728 737.129L301.610 735.084L299.227 732.783L297.111 730.737L294.736 728.428L292.635 726.367L290.281 724.037L288.196 721.960L285.853 719.618L283.773 717.537L281.434 715.191L279.360 713.104L277.029 710.750L274.962 708.656L272.642 706.291L270.585 704.186L268.275 701.811L266.226 699.699L263.920 697.320L261.873 695.206L259.573 692.821L257.536 690.696L255.252 688.296L253.227 686.158L250.951 683.750L248.930 681.610L246.670 679.211L244.677 677.086L242.530 674.789L240.679 672.802L238.653 670.617L236.783 668.587L234.618 666.224L232.640 664.058L230.509 661.719L228.677 659.708L226.679 657.508L224.841 655.477L222.791 653.197L220.966 651.155L218.982 648.922L217.161 646.866L215.042 644.468L213.098 642.265L210.873 639.734L208.664 637.204L206.194 634.363L203.687 631.457L201.197 628.555L198.701 625.628L196.210 622.697L193.739 619.779L191.256 616.833L188.833 613.932L186.673 611.329L184.609 608.826L182.873 606.716L180.987 604.419L179.255 602.301L177.321 599.926L175.604 597.808L173.694 595.437L171.719 592.966L169.443 590.097L167.178 587.229L165.201 584.718L163.272 582.261L161.318 579.758L159.071 576.866L156.845 573.976L154.906 571.442L153.135 569.108L151.594 567.074L149.857 564.777L148.201 562.580L146.356 560.120L144.719 557.924L142.945 555.524L141.323 553.315L139.526 550.852L137.937 548.663L136.288 546.381L134.821 544.342L133.220 542.115L131.732 540.043L130.120 537.793L128.643 535.714L127.051 533.449L125.595 531.356L124.015 529.072L122.562 526.968L120.933 524.604L119.479 522.493L117.882 520.165L116.528 518.189L114.992 515.932L113.593 513.868L112.029 511.534L110.611 509.401L109.085 507.093L107.681 504.965L106.159 502.654L104.760 500.524L103.244 498.209L101.851 496.074L100.346 493.752L98.970 491.606L97.487 489.269L96.128 487.111L94.655 484.768L93.300 482.607L91.833 480.260L90.502 478.123L89.025 475.740L87.532 473.313L85.869 470.591L84.164 467.766L82.997 465.823L81.955 464.071" stroke="black" stroke-width="45" fill="none" stroke-linecap="round" stroke-linejoin="round"></path><path id="path-extension-1" d="M76.307 454.457L79.362 459.711" stroke="black" stroke-width="45" fill="none" stroke-linecap="round" stroke-linejoin="round"></path><path id="path-extension-2" d="M81.955 464.071L79.362 459.711" stroke="black" stroke-width="45" fill="none" stroke-linecap="round" stroke-linejoin="round"></path><path id="path-connection-1" d="M79.362 459.711L79.362 459.711" stroke="black" stroke-width="45" fill="none" stroke-linecap="round" stroke-linejoin="round"></path></g><g id="skeleton-paths" stroke-width="45.0"><path id="path-0-0" d="M646.607 9.434L649.241 10.155L652.370 10.963L656.795 12.131L661.255 13.309L665.696 14.549L670.082 15.833L674.416 17.165L678.758 18.543L683.136 19.968L687.526 21.440L691.983 22.984L696.452 24.582L701.003 26.245L705.460 27.916L709.944 29.643L714.368 31.407L718.860 33.238L723.254 35.070L727.594 36.921L731.912 38.823L736.256 40.788L740.655 42.820L745.031 44.888L749.375 46.987L753.769 49.169L758.185 51.411L762.734 53.773L767.254 56.179L771.773 58.641L776.200 61.113L780.678 63.669L785.177 66.302L789.649 68.980L794.031 71.667L798.410 74.417L802.872 77.282L807.392 80.254L811.779 83.195L816.119 86.176L820.461 89.225L824.941 92.448L829.353 95.691L833.773 99.018L838.114 102.371L842.610 105.928L847.111 109.578L851.668 113.360L856.175 117.196L860.628 121.085L865.044 125.033L869.400 129.038L873.709 133.096L878.050 137.306L882.392 141.637L886.664 146.035L890.812 150.437L894.728 154.717L898.613 159.083L902.334 163.370L906.110 167.827L909.726 172.200L913.390 176.748L916.899 181.212L920.390 185.758L923.689 190.157L926.893 194.540L929.981 198.867L933.020 203.230L936.006 207.629L938.939 212.063L941.824 216.528L944.658 221.026L947.394 225.486L950.039 229.919L952.597 234.290L955.177 238.737L957.737 243.180L960.299 247.657L962.740 252.009L965.145 256.405L967.439 260.723L969.738 265.167L971.943 269.548L974.115 273.977L976.203 278.358L978.234 282.746L980.222 287.163L982.160 291.600L984.049 296.036L985.927 300.583L987.737 305.105L989.509 309.670L991.157 314.053L992.740 318.353L994.286 322.664L995.816 327.069L997.335 331.608L998.781 336.075L1000.172 340.478L1001.509 344.819L1002.820 349.231L1004.094 353.677L1005.320 358.119L1006.498 362.501L1007.642 366.900L1008.756 371.330L1009.832 375.812L1010.860 380.241L1011.846 384.634L1012.795 389.010L1013.712 393.409L1014.605 397.884L1015.455 402.319L1016.275 406.784L1017.050 411.180L1017.785 415.627L1018.469 420.051L1019.130 424.497L1019.588 427.654L1020 430.309" stroke="black" stroke-width="45" fill="none" stroke-linecap="round" stroke-linejoin="round"></path></g></svg>