<svg xmlns="http://www.w3.org/2000/svg" width="1024" height="1024" viewBox="-30 -30 1084 1084" class="colorable-icon" overflow="visible"><g id="main-icon-clipped" stroke="#000000" stroke-width="45" fill="none" stroke-linecap="round" stroke-linejoin="round"><path d="M 304.92,321.12 L 302.52,322.85 299.58,324.72 295.49,327.03 291.45,328.85 287.44,330.25 283.56,331.26 279.69,331.97 275.89,332.37 272.04,332.50 268.22,332.37 264.36,331.96 260.52,331.28 256.71,330.31 252.93,329.02 249.08,327.29 245.15,325.09 241.23,322.39 237.58,319.40 234.25,316.14 231.30,312.68 228.65,308.96 226.36,305.09 224.46,301.16 222.98,297.29 221.88,293.46 221.14,289.70 220.70,285.94 220.50,282.14 220.52,278.32 220.75,274.67 221.15,271.42 221.68,268.65 222.37,265.98 223.36,263.00 224.74,259.61 226.60,255.93 228.90,252.19 231.65,248.45 234.78,244.90 238.21,241.62 241.87,238.69 245.62,236.18 249.39,234.10 253.17,232.44 256.76,231.19 259.98,230.32 262.69,229.78 265.09,229.45 267.77,229.24 270.94,229.11 274.59,229.13 278.40,229.37 282.21,229.89 286.03,230.75 289.82,231.93 293.78,233.57 297.70,235.60 301.78,238.19 305.68,241.25 309.43,244.78 312.73,248.54 315.55,252.39 317.84,256.21 319.72,260.10 321.21,263.98 322.34,267.90 323.15,271.78 323.65,275.69 323.88,279.58 323.81,283.50 323.46,287.43 322.80,291.41 321.85,295.36 320.54,299.33 318.84,303.29 316.71,307.28 315.03,310.11 313.42,312.47 M 304.92,321.12 L 310.06,317.39 M 313.42,312.47 L 310.06,317.39 310.06,317.39 M 294.09,758.00 L 295.12,755.27 296.33,752.10 298.00,747.75 299.58,743.65 301.13,739.71 302.68,735.88 304.30,732.01 305.97,728.13 307.68,724.31 309.47,720.45 311.33,716.61 313.36,712.66 315.49,708.73 317.72,704.78 319.92,701.03 322.25,697.28 324.66,693.60 327.29,689.76 329.97,685.91 332.68,682.06 335.42,678.22 338.19,674.38 341.13,670.38 344.12,666.45 347.29,662.49 350.58,658.68 354.11,654.82 357.81,650.98 361.66,647.14 365.60,643.39 369.53,639.84 373.41,636.51 377.23,633.38 381.04,630.34 384.88,627.31 388.73,624.30 392.60,621.31 396.47,618.35 400.30,615.52 404.14,612.81 407.96,610.27 411.79,607.87 415.60,605.61 419.33,603.50 423.08,601.47 426.82,599.52 430.67,597.57 434.58,595.67 438.50,593.84 442.40,592.13 446.29,590.51 450.20,588.96 454.04,587.51 457.89,586.12 461.70,584.81 465.53,583.55 469.33,582.35 473.10,581.21 476.90,580.11 480.78,579.02 484.68,577.97 488.55,576.96 492.37,575.99 496.19,575.05 500.04,574.13 503.89,573.23 507.74,572.35 511.60,571.49 515.30,570.68 518.85,570.02 522.27,569.53 525.60,569.19 528.06,568.96 529.97,568.78 M 292.37,806.59 L 293.86,806.31 295.80,805.94 298.40,805.44 300.98,804.93 303.52,804.42 306.05,803.89 308.27,803.43 310.50,802.93 312.74,802.42 315.71,801.71 319.06,800.88 322.40,800.04 325.40,799.24 328.03,798.51 331.05,797.64 334.46,796.62 338.28,795.44 342.14,794.19 346.00,792.90 349.77,791.59 353.20,790.36 356.17,789.26 358.50,788.38 360.57,787.58 362.39,786.87 364.45,786.04 366.76,785.11 369.62,783.93 372.61,782.70 375.46,781.51 377.75,780.54 379.90,779.59 382.08,778.58 384.56,777.40 387.14,776.12 389.82,774.74 392.89,773.08 396.33,771.15 399.70,769.23 402.68,767.49 404.88,766.18 407.06,764.87 409.33,763.50 412.30,761.71 415.68,759.67 419.00,757.65 421.94,755.83 424.12,754.47 426.33,753.02 428.65,751.47 431.64,749.40 434.67,747.25 437.57,745.13 439.85,743.42 442.00,741.75 444.17,740.01 446.64,737.98 449.16,735.83 451.39,733.87 453.59,731.88 455.47,730.13 457.57,728.13 459.40,726.33 461.44,724.29 463.25,722.46 465.28,720.41 467.09,718.58 469.18,716.47 471.26,714.33 473.56,711.94 475.84,709.46 478.04,706.95 480.20,704.38 482.30,701.76 484.34,699.11 486.34,696.39 488.25,693.71 490.11,691.01 492.01,688.15 493.87,685.28 495.69,682.41 497.34,679.74 498.95,677.08 500.47,674.54 501.80,672.29 503.08,670.08 504.43,667.74 506.05,664.89 507.73,661.91 509.32,659.07 510.61,656.73 511.83,654.48 513.05,652.15 514.50,649.32 515.93,646.43 517.29,643.60 518.34,641.34 519.32,639.14 520.26,637.01 521.33,634.48 522.38,631.96 523.30,629.68 524.14,627.62 524.85,625.80 525.63,623.82 526.34,621.98 527.12,619.86 527.89,617.58 528.87,614.55 529.88,611.19 530.85,607.84 531.66,604.90 532.25,602.66 532.83,600.38 533.40,598.11 534.12,595.11 534.81,592.16 535.49,589.21 535.97,587.03 536.42,584.88 536.77,583.05 537.04,581.52 537.23,580.45 M 277.92,791.70 L 278.31,789.12 278.50,787.84 M 157.35,119.24 L 157.25,117.94 157.14,116.48 157.06,114.51 157.06,112.27 157.13,109.82 157.26,106.97 157.45,104.22 157.65,101.88 157.86,99.71 158.04,97.92 158.27,95.93 158.47,94.31 158.73,92.42 159.02,90.72 159.41,88.60 159.84,86.66 160.35,84.47 160.99,82.24 161.89,79.41 163.08,76.13 164.49,72.57 165.86,69.34 167.17,66.50 168.22,64.30 169.37,62.04 170.59,59.79 172.30,56.86 174.15,53.86 176.09,50.92 177.71,48.63 179.32,46.53 180.82,44.69 182.54,42.64 184.10,40.83 185.82,38.91 187.41,37.18 189.31,35.18 191.35,33.17 193.73,30.93 196.19,28.75 198.45,26.84 200.65,25.09 202.50,23.70 204.52,22.25 206.69,20.79 209.47,19.00 212.39,17.19 215.23,15.50 217.46,14.24 219.67,13.06 221.86,11.95 224.40,10.72 226.86,9.58 229.06,8.62 231.12,7.78 232.93,7.10 234.97,6.37 237.16,5.65 240.05,4.77 243.36,3.86 246.67,3.02 249.59,2.37 251.74,1.94 253.70,1.60 255.24,1.35 257.02,1.09 258.93,0.85 261.23,0.59 263.65,0.36 265.80,0.19 267.92,0.08 269.74,0.02 271.78,0.00 273.60,0.02 275.64,0.09 277.46,0.18 279.51,0.33 281.30,0.49 283.38,0.70 285.54,0.98 288.05,1.33 290.64,1.73 292.83,2.10 295.04,2.52 297.22,2.99 300.14,3.68 303.43,4.56 306.74,5.52 309.66,6.45 311.92,7.25 313.92,8.01 315.61,8.70 317.66,9.58 320.00,10.66 323.11,12.19 326.49,13.96 329.84,15.81 332.71,17.49 334.98,18.87 337.17,20.30 339.45,21.87 342.04,23.74 344.66,25.73 346.97,27.56 349.12,29.39 350.90,30.98 352.71,32.69 354.28,34.25 356.00,36.05 357.60,37.81 359.37,39.81 360.91,41.63 362.57,43.64 364.06,45.50 365.69,47.62 367.12,49.54 368.64,51.72 370.16,54.02 371.93,56.87 373.62,59.75 375.19,62.64 376.53,65.35 377.89,68.37 379.27,71.75 380.67,75.49 381.94,79.31 382.96,82.78 383.76,85.84 384.29,88.10 384.76,90.30 385.15,92.50 385.61,95.38 386.01,98.35 386.36,101.25 386.60,103.52 386.77,105.68 386.89,107.51 386.97,109.64 387.00,111.57 386.96,114.07 386.90,115.78 386.79,117.69 M 398.84,126.55 L 401.61,125.36 404.58,124.22 408.61,122.79 412.47,121.64 416.33,120.66 420.21,119.83 424.06,119.18 427.89,118.71 431.70,118.39 435.51,118.22 439.26,118.18 443.08,118.29 446.90,118.54 450.76,118.94 454.62,119.50 458.49,120.21 462.34,121.06 466.18,122.06 470.02,123.23 473.83,124.54 477.64,126.04 481.48,127.72 485.34,129.61 489.29,131.74 493.18,134.06 497.14,136.65 501.00,139.46 504.87,142.59 508.71,146.04 512.43,149.71 516.02,153.57 519.29,157.42 522.36,161.35 525.11,165.16 527.65,168.98 529.94,172.74 532.10,176.59 534.09,180.47 535.88,184.31 537.47,188.13 538.87,191.95 540.11,195.83 541.19,199.74 542.11,203.67 542.87,207.57 543.47,211.42 543.91,215.26 544.18,219.11 544.33,222.99 544.37,226.89 544.28,230.74 544.04,234.61 543.61,238.47 543.03,242.37 542.31,246.27 541.46,250.21 540.47,254.13 539.34,258.05 538.07,261.93 536.63,265.83 535.03,269.71 533.21,273.66 531.21,277.57 528.98,281.53 526.53,285.42 523.78,289.33 520.72,293.24 517.30,297.21 513.59,301.13 509.70,304.87 505.72,308.27 501.78,311.27 497.76,313.98 493.74,316.42 489.66,318.71 485.73,320.79 481.86,322.70 477.95,324.48 475.14,325.71 472.64,326.74 M 296.96,491.26 L 299.23,493.41 301.87,495.77 305.66,499.01 309.42,501.96 313.26,504.71 317.13,507.25 321.02,509.60 324.89,511.74 328.67,513.64 332.47,515.36 336.31,516.93 340.27,518.38 344.16,519.66 348.04,520.77 351.87,521.71 355.73,522.51 359.59,523.15 363.46,523.65 367.31,524.00 371.16,524.21 374.98,524.29 378.81,524.23 382.65,524.04 386.51,523.70 390.36,523.20 394.19,522.54 398.01,521.73 401.83,520.75 405.71,519.57 409.61,518.21 413.61,516.64 417.58,514.89 421.56,512.97 425.47,510.91 429.31,508.73 433.17,506.37 437.07,503.79 440.98,500.98 444.92,497.87 448.68,494.60 452.40,491.04 455.83,487.42 459.12,483.60 462.08,479.79 464.82,475.90 467.33,471.97 469.64,468.01 471.78,464.01 473.72,460.08 475.53,456.14 477.16,452.28 478.64,448.41 479.96,444.54 481.12,440.66 482.12,436.75 482.93,432.88 483.56,428.98 484.00,425.11 484.29,421.19 484.43,417.30 484.42,413.43 484.27,409.56 483.99,405.70 483.58,401.80 483.06,397.94 482.40,394.06 481.60,390.20 480.66,386.30 479.58,382.41 478.36,378.53 477.03,374.69 475.57,370.89 473.97,367.07 472.21,363.21 470.25,359.22 468.10,355.19 466.50,352.28 465.08,349.85 M 79.52,348.78 L 78.69,350.08 77.60,351.79 76.14,354.17 74.91,356.26 73.70,358.46 72.52,360.71 71.09,363.61 69.71,366.56 68.41,369.47 67.45,371.78 66.59,373.98 65.91,375.84 65.19,377.89 64.51,380.05 63.66,382.92 62.76,386.25 61.93,389.56 61.28,392.40 60.85,394.51 60.48,396.61 60.15,398.80 59.82,401.35 59.53,403.88 59.32,406.01 59.15,408.07 59.05,409.83 58.98,411.87 58.97,413.68 58.99,415.75 59.05,417.54 59.15,419.54 59.26,421.18 59.42,423.13 59.60,424.91 59.85,427.06 60.10,428.96 60.43,431.09 60.81,433.19 61.29,435.59 61.82,438.02 62.34,440.22 62.90,442.37 63.43,444.23 64.01,446.20 64.59,448.00 65.24,449.95 65.89,451.79 66.67,453.84 67.58,456.07 68.65,458.55 69.83,461.17 71.07,463.71 72.38,466.23 73.76,468.70 75.09,470.97 76.53,473.27 77.83,475.26 79.26,477.34 80.56,479.15 82.01,481.07 83.38,482.81 84.95,484.73 86.48,486.53 88.31,488.57 90.05,490.42 91.98,492.39 93.69,494.05 95.60,495.82 97.39,497.39 99.45,499.10 101.33,500.56 103.39,502.08 105.54,503.56 107.99,505.20 110.55,506.84 112.83,508.25 115.10,509.56 117.38,510.79 120.16,512.22 123.05,513.63 125.98,514.97 128.75,516.15 131.82,517.34 135.24,518.55 138.94,519.75 142.30,520.74 145.29,521.52 147.87,522.11 150.43,522.63 153.01,523.08 155.57,523.46 158.18,523.79 160.69,524.04 162.86,524.23 164.96,524.37 166.73,524.43 168.77,524.45 170.54,524.43 172.60,524.37 174.39,524.28 176.55,524.14 178.41,523.97 180.52,523.74 182.27,523.51 184.32,523.21 186.13,522.91 188.23,522.54 189.96,522.21 191.95,521.79 193.66,521.40 195.78,520.86 197.62,520.35 199.69,519.74 201.46,519.17 203.48,518.49 205.32,517.83 207.44,517.02 209.66,516.09 212.17,514.98 214.78,513.76 217.35,512.48 219.91,511.15 222.37,509.79 224.57,508.53 226.82,507.16 229.15,505.66 231.81,503.88 234.42,502.03 236.67,500.38 238.78,498.73 240.64,497.20 242.80,495.33 244.95,493.34 247.32,491.04 249.01,489.33 250.32,487.98 M 72.35,327.71 L 69.69,326.65 66.66,325.37 62.49,323.52 58.56,321.62 54.70,319.58 50.88,317.38 47.03,314.98 43.12,312.31 39.36,309.51 35.58,306.40 32.03,303.15 28.49,299.58 25.22,295.92 22.11,292.06 19.33,288.19 16.80,284.24 14.56,280.32 12.50,276.39 10.62,272.54 8.86,268.68 7.29,264.91 5.86,261.12 4.65,257.36 3.61,253.58 2.73,249.80 1.99,245.93 1.37,242.03 0.87,238.12 0.48,234.31 0.20,230.56 0.04,226.80 0.00,223.04 0.10,219.24 0.37,215.45 0.77,211.78 1.23,208.48 1.74,205.61 2.31,202.87 3.05,199.82 3.99,196.36 5.12,192.68 6.45,188.92 7.94,185.18 9.65,181.32 11.53,177.49 13.62,173.60 15.93,169.72 18.42,165.87 21.14,162.06 24.13,158.28 27.45,154.44 31.01,150.69 34.76,147.07 38.54,143.76 42.41,140.67 46.25,137.87 50.14,135.26 53.98,132.90 57.84,130.72 61.64,128.74 65.46,126.92 69.23,125.29 73.04,123.82 76.83,122.53 80.65,121.41 84.46,120.48 88.25,119.72 92.07,119.12 95.91,118.66 99.74,118.35 103.55,118.20 107.29,118.19 111.11,118.34 114.93,118.66 118.83,119.13 122.69,119.78 126.55,120.57 130.39,121.53 134.22,122.65 138.23,124.03 141.18,125.12 143.90,126.24 M 271.45,498.39 L 271.45,500.73 271.45,503.48 271.45,507.35 271.45,511.20 271.45,515.06 271.45,518.93 271.45,522.78 271.45,526.64 271.45,530.51 271.45,534.36 271.45,538.23 271.45,542.08 271.45,545.94 271.45,549.81 271.46,553.66 271.46,557.52 271.46,561.39 271.46,565.24 271.46,569.11 271.46,572.96 271.46,576.82 271.46,580.69 271.46,584.54 271.46,588.40 271.46,592.26 271.46,596.12 271.46,599.98 271.46,603.84 271.46,607.70 271.46,611.57 271.46,615.42 271.46,619.28 271.46,623.14 271.46,627.00 271.46,630.86 271.46,634.72 271.47,638.58 271.47,642.45 271.47,646.30 271.47,650.16 271.47,654.02 271.47,657.88 271.47,661.74 271.47,665.60 271.47,669.46 271.47,673.32 271.47,677.18 271.47,681.04 271.47,684.90 271.47,688.76 271.47,692.62 271.47,696.48 271.47,700.34 271.47,704.20 271.47,708.06 271.47,711.92 271.47,715.78 271.47,719.64 271.47,723.50 271.48,727.36 271.48,731.22 271.48,735.08 271.48,738.93 271.48,742.82 271.48,746.88 271.48,751.29 271.48,754.64 271.48,757.65 M 271.43,818.08 L 271.43,820.75 271.43,823.70 271.43,827.72 271.43,831.60 271.43,835.44 271.43,839.30 271.43,843.16 271.43,847.02 271.43,850.88 271.43,854.74 271.43,858.60 271.43,862.46 271.43,866.32 271.43,870.18 271.43,874.04 271.43,877.90 271.43,881.76 271.43,885.62 271.43,889.48 271.43,893.34 271.43,897.20 271.43,901.06 271.43,904.92 271.43,908.78 271.43,912.64 271.43,916.50 271.43,919.26 271.43,921.60 M 294.09,758.00 L 274.35,810.01 M 529.97,568.78 L 539.44,567.89 M 292.37,806.59 L 274.35,810.01 M 537.23,580.45 L 539.44,567.89 M 157.35,119.24 L 158.37,132.17 M 386.79,117.69 L 385.97,132.10 M 398.84,126.55 L 385.97,132.10 M 472.64,326.74 L 455.64,333.71 M 465.08,349.85 L 455.64,333.71 M 79.52,348.78 L 88.87,334.28 M 72.35,327.71 L 88.87,334.28 M 143.90,126.24 L 158.37,132.17 M 277.92,791.70 L 271.43,818.08 M 278.50,787.84 L 271.48,757.65 M 274.35,810.01 L 274.35,810.01 M 539.44,567.89 L 539.44,567.89 M 158.37,132.17 L 158.37,132.17 M 385.97,132.10 L 385.97,132.10 M 455.64,333.71 L 455.64,333.71 M 88.87,334.28 L 88.87,334.28 M 271.45,498.39 L 271.29,466.83 M 296.96,491.26 L 271.29,466.83 M 250.32,487.98 L 271.29,466.83 M 304.92,321.12 L 302.52,322.85 299.58,324.72 295.49,327.03 291.45,328.85 287.44,330.25 283.56,331.26 279.69,331.97 275.89,332.37 272.04,332.50 268.22,332.37 264.36,331.96 260.52,331.28 256.71,330.31 252.93,329.02 249.08,327.29 245.15,325.09 241.23,322.39 237.58,319.40 234.25,316.14 231.30,312.68 228.65,308.96 226.36,305.09 224.46,301.16 222.98,297.29 221.88,293.46 221.14,289.70 220.70,285.94 220.50,282.14 220.52,278.32 220.75,274.67 221.15,271.42 221.68,268.65 222.37,265.98 223.36,263.00 224.74,259.61 226.60,255.93 228.90,252.19 231.65,248.45 234.78,244.90 238.21,241.62 241.87,238.69 245.62,236.18 249.39,234.10 253.17,232.44 256.76,231.19 259.98,230.32 262.69,229.78 265.09,229.45 267.77,229.24 270.94,229.11 274.59,229.13 278.40,229.37 282.21,229.89 286.03,230.75 289.82,231.93 293.78,233.57 297.70,235.60 301.78,238.19 305.68,241.25 309.43,244.78 312.73,248.54 315.55,252.39 317.84,256.21 319.72,260.10 321.21,263.98 322.34,267.90 323.15,271.78 323.65,275.69 323.88,279.58 323.81,283.50 323.46,287.43 322.80,291.41 321.85,295.36 320.54,299.33 318.84,303.29 316.71,307.28 315.03,310.11 313.42,312.47 M 304.92,321.12 L 310.06,317.39 M 313.42,312.47 L 310.06,317.39 310.06,317.39 M 294.09,758.00 L 295.12,755.27 296.33,752.10 298.00,747.75 299.58,743.65 301.13,739.71 302.68,735.88 304.30,732.01 305.97,728.13 307.68,724.31 309.47,720.45 311.33,716.61 313.36,712.66 315.49,708.73 317.72,704.78 319.92,701.03 322.25,697.28 324.66,693.60 327.29,689.76 329.97,685.91 332.68,682.06 335.42,678.22 338.19,674.38 341.13,670.38 344.12,666.45 347.29,662.49 350.58,658.68 354.11,654.82 357.81,650.98 361.66,647.14 365.60,643.39 369.53,639.84 373.41,636.51 377.23,633.38 381.04,630.34 384.88,627.31 388.73,624.30 392.60,621.31 396.47,618.35 400.30,615.52 404.14,612.81 407.96,610.27 411.79,607.87 415.60,605.61 419.33,603.50 423.08,601.47 426.82,599.52 430.67,597.57 434.58,595.67 438.50,593.84 442.40,592.13 446.29,590.51 450.20,588.96 454.04,587.51 457.89,586.12 461.70,584.81 465.53,583.55 469.33,582.35 473.10,581.21 476.90,580.11 480.78,579.02 484.68,577.97 488.55,576.96 492.37,575.99 496.19,575.05 500.04,574.13 503.89,573.23 507.74,572.35 511.60,571.49 515.30,570.68 518.85,570.02 522.27,569.53 525.60,569.19 528.06,568.96 529.97,568.78 M 292.37,806.59 L 293.86,806.31 295.80,805.94 298.40,805.44 300.98,804.93 303.52,804.42 306.05,803.89 308.27,803.43 310.50,802.93 312.74,802.42 315.71,801.71 319.06,800.88 322.40,800.04 325.40,799.24 328.03,798.51 331.05,797.64 334.46,796.62 338.28,795.44 342.14,794.19 346.00,792.90 349.77,791.59 353.20,790.36 356.17,789.26 358.50,788.38 360.57,787.58 362.39,786.87 364.45,786.04 366.76,785.11 369.62,783.93 372.61,782.70 375.46,781.51 377.75,780.54 379.90,779.59 382.08,778.58 384.56,777.40 387.14,776.12 389.82,774.74 392.89,773.08 396.33,771.15 399.70,769.23 402.68,767.49 404.88,766.18 407.06,764.87 409.33,763.50 412.30,761.71 415.68,759.67 419.00,757.65 421.94,755.83 424.12,754.47 426.33,753.02 428.65,751.47 431.64,749.40 434.67,747.25 437.57,745.13 439.85,743.42 442.00,741.75 444.17,740.01 446.64,737.98 449.16,735.83 451.39,733.87 453.59,731.88 455.47,730.13 457.57,728.13 459.40,726.33 461.44,724.29 463.25,722.46 465.28,720.41 467.09,718.58 469.18,716.47 471.26,714.33 473.56,711.94 475.84,709.46 478.04,706.95 480.20,704.38 482.30,701.76 484.34,699.11 486.34,696.39 488.25,693.71 490.11,691.01 492.01,688.15 493.87,685.28 495.69,682.41 497.34,679.74 498.95,677.08 500.47,674.54 501.80,672.29 503.08,670.08 504.43,667.74 506.05,664.89 507.73,661.91 509.32,659.07 510.61,656.73 511.83,654.48 513.05,652.15 514.50,649.32 515.93,646.43 517.29,643.60 518.34,641.34 519.32,639.14 520.26,637.01 521.33,634.48 522.38,631.96 523.30,629.68 524.14,627.62 524.85,625.80 525.63,623.82 526.34,621.98 527.12,619.86 527.89,617.58 528.87,614.55 529.88,611.19 530.85,607.84 531.66,604.90 532.25,602.66 532.83,600.38 533.40,598.11 534.12,595.11 534.81,592.16 535.49,589.21 535.97,587.03 536.42,584.88 536.77,583.05 537.04,581.52 537.23,580.45 M 277.92,791.70 L 278.31,789.12 278.50,787.84 M 157.35,119.24 L 157.25,117.94 157.14,116.48 157.06,114.51 157.06,112.27 157.13,109.82 157.26,106.97 157.45,104.22 157.65,101.88 157.86,99.71 158.04,97.92 158.27,95.93 158.47,94.31 158.73,92.42 159.02,90.72 159.41,88.60 159.84,86.66 160.35,84.47 160.99,82.24 161.89,79.41 163.08,76.13 164.49,72.57 165.86,69.34 167.17,66.50 168.22,64.30 169.37,62.04 170.59,59.79 172.30,56.86 174.15,53.86 176.09,50.92 177.71,48.63 179.32,46.53 180.82,44.69 182.54,42.64 184.10,40.83 185.82,38.91 187.41,37.18 189.31,35.18 191.35,33.17 193.73,30.93 196.19,28.75 198.45,26.84 200.65,25.09 202.50,23.70 204.52,22.25 206.69,20.79 209.47,19.00 212.39,17.19 215.23,15.50 217.46,14.24 219.67,13.06 221.86,11.95 224.40,10.72 226.86,9.58 229.06,8.62 231.12,7.78 232.93,7.10 234.97,6.37 237.16,5.65 240.05,4.77 243.36,3.86 246.67,3.02 249.59,2.37 251.74,1.94 253.70,1.60 255.24,1.35 257.02,1.09 258.93,0.85 261.23,0.59 263.65,0.36 265.80,0.19 267.92,0.08 269.74,0.02 271.78,0.00 273.60,0.02 275.64,0.09 277.46,0.18 279.51,0.33 281.30,0.49 283.38,0.70 285.54,0.98 288.05,1.33 290.64,1.73 292.83,2.10 295.04,2.52 297.22,2.99 300.14,3.68 303.43,4.56 306.74,5.52 309.66,6.45 311.92,7.25 313.92,8.01 315.61,8.70 317.66,9.58 320.00,10.66 323.11,12.19 326.49,13.96 329.84,15.81 332.71,17.49 334.98,18.87 337.17,20.30 339.45,21.87 342.04,23.74 344.66,25.73 346.97,27.56 349.12,29.39 350.90,30.98 352.71,32.69 354.28,34.25 356.00,36.05 357.60,37.81 359.37,39.81 360.91,41.63 362.57,43.64 364.06,45.50 365.69,47.62 367.12,49.54 368.64,51.72 370.16,54.02 371.93,56.87 373.62,59.75 375.19,62.64 376.53,65.35 377.89,68.37 379.27,71.75 380.67,75.49 381.94,79.31 382.96,82.78 383.76,85.84 384.29,88.10 384.76,90.30 385.15,92.50 385.61,95.38 386.01,98.35 386.36,101.25 386.60,103.52 386.77,105.68 386.89,107.51 386.97,109.64 387.00,111.57 386.96,114.07 386.90,115.78 386.79,117.69 M 398.84,126.55 L 401.61,125.36 404.58,124.22 408.61,122.79 412.47,121.64 416.33,120.66 420.21,119.83 424.06,119.18 427.89,118.71 431.70,118.39 435.51,118.22 439.26,118.18 443.08,118.29 446.90,118.54 450.76,118.94 454.62,119.50 458.49,120.21 462.34,121.06 466.18,122.06 470.02,123.23 473.83,124.54 477.64,126.04 481.48,127.72 485.34,129.61 489.29,131.74 493.18,134.06 497.14,136.65 501.00,139.46 504.87,142.59 508.71,146.04 512.43,149.71 516.02,153.57 519.29,157.42 522.36,161.35 525.11,165.16 527.65,168.98 529.94,172.74 532.10,176.59 534.09,180.47 535.88,184.31 537.47,188.13 538.87,191.95 540.11,195.83 541.19,199.74 542.11,203.67 542.87,207.57 543.47,211.42 543.91,215.26 544.18,219.11 544.33,222.99 544.37,226.89 544.28,230.74 544.04,234.61 543.61,238.47 543.03,242.37 542.31,246.27 541.46,250.21 540.47,254.13 539.34,258.05 538.07,261.93 536.63,265.83 535.03,269.71 533.21,273.66 531.21,277.57 528.98,281.53 526.53,285.42 523.78,289.33 520.72,293.24 517.30,297.21 513.59,301.13 509.70,304.87 505.72,308.27 501.78,311.27 497.76,313.98 493.74,316.42 489.66,318.71 485.73,320.79 481.86,322.70 477.95,324.48 475.14,325.71 472.64,326.74 M 296.96,491.26 L 299.23,493.41 301.87,495.77 305.66,499.01 309.42,501.96 313.26,504.71 317.13,507.25 321.02,509.60 324.89,511.74 328.67,513.64 332.47,515.36 336.31,516.93 340.27,518.38 344.16,519.66 348.04,520.77 351.87,521.71 355.73,522.51 359.59,523.15 363.46,523.65 367.31,524.00 371.16,524.21 374.98,524.29 378.81,524.23 382.65,524.04 386.51,523.70 390.36,523.20 394.19,522.54 398.01,521.73 401.83,520.75 405.71,519.57 409.61,518.21 413.61,516.64 417.58,514.89 421.56,512.97 425.47,510.91 429.31,508.73 433.17,506.37 437.07,503.79 440.98,500.98 444.92,497.87 448.68,494.60 452.40,491.04 455.83,487.42 459.12,483.60 462.08,479.79 464.82,475.90 467.33,471.97 469.64,468.01 471.78,464.01 473.72,460.08 475.53,456.14 477.16,452.28 478.64,448.41 479.96,444.54 481.12,440.66 482.12,436.75 482.93,432.88 483.56,428.98 484.00,425.11 484.29,421.19 484.43,417.30 484.42,413.43 484.27,409.56 483.99,405.70 483.58,401.80 483.06,397.94 482.40,394.06 481.60,390.20 480.66,386.30 479.58,382.41 478.36,378.53 477.03,374.69 475.57,370.89 473.97,367.07 472.21,363.21 470.25,359.22 468.10,355.19 466.50,352.28 465.08,349.85 M 79.52,348.78 L 78.69,350.08 77.60,351.79 76.14,354.17 74.91,356.26 73.70,358.46 72.52,360.71 71.09,363.61 69.71,366.56 68.41,369.47 67.45,371.78 66.59,373.98 65.91,375.84 65.19,377.89 64.51,380.05 63.66,382.92 62.76,386.25 61.93,389.56 61.28,392.40 60.85,394.51 60.48,396.61 60.15,398.80 59.82,401.35 59.53,403.88 59.32,406.01 59.15,408.07 59.05,409.83 58.98,411.87 58.97,413.68 58.99,415.75 59.05,417.54 59.15,419.54 59.26,421.18 59.42,423.13 59.60,424.91 59.85,427.06 60.10,428.96 60.43,431.09 60.81,433.19 61.29,435.59 61.82,438.02 62.34,440.22 62.90,442.37 63.43,444.23 64.01,446.20 64.59,448.00 65.24,449.95 65.89,451.79 66.67,453.84 67.58,456.07 68.65,458.55 69.83,461.17 71.07,463.71 72.38,466.23 73.76,468.70 75.09,470.97 76.53,473.27 77.83,475.26 79.26,477.34 80.56,479.15 82.01,481.07 83.38,482.81 84.95,484.73 86.48,486.53 88.31,488.57 90.05,490.42 91.98,492.39 93.69,494.05 95.60,495.82 97.39,497.39 99.45,499.10 101.33,500.56 103.39,502.08 105.54,503.56 107.99,505.20 110.55,506.84 112.83,508.25 115.10,509.56 117.38,510.79 120.16,512.22 123.05,513.63 125.98,514.97 128.75,516.15 131.82,517.34 135.24,518.55 138.94,519.75 142.30,520.74 145.29,521.52 147.87,522.11 150.43,522.63 153.01,523.08 155.57,523.46 158.18,523.79 160.69,524.04 162.86,524.23 164.96,524.37 166.73,524.43 168.77,524.45 170.54,524.43 172.60,524.37 174.39,524.28 176.55,524.14 178.41,523.97 180.52,523.74 182.27,523.51 184.32,523.21 186.13,522.91 188.23,522.54 189.96,522.21 191.95,521.79 193.66,521.40 195.78,520.86 197.62,520.35 199.69,519.74 201.46,519.17 203.48,518.49 205.32,517.83 207.44,517.02 209.66,516.09 212.17,514.98 214.78,513.76 217.35,512.48 219.91,511.15 222.37,509.79 224.57,508.53 226.82,507.16 229.15,505.66 231.81,503.88 234.42,502.03 236.67,500.38 238.78,498.73 240.64,497.20 242.80,495.33 244.95,493.34 247.32,491.04 249.01,489.33 250.32,487.98 M 72.35,327.71 L 69.69,326.65 66.66,325.37 62.49,323.52 58.56,321.62 54.70,319.58 50.88,317.38 47.03,314.98 43.12,312.31 39.36,309.51 35.58,306.40 32.03,303.15 28.49,299.58 25.22,295.92 22.11,292.06 19.33,288.19 16.80,284.24 14.56,280.32 12.50,276.39 10.62,272.54 8.86,268.68 7.29,264.91 5.86,261.12 4.65,257.36 3.61,253.58 2.73,249.80 1.99,245.93 1.37,242.03 0.87,238.12 0.48,234.31 0.20,230.56 0.04,226.80 0.00,223.04 0.10,219.24 0.37,215.45 0.77,211.78 1.23,208.48 1.74,205.61 2.31,202.87 3.05,199.82 3.99,196.36 5.12,192.68 6.45,188.92 7.94,185.18 9.65,181.32 11.53,177.49 13.62,173.60 15.93,169.72 18.42,165.87 21.14,162.06 24.13,158.28 27.45,154.44 31.01,150.69 34.76,147.07 38.54,143.76 42.41,140.67 46.25,137.87 50.14,135.26 53.98,132.90 57.84,130.72 61.64,128.74 65.46,126.92 69.23,125.29 73.04,123.82 76.83,122.53 80.65,121.41 84.46,120.48 88.25,119.72 92.07,119.12 95.91,118.66 99.74,118.35 103.55,118.20 107.29,118.19 111.11,118.34 114.93,118.66 118.83,119.13 122.69,119.78 126.55,120.57 130.39,121.53 134.22,122.65 138.23,124.03 141.18,125.12 143.90,126.24 M 271.45,498.39 L 271.45,500.73 271.45,503.48 271.45,507.35 271.45,511.20 271.45,515.06 271.45,518.93 271.45,522.78 271.45,526.64 271.45,530.51 271.45,534.36 271.45,538.23 271.45,542.08 271.45,545.94 271.45,549.81 271.46,553.66 271.46,557.52 271.46,561.39 271.46,565.24 271.46,569.11 271.46,572.96 271.46,576.82 271.46,580.69 271.46,584.54 271.46,588.40 271.46,592.26 271.46,596.12 271.46,599.98 271.46,603.84 271.46,607.70 271.46,611.57 271.46,615.42 271.46,619.28 271.46,623.14 271.46,627.00 271.46,630.86 271.46,634.72 271.47,638.58 271.47,642.45 271.47,646.30 271.47,650.16 271.47,654.02 271.47,657.88 271.47,661.74 271.47,665.60 271.47,669.46 271.47,673.32 271.47,677.18 271.47,681.04 271.47,684.90 271.47,688.76 271.47,692.62 271.47,696.48 271.47,700.34 271.47,704.20 271.47,708.06 271.47,711.92 271.47,715.78 271.47,719.64 271.47,723.50 271.48,727.36 271.48,731.22 271.48,735.08 271.48,738.93 271.48,742.82 271.48,746.88 271.48,751.29 271.48,754.64 271.48,757.65 M 271.43,818.08 L 271.43,820.75 271.43,823.70 271.43,827.72 271.43,831.60 271.43,835.44 271.43,839.30 271.43,843.16 271.43,847.02 271.43,850.88 271.43,854.74 271.43,858.60 271.43,862.46 271.43,866.32 271.43,870.18 271.43,874.04 271.43,877.90 271.43,881.76 271.43,885.62 271.43,889.48 271.43,893.34 271.43,897.20 271.43,901.06 271.43,904.92 271.43,908.78 271.43,912.64 271.43,916.50 271.43,919.26 271.43,921.60 M 294.09,758.00 L 274.35,810.01 M 529.97,568.78 L 539.44,567.89 M 292.37,806.59 L 274.35,810.01 M 537.23,580.45 L 539.44,567.89 M 157.35,119.24 L 158.37,132.17 M 386.79,117.69 L 385.97,132.10 M 398.84,126.55 L 385.97,132.10 M 472.64,326.74 L 455.64,333.71 M 465.08,349.85 L 455.64,333.71 M 79.52,348.78 L 88.87,334.28 M 72.35,327.71 L 88.87,334.28 M 143.90,126.24 L 158.37,132.17 M 277.92,791.70 L 271.43,818.08 M 278.50,787.84 L 271.48,757.65 M 274.35,810.01 L 274.35,810.01 M 539.44,567.89 L 539.44,567.89 M 158.37,132.17 L 158.37,132.17 M 385.97,132.10 L 385.97,132.10 M 455.64,333.71 L 455.64,333.71 M 88.87,334.28 L 88.87,334.28 M 271.45,498.39 L 271.29,466.83 M 296.96,491.26 L 271.29,466.83 M 250.32,487.98 L 271.29,466.83" stroke-width="45.0"></path></g><g id="state-icon" stroke="#000000" stroke-width="45" fill="none" stroke-linecap="round" stroke-linejoin="round"><path d="M 512.02,843.96 L 514.20,843.16 517.98,841.57 523.19,839.27 529.69,836.36 537.32,832.93 545.93,829.06 555.37,824.86 565.49,820.40 576.13,815.79 587.14,811.11 598.38,806.45 609.68,801.91 620.90,797.57 631.88,793.53 642.48,789.88 652.54,786.70 661.91,784.10 670.43,782.16 677.96,780.97 684.35,780.62 689.26,780.88 694.74,781.46 700.73,782.35 707.17,783.52 713.99,784.93 721.14,786.57 728.54,788.40 736.15,790.40 743.89,792.54 751.71,794.79 759.54,797.13 767.32,799.53 775.00,801.96 782.50,804.39 789.77,806.81 796.75,809.18 803.37,811.47 809.57,813.65 815.29,815.71 820.46,817.62 827.80,820.00 834.11,823.32 839.41,827.42 843.71,832.20 847.03,837.51 849.39,843.24 850.80,849.25 851.28,855.41 850.84,861.61 849.50,867.71 847.27,873.58 844.17,879.09 840.21,884.12 835.41,888.55 829.79,892.23 823.36,895.06 816.14,896.88 808.14,897.59 799.37,897.05 789.86,895.13 780.41,892.62 771.79,890.36 763.96,888.33 756.85,886.51 750.41,884.89 744.59,883.45 739.35,882.16 734.62,881.01 730.35,879.98 726.49,879.05 722.99,878.20 719.80,877.41 716.86,876.66 714.11,875.93 711.52,875.21 709.02,874.47 706.56,873.69 704.10,872.87 701.57,871.97 698.92,870.97 M 851.96,863.35 L 857.64,857.93 863.25,852.62 868.80,847.41 874.28,842.29 879.73,837.25 885.14,832.28 890.52,827.37 895.88,822.51 901.24,817.68 906.60,812.88 911.98,808.09 917.38,803.31 922.81,798.52 928.28,793.72 933.80,788.89 939.39,784.02 945.05,779.11 950.78,774.13 956.61,769.09 962.54,763.96 968.86,759.07 975.06,755.33 981.10,752.67 986.93,751.04 992.52,750.37 997.80,750.60 1002.73,751.67 1007.27,753.52 1011.36,756.08 1014.97,759.30 1018.04,763.10 1020.52,767.44 1022.37,772.24 1023.55,777.44 1024.00,782.99 1023.68,788.82 1022.54,794.87 1020.53,801.07 1017.60,807.37 1013.72,813.70 1008.26,820.92 1002.42,828.59 996.20,836.69 989.58,845.18 982.57,854.03 975.15,863.22 967.33,872.70 959.09,882.46 950.43,892.46 941.34,902.66 931.82,913.05 921.86,923.59 911.45,934.24 900.60,944.99 889.29,955.79 877.52,966.61 865.28,977.44 852.56,988.22 839.37,998.95 825.69,1009.58 819.39,1013.76 812.70,1017.08 805.60,1019.62 798.05,1021.45 790.04,1022.64 781.53,1023.28 772.52,1023.44 762.96,1023.19 752.85,1022.61 742.15,1021.78 730.83,1020.77 718.89,1019.65 706.29,1018.51 693.00,1017.42 679.01,1016.46 664.28,1015.69 648.81,1015.20 632.55,1015.07 615.49,1015.36 597.61,1016.15 512.00,1024.00 512.00,843.97 M 512.02,843.96 L 514.20,843.16 517.98,841.57 523.19,839.27 529.69,836.36 537.32,832.93 545.93,829.06 555.37,824.86 565.49,820.40 576.13,815.79 587.14,811.11 598.38,806.45 609.68,801.91 620.90,797.57 631.88,793.53 642.48,789.88 652.54,786.70 661.91,784.10 670.43,782.16 677.96,780.97 684.35,780.62 689.26,780.88 694.74,781.46 700.73,782.35 707.17,783.52 713.99,784.93 721.14,786.57 728.54,788.40 736.15,790.40 743.89,792.54 751.71,794.79 759.54,797.13 767.32,799.53 775.00,801.96 782.50,804.39 789.77,806.81 796.75,809.18 803.37,811.47 809.57,813.65 815.29,815.71 820.46,817.62 827.80,820.00 834.11,823.32 839.41,827.42 843.71,832.20 847.03,837.51 849.39,843.24 850.80,849.25 851.28,855.41 850.84,861.61 849.50,867.71 847.27,873.58 844.17,879.09 840.21,884.12 835.41,888.55 829.79,892.23 823.36,895.06 816.14,896.88 808.14,897.59 799.37,897.05 789.86,895.13 780.41,892.62 771.79,890.36 763.96,888.33 756.85,886.51 750.41,884.89 744.59,883.45 739.35,882.16 734.62,881.01 730.35,879.98 726.49,879.05 722.99,878.20 719.80,877.41 716.86,876.66 714.11,875.93 711.52,875.21 709.02,874.47 706.56,873.69 704.10,872.87 701.57,871.97 698.92,870.97 M 851.96,863.35 L 857.64,857.93 863.25,852.62 868.80,847.41 874.28,842.29 879.73,837.25 885.14,832.28 890.52,827.37 895.88,822.51 901.24,817.68 906.60,812.88 911.98,808.09 917.38,803.31 922.81,798.52 928.28,793.72 933.80,788.89 939.39,784.02 945.05,779.11 950.78,774.13 956.61,769.09 962.54,763.96 968.86,759.07 975.06,755.33 981.10,752.67 986.93,751.04 992.52,750.37 997.80,750.60 1002.73,751.67 1007.27,753.52 1011.36,756.08 1014.97,759.30 1018.04,763.10 1020.52,767.44 1022.37,772.24 1023.55,777.44 1024.00,782.99 1023.68,788.82 1022.54,794.87 1020.53,801.07 1017.60,807.37 1013.72,813.70 1008.26,820.92 1002.42,828.59 996.20,836.69 989.58,845.18 982.57,854.03 975.15,863.22 967.33,872.70 959.09,882.46 950.43,892.46 941.34,902.66 931.82,913.05 921.86,923.59 911.45,934.24 900.60,944.99 889.29,955.79 877.52,966.61 865.28,977.44 852.56,988.22 839.37,998.95 825.69,1009.58 819.39,1013.76 812.70,1017.08 805.60,1019.62 798.05,1021.45 790.04,1022.64 781.53,1023.28 772.52,1023.44 762.96,1023.19 752.85,1022.61 742.15,1021.78 730.83,1020.77 718.89,1019.65 706.29,1018.51 693.00,1017.42 679.01,1016.46 664.28,1015.69 648.81,1015.20 632.55,1015.07 615.49,1015.36 597.61,1016.15 512.00,1024.00 512.00,843.97" stroke-width="45.0"></path></g></svg>