<svg xmlns="http://www.w3.org/2000/svg" viewBox="156.875 -25 710.25 1076" width="1024" height="1024" class="colorable-icon" overflow="visible"><g id="skeleton-paths" stroke-width="45.0"><path id="path-0-0" d="M368.854 807.593L372.229 807.593L376.215 807.592L381.791 807.592L387.367 807.591L392.943 807.591L398.519 807.590L404.095 807.590L409.671 807.589L415.247 807.589L420.823 807.588L426.399 807.588L431.974 807.587L437.550 807.586L443.126 807.586L448.702 807.585L454.278 807.585L459.854 807.584L465.430 807.584L471.006 807.583L476.582 807.583L482.158 807.582L487.734 807.582L493.310 807.581L498.886 807.581L504.462 807.580L510.038 807.580L515.613 807.579L521.189 807.579L526.765 807.578L532.341 807.578L537.917 807.577L543.493 807.577L549.069 807.576L554.645 807.576L560.221 807.575L565.797 807.575L571.373 807.574L576.949 807.574L582.525 807.573L588.101 807.573L593.677 807.572L599.252 807.572L604.828 807.571L610.404 807.570L615.980 807.570L621.556 807.569L627.132 807.569L632.708 807.568L638.284 807.568L643.832 807.567L647.793 807.567L651.106 807.567" stroke="black" stroke-width="45" fill="none" stroke-linecap="round" stroke-linejoin="round"></path><path id="path-1-0" d="M347.110 823.230L347.133 826.585L347.139 830.473L347.137 835.990L347.116 841.514L347.093 847.090L347.076 852.666L347.077 858.242L347.085 863.818L347.095 869.393L347.100 874.969L347.135 880.545L347.240 886.055L347.426 891.555L347.670 897.039L347.946 902.650L348.270 908.250L348.750 913.796L349.485 919.228L350.566 924.670L351.988 930.157L353.768 935.746L355.852 941.309L358.293 946.958L361.044 952.536L364.180 958.170L367.656 963.703L371.567 969.240L375.935 974.733L380.852 980.270L386.126 985.621L391.697 990.695L397.207 995.181L402.813 999.215L408.213 1002.655L413.697 1005.726L419.159 1008.376L424.737 1010.727L430.373 1012.773L435.912 1014.499L441.425 1015.950L446.934 1017.135L452.472 1018.093L458.060 1018.834L463.601 1019.360L469.167 1019.704L474.723 1019.893L480.299 1019.979L485.875 1020L491.451 1019.991L497.027 1019.972L502.603 1019.962L508.179 1019.958L513.755 1019.964L519.331 1019.964L524.907 1019.972L530.483 1019.983L536.059 1019.998L541.635 1019.999L547.210 1019.952L552.767 1019.795L558.336 1019.480L563.886 1018.972L569.497 1018.295L575.113 1017.430L580.773 1016.347L586.357 1015.007L591.938 1013.373L597.452 1011.468L603.106 1009.214L608.755 1006.617L614.511 1003.592L620.164 1000.187L625.827 996.308L631.445 991.938L637.100 986.971L642.531 981.618L647.582 976.027L652.034 970.462L655.998 964.841L659.505 959.207L662.615 953.553L665.326 947.910L667.672 942.276L669.728 936.523L671.466 930.829L672.897 925.141L674 919.576L674.812 913.984L675.336 908.421L675.615 902.839L675.716 897.273L675.745 891.697L675.747 886.121L675.747 880.545L675.736 874.969L675.716 869.393L675.694 863.818L675.673 858.242L675.658 852.666L675.655 847.090L675.668 841.514L675.709 835.928L675.749 831.933L675.802 828.536" stroke="black" stroke-width="45" fill="none" stroke-linecap="round" stroke-linejoin="round"></path><path id="path-2-0" d="M344.160 786.791L343.682 783.687L342.968 779.756L341.896 774.237L340.653 768.498L339.307 762.766L337.870 757.027L336.337 751.342L334.720 745.686L333 740.063L331.220 734.535L329.361 729.091L327.405 723.630L325.330 718.104L323.124 712.453L320.875 706.933L318.549 701.448L316.128 695.993L313.588 690.466L310.896 684.822L308.162 679.274L305.285 673.636L302.342 668.052L299.205 662.287L295.986 656.543L292.713 650.872L289.430 645.335L286.107 639.889L282.640 634.337L279.057 628.755L275.371 623.132L271.628 617.573L267.825 612.037L263.867 606.419L259.813 600.772L255.618 595.051L251.380 589.411L247.054 583.797L242.569 578.123L238.127 572.565L233.751 567.071L229.605 561.748L225.564 556.389L221.532 550.843L217.633 545.267L213.831 539.607L210.221 533.981L206.729 528.307L203.411 522.684L200.258 517.107L197.309 511.661L194.473 506.197L191.777 500.759L189.161 495.248L186.641 489.686L184.220 484.083L181.899 478.446L179.685 472.783L177.610 467.208L175.651 461.632L173.809 456.093L172.057 450.481L170.414 444.901L168.894 439.373L167.493 433.922L166.190 428.481L164.963 422.937L163.823 417.354L162.777 411.743L161.852 406.229L161.035 400.724L160.310 395.205L159.650 389.631L159.041 384.053L158.462 378.470L157.926 372.919L157.452 367.428L157.100 361.923L156.900 356.408L156.875 350.832L157.001 345.256L157.253 339.741L157.597 334.236L158.007 328.746L158.452 323.138L158.948 317.553L159.503 311.981L160.175 306.533L160.950 301.061L161.846 295.549L162.836 289.978L163.946 284.331L165.135 278.755L166.403 273.222L167.738 267.797L169.170 262.369L170.721 256.860L172.393 251.294L174.169 245.691L176.047 240.121L177.992 234.629L180.055 229.111L182.228 223.592L184.559 217.939L186.953 212.407L189.417 206.939L191.978 201.524L194.703 196.008L197.606 190.380L200.611 184.798L203.759 179.188L207.056 173.565L210.524 167.884L214.129 162.233L217.836 156.650L221.654 151.141L225.548 145.726L229.615 140.318L233.911 134.825L238.493 129.221L243.304 123.556L248.245 118.008L253.388 112.479L258.621 107.117L264.007 101.827L269.457 96.734L275.139 91.653L280.867 86.756L286.564 82.068L292.027 77.755L297.424 73.669L302.818 69.741L308.293 65.921L313.727 62.261L319.160 58.767L324.582 55.406L330.192 52.082L335.906 48.821L341.656 45.679L347.349 42.696L352.919 39.905L358.582 37.192L364.147 34.641L369.775 32.171L375.220 29.894L380.697 27.706L386.152 25.642L391.683 23.647L397.245 21.747L402.837 19.936L408.409 18.234L413.935 16.646L419.434 15.170L424.939 13.784L430.499 12.481L436.043 11.270L441.554 10.163L447.055 9.153L452.557 8.237L458.119 7.400L463.572 6.669L468.497 6.075L472.664 5.631L475.991 5.313L478.893 5.062L481.745 4.843L484.436 4.665L487.352 4.509L489.975 4.386L492.927 4.263L495.551 4.167L498.503 4.086L501.127 4.042L504.079 4.014L506.703 4.002L509.655 4L512.278 4.009L515.231 4.034L517.854 4.068L520.807 4.117L523.430 4.175L526.383 4.263L529.006 4.370L531.959 4.514L534.582 4.660L537.555 4.846L540.148 5.026L543.194 5.272L546.277 5.554L549.904 5.910L553.559 6.304L556.744 6.673L559.916 7.091L563.017 7.545L566.609 8.097L570.339 8.710L574.031 9.350L577.750 10.029L581.447 10.734L585.056 11.455L588.668 12.212L592.218 13.003L595.359 13.724L598.608 14.505L601.845 15.333L606.101 16.468L610.876 17.819L615.645 19.210L619.782 20.477L622.922 21.470L625.937 22.465L628.616 23.369L631.741 24.468L634.905 25.616L638.613 27.004L642.268 28.407L645.547 29.707L648.645 30.980L651.293 32.096L654.244 33.362L656.765 34.466L659.886 35.873L663.095 37.364L666.822 39.132L670.561 40.961L674.261 42.824L677.952 44.738L681.524 46.639L684.727 48.382L687.938 50.176L691.297 52.120L695.541 54.644L700.488 57.689L705.951 61.161L711.527 64.848L716.970 68.583L721.881 72.070L726.137 75.183L729.415 77.652L732.525 80.068L735.659 82.580L739.223 85.488L742.866 88.535L746.096 91.288L749.295 94.093L752.048 96.575L755.122 99.407L757.823 101.952L760.834 104.847L763.474 107.453L766.414 110.419L768.997 113.082L771.875 116.107L774.400 118.823L777.107 121.797L779.407 124.385L781.933 127.294L784.524 130.369L787.460 133.911L790.443 137.609L793.078 140.937L795.579 144.193L797.656 146.949L799.806 149.858L801.689 152.453L803.705 155.290L805.541 157.929L807.504 160.812L809.282 163.483L811.242 166.492L813.215 169.608L815.366 173.061L817.471 176.527L819.335 179.654L821.120 182.741L822.690 185.522L824.429 188.672L826.169 191.924L828.060 195.530L829.954 199.252L831.837 203.066L833.839 207.269L835.791 211.488L837.695 215.727L839.421 219.722L841.210 224.030L842.949 228.357L844.575 232.521L845.841 235.885L846.944 238.913L847.879 241.570L848.885 244.500L849.770 247.179L850.761 250.234L851.747 253.419L853.009 257.611L854.370 262.401L855.692 267.198L856.802 271.465L857.606 274.685L858.360 277.884L858.978 280.603L859.654 283.695L860.177 286.184L860.768 289.122L861.249 291.626L861.819 294.717L862.261 297.228L862.768 300.252L863.168 302.768L863.636 305.876L863.995 308.402L864.393 311.376L864.702 313.868L865.060 316.965L865.346 319.646L865.647 322.702L865.875 325.235L866.112 328.153L866.298 330.690L866.492 333.622L866.642 336.174L866.794 339.186L866.902 341.849L866.999 344.873L867.059 347.497L867.106 350.449L867.125 353.073L867.116 356.025L867.088 358.648L867.031 361.601L866.956 364.224L866.819 367.239L866.662 369.889L866.445 372.917L866.252 375.418L866.017 378.330L865.803 380.821L865.527 383.834L865.258 386.474L864.917 389.532L864.596 392.165L864.208 395.162L863.873 397.634L863.461 400.520L863.084 403.031L862.586 406.203L862.037 409.468L861.400 413.108L860.718 416.773L860.118 419.872L859.464 423.062L858.933 425.556L858.286 428.469L857.713 430.954L856.974 434.021L856.297 436.755L855.507 439.814L854.820 442.402L853.978 445.442L853.069 448.602L851.973 452.297L850.838 455.989L849.791 459.281L848.716 462.512L847.543 465.876L845.991 470.152L844.135 475.049L842.047 480.319L840.030 485.209L838.127 489.615L836.327 493.602L834.301 497.900L832.265 502.109L830.206 506.252L828.563 509.465L826.837 512.699L825.096 515.841L823.064 519.437L820.947 523.072L819.043 526.284L817.120 529.432L815.515 532.003L813.660 534.912L811.948 537.540L809.989 540.492L808.180 543.161L806.196 546.030L804.345 548.658L802.310 551.493L800.409 554.094L798.234 557.010L796.142 559.769L793.782 562.831L791.665 565.538L789.426 568.353L787.412 570.844L785.114 573.656L782.914 576.335L780.305 579.519L777.637 582.809L774.662 586.508L771.810 590.107L769.324 593.275L766.971 596.328L764.898 599.059L762.545 602.200L760.193 605.392L757.610 608.935L755.052 612.498L752.791 615.682L750.677 618.713L748.864 621.352L746.918 624.225L745.131 626.896L743.212 629.809L741.460 632.503L739.578 635.440L737.875 638.132L736 641.150L734.115 644.243L732.035 647.704L729.920 651.284L727.839 654.877L725.774 658.506L723.794 662.061L722.029 665.276L720.294 668.519L718.600 671.756L716.746 675.362L714.876 679.081L713.051 682.798L711.251 686.552L709.489 690.326L707.772 694.096L706.081 697.904L704.435 701.720L702.802 705.612L701.033 709.982L699.141 714.836L697.122 720.198L695.141 725.714L693.277 731.140L691.683 735.974L690.367 740.131L689.396 743.320L688.478 746.474L687.700 749.226L686.833 752.400L686.014 755.506L685.120 758.961L684.244 762.437L683.482 765.504L682.723 768.729L682.008 771.959L681.244 775.566L680.520 779.226L679.951 782.256L679.395 785.573L678.906 788.953L678.470 792.098L678.090 795.128" stroke="black" stroke-width="45" fill="none" stroke-linecap="round" stroke-linejoin="round"></path><path id="path-connection-1" d="M368.854 807.593L347.185 807.595" stroke="black" stroke-width="45" fill="none" stroke-linecap="round" stroke-linejoin="round"></path><path id="path-connection-2" d="M347.110 823.230L347.185 807.595" stroke="black" stroke-width="45" fill="none" stroke-linecap="round" stroke-linejoin="round"></path><path id="path-connection-3" d="M344.160 786.791L347.185 807.595" stroke="black" stroke-width="45" fill="none" stroke-linecap="round" stroke-linejoin="round"></path><path id="path-connection-4" d="M651.106 807.567L676.331 807.564" stroke="black" stroke-width="45" fill="none" stroke-linecap="round" stroke-linejoin="round"></path><path id="path-connection-5" d="M675.802 828.536L676.331 807.564" stroke="black" stroke-width="45" fill="none" stroke-linecap="round" stroke-linejoin="round"></path><path id="path-connection-6" d="M678.090 795.128L676.331 807.564" stroke="black" stroke-width="45" fill="none" stroke-linecap="round" stroke-linejoin="round"></path></g><g id="skeleton-paths" stroke-width="45.0"><path id="path-0-0" d="M278.788 315.506L279.201 312.196L279.831 308.277L280.822 302.747L282.051 297.199L283.440 291.685L285.009 286.194L286.735 280.691L288.657 275.179L290.717 269.720L292.976 264.265L295.371 258.862L298.013 253.348L300.823 247.851L303.903 242.244L307.202 236.617L310.739 230.977L314.445 225.426L318.380 219.900L322.613 214.342L327.272 208.599L332.306 202.800L337.643 197.024L343.177 191.426L348.768 186.117L354.446 181.075L360.038 176.417L365.702 171.991L371.253 167.919L376.847 164.070L382.339 160.528L387.875 157.187L393.408 154.055L399.025 151.082L404.611 148.337L408.565 146.475L411.869 145.027" stroke="black" stroke-width="45" fill="none" stroke-linecap="round" stroke-linejoin="round"></path></g></svg>