<svg xmlns="http://www.w3.org/2000/svg" width="1024" height="1024" viewBox="0 0 1024 1024" class="colorable-icon" overflow="visible"><g id="main-icon-clipped" stroke="#000000" stroke-width="45" fill="none" stroke-linecap="round" stroke-linejoin="round"><path d="M 384.91,98.40 L 385.09,96.40 385.29,93.71 385.52,90.30 385.71,86.81 385.86,83.95 386.01,81.03 386.13,78.57 386.26,75.82 386.40,73.41 386.59,70.65 386.79,68.25 387.09,65.51 387.41,63.21 387.87,60.51 388.35,58.22 388.97,55.48 389.73,52.67 390.87,48.90 392.15,45.07 393.68,41.06 395.26,37.60 397.37,33.70 399.74,29.89 402.47,26.03 404.94,23.00 407.63,20.23 410.12,17.97 412.92,15.65 415.39,13.80 418.10,11.96 420.94,10.27 424.08,8.54 427.33,6.94 430.13,5.67 433.00,4.56 435.46,3.72 438.23,2.90 440.58,2.26 443.33,1.64 446.09,1.13 449.27,0.66 452.44,0.32 455.29,0.10 458.09,0.01 460.51,0.00 463.24,0.07 465.63,0.20 468.38,0.42 470.74,0.66 473.55,1.03 475.88,1.39 478.68,1.90 481.51,2.55 485.23,3.53 489.11,4.70 493.10,6.06 496.88,7.60 500.88,9.50 504.89,11.63 508.72,13.93 511.86,16.05 514.82,18.42 517.35,20.71 519.97,23.37 522.09,25.79 524.23,28.47 525.94,30.86 527.75,33.63 529.33,36.47 531.05,39.86 532.58,43.42 533.98,47.09 535.13,50.64 536.11,54.11 536.84,56.97 537.47,59.88 537.90,62.19 538.35,65.00 538.67,67.33 539.00,70.14 539.21,72.47 539.39,75.18 539.46,77.53 539.47,80.26 539.41,82.67 539.32,85.46 539.23,87.92 539.16,90.69 539.10,93.09 539.03,96.07 538.96,98.90 538.87,102.65 538.82,105.05 538.79,107.90 M 539.79,421.31 L 539.80,418.21 539.80,414.53 539.80,409.40 539.80,404.26 539.80,399.12 539.80,393.98 539.81,388.85 539.81,383.71 539.81,378.57 539.81,373.43 539.81,368.30 539.82,363.16 539.82,358.02 539.82,352.88 539.82,347.75 539.82,342.61 539.82,337.47 539.83,332.34 539.83,327.20 539.83,322.06 539.83,316.92 539.83,311.79 539.84,306.65 539.84,301.51 539.84,296.38 539.84,291.24 539.84,286.10 539.84,280.96 539.85,275.83 539.85,270.69 539.85,265.55 539.85,260.41 539.85,255.28 539.86,250.14 539.86,245.00 539.86,239.86 539.86,234.73 539.86,229.59 539.86,224.45 539.87,219.32 539.87,214.18 539.87,209.04 539.87,203.90 539.87,198.77 539.88,193.63 539.88,188.49 539.88,183.35 539.90,178.22 539.95,173.08 540.07,167.97 540.26,162.85 540.57,157.74 540.99,152.59 541.54,147.45 542.06,142.34 542.48,138.67 542.75,135.62 M 564.15,102.75 L 566.39,99.51 569.29,95.68 573.43,90.66 578.03,85.88 582.86,81.65 587.95,77.86 592.94,74.78 597.87,72.27 602.75,70.29 607.71,68.74 612.74,67.57 617.82,66.78 622.87,66.37 627.96,66.32 633.01,66.67 638.11,67.40 643.13,68.53 648.15,70.09 653.30,72.23 658.57,75.01 663.88,78.48 668.91,82.53 673.54,87.10 677.63,92.06 681.14,97.22 684.00,102.42 686.30,107.70 688.07,112.93 689.44,118.19 690.45,123.34 691.25,128.52 691.89,133.66 692.35,138.84 692.62,143.97 692.71,149.11 692.71,154.26 692.68,159.40 692.66,164.58 692.64,169.64 692.62,174.87 692.60,180.33 692.59,184.53 692.58,188.28 M 692.49,431.89 L 692.44,430.52 692.41,428.58 692.38,426.17 692.38,423.45 692.39,421.03 692.39,418.31 692.39,415.89 692.39,413.17 692.40,410.76 692.40,408.03 692.40,405.62 692.40,402.90 692.40,400.48 692.41,397.76 692.41,395.34 692.41,392.62 692.41,390.21 692.41,387.49 692.41,385.07 692.42,382.35 692.42,379.93 692.42,377.21 692.42,374.79 692.42,372.07 692.43,369.66 692.43,366.94 692.43,364.52 692.43,361.80 692.43,359.38 692.43,356.66 692.44,354.25 692.44,351.53 692.44,349.11 692.44,346.39 692.44,343.97 692.45,341.25 692.45,338.83 692.45,336.11 692.45,333.70 692.45,330.98 692.45,328.56 692.46,325.84 692.46,323.42 692.46,320.70 692.46,318.28 692.46,315.56 692.47,313.15 692.47,310.43 692.47,308.01 692.47,305.29 692.47,302.87 692.47,300.15 692.48,297.73 692.48,295.01 692.48,292.60 692.48,289.88 692.48,287.46 692.49,284.74 692.49,282.32 692.49,279.60 692.49,277.19 692.49,274.47 692.49,272.05 692.50,269.33 692.50,266.91 692.50,264.19 692.52,261.77 692.56,259.05 692.61,256.64 692.69,253.92 692.78,251.50 692.91,248.68 693.03,245.84 693.18,242.57 693.36,239.27 693.60,236.27 693.93,233.27 694.29,230.31 694.70,227.00 695.08,223.57 695.34,221.31 695.49,219.27 M 203.55,518.14 L 201.70,516.49 199.90,514.83 197.08,512.20 194.63,509.83 191.89,507.13 189.47,504.71 186.75,501.99 184.34,499.57 181.61,496.85 179.19,494.44 176.46,491.73 174.03,489.32 171.30,486.61 168.88,484.21 166.15,481.50 163.72,479.09 160.99,476.38 158.56,473.97 155.83,471.26 153.41,468.85 150.68,466.14 148.25,463.73 145.52,461.02 143.09,458.61 140.36,455.90 137.94,453.50 135.21,450.79 132.78,448.38 130.05,445.67 127.63,443.26 124.87,440.57 122.41,438.21 119.51,435.56 116.48,432.96 112.66,429.89 108.73,426.91 104.84,424.14 101.70,422.07 98.70,420.32 95.64,418.79 91.87,417.18 88.05,415.79 84.35,414.74 81.47,414.15 78.66,413.82 76.25,413.69 73.50,413.63 71.08,413.63 68.36,413.62 65.95,413.61 63.17,413.64 60.75,413.71 58.08,413.94 55.89,414.21 53.23,414.75 50.41,415.50 47.07,416.64 43.83,417.95 40.98,419.27 38.19,420.73 35.69,422.19 32.98,423.94 30.60,425.65 28.03,427.69 25.69,429.77 23.10,432.31 20.82,434.77 18.46,437.53 16.53,439.99 14.53,442.76 12.90,445.21 11.18,448.01 9.88,450.25 8.49,452.87 7.41,455.09 6.14,457.95 5.01,460.86 3.85,464.09 2.87,467.32 2.04,470.52 1.32,473.86 0.74,477.14 0.33,479.97 0.09,482.73 0.00,485.09 0.06,487.81 0.24,490.16 0.59,492.85 1.13,495.66 2.01,499.29 3.10,503.15 4.40,507.12 5.79,510.81 7.24,514.24 8.84,517.66 10.46,520.83 12.34,524.26 14.36,527.66 16.57,531.17 18.90,534.59 21.17,537.78 23.20,540.56 25.26,543.31 27.48,546.24 30.04,549.61 32.62,552.99 34.84,555.90 36.98,558.70 38.90,561.22 41.07,564.06 43.02,566.60 45.06,569.27 46.85,571.61 48.85,574.24 50.77,576.74 52.92,579.56 54.86,582.09 57.02,584.92 59.28,587.87 61.86,591.24 64.45,594.62 66.69,597.54 68.91,600.42 71.18,603.35 73.77,606.71 76.38,610.09 78.64,613.01 80.74,615.72 82.53,618.05 84.56,620.67 86.49,623.17 88.67,625.99 90.62,628.52 92.67,631.16 94.47,633.50 96.50,636.12 98.43,638.62 100.61,641.44 102.56,643.97 104.61,646.61 106.42,648.96 108.50,651.65 110.77,654.58 113.36,657.93 115.96,661.30 118.21,664.22 120.43,667.09 122.70,670.02 125.29,673.38 127.89,676.75 130.15,679.67 132.37,682.54 134.64,685.47 137.23,688.83 139.83,692.20 142.09,695.11 144.31,697.99 146.58,700.92 149.17,704.28 151.78,707.66 154.04,710.58 156.14,713.29 157.94,715.62 159.96,718.24 161.89,720.73 164.07,723.55 166.02,726.08 168.07,728.73 169.87,731.07 171.90,733.69 173.83,736.18 176.01,739.00 177.97,741.53 180.03,744.17 181.85,746.49 183.90,749.08 185.87,751.55 188.09,754.32 190.10,756.80 192.35,759.55 194.72,762.40 197.43,765.64 200.25,768.96 202.77,771.90 205.33,774.85 207.59,777.41 210.21,780.35 212.86,783.28 215.83,786.51 218.83,789.70 221.51,792.53 224.23,795.33 226.62,797.75 229.34,800.46 231.76,802.83 234.41,805.38 236.71,807.55 239.25,809.91 241.60,812.05 244.43,814.57 247.38,817.14 250.71,819.98 253.95,822.72 256.78,825.10 259.52,827.35 261.98,829.37 264.76,831.59 267.25,833.56 270.03,835.73 272.87,837.89 276.10,840.31 279.36,842.72 282.36,844.89 285.43,847.06 288.04,848.89 290.84,850.81 293.13,852.36 295.77,854.12 298.18,855.69 300.99,857.49 304.01,859.39 307.80,861.72 311.70,864.08 315.50,866.32 318.45,868.04 321.32,869.68 323.85,871.09 326.75,872.68 329.21,874.00 331.90,875.42 334.14,876.59 336.77,877.94 339.14,879.13 341.91,880.50 344.81,881.89 348.11,883.46 351.60,885.07 355.17,886.68 359.09,888.39 363.03,890.07 366.99,891.72 370.59,893.16 373.98,894.49 377.18,895.70 379.94,896.73 382.70,897.74 385.15,898.62 388.02,899.61 391.15,900.66 395.16,901.97 399.78,903.41 404.73,904.91 409.20,906.21 413.15,907.31 416.54,908.21 419.91,909.07 423.20,909.89 426.11,910.59 429.07,911.27 431.63,911.85 434.59,912.48 437.49,913.07 440.70,913.71 444.04,914.34 447.37,914.94 450.79,915.53 454.11,916.07 456.97,916.52 459.79,916.93 462.19,917.26 465.00,917.63 467.45,917.95 470.24,918.28 472.54,918.55 475.22,918.84 477.51,919.08 480.35,919.36 482.82,919.59 485.68,919.86 487.99,920.06 490.67,920.30 492.96,920.49 495.72,920.72 498.14,920.91 500.90,921.10 503.32,921.24 506.04,921.37 508.46,921.46 511.18,921.54 M 828.54,538.18 L 828.54,535.76 828.54,533.04 828.54,530.63 828.54,527.91 828.54,525.49 828.55,522.77 828.55,520.35 828.55,517.63 828.55,515.21 828.55,512.49 828.55,510.08 828.55,507.36 828.55,504.94 828.55,502.22 828.56,499.80 828.56,497.08 828.56,494.66 828.56,491.94 828.56,489.53 828.56,486.81 828.56,484.39 828.56,481.67 828.56,479.25 828.57,476.53 828.57,474.12 828.57,471.39 828.57,468.98 828.57,466.26 828.57,463.84 828.57,461.12 828.57,458.70 828.57,455.98 828.58,453.57 828.58,450.85 828.58,448.43 828.58,445.71 828.58,443.29 828.58,440.57 828.58,438.15 828.58,435.43 828.58,433.02 828.59,430.30 828.59,427.88 828.59,425.16 828.59,422.74 828.59,420.02 828.59,417.61 828.59,414.89 828.59,412.47 828.60,409.75 828.60,407.33 828.60,404.61 828.60,402.19 828.60,399.47 828.60,397.06 828.60,394.34 828.60,391.92 828.60,389.20 828.61,386.78 828.61,384.06 828.61,381.64 828.61,378.92 828.61,376.51 828.61,373.79 828.61,371.37 828.61,368.65 828.61,366.23 828.62,363.51 828.62,361.09 828.62,358.37 828.62,355.96 828.62,353.24 828.62,350.82 828.62,348.10 828.62,345.68 828.62,342.96 828.63,340.55 828.63,337.83 828.63,335.41 828.63,332.69 828.63,330.27 828.63,327.55 828.63,325.13 828.63,322.41 828.63,320.00 828.64,317.28 828.64,314.86 828.64,312.14 828.64,309.72 828.64,307.00 828.64,304.59 828.64,301.86 828.64,299.45 828.65,296.73 828.65,294.31 828.65,291.59 828.65,289.17 828.65,286.45 828.65,284.04 828.65,281.32 828.65,278.90 828.65,276.18 828.66,273.76 828.66,271.04 828.66,268.62 828.66,265.90 828.66,263.49 828.66,260.77 828.66,258.35 828.66,255.63 828.66,253.21 828.67,250.49 828.67,248.07 828.67,245.35 828.67,242.94 828.66,240.22 828.64,237.80 828.58,235.01 828.47,232.55 828.25,229.74 827.99,227.43 827.55,224.76 827.07,222.44 826.39,219.67 825.68,217.17 824.74,214.31 823.83,211.82 822.68,209.03 821.62,206.70 820.17,203.87 818.44,200.98 816.26,197.62 813.85,194.36 811.58,191.57 809.28,189.08 807.18,187.02 804.70,184.84 802.24,182.87 799.29,180.77 796.27,178.89 792.94,177.00 789.63,175.40 786.72,174.12 783.93,173.10 781.60,172.34 778.82,171.60 775.87,170.99 772.53,170.44 769.21,170.09 766.40,169.90 763.58,169.85 761.22,169.87 758.42,169.98 755.62,170.26 752.39,170.71 749.13,171.36 746.30,172.05 743.51,172.89 741.20,173.72 738.54,174.79 736.09,175.93 733.22,177.44 730.34,179.22 727.32,181.28 724.40,183.57 721.87,185.77 719.99,187.54 718.69,188.86 M 229.47,507.73 L 229.37,504.29 229.29,500.40 229.22,495.06 229.18,489.88 229.15,484.74 229.11,479.57 229.05,474.34 228.97,469.12 228.86,463.94 228.74,458.90 228.62,453.85 228.49,448.78 228.36,443.64 228.24,438.51 228.12,433.37 228.01,428.23 227.92,423.10 227.84,417.96 227.79,412.82 227.75,407.68 227.74,402.55 227.75,397.41 227.76,392.27 227.76,387.13 227.77,382.00 227.77,376.86 227.77,371.72 227.77,366.58 227.76,361.45 227.76,356.31 227.76,351.17 227.76,346.04 227.76,340.90 227.76,335.76 227.76,330.62 227.76,325.49 227.76,320.35 227.76,315.21 227.76,310.07 227.76,304.94 227.76,299.80 227.76,294.66 227.76,289.53 227.76,284.39 227.76,279.25 227.76,274.11 227.76,268.98 227.76,263.84 227.76,258.70 227.76,253.56 227.76,248.43 227.76,243.29 227.76,238.15 227.76,233.02 227.76,227.88 227.76,222.74 227.76,217.60 227.76,212.47 227.76,207.33 227.76,202.19 227.76,197.05 227.76,191.92 227.76,186.78 227.76,181.64 227.76,176.51 227.76,171.37 227.76,166.23 227.76,161.09 227.75,155.96 227.79,150.82 227.89,145.74 228.14,140.67 228.55,135.67 229.16,130.58 229.95,125.51 230.93,120.48 232.18,115.52 233.82,110.57 236.02,105.45 238.91,100.20 242.33,95.14 246.37,90.35 250.62,86.25 255.40,82.51 260.31,79.40 265.50,76.66 270.63,74.50 275.69,72.89 280.70,71.79 285.72,71.14 290.69,70.79 295.73,70.69 300.73,70.80 305.86,71.15 310.99,71.82 316.14,72.89 321.29,74.48 326.39,76.49 331.62,79.02 336.77,81.97 342.00,85.44 347.00,89.35 350.53,92.33 353.44,95.07 M 379.10,140.22 L 379.52,143.38 379.93,147.10 380.47,152.35 380.89,157.58 381.25,162.78 381.55,167.89 381.77,172.99 381.91,178.06 381.97,183.24 381.98,188.42 381.98,193.62 381.97,198.77 381.97,203.90 381.97,209.04 381.96,214.18 381.96,219.32 381.96,224.45 381.95,229.59 381.95,234.73 381.94,239.86 381.94,245.00 381.94,250.14 381.93,255.28 381.93,260.41 381.93,265.55 381.92,270.69 381.92,275.83 381.91,280.96 381.91,286.10 381.91,291.24 381.90,296.39 381.90,301.58 381.90,306.75 381.89,311.93 381.89,317.01 381.88,322.11 381.88,327.20 381.88,332.34 381.87,337.47 381.87,342.61 381.86,347.75 381.86,352.88 381.86,358.02 381.85,363.16 381.85,368.30 381.85,373.43 381.84,378.57 381.84,383.71 381.83,388.85 381.83,393.98 381.83,399.12 381.82,404.26 381.82,409.40 381.82,414.53 381.81,419.67 381.80,423.34 381.79,426.45 M 384.91,98.40 L 382.73,122.68 M 538.79,107.90 L 538.45,140.11 M 542.75,135.62 L 542.93,133.59 M 564.15,102.75 L 542.93,133.59 M 203.55,518.14 L 230.41,542.12 M 718.69,188.86 L 694.89,212.89 M 229.47,507.73 L 230.41,542.12 M 353.44,95.07 L 375.94,116.27 M 379.10,140.22 L 375.94,116.27 M 692.58,188.28 L 695.49,219.27 M 542.93,133.59 L 542.93,133.59 M 230.41,542.12 L 230.41,542.12 M 375.94,116.27 L 375.94,116.27 M 384.91,98.40 L 385.09,96.40 385.29,93.71 385.52,90.30 385.71,86.81 385.86,83.95 386.01,81.03 386.13,78.57 386.26,75.82 386.40,73.41 386.59,70.65 386.79,68.25 387.09,65.51 387.41,63.21 387.87,60.51 388.35,58.22 388.97,55.48 389.73,52.67 390.87,48.90 392.15,45.07 393.68,41.06 395.26,37.60 397.37,33.70 399.74,29.89 402.47,26.03 404.94,23.00 407.63,20.23 410.12,17.97 412.92,15.65 415.39,13.80 418.10,11.96 420.94,10.27 424.08,8.54 427.33,6.94 430.13,5.67 433.00,4.56 435.46,3.72 438.23,2.90 440.58,2.26 443.33,1.64 446.09,1.13 449.27,0.66 452.44,0.32 455.29,0.10 458.09,0.01 460.51,0.00 463.24,0.07 465.63,0.20 468.38,0.42 470.74,0.66 473.55,1.03 475.88,1.39 478.68,1.90 481.51,2.55 485.23,3.53 489.11,4.70 493.10,6.06 496.88,7.60 500.88,9.50 504.89,11.63 508.72,13.93 511.86,16.05 514.82,18.42 517.35,20.71 519.97,23.37 522.09,25.79 524.23,28.47 525.94,30.86 527.75,33.63 529.33,36.47 531.05,39.86 532.58,43.42 533.98,47.09 535.13,50.64 536.11,54.11 536.84,56.97 537.47,59.88 537.90,62.19 538.35,65.00 538.67,67.33 539.00,70.14 539.21,72.47 539.39,75.18 539.46,77.53 539.47,80.26 539.41,82.67 539.32,85.46 539.23,87.92 539.16,90.69 539.10,93.09 539.03,96.07 538.96,98.90 538.87,102.65 538.82,105.05 538.79,107.90 M 539.79,421.31 L 539.80,418.21 539.80,414.53 539.80,409.40 539.80,404.26 539.80,399.12 539.80,393.98 539.81,388.85 539.81,383.71 539.81,378.57 539.81,373.43 539.81,368.30 539.82,363.16 539.82,358.02 539.82,352.88 539.82,347.75 539.82,342.61 539.82,337.47 539.83,332.34 539.83,327.20 539.83,322.06 539.83,316.92 539.83,311.79 539.84,306.65 539.84,301.51 539.84,296.38 539.84,291.24 539.84,286.10 539.84,280.96 539.85,275.83 539.85,270.69 539.85,265.55 539.85,260.41 539.85,255.28 539.86,250.14 539.86,245.00 539.86,239.86 539.86,234.73 539.86,229.59 539.86,224.45 539.87,219.32 539.87,214.18 539.87,209.04 539.87,203.90 539.87,198.77 539.88,193.63 539.88,188.49 539.88,183.35 539.90,178.22 539.95,173.08 540.07,167.97 540.26,162.85 540.57,157.74 540.99,152.59 541.54,147.45 542.06,142.34 542.48,138.67 542.75,135.62 M 564.15,102.75 L 566.39,99.51 569.29,95.68 573.43,90.66 578.03,85.88 582.86,81.65 587.95,77.86 592.94,74.78 597.87,72.27 602.75,70.29 607.71,68.74 612.74,67.57 617.82,66.78 622.87,66.37 627.96,66.32 633.01,66.67 638.11,67.40 643.13,68.53 648.15,70.09 653.30,72.23 658.57,75.01 663.88,78.48 668.91,82.53 673.54,87.10 677.63,92.06 681.14,97.22 684.00,102.42 686.30,107.70 688.07,112.93 689.44,118.19 690.45,123.34 691.25,128.52 691.89,133.66 692.35,138.84 692.62,143.97 692.71,149.11 692.71,154.26 692.68,159.40 692.66,164.58 692.64,169.64 692.62,174.87 692.60,180.33 692.59,184.53 692.58,188.28 M 692.49,431.89 L 692.44,430.52 692.41,428.58 692.38,426.17 692.38,423.45 692.39,421.03 692.39,418.31 692.39,415.89 692.39,413.17 692.40,410.76 692.40,408.03 692.40,405.62 692.40,402.90 692.40,400.48 692.41,397.76 692.41,395.34 692.41,392.62 692.41,390.21 692.41,387.49 692.41,385.07 692.42,382.35 692.42,379.93 692.42,377.21 692.42,374.79 692.42,372.07 692.43,369.66 692.43,366.94 692.43,364.52 692.43,361.80 692.43,359.38 692.43,356.66 692.44,354.25 692.44,351.53 692.44,349.11 692.44,346.39 692.44,343.97 692.45,341.25 692.45,338.83 692.45,336.11 692.45,333.70 692.45,330.98 692.45,328.56 692.46,325.84 692.46,323.42 692.46,320.70 692.46,318.28 692.46,315.56 692.47,313.15 692.47,310.43 692.47,308.01 692.47,305.29 692.47,302.87 692.47,300.15 692.48,297.73 692.48,295.01 692.48,292.60 692.48,289.88 692.48,287.46 692.49,284.74 692.49,282.32 692.49,279.60 692.49,277.19 692.49,274.47 692.49,272.05 692.50,269.33 692.50,266.91 692.50,264.19 692.52,261.77 692.56,259.05 692.61,256.64 692.69,253.92 692.78,251.50 692.91,248.68 693.03,245.84 693.18,242.57 693.36,239.27 693.60,236.27 693.93,233.27 694.29,230.31 694.70,227.00 695.08,223.57 695.34,221.31 695.49,219.27 M 203.55,518.14 L 201.70,516.49 199.90,514.83 197.08,512.20 194.63,509.83 191.89,507.13 189.47,504.71 186.75,501.99 184.34,499.57 181.61,496.85 179.19,494.44 176.46,491.73 174.03,489.32 171.30,486.61 168.88,484.21 166.15,481.50 163.72,479.09 160.99,476.38 158.56,473.97 155.83,471.26 153.41,468.85 150.68,466.14 148.25,463.73 145.52,461.02 143.09,458.61 140.36,455.90 137.94,453.50 135.21,450.79 132.78,448.38 130.05,445.67 127.63,443.26 124.87,440.57 122.41,438.21 119.51,435.56 116.48,432.96 112.66,429.89 108.73,426.91 104.84,424.14 101.70,422.07 98.70,420.32 95.64,418.79 91.87,417.18 88.05,415.79 84.35,414.74 81.47,414.15 78.66,413.82 76.25,413.69 73.50,413.63 71.08,413.63 68.36,413.62 65.95,413.61 63.17,413.64 60.75,413.71 58.08,413.94 55.89,414.21 53.23,414.75 50.41,415.50 47.07,416.64 43.83,417.95 40.98,419.27 38.19,420.73 35.69,422.19 32.98,423.94 30.60,425.65 28.03,427.69 25.69,429.77 23.10,432.31 20.82,434.77 18.46,437.53 16.53,439.99 14.53,442.76 12.90,445.21 11.18,448.01 9.88,450.25 8.49,452.87 7.41,455.09 6.14,457.95 5.01,460.86 3.85,464.09 2.87,467.32 2.04,470.52 1.32,473.86 0.74,477.14 0.33,479.97 0.09,482.73 0.00,485.09 0.06,487.81 0.24,490.16 0.59,492.85 1.13,495.66 2.01,499.29 3.10,503.15 4.40,507.12 5.79,510.81 7.24,514.24 8.84,517.66 10.46,520.83 12.34,524.26 14.36,527.66 16.57,531.17 18.90,534.59 21.17,537.78 23.20,540.56 25.26,543.31 27.48,546.24 30.04,549.61 32.62,552.99 34.84,555.90 36.98,558.70 38.90,561.22 41.07,564.06 43.02,566.60 45.06,569.27 46.85,571.61 48.85,574.24 50.77,576.74 52.92,579.56 54.86,582.09 57.02,584.92 59.28,587.87 61.86,591.24 64.45,594.62 66.69,597.54 68.91,600.42 71.18,603.35 73.77,606.71 76.38,610.09 78.64,613.01 80.74,615.72 82.53,618.05 84.56,620.67 86.49,623.17 88.67,625.99 90.62,628.52 92.67,631.16 94.47,633.50 96.50,636.12 98.43,638.62 100.61,641.44 102.56,643.97 104.61,646.61 106.42,648.96 108.50,651.65 110.77,654.58 113.36,657.93 115.96,661.30 118.21,664.22 120.43,667.09 122.70,670.02 125.29,673.38 127.89,676.75 130.15,679.67 132.37,682.54 134.64,685.47 137.23,688.83 139.83,692.20 142.09,695.11 144.31,697.99 146.58,700.92 149.17,704.28 151.78,707.66 154.04,710.58 156.14,713.29 157.94,715.62 159.96,718.24 161.89,720.73 164.07,723.55 166.02,726.08 168.07,728.73 169.87,731.07 171.90,733.69 173.83,736.18 176.01,739.00 177.97,741.53 180.03,744.17 181.85,746.49 183.90,749.08 185.87,751.55 188.09,754.32 190.10,756.80 192.35,759.55 194.72,762.40 197.43,765.64 200.25,768.96 202.77,771.90 205.33,774.85 207.59,777.41 210.21,780.35 212.86,783.28 215.83,786.51 218.83,789.70 221.51,792.53 224.23,795.33 226.62,797.75 229.34,800.46 231.76,802.83 234.41,805.38 236.71,807.55 239.25,809.91 241.60,812.05 244.43,814.57 247.38,817.14 250.71,819.98 253.95,822.72 256.78,825.10 259.52,827.35 261.98,829.37 264.76,831.59 267.25,833.56 270.03,835.73 272.87,837.89 276.10,840.31 279.36,842.72 282.36,844.89 285.43,847.06 288.04,848.89 290.84,850.81 293.13,852.36 295.77,854.12 298.18,855.69 300.99,857.49 304.01,859.39 307.80,861.72 311.70,864.08 315.50,866.32 318.45,868.04 321.32,869.68 323.85,871.09 326.75,872.68 329.21,874.00 331.90,875.42 334.14,876.59 336.77,877.94 339.14,879.13 341.91,880.50 344.81,881.89 348.11,883.46 351.60,885.07 355.17,886.68 359.09,888.39 363.03,890.07 366.99,891.72 370.59,893.16 373.98,894.49 377.18,895.70 379.94,896.73 382.70,897.74 385.15,898.62 388.02,899.61 391.15,900.66 395.16,901.97 399.78,903.41 404.73,904.91 409.20,906.21 413.15,907.31 416.54,908.21 419.91,909.07 423.20,909.89 426.11,910.59 429.07,911.27 431.63,911.85 434.59,912.48 437.49,913.07 440.70,913.71 444.04,914.34 447.37,914.94 450.79,915.53 454.11,916.07 456.97,916.52 459.79,916.93 462.19,917.26 465.00,917.63 467.45,917.95 470.24,918.28 472.54,918.55 475.22,918.84 477.51,919.08 480.35,919.36 482.82,919.59 485.68,919.86 487.99,920.06 490.67,920.30 492.96,920.49 495.72,920.72 498.14,920.91 500.90,921.10 503.32,921.24 506.04,921.37 508.46,921.46 511.18,921.54 M 828.54,538.18 L 828.54,535.76 828.54,533.04 828.54,530.63 828.54,527.91 828.54,525.49 828.55,522.77 828.55,520.35 828.55,517.63 828.55,515.21 828.55,512.49 828.55,510.08 828.55,507.36 828.55,504.94 828.55,502.22 828.56,499.80 828.56,497.08 828.56,494.66 828.56,491.94 828.56,489.53 828.56,486.81 828.56,484.39 828.56,481.67 828.56,479.25 828.57,476.53 828.57,474.12 828.57,471.39 828.57,468.98 828.57,466.26 828.57,463.84 828.57,461.12 828.57,458.70 828.57,455.98 828.58,453.57 828.58,450.85 828.58,448.43 828.58,445.71 828.58,443.29 828.58,440.57 828.58,438.15 828.58,435.43 828.58,433.02 828.59,430.30 828.59,427.88 828.59,425.16 828.59,422.74 828.59,420.02 828.59,417.61 828.59,414.89 828.59,412.47 828.60,409.75 828.60,407.33 828.60,404.61 828.60,402.19 828.60,399.47 828.60,397.06 828.60,394.34 828.60,391.92 828.60,389.20 828.61,386.78 828.61,384.06 828.61,381.64 828.61,378.92 828.61,376.51 828.61,373.79 828.61,371.37 828.61,368.65 828.61,366.23 828.62,363.51 828.62,361.09 828.62,358.37 828.62,355.96 828.62,353.24 828.62,350.82 828.62,348.10 828.62,345.68 828.62,342.96 828.63,340.55 828.63,337.83 828.63,335.41 828.63,332.69 828.63,330.27 828.63,327.55 828.63,325.13 828.63,322.41 828.63,320.00 828.64,317.28 828.64,314.86 828.64,312.14 828.64,309.72 828.64,307.00 828.64,304.59 828.64,301.86 828.64,299.45 828.65,296.73 828.65,294.31 828.65,291.59 828.65,289.17 828.65,286.45 828.65,284.04 828.65,281.32 828.65,278.90 828.65,276.18 828.66,273.76 828.66,271.04 828.66,268.62 828.66,265.90 828.66,263.49 828.66,260.77 828.66,258.35 828.66,255.63 828.66,253.21 828.67,250.49 828.67,248.07 828.67,245.35 828.67,242.94 828.66,240.22 828.64,237.80 828.58,235.01 828.47,232.55 828.25,229.74 827.99,227.43 827.55,224.76 827.07,222.44 826.39,219.67 825.68,217.17 824.74,214.31 823.83,211.82 822.68,209.03 821.62,206.70 820.17,203.87 818.44,200.98 816.26,197.62 813.85,194.36 811.58,191.57 809.28,189.08 807.18,187.02 804.70,184.84 802.24,182.87 799.29,180.77 796.27,178.89 792.94,177.00 789.63,175.40 786.72,174.12 783.93,173.10 781.60,172.34 778.82,171.60 775.87,170.99 772.53,170.44 769.21,170.09 766.40,169.90 763.58,169.85 761.22,169.87 758.42,169.98 755.62,170.26 752.39,170.71 749.13,171.36 746.30,172.05 743.51,172.89 741.20,173.72 738.54,174.79 736.09,175.93 733.22,177.44 730.34,179.22 727.32,181.28 724.40,183.57 721.87,185.77 719.99,187.54 718.69,188.86 M 229.47,507.73 L 229.37,504.29 229.29,500.40 229.22,495.06 229.18,489.88 229.15,484.74 229.11,479.57 229.05,474.34 228.97,469.12 228.86,463.94 228.74,458.90 228.62,453.85 228.49,448.78 228.36,443.64 228.24,438.51 228.12,433.37 228.01,428.23 227.92,423.10 227.84,417.96 227.79,412.82 227.75,407.68 227.74,402.55 227.75,397.41 227.76,392.27 227.76,387.13 227.77,382.00 227.77,376.86 227.77,371.72 227.77,366.58 227.76,361.45 227.76,356.31 227.76,351.17 227.76,346.04 227.76,340.90 227.76,335.76 227.76,330.62 227.76,325.49 227.76,320.35 227.76,315.21 227.76,310.07 227.76,304.94 227.76,299.80 227.76,294.66 227.76,289.53 227.76,284.39 227.76,279.25 227.76,274.11 227.76,268.98 227.76,263.84 227.76,258.70 227.76,253.56 227.76,248.43 227.76,243.29 227.76,238.15 227.76,233.02 227.76,227.88 227.76,222.74 227.76,217.60 227.76,212.47 227.76,207.33 227.76,202.19 227.76,197.05 227.76,191.92 227.76,186.78 227.76,181.64 227.76,176.51 227.76,171.37 227.76,166.23 227.76,161.09 227.75,155.96 227.79,150.82 227.89,145.74 228.14,140.67 228.55,135.67 229.16,130.58 229.95,125.51 230.93,120.48 232.18,115.52 233.82,110.57 236.02,105.45 238.91,100.20 242.33,95.14 246.37,90.35 250.62,86.25 255.40,82.51 260.31,79.40 265.50,76.66 270.63,74.50 275.69,72.89 280.70,71.79 285.72,71.14 290.69,70.79 295.73,70.69 300.73,70.80 305.86,71.15 310.99,71.82 316.14,72.89 321.29,74.48 326.39,76.49 331.62,79.02 336.77,81.97 342.00,85.44 347.00,89.35 350.53,92.33 353.44,95.07 M 379.10,140.22 L 379.52,143.38 379.93,147.10 380.47,152.35 380.89,157.58 381.25,162.78 381.55,167.89 381.77,172.99 381.91,178.06 381.97,183.24 381.98,188.42 381.98,193.62 381.97,198.77 381.97,203.90 381.97,209.04 381.96,214.18 381.96,219.32 381.96,224.45 381.95,229.59 381.95,234.73 381.94,239.86 381.94,245.00 381.94,250.14 381.93,255.28 381.93,260.41 381.93,265.55 381.92,270.69 381.92,275.83 381.91,280.96 381.91,286.10 381.91,291.24 381.90,296.39 381.90,301.58 381.90,306.75 381.89,311.93 381.89,317.01 381.88,322.11 381.88,327.20 381.88,332.34 381.87,337.47 381.87,342.61 381.86,347.75 381.86,352.88 381.86,358.02 381.85,363.16 381.85,368.30 381.85,373.43 381.84,378.57 381.84,383.71 381.83,388.85 381.83,393.98 381.83,399.12 381.82,404.26 381.82,409.40 381.82,414.53 381.81,419.67 381.80,423.34 381.79,426.45 M 384.91,98.40 L 382.73,122.68 M 538.79,107.90 L 538.45,140.11 M 542.75,135.62 L 542.93,133.59 M 564.15,102.75 L 542.93,133.59 M 203.55,518.14 L 230.41,542.12 M 718.69,188.86 L 694.89,212.89 M 229.47,507.73 L 230.41,542.12 M 353.44,95.07 L 375.94,116.27 M 379.10,140.22 L 375.94,116.27 M 692.58,188.28 L 695.49,219.27 M 542.93,133.59 L 542.93,133.59 M 230.41,542.12 L 230.41,542.12 M 375.94,116.27 L 375.94,116.27" stroke-width="45.0"></path></g><g id="state-icon" stroke="#000000" stroke-width="45" fill="none" stroke-linecap="round" stroke-linejoin="round"><path d="M 763.88,663.52 L 762.90,662.56 761.94,661.62 760.44,660.15 759.13,658.85 757.65,657.39 756.35,656.09 754.94,654.68 753.72,653.46 752.40,652.13 751.19,650.91 749.78,649.50 748.48,648.19 747.01,646.72 745.71,645.42 744.30,644.00 743.08,642.79 741.75,641.47 740.53,640.26 739.10,638.86 737.79,637.57 736.30,636.12 734.96,634.84 733.46,633.40 732.12,632.13 730.60,630.71 729.26,629.47 727.80,628.13 726.54,626.98 725.12,625.71 723.62,624.40 721.88,622.89 720.13,621.39 718.60,620.10 717.11,618.88 715.78,617.80 714.27,616.60 712.92,615.54 711.39,614.38 709.75,613.16 707.63,611.63 705.26,609.97 702.91,608.37 700.86,607.01 699.23,605.97 697.71,605.03 696.34,604.21 694.80,603.31 693.16,602.40 691.37,601.43 689.55,600.48 688.00,599.71 686.45,598.97 685.11,598.38 683.68,597.75 682.38,597.20 680.90,596.60 679.22,595.97 677.14,595.23 675.03,594.52 673.01,593.87 671.43,593.38 669.89,592.94 668.53,592.58 667.02,592.20 665.64,591.87 664.10,591.51 662.48,591.16 660.73,590.82 658.97,590.50 657.49,590.25 655.96,590.02 654.70,589.84 653.20,589.63 651.95,589.48 650.46,589.32 649.16,589.21 647.66,589.09 646.37,589.00 644.87,588.91 643.59,588.85 642.02,588.80 640.51,588.77 638.77,588.76 637.05,588.77 635.49,588.79 633.90,588.83 632.52,588.89 630.96,588.98 629.35,589.10 627.56,589.25 625.71,589.43 624.16,589.59 622.59,589.78 621.03,590.00 619.24,590.27 617.36,590.59 615.53,590.92 613.38,591.35 611.04,591.86 608.67,592.42 606.58,592.94 604.97,593.37 603.37,593.83 601.71,594.34 599.61,595.02 597.28,595.82 594.94,596.66 592.80,597.47 591.15,598.13 589.54,598.80 587.95,599.50 585.89,600.45 583.81,601.44 581.69,602.50 579.87,603.45 578.12,604.38 576.44,605.32 574.94,606.17 573.40,607.09 572.04,607.92 570.53,608.86 569.18,609.73 567.75,610.68 566.44,611.58 564.96,612.64 563.35,613.83 561.53,615.21 559.71,616.63 558.18,617.87 556.73,619.09 555.45,620.18 553.98,621.49 552.64,622.72 551.14,624.14 549.82,625.44 548.36,626.92 547.07,628.25 545.67,629.76 544.45,631.12 543.16,632.59 542.07,633.87 540.86,635.32 539.62,636.90 538.08,638.93 536.57,640.98 535.17,642.94 534.12,644.46 533.14,645.95 532.31,647.28 531.37,648.80 530.58,650.09 529.74,651.50 529.05,652.70 528.23,654.16 527.48,655.51 526.63,657.08 525.88,658.51 525.06,660.13 524.23,661.87 523.25,664.02 522.20,666.43 521.11,669.06 520.09,671.68 519.22,674.04 518.51,676.06 518.01,677.58 517.54,679.11 517.07,680.73 516.48,682.86 515.92,685.01 515.40,687.09 515.04,688.65 514.70,690.22 514.39,691.79 514.04,693.65 513.73,695.48 513.48,697.05 513.26,698.57 513.09,699.82 512.90,701.29 512.75,702.52 512.60,704.00 512.50,705.28 512.39,706.77 512.30,708.08 512.21,709.55 512.14,710.86 512.08,712.33 512.04,713.64 512.02,715.11 512.00,716.42 512.00,717.89 512.01,719.20 512.05,720.67 512.10,721.98 512.17,723.45 512.24,724.75 512.34,726.23 512.44,727.53 512.58,729.03 512.75,730.59 512.96,732.34 513.20,734.20 513.47,736.02 513.82,738.16 514.20,740.27 514.63,742.47 515.04,744.40 515.53,746.49 516.03,748.51 516.55,750.50 516.98,752.07 517.42,753.58 517.82,754.91 518.28,756.36 518.72,757.68 519.22,759.11 519.69,760.45 520.25,761.97 520.88,763.59 521.71,765.65 522.58,767.73 523.47,769.78 524.22,771.45 525.00,773.10 525.82,774.75 526.75,776.58 527.72,778.42 528.76,780.32 529.96,782.39 531.21,784.49 532.43,786.48 533.44,788.08 534.47,789.63 535.63,791.30 537.13,793.38 538.70,795.52 540.30,797.61 541.62,799.29 542.96,800.92 544.16,802.33 545.50,803.84 546.66,805.12 547.92,806.49 549.09,807.73 550.39,809.09 551.59,810.30 552.91,811.62 554.14,812.83 555.58,814.23 556.92,815.51 558.42,816.94 559.76,818.22 561.25,819.67 562.57,820.97 564.05,822.43 565.37,823.73 566.85,825.19 568.16,826.50 569.64,827.96 570.95,829.26 572.43,830.73 573.74,832.03 575.22,833.50 576.53,834.80 578.01,836.26 579.32,837.57 580.80,839.03 582.11,840.34 583.59,841.80 584.90,843.11 586.38,844.57 587.69,845.88 589.16,847.34 590.48,848.65 591.95,850.11 593.27,851.41 594.74,852.88 596.06,854.18 597.54,855.65 598.85,856.95 600.33,858.41 601.64,859.71 603.12,861.17 604.43,862.46 605.85,863.86 607.07,865.07 608.40,866.39 609.63,867.59 611.06,869.00 612.37,870.29 613.86,871.75 615.18,873.04 616.66,874.50 617.99,875.79 619.47,877.25 620.80,878.54 622.29,879.99 623.61,881.28 625.11,882.73 626.43,884.02 627.93,885.47 629.26,886.76 630.75,888.20 632.09,889.49 633.59,890.93 634.92,892.21 636.42,893.65 637.76,894.93 639.25,896.38 640.58,897.67 642.06,899.13 643.38,900.42 644.86,901.88 646.18,903.18 647.66,904.64 648.98,905.94 650.46,907.40 651.78,908.70 653.26,910.17 654.57,911.47 656.05,912.93 657.37,914.23 658.84,915.70 660.16,917.00 661.64,918.46 662.95,919.76 664.43,921.23 665.74,922.53 667.22,924.00 668.53,925.30 670.01,926.76 671.32,928.07 672.80,929.53 674.11,930.84 675.59,932.30 676.90,933.61 678.38,935.07 679.69,936.38 681.16,937.84 682.48,939.15 683.95,940.61 685.26,941.92 686.74,943.38 688.05,944.69 689.53,946.16 690.84,947.46 692.32,948.93 693.63,950.23 695.10,951.70 696.42,953.00 697.89,954.47 699.20,955.77 700.68,957.23 701.99,958.54 703.47,960.00 704.78,961.31 706.26,962.77 707.57,964.07 709.05,965.54 710.36,966.83 711.86,968.32 713.35,969.79 715.03,971.46 716.72,973.13 718.24,974.64 719.76,976.13 721.08,977.44 722.56,978.90 723.87,980.20 725.36,981.66 726.67,982.96 728.16,984.42 729.47,985.72 730.96,987.18 732.28,988.47 733.76,989.93 735.08,991.23 736.56,992.68 737.89,993.98 739.37,995.44 740.69,996.73 742.18,998.18 743.50,999.48 744.99,1000.93 746.32,1002.22 747.81,1003.68 749.13,1004.97 750.62,1006.42 751.95,1007.71 753.43,1009.15 754.75,1010.43 756.17,1011.80 757.40,1012.99 758.74,1014.29 759.99,1015.50 761.44,1016.90 762.76,1018.18 763.83,1019.21 764.56,1019.91 M 772.52,663.24 L 773.12,662.65 774.12,661.65 775.39,660.39 776.88,658.90 778.20,657.59 779.67,656.11 780.98,654.80 782.44,653.32 783.74,652.00 785.20,650.52 786.49,649.20 787.95,647.72 789.25,646.40 790.71,644.92 792.02,643.61 793.48,642.13 794.79,640.82 796.27,639.36 797.58,638.06 799.07,636.60 800.40,635.31 801.89,633.88 803.21,632.63 804.64,631.28 805.89,630.13 807.26,628.87 808.54,627.72 809.98,626.45 811.27,625.31 812.70,624.09 814.03,622.96 815.59,621.68 817.02,620.52 818.55,619.29 819.86,618.24 821.24,617.15 822.49,616.17 823.96,615.04 825.60,613.83 827.74,612.30 830.19,610.60 832.92,608.78 835.60,607.08 838.03,605.60 840.05,604.41 841.64,603.51 843.12,602.70 844.66,601.90 846.43,601.00 848.21,600.13 849.79,599.38 851.33,598.69 852.95,597.99 854.75,597.24 856.59,596.50 858.15,595.90 859.77,595.31 861.35,594.76 863.10,594.18 864.86,593.63 866.69,593.10 868.91,592.50 871.43,591.88 874.16,591.26 876.56,590.76 878.70,590.37 880.53,590.09 882.39,589.82 884.15,589.60 885.72,589.42 887.22,589.28 888.53,589.19 890.00,589.10 891.31,589.03 892.78,588.96 894.09,588.92 895.56,588.88 896.87,588.86 898.34,588.85 899.65,588.85 901.12,588.85 902.43,588.87 903.92,588.92 905.22,588.98 906.74,589.09 908.03,589.20 909.54,589.33 910.80,589.44 912.30,589.59 913.57,589.73 915.09,589.93 916.36,590.12 917.85,590.37 919.10,590.59 920.61,590.87 921.89,591.11 923.41,591.42 924.67,591.68 926.17,592.03 927.70,592.42 929.78,592.98 932.20,593.68 934.93,594.51 937.64,595.41 940.10,596.28 942.31,597.11 944.32,597.91 946.46,598.81 948.58,599.76 950.68,600.73 952.63,601.68 954.69,602.73 956.72,603.81 958.76,604.94 960.73,606.09 962.96,607.45 965.21,608.88 967.36,610.30 969.05,611.45 970.65,612.59 972.26,613.78 974.08,615.18 975.88,616.61 977.43,617.88 978.90,619.11 980.20,620.24 981.69,621.58 983.04,622.84 984.54,624.28 985.86,625.57 987.32,627.06 988.60,628.39 990.04,629.95 991.46,631.53 993.04,633.31 994.54,635.05 995.82,636.59 997.04,638.12 998.26,639.71 999.63,641.56 1000.99,643.42 1002.13,645.06 1003.17,646.59 1004.03,647.93 1004.97,649.44 1005.92,651.01 1006.96,652.75 1007.96,654.51 1008.84,656.10 1009.70,657.72 1010.53,659.35 1011.44,661.16 1012.29,662.94 1013.01,664.52 1013.69,666.07 1014.38,667.73 1015.22,669.84 1016.16,672.29 1017.12,675.00 1018.02,677.70 1018.78,680.15 1019.41,682.28 1019.87,683.93 1020.27,685.53 1020.63,687.07 1021.04,688.85 1021.43,690.65 1021.76,692.27 1022.06,693.89 1022.31,695.45 1022.58,697.25 1022.84,699.05 1023.05,700.63 1023.23,702.23 1023.38,703.77 1023.52,705.58 1023.64,707.36 1023.73,708.95 1023.80,710.48 1023.85,711.78 1023.90,713.26 1023.94,714.56 1023.98,716.04 1023.99,717.34 1024.00,718.81 1023.99,720.12 1023.97,721.59 1023.93,722.90 1023.86,724.37 1023.79,725.68 1023.69,727.15 1023.58,728.47 1023.44,730.01 1023.26,731.64 1023.04,733.46 1022.80,735.28 1022.57,736.80 1022.32,738.34 1022.09,739.65 1021.79,741.22 1021.45,742.84 1020.99,744.90 1020.48,747.00 1019.95,749.09 1019.51,750.74 1019.06,752.28 1018.66,753.57 1018.20,755.06 1017.76,756.41 1017.22,757.96 1016.63,759.62 1015.92,761.47 1015.18,763.34 1014.55,764.89 1013.93,766.36 1013.39,767.58 1012.71,769.09 1011.96,770.67 1011.08,772.49 1010.14,774.35 1009.18,776.17 1008.18,778.01 1007.19,779.78 1006.26,781.38 1005.34,782.92 1004.49,784.29 1003.49,785.86 1002.36,787.56 1000.87,789.73 999.15,792.13 997.38,794.53 995.72,796.70 994.35,798.42 992.96,800.09 991.58,801.67 990.00,803.43 988.37,805.16 986.88,806.72 985.38,808.24 984.07,809.56 982.60,811.03 981.29,812.33 979.81,813.80 978.49,815.10 977.02,816.56 975.70,817.87 974.22,819.33 972.91,820.63 971.43,822.10 970.12,823.40 968.65,824.87 967.33,826.17 965.86,827.64 964.55,828.94 963.07,830.41 961.76,831.72 960.28,833.18 958.97,834.49 957.50,835.96 956.19,837.26 954.72,838.73 953.41,840.04 951.93,841.51 950.62,842.81 949.15,844.28 947.84,845.59 946.37,847.06 945.06,848.37 943.59,849.84 942.28,851.14 940.81,852.61 939.50,853.92 938.03,855.39 936.72,856.70 935.25,858.17 933.94,859.48 932.47,860.95 931.16,862.26 929.69,863.73 928.38,865.04 926.91,866.51 925.61,867.82 924.14,869.29 922.83,870.60 921.36,872.08 920.05,873.38 918.58,874.86 917.28,876.17 915.81,877.64 914.50,878.95 913.03,880.42 911.72,881.73 910.26,883.21 908.95,884.51 907.48,885.99 906.17,887.30 904.71,888.77 903.40,890.08 901.93,891.56 900.62,892.87 899.16,894.34 897.85,895.65 896.38,897.12 895.08,898.43 893.61,899.91 892.30,901.22 890.83,902.69 889.53,904.00 888.06,905.47 886.75,906.78 885.28,908.26 883.98,909.57 882.51,911.04 881.20,912.35 879.73,913.82 878.43,915.13 876.96,916.61 875.65,917.92 874.18,919.39 872.88,920.70 871.41,922.17 870.10,923.48 868.63,924.96 867.32,926.27 865.85,927.74 864.55,929.05 863.08,930.52 861.77,931.83 860.30,933.30 858.99,934.61 857.52,936.08 856.22,937.39 854.75,938.86 853.44,940.17 851.97,941.64 850.66,942.95 849.19,944.42 847.88,945.73 846.41,947.20 845.10,948.51 843.63,949.98 842.32,951.29 840.85,952.76 839.54,954.06 838.07,955.53 836.76,956.84 835.28,958.31 833.97,959.62 832.50,961.09 831.19,962.39 829.72,963.86 828.41,965.16 826.93,966.63 825.62,967.94 824.15,969.41 822.84,970.71 821.36,972.18 820.05,973.48 818.57,974.95 817.26,976.25 815.78,977.72 814.47,979.02 813.00,980.49 811.68,981.79 810.20,983.26 808.89,984.56 807.41,986.02 806.10,987.32 804.62,988.79 803.30,990.09 801.83,991.55 800.51,992.85 799.03,994.32 797.72,995.62 796.23,997.08 794.92,998.38 793.44,999.84 792.12,1001.14 790.63,1002.60 789.31,1003.90 787.87,1005.32 786.63,1006.54 785.30,1007.85 784.08,1009.05 782.67,1010.43 781.37,1011.71 779.89,1013.16 778.57,1014.46 777.09,1015.92 775.77,1017.21 774.71,1018.25 773.96,1018.98 M 763.88,663.52 L 768.10,667.63 M 764.56,1019.91 L 768.83,1024.00 M 772.52,663.24 L 768.10,667.63 M 773.96,1018.98 L 768.83,1024.00 M 768.10,667.63 L 768.10,667.63 M 768.83,1024.00 L 768.83,1024.00 M 763.88,663.52 L 762.90,662.56 761.94,661.62 760.44,660.15 759.13,658.85 757.65,657.39 756.35,656.09 754.94,654.68 753.72,653.46 752.40,652.13 751.19,650.91 749.78,649.50 748.48,648.19 747.01,646.72 745.71,645.42 744.30,644.00 743.08,642.79 741.75,641.47 740.53,640.26 739.10,638.86 737.79,637.57 736.30,636.12 734.96,634.84 733.46,633.40 732.12,632.13 730.60,630.71 729.26,629.47 727.80,628.13 726.54,626.98 725.12,625.71 723.62,624.40 721.88,622.89 720.13,621.39 718.60,620.10 717.11,618.88 715.78,617.80 714.27,616.60 712.92,615.54 711.39,614.38 709.75,613.16 707.63,611.63 705.26,609.97 702.91,608.37 700.86,607.01 699.23,605.97 697.71,605.03 696.34,604.21 694.80,603.31 693.16,602.40 691.37,601.43 689.55,600.48 688.00,599.71 686.45,598.97 685.11,598.38 683.68,597.75 682.38,597.20 680.90,596.60 679.22,595.97 677.14,595.23 675.03,594.52 673.01,593.87 671.43,593.38 669.89,592.94 668.53,592.58 667.02,592.20 665.64,591.87 664.10,591.51 662.48,591.16 660.73,590.82 658.97,590.50 657.49,590.25 655.96,590.02 654.70,589.84 653.20,589.63 651.95,589.48 650.46,589.32 649.16,589.21 647.66,589.09 646.37,589.00 644.87,588.91 643.59,588.85 642.02,588.80 640.51,588.77 638.77,588.76 637.05,588.77 635.49,588.79 633.90,588.83 632.52,588.89 630.96,588.98 629.35,589.10 627.56,589.25 625.71,589.43 624.16,589.59 622.59,589.78 621.03,590.00 619.24,590.27 617.36,590.59 615.53,590.92 613.38,591.35 611.04,591.86 608.67,592.42 606.58,592.94 604.97,593.37 603.37,593.83 601.71,594.34 599.61,595.02 597.28,595.82 594.94,596.66 592.80,597.47 591.15,598.13 589.54,598.80 587.95,599.50 585.89,600.45 583.81,601.44 581.69,602.50 579.87,603.45 578.12,604.38 576.44,605.32 574.94,606.17 573.40,607.09 572.04,607.92 570.53,608.86 569.18,609.73 567.75,610.68 566.44,611.58 564.96,612.64 563.35,613.83 561.53,615.21 559.71,616.63 558.18,617.87 556.73,619.09 555.45,620.18 553.98,621.49 552.64,622.72 551.14,624.14 549.82,625.44 548.36,626.92 547.07,628.25 545.67,629.76 544.45,631.12 543.16,632.59 542.07,633.87 540.86,635.32 539.62,636.90 538.08,638.93 536.57,640.98 535.17,642.94 534.12,644.46 533.14,645.95 532.31,647.28 531.37,648.80 530.58,650.09 529.74,651.50 529.05,652.70 528.23,654.16 527.48,655.51 526.63,657.08 525.88,658.51 525.06,660.13 524.23,661.87 523.25,664.02 522.20,666.43 521.11,669.06 520.09,671.68 519.22,674.04 518.51,676.06 518.01,677.58 517.54,679.11 517.07,680.73 516.48,682.86 515.92,685.01 515.40,687.09 515.04,688.65 514.70,690.22 514.39,691.79 514.04,693.65 513.73,695.48 513.48,697.05 513.26,698.57 513.09,699.82 512.90,701.29 512.75,702.52 512.60,704.00 512.50,705.28 512.39,706.77 512.30,708.08 512.21,709.55 512.14,710.86 512.08,712.33 512.04,713.64 512.02,715.11 512.00,716.42 512.00,717.89 512.01,719.20 512.05,720.67 512.10,721.98 512.17,723.45 512.24,724.75 512.34,726.23 512.44,727.53 512.58,729.03 512.75,730.59 512.96,732.34 513.20,734.20 513.47,736.02 513.82,738.16 514.20,740.27 514.63,742.47 515.04,744.40 515.53,746.49 516.03,748.51 516.55,750.50 516.98,752.07 517.42,753.58 517.82,754.91 518.28,756.36 518.72,757.68 519.22,759.11 519.69,760.45 520.25,761.97 520.88,763.59 521.71,765.65 522.58,767.73 523.47,769.78 524.22,771.45 525.00,773.10 525.82,774.75 526.75,776.58 527.72,778.42 528.76,780.32 529.96,782.39 531.21,784.49 532.43,786.48 533.44,788.08 534.47,789.63 535.63,791.30 537.13,793.38 538.70,795.52 540.30,797.61 541.62,799.29 542.96,800.92 544.16,802.33 545.50,803.84 546.66,805.12 547.92,806.49 549.09,807.73 550.39,809.09 551.59,810.30 552.91,811.62 554.14,812.83 555.58,814.23 556.92,815.51 558.42,816.94 559.76,818.22 561.25,819.67 562.57,820.97 564.05,822.43 565.37,823.73 566.85,825.19 568.16,826.50 569.64,827.96 570.95,829.26 572.43,830.73 573.74,832.03 575.22,833.50 576.53,834.80 578.01,836.26 579.32,837.57 580.80,839.03 582.11,840.34 583.59,841.80 584.90,843.11 586.38,844.57 587.69,845.88 589.16,847.34 590.48,848.65 591.95,850.11 593.27,851.41 594.74,852.88 596.06,854.18 597.54,855.65 598.85,856.95 600.33,858.41 601.64,859.71 603.12,861.17 604.43,862.46 605.85,863.86 607.07,865.07 608.40,866.39 609.63,867.59 611.06,869.00 612.37,870.29 613.86,871.75 615.18,873.04 616.66,874.50 617.99,875.79 619.47,877.25 620.80,878.54 622.29,879.99 623.61,881.28 625.11,882.73 626.43,884.02 627.93,885.47 629.26,886.76 630.75,888.20 632.09,889.49 633.59,890.93 634.92,892.21 636.42,893.65 637.76,894.93 639.25,896.38 640.58,897.67 642.06,899.13 643.38,900.42 644.86,901.88 646.18,903.18 647.66,904.64 648.98,905.94 650.46,907.40 651.78,908.70 653.26,910.17 654.57,911.47 656.05,912.93 657.37,914.23 658.84,915.70 660.16,917.00 661.64,918.46 662.95,919.76 664.43,921.23 665.74,922.53 667.22,924.00 668.53,925.30 670.01,926.76 671.32,928.07 672.80,929.53 674.11,930.84 675.59,932.30 676.90,933.61 678.38,935.07 679.69,936.38 681.16,937.84 682.48,939.15 683.95,940.61 685.26,941.92 686.74,943.38 688.05,944.69 689.53,946.16 690.84,947.46 692.32,948.93 693.63,950.23 695.10,951.70 696.42,953.00 697.89,954.47 699.20,955.77 700.68,957.23 701.99,958.54 703.47,960.00 704.78,961.31 706.26,962.77 707.57,964.07 709.05,965.54 710.36,966.83 711.86,968.32 713.35,969.79 715.03,971.46 716.72,973.13 718.24,974.64 719.76,976.13 721.08,977.44 722.56,978.90 723.87,980.20 725.36,981.66 726.67,982.96 728.16,984.42 729.47,985.72 730.96,987.18 732.28,988.47 733.76,989.93 735.08,991.23 736.56,992.68 737.89,993.98 739.37,995.44 740.69,996.73 742.18,998.18 743.50,999.48 744.99,1000.93 746.32,1002.22 747.81,1003.68 749.13,1004.97 750.62,1006.42 751.95,1007.71 753.43,1009.15 754.75,1010.43 756.17,1011.80 757.40,1012.99 758.74,1014.29 759.99,1015.50 761.44,1016.90 762.76,1018.18 763.83,1019.21 764.56,1019.91 M 772.52,663.24 L 773.12,662.65 774.12,661.65 775.39,660.39 776.88,658.90 778.20,657.59 779.67,656.11 780.98,654.80 782.44,653.32 783.74,652.00 785.20,650.52 786.49,649.20 787.95,647.72 789.25,646.40 790.71,644.92 792.02,643.61 793.48,642.13 794.79,640.82 796.27,639.36 797.58,638.06 799.07,636.60 800.40,635.31 801.89,633.88 803.21,632.63 804.64,631.28 805.89,630.13 807.26,628.87 808.54,627.72 809.98,626.45 811.27,625.31 812.70,624.09 814.03,622.96 815.59,621.68 817.02,620.52 818.55,619.29 819.86,618.24 821.24,617.15 822.49,616.17 823.96,615.04 825.60,613.83 827.74,612.30 830.19,610.60 832.92,608.78 835.60,607.08 838.03,605.60 840.05,604.41 841.64,603.51 843.12,602.70 844.66,601.90 846.43,601.00 848.21,600.13 849.79,599.38 851.33,598.69 852.95,597.99 854.75,597.24 856.59,596.50 858.15,595.90 859.77,595.31 861.35,594.76 863.10,594.18 864.86,593.63 866.69,593.10 868.91,592.50 871.43,591.88 874.16,591.26 876.56,590.76 878.70,590.37 880.53,590.09 882.39,589.82 884.15,589.60 885.72,589.42 887.22,589.28 888.53,589.19 890.00,589.10 891.31,589.03 892.78,588.96 894.09,588.92 895.56,588.88 896.87,588.86 898.34,588.85 899.65,588.85 901.12,588.85 902.43,588.87 903.92,588.92 905.22,588.98 906.74,589.09 908.03,589.20 909.54,589.33 910.80,589.44 912.30,589.59 913.57,589.73 915.09,589.93 916.36,590.12 917.85,590.37 919.10,590.59 920.61,590.87 921.89,591.11 923.41,591.42 924.67,591.68 926.17,592.03 927.70,592.42 929.78,592.98 932.20,593.68 934.93,594.51 937.64,595.41 940.10,596.28 942.31,597.11 944.32,597.91 946.46,598.81 948.58,599.76 950.68,600.73 952.63,601.68 954.69,602.73 956.72,603.81 958.76,604.94 960.73,606.09 962.96,607.45 965.21,608.88 967.36,610.30 969.05,611.45 970.65,612.59 972.26,613.78 974.08,615.18 975.88,616.61 977.43,617.88 978.90,619.11 980.20,620.24 981.69,621.58 983.04,622.84 984.54,624.28 985.86,625.57 987.32,627.06 988.60,628.39 990.04,629.95 991.46,631.53 993.04,633.31 994.54,635.05 995.82,636.59 997.04,638.12 998.26,639.71 999.63,641.56 1000.99,643.42 1002.13,645.06 1003.17,646.59 1004.03,647.93 1004.97,649.44 1005.92,651.01 1006.96,652.75 1007.96,654.51 1008.84,656.10 1009.70,657.72 1010.53,659.35 1011.44,661.16 1012.29,662.94 1013.01,664.52 1013.69,666.07 1014.38,667.73 1015.22,669.84 1016.16,672.29 1017.12,675.00 1018.02,677.70 1018.78,680.15 1019.41,682.28 1019.87,683.93 1020.27,685.53 1020.63,687.07 1021.04,688.85 1021.43,690.65 1021.76,692.27 1022.06,693.89 1022.31,695.45 1022.58,697.25 1022.84,699.05 1023.05,700.63 1023.23,702.23 1023.38,703.77 1023.52,705.58 1023.64,707.36 1023.73,708.95 1023.80,710.48 1023.85,711.78 1023.90,713.26 1023.94,714.56 1023.98,716.04 1023.99,717.34 1024.00,718.81 1023.99,720.12 1023.97,721.59 1023.93,722.90 1023.86,724.37 1023.79,725.68 1023.69,727.15 1023.58,728.47 1023.44,730.01 1023.26,731.64 1023.04,733.46 1022.80,735.28 1022.57,736.80 1022.32,738.34 1022.09,739.65 1021.79,741.22 1021.45,742.84 1020.99,744.90 1020.48,747.00 1019.95,749.09 1019.51,750.74 1019.06,752.28 1018.66,753.57 1018.20,755.06 1017.76,756.41 1017.22,757.96 1016.63,759.62 1015.92,761.47 1015.18,763.34 1014.55,764.89 1013.93,766.36 1013.39,767.58 1012.71,769.09 1011.96,770.67 1011.08,772.49 1010.14,774.35 1009.18,776.17 1008.18,778.01 1007.19,779.78 1006.26,781.38 1005.34,782.92 1004.49,784.29 1003.49,785.86 1002.36,787.56 1000.87,789.73 999.15,792.13 997.38,794.53 995.72,796.70 994.35,798.42 992.96,800.09 991.58,801.67 990.00,803.43 988.37,805.16 986.88,806.72 985.38,808.24 984.07,809.56 982.60,811.03 981.29,812.33 979.81,813.80 978.49,815.10 977.02,816.56 975.70,817.87 974.22,819.33 972.91,820.63 971.43,822.10 970.12,823.40 968.65,824.87 967.33,826.17 965.86,827.64 964.55,828.94 963.07,830.41 961.76,831.72 960.28,833.18 958.97,834.49 957.50,835.96 956.19,837.26 954.72,838.73 953.41,840.04 951.93,841.51 950.62,842.81 949.15,844.28 947.84,845.59 946.37,847.06 945.06,848.37 943.59,849.84 942.28,851.14 940.81,852.61 939.50,853.92 938.03,855.39 936.72,856.70 935.25,858.17 933.94,859.48 932.47,860.95 931.16,862.26 929.69,863.73 928.38,865.04 926.91,866.51 925.61,867.82 924.14,869.29 922.83,870.60 921.36,872.08 920.05,873.38 918.58,874.86 917.28,876.17 915.81,877.64 914.50,878.95 913.03,880.42 911.72,881.73 910.26,883.21 908.95,884.51 907.48,885.99 906.17,887.30 904.71,888.77 903.40,890.08 901.93,891.56 900.62,892.87 899.16,894.34 897.85,895.65 896.38,897.12 895.08,898.43 893.61,899.91 892.30,901.22 890.83,902.69 889.53,904.00 888.06,905.47 886.75,906.78 885.28,908.26 883.98,909.57 882.51,911.04 881.20,912.35 879.73,913.82 878.43,915.13 876.96,916.61 875.65,917.92 874.18,919.39 872.88,920.70 871.41,922.17 870.10,923.48 868.63,924.96 867.32,926.27 865.85,927.74 864.55,929.05 863.08,930.52 861.77,931.83 860.30,933.30 858.99,934.61 857.52,936.08 856.22,937.39 854.75,938.86 853.44,940.17 851.97,941.64 850.66,942.95 849.19,944.42 847.88,945.73 846.41,947.20 845.10,948.51 843.63,949.98 842.32,951.29 840.85,952.76 839.54,954.06 838.07,955.53 836.76,956.84 835.28,958.31 833.97,959.62 832.50,961.09 831.19,962.39 829.72,963.86 828.41,965.16 826.93,966.63 825.62,967.94 824.15,969.41 822.84,970.71 821.36,972.18 820.05,973.48 818.57,974.95 817.26,976.25 815.78,977.72 814.47,979.02 813.00,980.49 811.68,981.79 810.20,983.26 808.89,984.56 807.41,986.02 806.10,987.32 804.62,988.79 803.30,990.09 801.83,991.55 800.51,992.85 799.03,994.32 797.72,995.62 796.23,997.08 794.92,998.38 793.44,999.84 792.12,1001.14 790.63,1002.60 789.31,1003.90 787.87,1005.32 786.63,1006.54 785.30,1007.85 784.08,1009.05 782.67,1010.43 781.37,1011.71 779.89,1013.16 778.57,1014.46 777.09,1015.92 775.77,1017.21 774.71,1018.25 773.96,1018.98 M 763.88,663.52 L 768.10,667.63 M 764.56,1019.91 L 768.83,1024.00 M 772.52,663.24 L 768.10,667.63 M 773.96,1018.98 L 768.83,1024.00 M 768.10,667.63 L 768.10,667.63 M 768.83,1024.00 L 768.83,1024.00" stroke-width="45.0"></path></g></svg>