<svg xmlns="http://www.w3.org/2000/svg" width="1024" height="1024" viewBox="0 0 1024 1024" class="colorable-icon" overflow="visible"><g id="main-icon-clipped" stroke="#000000" stroke-width="45" fill="none" stroke-linecap="round" stroke-linejoin="round"><path d="M 62.18,228.67 L 61.12,230.50 60.15,232.18 58.54,235.02 56.90,237.99 54.89,241.71 52.94,245.38 51.10,248.90 49.70,251.63 48.31,254.40 46.91,257.26 45.33,260.52 43.78,263.81 42.51,266.54 41.23,269.37 39.98,272.20 38.34,275.98 36.57,280.21 34.65,284.89 32.94,289.16 31.47,292.97 30.39,295.79 29.35,298.64 28.38,301.37 27.27,304.56 26.25,307.56 25.38,310.17 24.53,312.82 23.62,315.66 22.42,319.51 21.05,323.95 19.57,328.88 18.13,333.86 16.79,338.69 15.64,343.00 14.70,346.64 14.02,349.38 13.36,352.10 12.73,354.85 12.00,358.11 11.30,361.31 10.71,364.05 10.15,366.82 9.61,369.59 8.99,372.84 8.42,375.97 7.94,378.69 7.49,381.31 7.10,383.61 6.68,386.23 6.34,388.47 5.95,391.08 5.63,393.26 5.24,395.95 4.93,398.21 4.56,400.90 4.28,403.12 3.95,405.72 3.69,407.97 3.39,410.64 3.14,412.93 2.87,415.60 2.65,417.83 2.41,420.39 2.21,422.67 1.98,425.32 1.78,427.68 1.54,430.32 1.33,432.57 1.10,435.15 0.93,437.33 0.73,439.93 0.57,442.20 0.41,444.83 0.29,447.14 0.17,449.73 0.10,452.04 0.04,454.63 0.01,456.94 0.00,459.54 0.02,461.84 0.06,464.44 0.13,466.75 0.22,469.34 0.34,471.65 0.49,474.29 0.68,477.07 0.92,480.18 1.20,483.42 1.45,486.17 1.71,488.93 1.90,491.23 2.12,493.93 2.34,496.70 2.60,499.81 2.86,502.96 3.09,505.70 3.34,508.42 3.57,510.78 3.85,513.47 4.17,516.29 4.60,519.85 5.08,523.59 5.60,527.41 6.09,530.82 6.59,534.12 7.10,537.31 7.55,540.07 8.04,542.83 8.56,545.64 9.23,549.17 9.94,552.80 10.66,556.33 11.26,559.16 11.90,562.01 12.58,565.01 13.48,568.77 14.42,572.62 15.38,576.41 16.26,579.77 17.27,583.48 18.44,587.65 19.81,592.30 21.13,596.68 22.31,600.49 23.27,603.47 24.22,606.32 25.25,609.32 26.58,613.13 28.16,617.51 29.92,622.26 31.77,627.08 33.63,631.77 35.35,636.02 36.91,639.76 38.15,642.66 39.38,645.46 40.58,648.14 42.02,651.31 43.53,654.56 45.11,657.89 46.70,661.18 48.32,664.46 49.96,667.71 51.62,670.95 53.27,674.09 54.76,676.91 56.30,679.75 57.88,682.59 59.65,685.73 61.48,688.92 63.40,692.20 65.65,695.96 68.28,700.26 71.25,704.98 74.09,709.42 76.64,713.30 78.65,716.29 80.49,719.00 82.10,721.33 83.87,723.84 85.52,726.14 87.33,728.62 89.00,730.90 90.82,733.35 92.50,735.58 94.41,738.07 96.26,740.44 98.36,743.09 100.26,745.46 102.34,748.02 104.27,750.36 106.45,752.96 108.42,755.27 110.56,757.76 112.53,760.04 114.84,762.66 117.00,765.09 119.51,767.87 122.07,770.65 124.93,773.71 127.81,776.74 130.37,779.42 132.95,782.09 135.22,784.41 137.80,787.00 140.09,789.27 142.59,791.71 144.77,793.79 147.17,796.06 149.41,798.14 152.03,800.53 154.44,802.71 157.06,805.05 159.33,807.04 161.82,809.19 164.14,811.14 166.75,813.31 169.08,815.23 171.53,817.23 173.71,819.00 176.27,821.03 179.13,823.25 182.76,826.00 186.54,828.82 190.21,831.53 193.13,833.65 195.97,835.64 198.86,837.62 202.04,839.79 205.18,841.91 207.81,843.67 210.45,845.38 212.79,846.87 215.44,848.52 217.85,850.01 220.46,851.63 222.85,853.09 225.54,854.71 228.39,856.36 231.50,858.13 234.66,859.90 237.34,861.40 240.13,862.94 242.44,864.19 245.06,865.59 247.22,866.72 249.90,868.09 252.75,869.52 256.37,871.32 260.05,873.11 263.74,874.88 267.21,876.49 270.93,878.18 274.67,879.84 278.42,881.47 281.94,882.97 285.72,884.52 289.52,886.05 293.17,887.49 296.11,888.63 298.91,889.68 301.86,890.77 305.64,892.12 309.99,893.63 314.79,895.25 319.69,896.85 324.49,898.36 328.77,899.66 332.44,900.73 335.16,901.50 337.90,902.26 340.63,903.00 343.84,903.86 347.10,904.70 350.32,905.50 353.56,906.26 356.80,907.01 360.11,907.76 363.91,908.59 367.65,909.37 371.36,910.10 374.21,910.65 377.09,911.18 379.95,911.69 383.14,912.26 386.30,912.78 388.99,913.20 391.80,913.61 394.60,914.00 397.76,914.44 400.93,914.86 403.64,915.20 406.48,915.53 409.29,915.83 412.47,916.15 415.64,916.46 418.36,916.71 421.20,916.95 424.03,917.18 427.23,917.42 430.42,917.63 433.13,917.80 435.85,917.95 438.14,918.08 440.77,918.22 443.08,918.35 445.67,918.48 447.98,918.60 450.58,918.72 452.88,918.81 455.48,918.89 457.79,918.92 460.38,918.92 462.69,918.87 465.28,918.80 467.59,918.73 470.28,918.62 473.03,918.49 476.20,918.32 479.37,918.14 482.13,917.98 484.81,917.83 M 920.93,488.87 L 921.06,486.96 921.22,483.79 921.32,481.07 921.37,478.28 921.41,475.94 921.46,473.28 921.51,470.98 921.55,468.38 921.58,466.07 921.60,463.48 921.60,461.17 921.59,458.57 921.58,456.27 921.57,453.67 921.55,451.37 921.52,448.77 921.49,446.46 921.46,443.87 921.42,441.56 921.35,438.87 921.22,436.08 921.04,432.95 920.81,429.78 920.61,427.06 920.38,424.22 920.14,421.40 919.86,418.20 919.58,415.03 919.34,412.31 919.08,409.58 918.85,407.34 918.56,404.72 918.29,402.51 917.95,399.84 917.66,397.56 917.29,394.78 916.89,391.99 916.41,388.83 915.90,385.57 915.37,382.37 914.81,379.09 914.25,375.91 913.74,373.13 913.18,370.26 912.61,367.41 911.96,364.23 911.29,361.08 910.70,358.37 910.05,355.53 909.36,352.58 908.46,348.88 907.53,345.14 906.61,341.55 905.87,338.71 905.13,335.99 904.47,333.61 903.70,330.89 902.84,328.00 901.73,324.30 900.39,319.98 898.86,315.19 897.23,310.28 895.55,305.40 893.85,300.62 892.27,296.27 890.86,292.50 889.72,289.55 888.62,286.76 887.44,283.84 885.95,280.22 884.36,276.44 882.75,272.67 881.21,269.16 879.52,265.44 877.80,261.73 876.05,258.03 874.42,254.67 872.78,251.39 871.11,248.13 869.38,244.82 867.66,241.58 865.93,238.38 864.45,235.70 862.86,232.88 861.19,229.97 858.96,226.18 856.42,221.96 853.86,217.76 851.56,214.08 849.73,211.20 847.95,208.46 846.38,206.09 844.62,203.47 843.12,201.26 841.40,198.75 839.83,196.50 837.92,193.80 835.86,190.95 833.46,187.67 831.04,184.42 828.92,181.59 826.94,179.01 825.21,176.78 823.18,174.23 820.97,171.47 818.41,168.33 815.74,165.11 813.34,162.24 811.00,159.50 809.01,157.21 806.83,154.73 804.82,152.45 802.47,149.82 800.29,147.40 797.82,144.69 795.60,142.29 793.08,139.62 790.82,137.27 788.24,134.66 785.93,132.35 783.33,129.76 781.00,127.48 778.35,124.93 775.97,122.70 773.27,120.21 770.86,118.01 768.15,115.54 765.72,113.38 763.06,111.07 760.75,109.11 758.17,106.94 755.46,104.69 752.32,102.12 749.16,99.58 746.38,97.40 743.70,95.33 741.29,93.48 738.59,91.43 736.16,89.62 733.51,87.69 731.21,86.05 728.64,84.24 726.46,82.72 723.96,80.98 721.70,79.42 719.12,77.69 716.76,76.13 714.18,74.47 711.81,72.95 709.15,71.26 706.27,69.47 702.72,67.30 699.00,65.07 695.42,62.96 692.46,61.24 689.72,59.67 687.27,58.30 684.51,56.79 681.60,55.23 678.43,53.56 675.23,51.88 672.50,50.47 669.64,49.03 666.77,47.62 663.59,46.08 660.45,44.58 657.80,43.33 655.02,42.05 652.14,40.76 648.42,39.12 644.27,37.34 640.10,35.57 636.22,33.97 632.66,32.55 628.81,31.06 625.04,29.63 621.36,28.26 618.51,27.22 615.80,26.26 613.43,25.44 610.78,24.53 607.92,23.58 604.30,22.41 600.01,21.06 595.35,19.63 591.07,18.36 587.39,17.30 584.66,16.54 581.92,15.80 579.07,15.05 575.17,14.06 570.83,12.99 566.52,11.96 562.80,11.11 560.04,10.49 557.27,9.89 554.50,9.33 551.25,8.68 548.06,8.07 545.36,7.56 542.67,7.07 540.45,6.68 537.79,6.22 535.55,5.85 532.92,5.44 530.69,5.11 528.07,4.73 525.84,4.41 523.18,4.04 520.92,3.73 518.26,3.39 515.96,3.11 513.34,2.82 511.00,2.58 508.37,2.32 506.07,2.10 503.52,1.85 501.31,1.65 498.70,1.42 496.38,1.24 493.73,1.07 491.46,0.94 488.86,0.79 486.64,0.67 484.00,0.54 481.75,0.42 479.08,0.32 476.77,0.26 474.13,0.22 471.82,0.21 469.23,0.20 466.92,0.19 464.32,0.16 462.02,0.14 459.42,0.11 457.11,0.08 454.52,0.05 452.21,0.03 449.61,0.01 447.31,0.00 444.71,0.04 442.41,0.13 439.72,0.29 437.00,0.47 433.94,0.66 430.85,0.85 428.11,1.01 425.30,1.17 422.89,1.29 420.21,1.44 417.89,1.59 415.23,1.81 412.42,2.09 409.27,2.44 405.93,2.86 402.70,3.29 399.41,3.75 396.25,4.19 393.51,4.56 390.76,4.95 387.97,5.37 384.82,5.88 381.49,6.44 378.25,7.00 374.49,7.69 370.76,8.39 366.93,9.15 363.56,9.85 360.30,10.55 357.07,11.26 353.84,12.00 350.12,12.90 345.89,13.97 341.06,15.22 336.13,16.56 331.68,17.82 327.75,18.96 324.41,19.97 320.73,21.12 316.58,22.45 311.89,24.02 307.17,25.64 302.87,27.16 299.09,28.54 296.14,29.64 293.28,30.74 290.51,31.83 287.26,33.13 284.08,34.42 281.21,35.61 278.47,36.78 275.66,38.00 272.50,39.39 269.17,40.89 265.87,42.40 262.56,43.96 259.34,45.50 256.57,46.84 253.82,48.20 251.21,49.53 248.11,51.12 244.93,52.79 241.68,54.52 238.55,56.21 235.51,57.90 232.80,59.41 229.94,61.05 226.95,62.80 223.18,65.05 218.85,67.70 214.05,70.70 209.11,73.88 204.19,77.13 199.32,80.44 194.50,83.81 189.80,87.20 185.55,90.32 181.87,93.09 179.04,95.25 176.41,97.30 174.08,99.15 171.37,101.35 168.87,103.41 166.13,105.68 163.78,107.65 161.25,109.81 158.97,111.81 156.43,114.06 154.17,116.09 151.74,118.30 149.53,120.33 147.00,122.70 144.67,124.93 142.06,127.47 139.73,129.75 137.12,132.33 134.81,134.64 132.25,137.27 129.98,139.61 127.46,142.24 125.25,144.58 122.88,147.12 120.86,149.33 118.65,151.78 116.61,154.08 114.26,156.76 112.12,159.21 109.85,161.85 107.91,164.13 105.79,166.64 103.85,168.97 101.71,171.58 99.83,173.91 97.88,176.36 96.15,178.56 94.14,181.15 92.01,183.96 89.56,187.23 87.17,190.47 85.09,193.33 83.21,195.94 81.60,198.24 79.88,200.74 78.29,203.08 76.57,205.62 75.01,207.97 73.33,210.54 71.82,212.88 70.15,215.52 69.07,217.24 67.95,219.04 M 62.18,228.67 L 64.99,223.79 M 67.95,219.04 L 64.99,223.79 64.99,223.79 M 267.13,233.09 L 264.19,235.64 260.70,238.75 255.86,243.19 251.18,247.70 246.64,252.32 242.23,257.03 237.99,261.76 233.78,266.64 229.76,271.48 225.73,276.55 221.97,281.50 218.36,286.44 215.07,291.14 211.90,295.85 208.81,300.67 205.73,305.65 202.75,310.71 199.96,315.66 197.35,320.49 194.91,325.24 192.56,330.02 190.28,334.88 188.08,339.78 185.99,344.71 183.99,349.65 182.11,354.52 180.32,359.38 178.64,364.21 177.02,369.12 175.49,374.00 174.06,378.82 172.73,383.62 171.46,388.44 170.26,393.31 169.13,398.17 168.09,403.02 167.11,407.92 166.21,412.85 165.40,417.79 164.69,422.61 164.09,427.40 163.55,432.25 163.07,437.16 162.63,442.09 162.27,446.92 161.98,451.76 161.82,456.60 161.81,461.51 161.97,466.35 162.29,471.19 162.71,476.01 163.16,480.89 163.62,485.81 164.11,490.68 164.68,495.58 165.33,500.45 166.07,505.39 166.90,510.27 167.81,515.18 168.80,520.03 169.87,524.87 171.01,529.66 172.23,534.45 173.56,539.31 174.99,544.22 176.53,549.16 178.14,554.06 179.83,558.91 181.62,563.78 183.51,568.65 185.52,573.60 187.63,578.53 189.80,583.41 192.11,588.33 194.48,593.18 196.99,598.09 199.57,602.92 202.31,607.86 205.21,612.82 208.24,617.84 211.39,622.82 214.62,627.73 218.02,632.67 221.56,637.61 225.28,642.58 229.09,647.47 233.01,652.28 237.12,657.10 241.38,661.87 245.91,666.74 250.53,671.49 255.28,676.17 260.05,680.65 264.92,685.04 269.88,689.33 274.81,693.42 279.76,697.36 284.59,701.03 289.43,704.57 294.26,707.93 299.15,711.21 304.12,714.38 309.13,717.44 314.10,720.35 318.96,723.07 323.73,725.63 328.50,728.07 333.32,730.44 338.19,732.71 343.08,734.90 348.02,736.99 352.92,738.98 357.81,740.85 362.66,742.62 367.54,744.30 372.46,745.90 377.39,747.41 382.29,748.81 387.24,750.13 392.14,751.35 397.13,752.51 402.01,753.56 406.90,754.52 411.73,755.37 416.64,756.14 421.57,756.84 426.50,757.47 431.37,758.00 436.24,758.42 441.11,758.72 446.01,758.90 448.11,758.94 M 759.83,450.73 L 759.66,446.79 759.37,441.89 758.99,436.96 758.52,432.06 757.97,427.15 757.33,422.22 756.62,417.31 755.82,412.38 754.96,407.51 754.01,402.60 752.99,397.76 751.89,392.89 750.71,388.04 749.44,383.15 748.07,378.23 746.61,373.29 745.07,368.36 743.43,363.46 741.72,358.58 739.93,353.74 738.03,348.86 736.03,343.99 733.88,338.98 731.65,334.04 729.27,329.03 726.87,324.18 724.31,319.26 721.72,314.49 718.99,309.67 716.18,304.94 713.19,300.11 709.98,295.19 706.58,290.18 702.98,285.12 699.28,280.14 695.45,275.25 691.41,270.36 687.20,265.52 682.71,260.55 678.18,255.68 673.68,250.92 669.29,246.39 664.81,241.95 660.03,237.48 655.05,233.09 650.03,228.89 645.07,224.94 640.15,221.17 635.15,217.49 630.20,213.98 625.25,210.61 620.34,207.40 615.46,204.34 610.61,201.41 605.85,198.66 601.01,195.97 596.22,193.43 591.28,190.92 586.41,188.56 581.46,186.27 576.56,184.11 571.61,182.05 566.63,180.08 561.71,178.23 556.79,176.49 551.91,174.87 547.00,173.35 542.12,171.95 537.26,170.65 532.38,169.44 527.44,168.29 522.50,167.20 517.59,166.19 512.76,165.28 507.92,164.45 503.12,163.73 498.24,163.08 493.35,162.50 488.38,161.97 483.47,161.51 478.55,161.13 473.72,160.85 468.85,160.67 463.99,160.58 459.08,160.58 454.20,160.66 449.55,160.80 445.51,160.96 442.11,161.13 439.02,161.32 435.46,161.57 431.24,161.91 426.50,162.37 421.61,162.95 416.73,163.64 411.89,164.43 407.05,165.31 402.23,166.28 397.36,167.35 392.43,168.53 387.45,169.82 382.48,171.21 377.60,172.66 372.80,174.17 368.08,175.74 363.27,177.43 358.41,179.24 353.40,181.20 348.47,183.21 343.64,185.27 338.88,187.39 334.17,189.57 329.33,191.90 324.49,194.35 319.53,196.99 314.51,199.81 309.50,202.73 304.59,205.73 299.86,208.74 295.15,211.87 290.46,215.11 285.66,218.55 282.26,221.04 279.27,223.29 M 267.13,233.09 L 272.77,228.18 M 279.27,223.29 L 272.77,228.18 272.77,228.18 M 490.22,608.33 L 488.68,608.63 485.86,609.10 482.72,609.58 479.57,609.98 476.82,610.27 474.13,610.45 471.82,610.54 469.23,610.58 466.92,610.59 464.32,610.58 462.02,610.55 459.42,610.50 457.11,610.45 454.52,610.38 452.21,610.31 449.61,610.20 447.31,610.09 444.67,609.90 442.37,609.68 439.68,609.33 437.41,609.00 434.71,608.54 432.51,608.12 429.83,607.53 427.14,606.85 423.55,605.86 419.79,604.75 416.07,603.58 413.08,602.57 410.41,601.61 408.09,600.73 405.62,599.75 403.33,598.80 400.78,597.68 398.48,596.63 395.93,595.41 393.77,594.33 391.19,592.98 388.85,591.70 386.16,590.16 383.75,588.72 381.11,587.06 378.82,585.55 376.30,583.82 374.14,582.27 371.62,580.41 369.38,578.68 366.84,576.64 364.54,574.70 361.90,572.38 359.51,570.19 356.87,567.66 354.56,565.36 352.03,562.72 349.84,560.33 347.52,557.70 345.58,555.39 343.47,552.77 341.31,549.91 338.63,546.15 335.81,541.94 333.12,537.72 330.91,533.99 329.24,531.01 327.75,528.16 326.34,525.27 324.87,522.13 323.48,518.96 322.35,516.24 321.24,513.38 320.19,510.45 318.96,506.82 317.83,503.25 316.80,499.71 315.93,496.36 315.06,492.55 314.28,488.79 313.59,485.03 313.06,481.58 312.57,477.79 312.18,474.05 311.86,470.51 311.68,467.74 311.58,465.11 311.52,462.81 311.51,460.22 311.55,457.99 311.65,455.42 311.76,453.19 311.93,450.52 312.11,448.22 312.36,445.54 312.62,443.23 312.95,440.62 313.27,438.40 313.67,435.88 314.14,433.21 314.87,429.59 315.86,425.27 317.04,420.60 318.24,416.29 319.36,412.65 320.32,409.76 321.33,406.98 322.46,404.13 324.01,400.42 325.85,396.30 327.83,392.09 329.76,388.28 331.34,385.33 332.95,382.54 334.49,380.03 336.37,377.07 338.39,374.06 340.41,371.17 342.48,368.37 344.35,365.98 346.42,363.44 348.36,361.16 350.68,358.58 352.88,356.23 355.43,353.63 357.75,351.36 360.44,348.82 363.17,346.37 366.30,343.67 369.38,341.14 372.15,338.97 374.74,337.05 377.04,335.44 379.55,333.77 381.88,332.27 384.35,330.77 386.58,329.46 389.08,328.07 391.77,326.65 394.90,325.06 398.21,323.48 401.53,321.98 404.90,320.57 408.11,319.30 410.97,318.23 413.64,317.30 415.96,316.53 418.59,315.73 421.37,314.95 424.89,314.02 428.47,313.14 432.03,312.33 434.79,311.76 437.60,311.26 439.97,310.87 442.84,310.43 445.57,310.07 448.67,309.69 451.71,309.39 454.43,309.19 457.11,309.08 459.42,309.04 462.06,309.05 464.37,309.11 467.04,309.22 469.29,309.34 471.93,309.53 474.15,309.71 476.74,309.97 479.01,310.24 481.63,310.59 483.92,310.93 486.55,311.37 489.31,311.91 492.98,312.71 497.13,313.72 501.33,314.82 505.14,315.92 508.68,317.06 512.46,318.42 516.29,319.88 520.07,321.43 523.56,322.98 527.39,324.84 531.67,327.08 536.31,329.68 540.60,332.25 544.24,334.57 547.02,336.47 549.61,338.37 551.97,340.20 554.70,342.40 557.20,344.47 559.88,346.77 562.15,348.77 564.47,350.89 566.50,352.81 568.75,355.00 570.88,357.16 573.35,359.77 575.86,362.57 578.59,365.74 581.17,368.88 583.35,371.65 585.38,374.45 587.28,377.30 589.32,380.56 591.26,383.88 593.06,387.15 594.75,390.40 596.36,393.69 597.92,397.08 599.56,400.92 601.20,405.06 602.74,409.17 604.00,412.81 604.94,415.72 605.73,418.39 606.39,420.80 607.07,423.46 607.64,425.88 608.25,428.65 608.80,431.46 609.36,434.64 609.86,437.81 610.24,440.52 610.55,443.28 610.80,446.05 611.04,449.24 611.22,452.43 611.33,455.21 611.36,457.90 611.35,460.21 611.30,462.87 611.23,465.22 611.11,468.01 610.96,470.74 610.75,473.90 610.49,476.99 610.21,479.69 609.84,482.45 609.40,485.18 608.84,488.37 608.19,491.64 M 62.18,228.67 L 61.12,230.50 60.15,232.18 58.54,235.02 56.90,237.99 54.89,241.71 52.94,245.38 51.10,248.90 49.70,251.63 48.31,254.40 46.91,257.26 45.33,260.52 43.78,263.81 42.51,266.54 41.23,269.37 39.98,272.20 38.34,275.98 36.57,280.21 34.65,284.89 32.94,289.16 31.47,292.97 30.39,295.79 29.35,298.64 28.38,301.37 27.27,304.56 26.25,307.56 25.38,310.17 24.53,312.82 23.62,315.66 22.42,319.51 21.05,323.95 19.57,328.88 18.13,333.86 16.79,338.69 15.64,343.00 14.70,346.64 14.02,349.38 13.36,352.10 12.73,354.85 12.00,358.11 11.30,361.31 10.71,364.05 10.15,366.82 9.61,369.59 8.99,372.84 8.42,375.97 7.94,378.69 7.49,381.31 7.10,383.61 6.68,386.23 6.34,388.47 5.95,391.08 5.63,393.26 5.24,395.95 4.93,398.21 4.56,400.90 4.28,403.12 3.95,405.72 3.69,407.97 3.39,410.64 3.14,412.93 2.87,415.60 2.65,417.83 2.41,420.39 2.21,422.67 1.98,425.32 1.78,427.68 1.54,430.32 1.33,432.57 1.10,435.15 0.93,437.33 0.73,439.93 0.57,442.20 0.41,444.83 0.29,447.14 0.17,449.73 0.10,452.04 0.04,454.63 0.01,456.94 0.00,459.54 0.02,461.84 0.06,464.44 0.13,466.75 0.22,469.34 0.34,471.65 0.49,474.29 0.68,477.07 0.92,480.18 1.20,483.42 1.45,486.17 1.71,488.93 1.90,491.23 2.12,493.93 2.34,496.70 2.60,499.81 2.86,502.96 3.09,505.70 3.34,508.42 3.57,510.78 3.85,513.47 4.17,516.29 4.60,519.85 5.08,523.59 5.60,527.41 6.09,530.82 6.59,534.12 7.10,537.31 7.55,540.07 8.04,542.83 8.56,545.64 9.23,549.17 9.94,552.80 10.66,556.33 11.26,559.16 11.90,562.01 12.58,565.01 13.48,568.77 14.42,572.62 15.38,576.41 16.26,579.77 17.27,583.48 18.44,587.65 19.81,592.30 21.13,596.68 22.31,600.49 23.27,603.47 24.22,606.32 25.25,609.32 26.58,613.13 28.16,617.51 29.92,622.26 31.77,627.08 33.63,631.77 35.35,636.02 36.91,639.76 38.15,642.66 39.38,645.46 40.58,648.14 42.02,651.31 43.53,654.56 45.11,657.89 46.70,661.18 48.32,664.46 49.96,667.71 51.62,670.95 53.27,674.09 54.76,676.91 56.30,679.75 57.88,682.59 59.65,685.73 61.48,688.92 63.40,692.20 65.65,695.96 68.28,700.26 71.25,704.98 74.09,709.42 76.64,713.30 78.65,716.29 80.49,719.00 82.10,721.33 83.87,723.84 85.52,726.14 87.33,728.62 89.00,730.90 90.82,733.35 92.50,735.58 94.41,738.07 96.26,740.44 98.36,743.09 100.26,745.46 102.34,748.02 104.27,750.36 106.45,752.96 108.42,755.27 110.56,757.76 112.53,760.04 114.84,762.66 117.00,765.09 119.51,767.87 122.07,770.65 124.93,773.71 127.81,776.74 130.37,779.42 132.95,782.09 135.22,784.41 137.80,787.00 140.09,789.27 142.59,791.71 144.77,793.79 147.17,796.06 149.41,798.14 152.03,800.53 154.44,802.71 157.06,805.05 159.33,807.04 161.82,809.19 164.14,811.14 166.75,813.31 169.08,815.23 171.53,817.23 173.71,819.00 176.27,821.03 179.13,823.25 182.76,826.00 186.54,828.82 190.21,831.53 193.13,833.65 195.97,835.64 198.86,837.62 202.04,839.79 205.18,841.91 207.81,843.67 210.45,845.38 212.79,846.87 215.44,848.52 217.85,850.01 220.46,851.63 222.85,853.09 225.54,854.71 228.39,856.36 231.50,858.13 234.66,859.90 237.34,861.40 240.13,862.94 242.44,864.19 245.06,865.59 247.22,866.72 249.90,868.09 252.75,869.52 256.37,871.32 260.05,873.11 263.74,874.88 267.21,876.49 270.93,878.18 274.67,879.84 278.42,881.47 281.94,882.97 285.72,884.52 289.52,886.05 293.17,887.49 296.11,888.63 298.91,889.68 301.86,890.77 305.64,892.12 309.99,893.63 314.79,895.25 319.69,896.85 324.49,898.36 328.77,899.66 332.44,900.73 335.16,901.50 337.90,902.26 340.63,903.00 343.84,903.86 347.10,904.70 350.32,905.50 353.56,906.26 356.80,907.01 360.11,907.76 363.91,908.59 367.65,909.37 371.36,910.10 374.21,910.65 377.09,911.18 379.95,911.69 383.14,912.26 386.30,912.78 388.99,913.20 391.80,913.61 394.60,914.00 397.76,914.44 400.93,914.86 403.64,915.20 406.48,915.53 409.29,915.83 412.47,916.15 415.64,916.46 418.36,916.71 421.20,916.95 424.03,917.18 427.23,917.42 430.42,917.63 433.13,917.80 435.85,917.95 438.14,918.08 440.77,918.22 443.08,918.35 445.67,918.48 447.98,918.60 450.58,918.72 452.88,918.81 455.48,918.89 457.79,918.92 460.38,918.92 462.69,918.87 465.28,918.80 467.59,918.73 470.28,918.62 473.03,918.49 476.20,918.32 479.37,918.14 482.13,917.98 484.81,917.83 M 920.93,488.87 L 921.06,486.96 921.22,483.79 921.32,481.07 921.37,478.28 921.41,475.94 921.46,473.28 921.51,470.98 921.55,468.38 921.58,466.07 921.60,463.48 921.60,461.17 921.59,458.57 921.58,456.27 921.57,453.67 921.55,451.37 921.52,448.77 921.49,446.46 921.46,443.87 921.42,441.56 921.35,438.87 921.22,436.08 921.04,432.95 920.81,429.78 920.61,427.06 920.38,424.22 920.14,421.40 919.86,418.20 919.58,415.03 919.34,412.31 919.08,409.58 918.85,407.34 918.56,404.72 918.29,402.51 917.95,399.84 917.66,397.56 917.29,394.78 916.89,391.99 916.41,388.83 915.90,385.57 915.37,382.37 914.81,379.09 914.25,375.91 913.74,373.13 913.18,370.26 912.61,367.41 911.96,364.23 911.29,361.08 910.70,358.37 910.05,355.53 909.36,352.58 908.46,348.88 907.53,345.14 906.61,341.55 905.87,338.71 905.13,335.99 904.47,333.61 903.70,330.89 902.84,328.00 901.73,324.30 900.39,319.98 898.86,315.19 897.23,310.28 895.55,305.40 893.85,300.62 892.27,296.27 890.86,292.50 889.72,289.55 888.62,286.76 887.44,283.84 885.95,280.22 884.36,276.44 882.75,272.67 881.21,269.16 879.52,265.44 877.80,261.73 876.05,258.03 874.42,254.67 872.78,251.39 871.11,248.13 869.38,244.82 867.66,241.58 865.93,238.38 864.45,235.70 862.86,232.88 861.19,229.97 858.96,226.18 856.42,221.96 853.86,217.76 851.56,214.08 849.73,211.20 847.95,208.46 846.38,206.09 844.62,203.47 843.12,201.26 841.40,198.75 839.83,196.50 837.92,193.80 835.86,190.95 833.46,187.67 831.04,184.42 828.92,181.59 826.94,179.01 825.21,176.78 823.18,174.23 820.97,171.47 818.41,168.33 815.74,165.11 813.34,162.24 811.00,159.50 809.01,157.21 806.83,154.73 804.82,152.45 802.47,149.82 800.29,147.40 797.82,144.69 795.60,142.29 793.08,139.62 790.82,137.27 788.24,134.66 785.93,132.35 783.33,129.76 781.00,127.48 778.35,124.93 775.97,122.70 773.27,120.21 770.86,118.01 768.15,115.54 765.72,113.38 763.06,111.07 760.75,109.11 758.17,106.94 755.46,104.69 752.32,102.12 749.16,99.58 746.38,97.40 743.70,95.33 741.29,93.48 738.59,91.43 736.16,89.62 733.51,87.69 731.21,86.05 728.64,84.24 726.46,82.72 723.96,80.98 721.70,79.42 719.12,77.69 716.76,76.13 714.18,74.47 711.81,72.95 709.15,71.26 706.27,69.47 702.72,67.30 699.00,65.07 695.42,62.96 692.46,61.24 689.72,59.67 687.27,58.30 684.51,56.79 681.60,55.23 678.43,53.56 675.23,51.88 672.50,50.47 669.64,49.03 666.77,47.62 663.59,46.08 660.45,44.58 657.80,43.33 655.02,42.05 652.14,40.76 648.42,39.12 644.27,37.34 640.10,35.57 636.22,33.97 632.66,32.55 628.81,31.06 625.04,29.63 621.36,28.26 618.51,27.22 615.80,26.26 613.43,25.44 610.78,24.53 607.92,23.58 604.30,22.41 600.01,21.06 595.35,19.63 591.07,18.36 587.39,17.30 584.66,16.54 581.92,15.80 579.07,15.05 575.17,14.06 570.83,12.99 566.52,11.96 562.80,11.11 560.04,10.49 557.27,9.89 554.50,9.33 551.25,8.68 548.06,8.07 545.36,7.56 542.67,7.07 540.45,6.68 537.79,6.22 535.55,5.85 532.92,5.44 530.69,5.11 528.07,4.73 525.84,4.41 523.18,4.04 520.92,3.73 518.26,3.39 515.96,3.11 513.34,2.82 511.00,2.58 508.37,2.32 506.07,2.10 503.52,1.85 501.31,1.65 498.70,1.42 496.38,1.24 493.73,1.07 491.46,0.94 488.86,0.79 486.64,0.67 484.00,0.54 481.75,0.42 479.08,0.32 476.77,0.26 474.13,0.22 471.82,0.21 469.23,0.20 466.92,0.19 464.32,0.16 462.02,0.14 459.42,0.11 457.11,0.08 454.52,0.05 452.21,0.03 449.61,0.01 447.31,0.00 444.71,0.04 442.41,0.13 439.72,0.29 437.00,0.47 433.94,0.66 430.85,0.85 428.11,1.01 425.30,1.17 422.89,1.29 420.21,1.44 417.89,1.59 415.23,1.81 412.42,2.09 409.27,2.44 405.93,2.86 402.70,3.29 399.41,3.75 396.25,4.19 393.51,4.56 390.76,4.95 387.97,5.37 384.82,5.88 381.49,6.44 378.25,7.00 374.49,7.69 370.76,8.39 366.93,9.15 363.56,9.85 360.30,10.55 357.07,11.26 353.84,12.00 350.12,12.90 345.89,13.97 341.06,15.22 336.13,16.56 331.68,17.82 327.75,18.96 324.41,19.97 320.73,21.12 316.58,22.45 311.89,24.02 307.17,25.64 302.87,27.16 299.09,28.54 296.14,29.64 293.28,30.74 290.51,31.83 287.26,33.13 284.08,34.42 281.21,35.61 278.47,36.78 275.66,38.00 272.50,39.39 269.17,40.89 265.87,42.40 262.56,43.96 259.34,45.50 256.57,46.84 253.82,48.20 251.21,49.53 248.11,51.12 244.93,52.79 241.68,54.52 238.55,56.21 235.51,57.90 232.80,59.41 229.94,61.05 226.95,62.80 223.18,65.05 218.85,67.70 214.05,70.70 209.11,73.88 204.19,77.13 199.32,80.44 194.50,83.81 189.80,87.20 185.55,90.32 181.87,93.09 179.04,95.25 176.41,97.30 174.08,99.15 171.37,101.35 168.87,103.41 166.13,105.68 163.78,107.65 161.25,109.81 158.97,111.81 156.43,114.06 154.17,116.09 151.74,118.30 149.53,120.33 147.00,122.70 144.67,124.93 142.06,127.47 139.73,129.75 137.12,132.33 134.81,134.64 132.25,137.27 129.98,139.61 127.46,142.24 125.25,144.58 122.88,147.12 120.86,149.33 118.65,151.78 116.61,154.08 114.26,156.76 112.12,159.21 109.85,161.85 107.91,164.13 105.79,166.64 103.85,168.97 101.71,171.58 99.83,173.91 97.88,176.36 96.15,178.56 94.14,181.15 92.01,183.96 89.56,187.23 87.17,190.47 85.09,193.33 83.21,195.94 81.60,198.24 79.88,200.74 78.29,203.08 76.57,205.62 75.01,207.97 73.33,210.54 71.82,212.88 70.15,215.52 69.07,217.24 67.95,219.04 M 62.18,228.67 L 64.99,223.79 M 67.95,219.04 L 64.99,223.79 64.99,223.79 M 267.13,233.09 L 264.19,235.64 260.70,238.75 255.86,243.19 251.18,247.70 246.64,252.32 242.23,257.03 237.99,261.76 233.78,266.64 229.76,271.48 225.73,276.55 221.97,281.50 218.36,286.44 215.07,291.14 211.90,295.85 208.81,300.67 205.73,305.65 202.75,310.71 199.96,315.66 197.35,320.49 194.91,325.24 192.56,330.02 190.28,334.88 188.08,339.78 185.99,344.71 183.99,349.65 182.11,354.52 180.32,359.38 178.64,364.21 177.02,369.12 175.49,374.00 174.06,378.82 172.73,383.62 171.46,388.44 170.26,393.31 169.13,398.17 168.09,403.02 167.11,407.92 166.21,412.85 165.40,417.79 164.69,422.61 164.09,427.40 163.55,432.25 163.07,437.16 162.63,442.09 162.27,446.92 161.98,451.76 161.82,456.60 161.81,461.51 161.97,466.35 162.29,471.19 162.71,476.01 163.16,480.89 163.62,485.81 164.11,490.68 164.68,495.58 165.33,500.45 166.07,505.39 166.90,510.27 167.81,515.18 168.80,520.03 169.87,524.87 171.01,529.66 172.23,534.45 173.56,539.31 174.99,544.22 176.53,549.16 178.14,554.06 179.83,558.91 181.62,563.78 183.51,568.65 185.52,573.60 187.63,578.53 189.80,583.41 192.11,588.33 194.48,593.18 196.99,598.09 199.57,602.92 202.31,607.86 205.21,612.82 208.24,617.84 211.39,622.82 214.62,627.73 218.02,632.67 221.56,637.61 225.28,642.58 229.09,647.47 233.01,652.28 237.12,657.10 241.38,661.87 245.91,666.74 250.53,671.49 255.28,676.17 260.05,680.65 264.92,685.04 269.88,689.33 274.81,693.42 279.76,697.36 284.59,701.03 289.43,704.57 294.26,707.93 299.15,711.21 304.12,714.38 309.13,717.44 314.10,720.35 318.96,723.07 323.73,725.63 328.50,728.07 333.32,730.44 338.19,732.71 343.08,734.90 348.02,736.99 352.92,738.98 357.81,740.85 362.66,742.62 367.54,744.30 372.46,745.90 377.39,747.41 382.29,748.81 387.24,750.13 392.14,751.35 397.13,752.51 402.01,753.56 406.90,754.52 411.73,755.37 416.64,756.14 421.57,756.84 426.50,757.47 431.37,758.00 436.24,758.42 441.11,758.72 446.01,758.90 448.11,758.94 M 759.83,450.73 L 759.66,446.79 759.37,441.89 758.99,436.96 758.52,432.06 757.97,427.15 757.33,422.22 756.62,417.31 755.82,412.38 754.96,407.51 754.01,402.60 752.99,397.76 751.89,392.89 750.71,388.04 749.44,383.15 748.07,378.23 746.61,373.29 745.07,368.36 743.43,363.46 741.72,358.58 739.93,353.74 738.03,348.86 736.03,343.99 733.88,338.98 731.65,334.04 729.27,329.03 726.87,324.18 724.31,319.26 721.72,314.49 718.99,309.67 716.18,304.94 713.19,300.11 709.98,295.19 706.58,290.18 702.98,285.12 699.28,280.14 695.45,275.25 691.41,270.36 687.20,265.52 682.71,260.55 678.18,255.68 673.68,250.92 669.29,246.39 664.81,241.95 660.03,237.48 655.05,233.09 650.03,228.89 645.07,224.94 640.15,221.17 635.15,217.49 630.20,213.98 625.25,210.61 620.34,207.40 615.46,204.34 610.61,201.41 605.85,198.66 601.01,195.97 596.22,193.43 591.28,190.92 586.41,188.56 581.46,186.27 576.56,184.11 571.61,182.05 566.63,180.08 561.71,178.23 556.79,176.49 551.91,174.87 547.00,173.35 542.12,171.95 537.26,170.65 532.38,169.44 527.44,168.29 522.50,167.20 517.59,166.19 512.76,165.28 507.92,164.45 503.12,163.73 498.24,163.08 493.35,162.50 488.38,161.97 483.47,161.51 478.55,161.13 473.72,160.85 468.85,160.67 463.99,160.58 459.08,160.58 454.20,160.66 449.55,160.80 445.51,160.96 442.11,161.13 439.02,161.32 435.46,161.57 431.24,161.91 426.50,162.37 421.61,162.95 416.73,163.64 411.89,164.43 407.05,165.31 402.23,166.28 397.36,167.35 392.43,168.53 387.45,169.82 382.48,171.21 377.60,172.66 372.80,174.17 368.08,175.74 363.27,177.43 358.41,179.24 353.40,181.20 348.47,183.21 343.64,185.27 338.88,187.39 334.17,189.57 329.33,191.90 324.49,194.35 319.53,196.99 314.51,199.81 309.50,202.73 304.59,205.73 299.86,208.74 295.15,211.87 290.46,215.11 285.66,218.55 282.26,221.04 279.27,223.29 M 267.13,233.09 L 272.77,228.18 M 279.27,223.29 L 272.77,228.18 272.77,228.18 M 490.22,608.33 L 488.68,608.63 485.86,609.10 482.72,609.58 479.57,609.98 476.82,610.27 474.13,610.45 471.82,610.54 469.23,610.58 466.92,610.59 464.32,610.58 462.02,610.55 459.42,610.50 457.11,610.45 454.52,610.38 452.21,610.31 449.61,610.20 447.31,610.09 444.67,609.90 442.37,609.68 439.68,609.33 437.41,609.00 434.71,608.54 432.51,608.12 429.83,607.53 427.14,606.85 423.55,605.86 419.79,604.75 416.07,603.58 413.08,602.57 410.41,601.61 408.09,600.73 405.62,599.75 403.33,598.80 400.78,597.68 398.48,596.63 395.93,595.41 393.77,594.33 391.19,592.98 388.85,591.70 386.16,590.16 383.75,588.72 381.11,587.06 378.82,585.55 376.30,583.82 374.14,582.27 371.62,580.41 369.38,578.68 366.84,576.64 364.54,574.70 361.90,572.38 359.51,570.19 356.87,567.66 354.56,565.36 352.03,562.72 349.84,560.33 347.52,557.70 345.58,555.39 343.47,552.77 341.31,549.91 338.63,546.15 335.81,541.94 333.12,537.72 330.91,533.99 329.24,531.01 327.75,528.16 326.34,525.27 324.87,522.13 323.48,518.96 322.35,516.24 321.24,513.38 320.19,510.45 318.96,506.82 317.83,503.25 316.80,499.71 315.93,496.36 315.06,492.55 314.28,488.79 313.59,485.03 313.06,481.58 312.57,477.79 312.18,474.05 311.86,470.51 311.68,467.74 311.58,465.11 311.52,462.81 311.51,460.22 311.55,457.99 311.65,455.42 311.76,453.19 311.93,450.52 312.11,448.22 312.36,445.54 312.62,443.23 312.95,440.62 313.27,438.40 313.67,435.88 314.14,433.21 314.87,429.59 315.86,425.27 317.04,420.60 318.24,416.29 319.36,412.65 320.32,409.76 321.33,406.98 322.46,404.13 324.01,400.42 325.85,396.30 327.83,392.09 329.76,388.28 331.34,385.33 332.95,382.54 334.49,380.03 336.37,377.07 338.39,374.06 340.41,371.17 342.48,368.37 344.35,365.98 346.42,363.44 348.36,361.16 350.68,358.58 352.88,356.23 355.43,353.63 357.75,351.36 360.44,348.82 363.17,346.37 366.30,343.67 369.38,341.14 372.15,338.97 374.74,337.05 377.04,335.44 379.55,333.77 381.88,332.27 384.35,330.77 386.58,329.46 389.08,328.07 391.77,326.65 394.90,325.06 398.21,323.48 401.53,321.98 404.90,320.57 408.11,319.30 410.97,318.23 413.64,317.30 415.96,316.53 418.59,315.73 421.37,314.95 424.89,314.02 428.47,313.14 432.03,312.33 434.79,311.76 437.60,311.26 439.97,310.87 442.84,310.43 445.57,310.07 448.67,309.69 451.71,309.39 454.43,309.19 457.11,309.08 459.42,309.04 462.06,309.05 464.37,309.11 467.04,309.22 469.29,309.34 471.93,309.53 474.15,309.71 476.74,309.97 479.01,310.24 481.63,310.59 483.92,310.93 486.55,311.37 489.31,311.91 492.98,312.71 497.13,313.72 501.33,314.82 505.14,315.92 508.68,317.06 512.46,318.42 516.29,319.88 520.07,321.43 523.56,322.98 527.39,324.84 531.67,327.08 536.31,329.68 540.60,332.25 544.24,334.57 547.02,336.47 549.61,338.37 551.97,340.20 554.70,342.40 557.20,344.47 559.88,346.77 562.15,348.77 564.47,350.89 566.50,352.81 568.75,355.00 570.88,357.16 573.35,359.77 575.86,362.57 578.59,365.74 581.17,368.88 583.35,371.65 585.38,374.45 587.28,377.30 589.32,380.56 591.26,383.88 593.06,387.15 594.75,390.40 596.36,393.69 597.92,397.08 599.56,400.92 601.20,405.06 602.74,409.17 604.00,412.81 604.94,415.72 605.73,418.39 606.39,420.80 607.07,423.46 607.64,425.88 608.25,428.65 608.80,431.46 609.36,434.64 609.86,437.81 610.24,440.52 610.55,443.28 610.80,446.05 611.04,449.24 611.22,452.43 611.33,455.21 611.36,457.90 611.35,460.21 611.30,462.87 611.23,465.22 611.11,468.01 610.96,470.74 610.75,473.90 610.49,476.99 610.21,479.69 609.84,482.45 609.40,485.18 608.84,488.37 608.19,491.64" stroke-width="45.0"></path></g><g id="state-icon" stroke="#000000" stroke-width="45" fill="none" stroke-linecap="round" stroke-linejoin="round"><path d="M 734.10,851.32 L 735.90,849.51 738.04,847.38 741.03,844.39 744.01,841.40 747.00,838.41 749.99,835.42 752.97,832.44 755.96,829.45 758.95,826.46 761.94,823.47 764.92,820.48 767.91,817.49 770.90,814.50 773.88,811.52 776.87,808.53 779.86,805.54 782.84,802.55 785.83,799.56 788.82,796.57 791.80,793.58 794.79,790.60 797.78,787.61 800.77,784.62 803.75,781.63 806.74,778.64 809.73,775.65 812.71,772.67 815.70,769.68 818.69,766.69 821.67,763.70 824.66,760.71 827.65,757.72 830.64,754.73 833.62,751.75 836.61,748.76 839.60,745.77 842.58,742.78 845.57,739.79 848.56,736.80 851.54,733.82 854.53,730.83 857.52,727.84 860.51,724.85 863.49,721.86 866.48,718.87 869.47,715.88 872.45,712.90 875.44,709.91 878.43,706.92 881.41,703.93 884.40,700.94 887.39,697.95 890.37,694.96 893.36,691.98 896.35,688.99 899.34,686.00 902.32,683.01 905.31,680.02 908.30,677.03 911.28,674.05 914.27,671.06 917.26,668.07 919.39,665.93 921.20,664.12 M 622.98,762.14 L 624.68,763.83 626.78,765.92 629.73,768.85 632.73,771.82 635.73,774.80 638.73,777.77 641.73,780.75 644.73,783.72 647.73,786.70 650.73,789.67 653.73,792.65 656.73,795.63 659.73,798.60 662.73,801.58 665.73,804.55 668.73,807.53 671.73,810.50 674.73,813.48 677.73,816.45 680.73,819.43 683.73,822.41 686.73,825.38 689.73,828.36 692.73,831.33 695.73,834.31 698.73,837.28 701.73,840.26 704.73,843.23 707.73,846.20 710.66,849.12 712.75,851.18 714.44,852.86 M 734.10,851.32 L 723.54,861.88 M 714.44,852.86 L 723.54,861.88 723.54,861.88 M 892.26,992.31 L 890.79,993.12 889.24,993.95 887.17,995.06 885.19,996.10 883.29,997.07 881.62,997.91 880.00,998.70 878.61,999.36 877.05,1000.09 875.70,1000.71 874.12,1001.43 872.72,1002.07 871.10,1002.80 869.69,1003.43 868.10,1004.12 866.73,1004.69 865.12,1005.34 863.69,1005.91 862.01,1006.57 860.21,1007.26 857.92,1008.13 855.32,1009.09 852.72,1010.03 850.40,1010.83 848.57,1011.44 846.93,1011.96 845.49,1012.41 843.94,1012.90 842.50,1013.34 840.89,1013.83 839.19,1014.32 837.33,1014.85 835.43,1015.38 833.79,1015.82 832.09,1016.25 830.64,1016.61 828.93,1017.01 827.25,1017.40 825.33,1017.85 823.36,1018.29 821.43,1018.71 819.45,1019.12 817.51,1019.50 815.76,1019.82 814.07,1020.11 812.73,1020.34 811.15,1020.61 809.80,1020.83 808.13,1021.10 806.79,1021.32 805.16,1021.57 803.81,1021.77 802.15,1021.99 800.77,1022.16 799.17,1022.34 797.82,1022.48 796.25,1022.65 794.89,1022.79 793.25,1022.95 791.81,1023.08 790.16,1023.22 788.82,1023.33 787.26,1023.45 785.92,1023.55 784.30,1023.65 782.88,1023.72 781.26,1023.78 779.90,1023.81 778.32,1023.84 776.96,1023.87 775.33,1023.90 773.93,1023.94 772.31,1023.97 770.91,1023.99 769.31,1024.00 767.91,1024.00 766.33,1023.99 764.92,1023.98 763.31,1023.96 761.91,1023.93 760.33,1023.89 759.04,1023.85 757.51,1023.79 756.14,1023.74 754.48,1023.67 753.02,1023.60 751.37,1023.49 749.96,1023.39 748.35,1023.27 747.03,1023.17 745.46,1023.05 744.12,1022.93 742.45,1022.77 741.01,1022.62 739.38,1022.44 738.03,1022.28 736.48,1022.09 735.08,1021.92 733.46,1021.71 732.04,1021.52 730.38,1021.27 728.70,1021.01 726.77,1020.70 724.77,1020.36 722.83,1020.03 720.85,1019.66 718.91,1019.28 717.17,1018.94 715.43,1018.58 713.76,1018.22 711.86,1017.80 709.97,1017.37 708.30,1016.98 706.59,1016.55 705.14,1016.19 703.44,1015.75 701.73,1015.29 699.52,1014.68 697.29,1014.05 695.09,1013.41 693.38,1012.90 691.73,1012.39 690.30,1011.94 688.73,1011.43 687.30,1010.96 685.67,1010.42 683.85,1009.78 681.54,1008.95 678.89,1007.98 676.09,1006.91 673.55,1005.92 671.34,1005.03 669.67,1004.35 668.02,1003.65 666.66,1003.08 664.94,1002.34 663.21,1001.56 661.20,1000.64 659.18,999.70 657.17,998.75 655.17,997.78 653.17,996.78 651.09,995.73 648.81,994.53 646.48,993.29 644.21,992.06 642.17,990.92 640.23,989.80 638.32,988.69 636.68,987.73 635.10,986.78 633.84,986.02 632.34,985.08 630.98,984.22 629.41,983.21 627.98,982.28 626.43,981.26 625.01,980.30 623.38,979.20 621.61,977.97 619.60,976.55 617.58,975.10 615.84,973.84 614.24,972.65 612.87,971.62 611.35,970.45 609.91,969.32 608.24,967.99 606.69,966.75 605.02,965.40 603.59,964.21 602.06,962.91 600.66,961.70 599.09,960.34 597.70,959.13 596.20,957.79 594.84,956.55 593.27,955.09 591.83,953.73 590.21,952.19 588.78,950.80 587.24,949.28 585.93,947.96 584.52,946.53 583.26,945.22 581.87,943.76 580.63,942.44 579.26,940.98 578.00,939.60 576.56,937.99 575.25,936.50 573.86,934.89 572.66,933.50 571.36,931.97 570.18,930.55 568.88,928.94 567.72,927.51 566.45,925.90 565.10,924.18 563.41,922.00 561.66,919.71 559.99,917.49 558.69,915.72 557.55,914.10 556.59,912.69 555.54,911.15 554.58,909.72 553.54,908.17 552.59,906.73 551.57,905.17 550.64,903.73 549.62,902.13 548.61,900.47 547.50,898.61 546.41,896.72 545.42,894.99 544.46,893.31 543.62,891.82 542.69,890.15 541.74,888.40 540.71,886.47 539.70,884.52 538.86,882.84 538.00,881.10 537.16,879.33 536.11,877.13 535.06,874.88 534.01,872.61 533.07,870.48 532.07,868.16 531.04,865.63 530.02,863.06 529.13,860.78 528.44,858.97 527.83,857.39 527.30,855.98 526.75,854.47 526.24,853.04 525.72,851.49 525.24,850.05 524.74,848.47 524.28,847.02 523.78,845.39 523.26,843.69 522.59,841.45 521.85,838.89 521.13,836.33 520.52,834.05 520.08,832.31 519.67,830.57 519.26,828.80 518.74,826.56 518.23,824.29 517.74,822.06 517.36,820.31 517.03,818.63 516.76,817.27 516.47,815.69 516.24,814.33 515.96,812.69 515.73,811.32 515.48,809.72 515.26,808.36 514.99,806.64 514.74,804.92 514.45,802.97 514.20,801.10 513.99,799.50 513.80,797.93 513.65,796.57 513.49,795.00 513.36,793.57 513.21,791.93 513.07,790.43 512.93,788.76 512.81,787.39 512.69,785.88 512.59,784.60 512.48,783.05 512.40,781.66 512.32,780.06 512.27,778.65 512.21,777.05 512.17,775.65 512.14,774.01 512.11,772.61 512.07,770.98 512.04,769.61 512.02,768.05 512.00,766.69 512.00,765.12 512.01,763.71 512.05,762.12 512.08,760.74 512.14,759.22 512.18,757.95 512.24,756.44 512.31,755.06 512.38,753.37 512.46,751.86 512.54,750.21 512.63,748.77 512.73,747.20 512.84,745.84 512.97,744.25 513.14,742.61 513.34,740.65 513.56,738.67 513.75,736.96 513.95,735.29 514.15,733.65 514.39,731.73 514.66,729.72 514.96,727.73 515.27,725.73 515.61,723.73 515.96,721.75 516.32,719.76 516.70,717.78 517.08,715.80 517.47,713.82 517.88,711.87 518.32,709.88 518.84,707.66 519.40,705.40 519.97,703.16 520.43,701.40 520.88,699.69 521.34,697.97 521.97,695.74 522.74,693.14 523.65,690.23 524.63,687.24 525.64,684.25 526.65,681.27 527.69,678.32 528.75,675.46 529.75,672.94 530.67,670.69 531.39,668.97 532.11,667.24 532.69,665.88 533.40,664.20 534.00,662.80 534.76,661.10 535.40,659.73 536.21,658.05 536.91,656.64 537.72,655.03 538.40,653.70 539.22,652.08 539.93,650.68 540.75,649.07 541.43,647.77 542.26,646.22 543.05,644.82 543.99,643.15 544.84,641.71 545.77,640.14 546.51,638.90 547.40,637.42 548.20,636.10 549.19,634.48 550.10,633.02 551.12,631.41 552.06,629.97 553.08,628.42 554.04,627.01 555.15,625.40 556.40,623.64 557.83,621.65 559.30,619.64 560.58,617.91 561.78,616.31 562.81,614.95 563.97,613.43 565.09,611.99 566.36,610.37 567.52,608.93 568.79,607.38 569.96,605.97 571.35,604.35 572.64,602.85 574.06,601.22 575.29,599.82 576.64,598.31 577.88,596.94 579.30,595.42 580.58,594.08 581.97,592.66 583.23,591.38 584.61,589.97 585.88,588.69 587.29,587.29 588.64,585.99 590.23,584.49 591.71,583.13 593.36,581.62 594.81,580.31 596.39,578.90 597.76,577.69 599.27,576.38 600.68,575.19 602.27,573.87 603.69,572.70 605.30,571.42 606.96,570.10 608.91,568.57 610.85,567.07 612.57,565.76 614.15,564.59 615.55,563.59 617.18,562.44 618.98,561.19 621.31,559.58 623.90,557.83 626.45,556.15 628.67,554.73 630.35,553.67 631.98,552.66 633.43,551.78 635.09,550.78 636.75,549.79 638.63,548.71 640.53,547.63 642.27,546.66 644.00,545.72 645.71,544.81 647.61,543.81 649.58,542.79 651.55,541.78 653.55,540.79 655.56,539.83 657.61,538.87 659.84,537.84 662.10,536.81 664.28,535.84 666.05,535.07 667.74,534.36 669.52,533.64 671.54,532.84 673.67,532.01 675.65,531.24 677.55,530.52 679.30,529.88 680.89,529.30 682.49,528.73 683.97,528.23 685.57,527.70 687.03,527.22 688.58,526.73 690.03,526.28 691.62,525.79 693.05,525.34 694.67,524.85 696.38,524.36 698.56,523.76 700.81,523.17 703.02,522.59 704.77,522.15 706.50,521.72 708.18,521.32 710.07,520.88 711.94,520.46 713.54,520.12 715.17,519.79 716.52,519.53 718.15,519.22 719.50,518.96 721.13,518.67 722.48,518.43 724.12,518.14 725.47,517.91 727.10,517.65 728.45,517.45 730.08,517.22 731.47,517.04 733.13,516.83 734.60,516.66 736.27,516.46 737.63,516.30 739.14,516.13 740.43,515.98 742.01,515.82 743.38,515.69 744.91,515.56 746.16,515.47 747.58,515.37 748.96,515.28 750.45,515.18 751.98,515.08 753.41,515.00 754.96,514.93 756.37,514.87 757.95,514.82 759.36,514.77 760.94,514.72 762.34,514.68 763.93,514.65 765.33,514.63 766.91,514.64 768.32,514.64 769.90,514.66 771.31,514.67 772.89,514.69 774.29,514.72 775.88,514.77 777.28,514.82 778.86,514.90 780.27,514.97 781.85,515.04 783.26,515.12 784.84,515.21 786.21,515.31 787.82,515.44 789.47,515.59 791.42,515.76 793.39,515.95 795.10,516.12 796.78,516.31 798.41,516.50 800.28,516.74 802.22,516.99 803.94,517.22 805.74,517.48 807.47,517.75 809.46,518.06 811.46,518.40 813.44,518.74 815.43,519.10 817.42,519.48 819.35,519.86 821.29,520.26 823.19,520.67 824.88,521.04 826.65,521.44 828.40,521.85 830.63,522.40 832.91,522.97 835.12,523.55 836.89,524.02 838.55,524.48 840.00,524.89 841.65,525.37 843.36,525.89 845.60,526.57 848.20,527.40 851.03,528.33 853.62,529.20 855.83,529.98 857.52,530.58 859.23,531.20 860.89,531.82 862.90,532.59 864.94,533.39 867.03,534.24 869.09,535.09 871.06,535.91 872.78,536.65 874.45,537.38 876.20,538.17 878.37,539.17 880.62,540.23 882.84,541.29 884.62,542.16 886.37,543.04 888.03,543.89 890.00,544.91 891.98,545.96 893.98,547.04 895.93,548.12 897.82,549.18 899.51,550.15 901.17,551.11 902.64,551.99 904.23,552.96 905.70,553.86 907.29,554.85 908.75,555.76 910.32,556.77 911.76,557.72 913.31,558.76 914.74,559.72 916.29,560.77 917.71,561.75 919.24,562.82 920.63,563.83 922.14,564.93 923.52,565.95 925.06,567.11 926.53,568.22 928.17,569.48 929.63,570.63 931.15,571.84 932.48,572.91 933.98,574.13 935.40,575.30 937.04,576.68 938.54,577.97 940.16,579.39 941.54,580.62 943.04,581.97 944.40,583.21 945.97,584.68 947.40,586.04 949.00,587.59 950.42,588.98 951.95,590.49 953.27,591.80 954.68,593.24 955.95,594.58 957.40,596.15 958.74,597.62 960.27,599.31 961.79,601.02 963.48,602.95 965.09,604.83 966.46,606.48 967.76,608.08 968.92,609.51 970.21,611.13 971.36,612.58 972.59,614.17 973.70,615.65 974.93,617.32 976.01,618.82 977.14,620.39 978.13,621.79 979.20,623.32 980.18,624.74 981.22,626.29 982.18,627.72 983.20,629.29 984.13,630.74 985.13,632.32 986.03,633.78 987.02,635.41 988.03,637.10 989.14,638.97 990.27,640.89 991.42,642.92 992.66,645.19 993.90,647.52 995.11,649.80 996.21,651.92 997.34,654.15 998.43,656.39 999.50,658.64 1000.48,660.76 1001.51,663.03 1002.53,665.30 1003.53,667.58 1004.43,669.74 1005.39,672.11 1006.42,674.74 1007.51,677.57 1008.50,680.21 1009.33,682.52 1009.97,684.33 1010.53,685.97 1011.01,687.41 1011.52,688.95 1011.98,690.40 1012.47,691.96 1012.91,693.40 1013.40,695.00 1013.83,696.44 1014.30,698.10 1014.76,699.76 1015.27,701.63 1015.75,703.51 1016.18,705.17 1016.61,706.88 1016.97,708.33 1017.38,710.04 1017.76,711.69 1018.18,713.60 1018.58,715.54 1018.93,717.28 1019.27,718.96 1019.53,720.30 1019.83,721.88 1020.08,723.22 1020.38,724.88 1020.61,726.23 1020.87,727.85 1021.07,729.20 1021.31,730.87 1021.50,732.22 1021.72,733.82 1021.90,735.15 1022.12,736.80 1022.30,738.23 1022.49,739.87 1022.63,741.20 1022.79,742.76 1022.91,744.11 1023.06,745.77 1023.18,747.21 1023.31,748.85 1023.42,750.21 1023.52,751.78 1023.61,753.14 1023.69,754.71 1023.76,756.08 1023.82,757.68 1023.88,759.11 1023.92,760.73 1023.95,762.13 1023.97,763.71 1023.98,765.12 1023.99,766.70 1024.00,768.11 1024.00,769.69 1023.99,771.09 1023.97,772.71 1023.95,774.14 1023.91,775.78 1023.87,777.13 1023.83,778.69 1023.79,780.02 1023.74,781.62 1023.69,783.02 1023.62,784.63 1023.54,786.03 1023.44,787.62 1023.34,788.99 1023.22,790.57 1023.11,791.92 1022.97,793.55 1022.83,794.93 1022.68,796.56 1022.54,797.97 1022.37,799.57 1022.21,800.99 1022.01,802.59 1021.82,803.99 1021.60,805.58 1021.40,806.91 1021.16,808.54 1020.96,809.84 1020.69,811.51 1020.47,812.85 1020.19,814.52 1019.96,815.83 1019.66,817.45 1019.39,818.82 1019.04,820.54 1018.66,822.27 1018.24,824.20 1017.82,826.12 1017.44,827.77 1017.04,829.50 1016.59,831.28 1015.99,833.60 1015.28,836.20 1014.57,838.75 1013.92,841.00 1013.42,842.71 1012.91,844.38 1012.47,845.80 1011.96,847.41 1011.50,848.79 1010.98,850.36 1010.49,851.79 1009.91,853.46 1009.28,855.27 1008.47,857.52 1007.62,859.87 1006.77,862.11 1006.07,863.90 1005.42,865.49 1004.84,866.88 1004.16,868.47 1003.43,870.19 1002.57,872.16 1001.67,874.21 1000.75,876.24 999.80,878.26 998.83,880.27 997.84,882.26 996.84,884.25 995.82,886.23 994.79,888.20 993.75,890.17 992.68,892.14 991.59,894.08 990.47,896.02 989.36,897.90 988.35,899.60 987.36,901.25 986.46,902.72 985.40,904.42 984.26,906.21 982.98,908.19 981.71,910.10 980.62,911.70 979.45,913.38 978.24,915.12 976.78,917.18 975.35,919.18 974.08,920.92 972.89,922.50 971.83,923.87 970.62,925.41 969.44,926.88 968.08,928.58 966.84,930.12 965.49,931.77 964.33,933.18 963.03,934.71 961.82,936.10 960.45,937.65 959.22,939.03 957.86,940.53 956.60,941.91 955.12,943.51 953.75,944.98 952.20,946.60 950.81,948.02 949.22,949.60 947.80,950.99 946.19,952.54 944.75,953.91 943.12,955.45 941.66,956.82 940.06,958.29 938.67,959.54 937.15,960.86 935.75,962.05 934.13,963.43 932.61,964.70 930.94,966.09 929.49,967.28 927.97,968.51 926.63,969.58 925.12,970.76 923.65,971.86 921.89,973.17 920.01,974.55 917.65,976.26 915.10,978.07 912.58,979.83 910.38,981.31 908.65,982.45 907.00,983.51 905.60,984.39 904.09,985.35 902.84,986.13 901.25,987.11 900.20,987.76 898.95,988.51 M 892.26,992.31 L 896.29,990.12 M 898.95,988.51 L 896.29,990.12 896.29,990.12 M 734.10,851.32 L 735.90,849.51 738.04,847.38 741.03,844.39 744.01,841.40 747.00,838.41 749.99,835.42 752.97,832.44 755.96,829.45 758.95,826.46 761.94,823.47 764.92,820.48 767.91,817.49 770.90,814.50 773.88,811.52 776.87,808.53 779.86,805.54 782.84,802.55 785.83,799.56 788.82,796.57 791.80,793.58 794.79,790.60 797.78,787.61 800.77,784.62 803.75,781.63 806.74,778.64 809.73,775.65 812.71,772.67 815.70,769.68 818.69,766.69 821.67,763.70 824.66,760.71 827.65,757.72 830.64,754.73 833.62,751.75 836.61,748.76 839.60,745.77 842.58,742.78 845.57,739.79 848.56,736.80 851.54,733.82 854.53,730.83 857.52,727.84 860.51,724.85 863.49,721.86 866.48,718.87 869.47,715.88 872.45,712.90 875.44,709.91 878.43,706.92 881.41,703.93 884.40,700.94 887.39,697.95 890.37,694.96 893.36,691.98 896.35,688.99 899.34,686.00 902.32,683.01 905.31,680.02 908.30,677.03 911.28,674.05 914.27,671.06 917.26,668.07 919.39,665.93 921.20,664.12 M 622.98,762.14 L 624.68,763.83 626.78,765.92 629.73,768.85 632.73,771.82 635.73,774.80 638.73,777.77 641.73,780.75 644.73,783.72 647.73,786.70 650.73,789.67 653.73,792.65 656.73,795.63 659.73,798.60 662.73,801.58 665.73,804.55 668.73,807.53 671.73,810.50 674.73,813.48 677.73,816.45 680.73,819.43 683.73,822.41 686.73,825.38 689.73,828.36 692.73,831.33 695.73,834.31 698.73,837.28 701.73,840.26 704.73,843.23 707.73,846.20 710.66,849.12 712.75,851.18 714.44,852.86 M 734.10,851.32 L 723.54,861.88 M 714.44,852.86 L 723.54,861.88 723.54,861.88 M 892.26,992.31 L 890.79,993.12 889.24,993.95 887.17,995.06 885.19,996.10 883.29,997.07 881.62,997.91 880.00,998.70 878.61,999.36 877.05,1000.09 875.70,1000.71 874.12,1001.43 872.72,1002.07 871.10,1002.80 869.69,1003.43 868.10,1004.12 866.73,1004.69 865.12,1005.34 863.69,1005.91 862.01,1006.57 860.21,1007.26 857.92,1008.13 855.32,1009.09 852.72,1010.03 850.40,1010.83 848.57,1011.44 846.93,1011.96 845.49,1012.41 843.94,1012.90 842.50,1013.34 840.89,1013.83 839.19,1014.32 837.33,1014.85 835.43,1015.38 833.79,1015.82 832.09,1016.25 830.64,1016.61 828.93,1017.01 827.25,1017.40 825.33,1017.85 823.36,1018.29 821.43,1018.71 819.45,1019.12 817.51,1019.50 815.76,1019.82 814.07,1020.11 812.73,1020.34 811.15,1020.61 809.80,1020.83 808.13,1021.10 806.79,1021.32 805.16,1021.57 803.81,1021.77 802.15,1021.99 800.77,1022.16 799.17,1022.34 797.82,1022.48 796.25,1022.65 794.89,1022.79 793.25,1022.95 791.81,1023.08 790.16,1023.22 788.82,1023.33 787.26,1023.45 785.92,1023.55 784.30,1023.65 782.88,1023.72 781.26,1023.78 779.90,1023.81 778.32,1023.84 776.96,1023.87 775.33,1023.90 773.93,1023.94 772.31,1023.97 770.91,1023.99 769.31,1024.00 767.91,1024.00 766.33,1023.99 764.92,1023.98 763.31,1023.96 761.91,1023.93 760.33,1023.89 759.04,1023.85 757.51,1023.79 756.14,1023.74 754.48,1023.67 753.02,1023.60 751.37,1023.49 749.96,1023.39 748.35,1023.27 747.03,1023.17 745.46,1023.05 744.12,1022.93 742.45,1022.77 741.01,1022.62 739.38,1022.44 738.03,1022.28 736.48,1022.09 735.08,1021.92 733.46,1021.71 732.04,1021.52 730.38,1021.27 728.70,1021.01 726.77,1020.70 724.77,1020.36 722.83,1020.03 720.85,1019.66 718.91,1019.28 717.17,1018.94 715.43,1018.58 713.76,1018.22 711.86,1017.80 709.97,1017.37 708.30,1016.98 706.59,1016.55 705.14,1016.19 703.44,1015.75 701.73,1015.29 699.52,1014.68 697.29,1014.05 695.09,1013.41 693.38,1012.90 691.73,1012.39 690.30,1011.94 688.73,1011.43 687.30,1010.96 685.67,1010.42 683.85,1009.78 681.54,1008.95 678.89,1007.98 676.09,1006.91 673.55,1005.92 671.34,1005.03 669.67,1004.35 668.02,1003.65 666.66,1003.08 664.94,1002.34 663.21,1001.56 661.20,1000.64 659.18,999.70 657.17,998.75 655.17,997.78 653.17,996.78 651.09,995.73 648.81,994.53 646.48,993.29 644.21,992.06 642.17,990.92 640.23,989.80 638.32,988.69 636.68,987.73 635.10,986.78 633.84,986.02 632.34,985.08 630.98,984.22 629.41,983.21 627.98,982.28 626.43,981.26 625.01,980.30 623.38,979.20 621.61,977.97 619.60,976.55 617.58,975.10 615.84,973.84 614.24,972.65 612.87,971.62 611.35,970.45 609.91,969.32 608.24,967.99 606.69,966.75 605.02,965.40 603.59,964.21 602.06,962.91 600.66,961.70 599.09,960.34 597.70,959.13 596.20,957.79 594.84,956.55 593.27,955.09 591.83,953.73 590.21,952.19 588.78,950.80 587.24,949.28 585.93,947.96 584.52,946.53 583.26,945.22 581.87,943.76 580.63,942.44 579.26,940.98 578.00,939.60 576.56,937.99 575.25,936.50 573.86,934.89 572.66,933.50 571.36,931.97 570.18,930.55 568.88,928.94 567.72,927.51 566.45,925.90 565.10,924.18 563.41,922.00 561.66,919.71 559.99,917.49 558.69,915.72 557.55,914.10 556.59,912.69 555.54,911.15 554.58,909.72 553.54,908.17 552.59,906.73 551.57,905.17 550.64,903.73 549.62,902.13 548.61,900.47 547.50,898.61 546.41,896.72 545.42,894.99 544.46,893.31 543.62,891.82 542.69,890.15 541.74,888.40 540.71,886.47 539.70,884.52 538.86,882.84 538.00,881.10 537.16,879.33 536.11,877.13 535.06,874.88 534.01,872.61 533.07,870.48 532.07,868.16 531.04,865.63 530.02,863.06 529.13,860.78 528.44,858.97 527.83,857.39 527.30,855.98 526.75,854.47 526.24,853.04 525.72,851.49 525.24,850.05 524.74,848.47 524.28,847.02 523.78,845.39 523.26,843.69 522.59,841.45 521.85,838.89 521.13,836.33 520.52,834.05 520.08,832.31 519.67,830.57 519.26,828.80 518.74,826.56 518.23,824.29 517.74,822.06 517.36,820.31 517.03,818.63 516.76,817.27 516.47,815.69 516.24,814.33 515.96,812.69 515.73,811.32 515.48,809.72 515.26,808.36 514.99,806.64 514.74,804.92 514.45,802.97 514.20,801.10 513.99,799.50 513.80,797.93 513.65,796.57 513.49,795.00 513.36,793.57 513.21,791.93 513.07,790.43 512.93,788.76 512.81,787.39 512.69,785.88 512.59,784.60 512.48,783.05 512.40,781.66 512.32,780.06 512.27,778.65 512.21,777.05 512.17,775.65 512.14,774.01 512.11,772.61 512.07,770.98 512.04,769.61 512.02,768.05 512.00,766.69 512.00,765.12 512.01,763.71 512.05,762.12 512.08,760.74 512.14,759.22 512.18,757.95 512.24,756.44 512.31,755.06 512.38,753.37 512.46,751.86 512.54,750.21 512.63,748.77 512.73,747.20 512.84,745.84 512.97,744.25 513.14,742.61 513.34,740.65 513.56,738.67 513.75,736.96 513.95,735.29 514.15,733.65 514.39,731.73 514.66,729.72 514.96,727.73 515.27,725.73 515.61,723.73 515.96,721.75 516.32,719.76 516.70,717.78 517.08,715.80 517.47,713.82 517.88,711.87 518.32,709.88 518.84,707.66 519.40,705.40 519.97,703.16 520.43,701.40 520.88,699.69 521.34,697.97 521.97,695.74 522.74,693.14 523.65,690.23 524.63,687.24 525.64,684.25 526.65,681.27 527.69,678.32 528.75,675.46 529.75,672.94 530.67,670.69 531.39,668.97 532.11,667.24 532.69,665.88 533.40,664.20 534.00,662.80 534.76,661.10 535.40,659.73 536.21,658.05 536.91,656.64 537.72,655.03 538.40,653.70 539.22,652.08 539.93,650.68 540.75,649.07 541.43,647.77 542.26,646.22 543.05,644.82 543.99,643.15 544.84,641.71 545.77,640.14 546.51,638.90 547.40,637.42 548.20,636.10 549.19,634.48 550.10,633.02 551.12,631.41 552.06,629.97 553.08,628.42 554.04,627.01 555.15,625.40 556.40,623.64 557.83,621.65 559.30,619.64 560.58,617.91 561.78,616.31 562.81,614.95 563.97,613.43 565.09,611.99 566.36,610.37 567.52,608.93 568.79,607.38 569.96,605.97 571.35,604.35 572.64,602.85 574.06,601.22 575.29,599.82 576.64,598.31 577.88,596.94 579.30,595.42 580.58,594.08 581.97,592.66 583.23,591.38 584.61,589.97 585.88,588.69 587.29,587.29 588.64,585.99 590.23,584.49 591.71,583.13 593.36,581.62 594.81,580.31 596.39,578.90 597.76,577.69 599.27,576.38 600.68,575.19 602.27,573.87 603.69,572.70 605.30,571.42 606.96,570.10 608.91,568.57 610.85,567.07 612.57,565.76 614.15,564.59 615.55,563.59 617.18,562.44 618.98,561.19 621.31,559.58 623.90,557.83 626.45,556.15 628.67,554.73 630.35,553.67 631.98,552.66 633.43,551.78 635.09,550.78 636.75,549.79 638.63,548.71 640.53,547.63 642.27,546.66 644.00,545.72 645.71,544.81 647.61,543.81 649.58,542.79 651.55,541.78 653.55,540.79 655.56,539.83 657.61,538.87 659.84,537.84 662.10,536.81 664.28,535.84 666.05,535.07 667.74,534.36 669.52,533.64 671.54,532.84 673.67,532.01 675.65,531.24 677.55,530.52 679.30,529.88 680.89,529.30 682.49,528.73 683.97,528.23 685.57,527.70 687.03,527.22 688.58,526.73 690.03,526.28 691.62,525.79 693.05,525.34 694.67,524.85 696.38,524.36 698.56,523.76 700.81,523.17 703.02,522.59 704.77,522.15 706.50,521.72 708.18,521.32 710.07,520.88 711.94,520.46 713.54,520.12 715.17,519.79 716.52,519.53 718.15,519.22 719.50,518.96 721.13,518.67 722.48,518.43 724.12,518.14 725.47,517.91 727.10,517.65 728.45,517.45 730.08,517.22 731.47,517.04 733.13,516.83 734.60,516.66 736.27,516.46 737.63,516.30 739.14,516.13 740.43,515.98 742.01,515.82 743.38,515.69 744.91,515.56 746.16,515.47 747.58,515.37 748.96,515.28 750.45,515.18 751.98,515.08 753.41,515.00 754.96,514.93 756.37,514.87 757.95,514.82 759.36,514.77 760.94,514.72 762.34,514.68 763.93,514.65 765.33,514.63 766.91,514.64 768.32,514.64 769.90,514.66 771.31,514.67 772.89,514.69 774.29,514.72 775.88,514.77 777.28,514.82 778.86,514.90 780.27,514.97 781.85,515.04 783.26,515.12 784.84,515.21 786.21,515.31 787.82,515.44 789.47,515.59 791.42,515.76 793.39,515.95 795.10,516.12 796.78,516.31 798.41,516.50 800.28,516.74 802.22,516.99 803.94,517.22 805.74,517.48 807.47,517.75 809.46,518.06 811.46,518.40 813.44,518.74 815.43,519.10 817.42,519.48 819.35,519.86 821.29,520.26 823.19,520.67 824.88,521.04 826.65,521.44 828.40,521.85 830.63,522.40 832.91,522.97 835.12,523.55 836.89,524.02 838.55,524.48 840.00,524.89 841.65,525.37 843.36,525.89 845.60,526.57 848.20,527.40 851.03,528.33 853.62,529.20 855.83,529.98 857.52,530.58 859.23,531.20 860.89,531.82 862.90,532.59 864.94,533.39 867.03,534.24 869.09,535.09 871.06,535.91 872.78,536.65 874.45,537.38 876.20,538.17 878.37,539.17 880.62,540.23 882.84,541.29 884.62,542.16 886.37,543.04 888.03,543.89 890.00,544.91 891.98,545.96 893.98,547.04 895.93,548.12 897.82,549.18 899.51,550.15 901.17,551.11 902.64,551.99 904.23,552.96 905.70,553.86 907.29,554.85 908.75,555.76 910.32,556.77 911.76,557.72 913.31,558.76 914.74,559.72 916.29,560.77 917.71,561.75 919.24,562.82 920.63,563.83 922.14,564.93 923.52,565.95 925.06,567.11 926.53,568.22 928.17,569.48 929.63,570.63 931.15,571.84 932.48,572.91 933.98,574.13 935.40,575.30 937.04,576.68 938.54,577.97 940.16,579.39 941.54,580.62 943.04,581.97 944.40,583.21 945.97,584.68 947.40,586.04 949.00,587.59 950.42,588.98 951.95,590.49 953.27,591.80 954.68,593.24 955.95,594.58 957.40,596.15 958.74,597.62 960.27,599.31 961.79,601.02 963.48,602.95 965.09,604.83 966.46,606.48 967.76,608.08 968.92,609.51 970.21,611.13 971.36,612.58 972.59,614.17 973.70,615.65 974.93,617.32 976.01,618.82 977.14,620.39 978.13,621.79 979.20,623.32 980.18,624.74 981.22,626.29 982.18,627.72 983.20,629.29 984.13,630.74 985.13,632.32 986.03,633.78 987.02,635.41 988.03,637.10 989.14,638.97 990.27,640.89 991.42,642.92 992.66,645.19 993.90,647.52 995.11,649.80 996.21,651.92 997.34,654.15 998.43,656.39 999.50,658.64 1000.48,660.76 1001.51,663.03 1002.53,665.30 1003.53,667.58 1004.43,669.74 1005.39,672.11 1006.42,674.74 1007.51,677.57 1008.50,680.21 1009.33,682.52 1009.97,684.33 1010.53,685.97 1011.01,687.41 1011.52,688.95 1011.98,690.40 1012.47,691.96 1012.91,693.40 1013.40,695.00 1013.83,696.44 1014.30,698.10 1014.76,699.76 1015.27,701.63 1015.75,703.51 1016.18,705.17 1016.61,706.88 1016.97,708.33 1017.38,710.04 1017.76,711.69 1018.18,713.60 1018.58,715.54 1018.93,717.28 1019.27,718.96 1019.53,720.30 1019.83,721.88 1020.08,723.22 1020.38,724.88 1020.61,726.23 1020.87,727.85 1021.07,729.20 1021.31,730.87 1021.50,732.22 1021.72,733.82 1021.90,735.15 1022.12,736.80 1022.30,738.23 1022.49,739.87 1022.63,741.20 1022.79,742.76 1022.91,744.11 1023.06,745.77 1023.18,747.21 1023.31,748.85 1023.42,750.21 1023.52,751.78 1023.61,753.14 1023.69,754.71 1023.76,756.08 1023.82,757.68 1023.88,759.11 1023.92,760.73 1023.95,762.13 1023.97,763.71 1023.98,765.12 1023.99,766.70 1024.00,768.11 1024.00,769.69 1023.99,771.09 1023.97,772.71 1023.95,774.14 1023.91,775.78 1023.87,777.13 1023.83,778.69 1023.79,780.02 1023.74,781.62 1023.69,783.02 1023.62,784.63 1023.54,786.03 1023.44,787.62 1023.34,788.99 1023.22,790.57 1023.11,791.92 1022.97,793.55 1022.83,794.93 1022.68,796.56 1022.54,797.97 1022.37,799.57 1022.21,800.99 1022.01,802.59 1021.82,803.99 1021.60,805.58 1021.40,806.91 1021.16,808.54 1020.96,809.84 1020.69,811.51 1020.47,812.85 1020.19,814.52 1019.96,815.83 1019.66,817.45 1019.39,818.82 1019.04,820.54 1018.66,822.27 1018.24,824.20 1017.82,826.12 1017.44,827.77 1017.04,829.50 1016.59,831.28 1015.99,833.60 1015.28,836.20 1014.57,838.75 1013.92,841.00 1013.42,842.71 1012.91,844.38 1012.47,845.80 1011.96,847.41 1011.50,848.79 1010.98,850.36 1010.49,851.79 1009.91,853.46 1009.28,855.27 1008.47,857.52 1007.62,859.87 1006.77,862.11 1006.07,863.90 1005.42,865.49 1004.84,866.88 1004.16,868.47 1003.43,870.19 1002.57,872.16 1001.67,874.21 1000.75,876.24 999.80,878.26 998.83,880.27 997.84,882.26 996.84,884.25 995.82,886.23 994.79,888.20 993.75,890.17 992.68,892.14 991.59,894.08 990.47,896.02 989.36,897.90 988.35,899.60 987.36,901.25 986.46,902.72 985.40,904.42 984.26,906.21 982.98,908.19 981.71,910.10 980.62,911.70 979.45,913.38 978.24,915.12 976.78,917.18 975.35,919.18 974.08,920.92 972.89,922.50 971.83,923.87 970.62,925.41 969.44,926.88 968.08,928.58 966.84,930.12 965.49,931.77 964.33,933.18 963.03,934.71 961.82,936.10 960.45,937.65 959.22,939.03 957.86,940.53 956.60,941.91 955.12,943.51 953.75,944.98 952.20,946.60 950.81,948.02 949.22,949.60 947.80,950.99 946.19,952.54 944.75,953.91 943.12,955.45 941.66,956.82 940.06,958.29 938.67,959.54 937.15,960.86 935.75,962.05 934.13,963.43 932.61,964.70 930.94,966.09 929.49,967.28 927.97,968.51 926.63,969.58 925.12,970.76 923.65,971.86 921.89,973.17 920.01,974.55 917.65,976.26 915.10,978.07 912.58,979.83 910.38,981.31 908.65,982.45 907.00,983.51 905.60,984.39 904.09,985.35 902.84,986.13 901.25,987.11 900.20,987.76 898.95,988.51 M 892.26,992.31 L 896.29,990.12 M 898.95,988.51 L 896.29,990.12 896.29,990.12" stroke-width="45.0"></path></g></svg>