<svg xmlns="http://www.w3.org/2000/svg" viewBox="4 66.9520034790039 1016 890.095947265625" width="1024" height="1024" class="colorable-icon" overflow="visible"><g id="skeleton-paths" stroke-width="45.0"><path id="path-0-0" d="M863.061 114.990L866.031 114.055L869.511 112.972L874.338 111.470L879.116 109.991L883.896 108.513L888.736 107.016L893.626 105.504L898.547 103.982L903.463 102.461L908.379 100.940L913.295 99.420L918.211 97.899L923.127 96.378L928.043 94.857L932.929 93.345L937.761 91.849L942.542 90.370L947.322 88.891L952.159 87.395L956.997 85.897L961.977 84.354L965.502 83.259L968.710 82.263" stroke="#000000" stroke-width="45" fill="none" stroke-linecap="round" stroke-linejoin="round"></path><path id="path-1-0" d="M55.480 956.837L57.350 956.953L59.681 957.017L62.866 957.048L65.578 957.001L68.285 956.902L70.579 956.790L73.195 956.647L75.491 956.506L78.076 956.335L80.372 956.171L83.049 955.964L85.825 955.729L88.942 955.451L92.099 955.153L94.813 954.886L97.637 954.587L100.436 954.267L103.574 953.893L106.753 953.490L109.427 953.140L112.201 952.757L114.462 952.431L117.219 952.017L120.062 951.563L123.267 951.037L126.501 950.479L129.175 950.002L131.881 949.496L134.105 949.070L136.756 948.550L138.983 948.099L141.675 947.530L143.822 947.059L146.423 946.472L148.532 945.986L151.256 945.345L153.523 944.798L156.280 944.108L158.498 943.532L161.137 942.828L163.456 942.191L166.171 941.430L169.017 940.596L172.191 939.639L175.463 938.608L178.302 937.690L180.985 936.798L183.291 936.014L185.865 935.121L188.189 934.303L190.810 933.348L192.966 932.553L195.563 931.567L197.656 930.778L200.355 929.754L202.641 928.900L205.454 927.830L207.794 926.937L210.410 925.910L212.647 925.024L215.194 923.994L217.470 923.058L219.952 922.015L222.178 921.057L224.661 919.984L226.896 919.015L229.424 917.921L231.691 916.931L234.415 915.718L236.778 914.643L239.414 913.417L241.658 912.354L244.325 911.072L246.650 909.944L249.238 908.672L251.457 907.567L254.098 906.229L256.401 905.043L258.953 903.692L261.127 902.508L263.719 901.063L265.970 899.789L268.565 898.302L270.677 897.076L273.371 895.501L275.584 894.199L278.409 892.531L280.614 891.222L283.352 889.587L285.588 888.243L288.292 886.611L290.676 885.161L293.356 883.519L295.775 882.023L298.475 880.333L300.872 878.822L303.487 877.155L305.680 875.756L308.220 874.122L310.529 872.629L313.147 870.916L315.505 869.354L318.043 867.657L320.321 866.118L322.780 864.438L324.880 862.989L327.325 861.283L329.540 859.726L332.265 857.795L334.670 856.072L337.280 854.183L339.549 852.519L342.118 850.620L344.559 848.805L347.276 846.775L349.677 844.975L352.209 843.064L354.395 841.404L356.898 839.491L359.234 837.700L361.889 835.646L364.149 833.891L366.128 832.341L367.976 830.902L369.775 829.495L372.172 827.617L374.404 825.853L377.054 823.746L379.416 821.857L382.077 819.716L384.347 817.881L386.743 815.934L388.877 814.193L391.319 812.189L393.502 810.390L395.996 808.323L398.199 806.495L400.888 804.250L403.160 802.346L405.762 800.150L407.940 798.309L410.644 796.016L413.077 793.944L415.780 791.623L418.043 789.670L420.530 787.514L422.835 785.509L425.511 783.171L427.941 781.037L430.548 778.736L432.775 776.761L435.232 774.573L437.512 772.537L440.166 770.156L442.597 767.966L445.315 765.505L447.718 763.316L450.430 760.820L452.793 758.617L455.338 756.214L457.456 754.201L459.818 751.952L462.006 749.871L464.588 747.405L466.950 745.140L469.589 742.600L471.926 740.344L474.552 737.800L476.881 735.537L479.499 732.986L481.814 730.725L484.322 728.256L486.405 726.198L488.696 723.911L490.758 721.851L493.287 719.298L495.595 716.955L498.206 714.280L500.476 711.949L503.103 709.252L505.726 706.559L508.653 703.553L511.529 700.595L514.101 697.950L516.671 695.307L518.929 692.986L521.479 690.367L523.743 688.039L526.293 685.419L528.558 683.092L531.107 680.472L533.372 678.145L535.925 675.521L538.203 673.182L540.686 670.632L542.815 668.444L545.099 666.077L547.151 663.923L549.518 661.391L551.691 659.028L554.146 656.330L556.326 653.919L558.782 651.199L560.966 648.774L563.342 646.134L565.377 643.869L567.581 641.417L569.591 639.178L571.855 636.655L573.875 634.400L576.063 631.955L578.046 629.737L580.355 627.152L582.493 624.754L584.920 622.029L587.085 619.595L589.589 616.777L592.094 613.956L594.895 610.798L597.573 607.774L599.894 605.150L602.093 602.658L604.055 600.431L606.345 597.827L608.472 595.410L610.943 592.605L613.128 590.133L615.509 587.432L617.435 585.245L619.566 582.798L621.505 580.573L623.760 577.989L625.766 575.698L627.930 573.219L629.886 570.967L632.163 568.333L634.272 565.882L636.579 563.190L638.563 560.867L640.756 558.291L642.730 555.969L644.952 553.351L646.822 551.144L648.907 548.675L650.808 546.422L653.015 543.805L654.978 541.477L657.102 538.952L659.034 536.648L661.215 534.047L663.176 531.706L665.232 529.249L667.002 527.131L668.976 524.761L670.833 522.528L673.130 519.762L675.243 517.218L677.573 514.410L679.445 512.150L681.561 509.591L683.461 507.289L685.673 504.605L687.543 502.335L689.543 499.904L691.284 497.786L693.284 495.348L695.170 493.045L697.445 490.264L699.820 487.358L702.494 484.082L705.054 480.943L707.286 478.202L709.334 475.684L711.070 473.546L713.011 471.154L714.835 468.900L717.088 466.101L719.154 463.528L721.433 460.671L723.269 458.364L725.222 455.892L726.922 453.737L728.882 451.247L730.737 448.892L732.839 446.230L734.730 443.836L736.715 441.323L738.450 439.121L740.382 436.661L742.219 434.319L744.310 431.657L746.199 429.258L748.180 426.739L749.918 424.525L751.903 421.991L753.775 419.602L755.900 416.891L757.707 414.585L759.630 412.123L761.317 409.962L763.313 407.403L765.194 404.994L767.319 402.271L769.121 399.961L771.041 397.498L772.725 395.335L774.716 392.774L776.592 390.361L778.710 387.635L780.508 385.321L782.425 382.855L784.107 380.689L786.096 378.126L787.964 375.711L790.076 372.982L791.867 370.666L793.783 368.196L795.464 366.026L797.451 363.459L799.312 361.044L801.416 358.313L803.201 355.996L805.117 353.520L806.797 351.346L808.783 348.774L810.635 346.360L812.732 343.629L814.509 341.312L816.427 338.829L818.107 336.649L820.092 334.072L821.935 331.660L824.024 328.928L825.790 326.611L827.708 324.103L829.387 321.889L831.252 319.415L832.948 317.144L834.766 314.701L836.429 312.465L838.364 309.864L840.515 306.970L842.999 303.632L845.459 300.318L847.499 297.570L849.357 295.057L850.974 292.868L852.785 290.409L854.467 288.121L856.269 285.667L857.913 283.424L859.805 280.843L861.666 278.299L863.748 275.454L865.557 272.980L867.335 270.560L868.924 268.394L870.678 266.005L872.357 263.713L874.157 261.257L875.801 259.015L877.693 256.434L879.553 253.890L881.636 251.045L883.444 248.573L885.222 246.152L886.812 243.985L888.566 241.595L890.245 239.304L892.045 236.848L893.689 234.605L895.562 232.049L897.242 229.756L899.003 227.346L900.418 225.411L901.866 223.428L903.334 221.428L904.844 219.370L906.514 217.100L908.119 214.913L909.910 212.471L911.570 210.205L913.451 207.639L915.130 205.346L916.891 202.938L918.305 201.003L919.752 199.021L921.221 197.021L922.731 194.962L924.401 192.692L926.007 190.503L927.807 188.049L929.487 185.754L931.285 183.296L932.922 181.052L934.803 178.465L936.669 175.901L938.750 173.037L940.563 170.543L942.308 168.125L943.875 165.958L945.600 163.570L947.268 161.269L949.055 158.803L950.686 156.552L952.563 153.959L954.419 151.407L956.493 148.551L958.297 146.070L960.044 143.648L961.600 141.494L963.427 138.968L965.225 136.506L967.257 133.719L968.983 131.361L970.830 128.813L972.467 126.580L974.291 124.103L975.958 121.853L977.816 119.337L979.589 116.940L981.046 114.973L982.150 113.501" stroke="#000000" stroke-width="45" fill="none" stroke-linecap="round" stroke-linejoin="round"></path><path id="path-2-0" d="M1018.571 105.492L1018.598 107.356L1018.627 109.449L1018.635 112.733L1018.643 115.574L1018.629 118.707L1018.619 121.224L1018.590 124.102L1018.565 126.484L1018.548 129.157L1018.549 131.453L1018.567 134.038L1018.597 136.334L1018.643 138.918L1018.692 141.215L1018.755 143.799L1018.815 146.095L1018.884 148.680L1018.946 150.976L1019.013 153.568L1019.067 155.827L1019.121 158.415L1019.158 160.593L1019.194 163.190L1019.221 165.396L1019.256 168.093L1019.288 170.419L1019.327 173.084L1019.362 175.380L1019.401 177.964L1019.436 180.260L1019.475 182.845L1019.509 185.141L1019.549 187.726L1019.583 190.022L1019.622 192.606L1019.657 194.903L1019.696 197.487L1019.731 199.783L1019.770 202.368L1019.805 204.664L1019.844 207.249L1019.879 209.545L1019.918 212.129L1019.953 214.426L1019.980 216.267L1020 217.562" stroke="#000000" stroke-width="45" fill="none" stroke-linecap="round" stroke-linejoin="round"></path><path id="path-connection-1" d="M968.710 82.263L1017.388 66.952" stroke="#000000" stroke-width="45" fill="none" stroke-linecap="round" stroke-linejoin="round"></path><path id="path-connection-2" d="M982.150 113.501L1017.388 66.952" stroke="#000000" stroke-width="45" fill="none" stroke-linecap="round" stroke-linejoin="round"></path><path id="path-connection-3" d="M1018.571 105.492L1017.388 66.952" stroke="#000000" stroke-width="45" fill="none" stroke-linecap="round" stroke-linejoin="round"></path></g><g id="skeleton-paths" stroke-width="45.0"><path id="path-0-0" d="M284.803 247.795L286.774 247.557L289.075 247.389L292.600 247.116L296.714 246.994L301.301 246.924L306.178 246.930L311.058 246.938L315.939 246.941L320.820 246.944L325.701 246.947L330.581 246.950L335.462 246.953L340.343 246.955L345.224 246.958L350.104 246.961L354.958 246.983L359.956 247.080L363.525 247.182L366.790 247.350" stroke="#000000" stroke-width="45" fill="none" stroke-linecap="round" stroke-linejoin="round"></path><path id="path-1-0" d="M273.813 307.351L273.836 306.041L273.842 303.974L273.848 301.637L273.839 298.886L273.829 296.580L273.818 293.887L273.811 291.744L273.803 289.271L273.793 287.166L273.776 284.547L273.758 282.213L273.740 279.540L273.725 277.218L273.709 274.532L273.712 271.877L273.724 268.872L273.805 265.725L273.920 262.810L274.061 260.529L274.172 259.132" stroke="#000000" stroke-width="45" fill="none" stroke-linecap="round" stroke-linejoin="round"></path><path id="path-2-0" d="M192.127 351.299L193.523 350.735L195.491 349.878L197.843 348.762L200.400 347.450L202.608 346.252L205.232 344.831L207.514 343.599L210.060 342.226L212.242 341.056L214.858 339.677L217.145 338.499L219.737 337.231L221.979 336.198L224.721 335.001L227.113 333.990L229.825 332.880L231.947 332.031L234.576 331.016L236.672 330.220L239.357 329.229L241.405 328.485L244.051 327.553L246.146 326.830L248.858 325.922L251.062 325.203L253.872 324.321L256.339 323.582L259.466 322.663L262.375 321.757L264.771 320.995L266.523 320.346" stroke="#000000" stroke-width="45" fill="none" stroke-linecap="round" stroke-linejoin="round"></path><path id="path-3-0" d="M143.655 315.541L144.933 316.571L146.756 318.170L148.942 320.060L151.569 322.413L153.776 324.391L156.316 326.690L158.416 328.595L161.013 330.952L163.358 333.080L166.007 335.485L168.242 337.513L170.677 339.728L172.899 341.771L175.400 344.102L177.658 346.205L179.392 347.823L180.661 348.950" stroke="#000000" stroke-width="45" fill="none" stroke-linecap="round" stroke-linejoin="round"></path><path id="path-4-0" d="M70.426 373.536L71.776 372L73.249 370.429L75.541 368.018L77.624 365.887L79.900 363.559L81.977 361.433L84.397 358.958L86.637 356.664L89.179 354.055L91.445 351.728L93.995 349.109L96.260 346.782L98.810 344.163L101.076 341.836L103.626 339.217L105.892 336.891L108.442 334.272L110.707 331.945L113.258 329.326L115.518 327.006L118 324.495L120.072 322.411L122.369 320.120L124.411 318.102L126.182 316.356L127.485 315.155" stroke="#000000" stroke-width="45" fill="none" stroke-linecap="round" stroke-linejoin="round"></path><path id="path-5-0" d="M70.761 389.602L72.459 391.579L74.456 393.766L76.797 396.336L79.118 398.802L81.174 400.985L83.575 403.524L85.795 405.867L88.307 408.516L90.542 410.873L93.059 413.527L95.299 415.888L97.740 418.460L99.855 420.686L102.103 423.056L104.095 425.235L105.648 426.946L106.764 428.296" stroke="#000000" stroke-width="45" fill="none" stroke-linecap="round" stroke-linejoin="round"></path><path id="path-6-0" d="M78.677 506.747L79.331 504.680L79.934 502.724L80.859 499.708L81.557 497.407L82.394 494.693L83.059 492.581L83.936 489.923L84.660 487.813L85.618 485.139L86.432 482.904L87.510 480.076L88.563 477.445L89.898 474.260L91.296 471.084L92.804 467.768L94.352 464.481L95.941 461.199L97.556 457.955L99.214 454.719L100.852 451.615L102.384 448.803L103.928 446.028L105.291 443.518L106.340 441.540L107.019 440.116" stroke="#000000" stroke-width="45" fill="none" stroke-linecap="round" stroke-linejoin="round"></path><path id="path-7-0" d="M15.673 518.181L18 517.971L20.124 517.811L22.612 517.586L24.328 517.487L26.339 517.260L28.330 517.134L30.858 517.013L33.165 516.989L35.776 516.984L38.072 516.993L40.657 517.002L42.953 517.010L45.538 517.019L47.834 517.028L50.418 517.037L52.714 517.045L55.378 517.054L57.734 517.061L60.578 517.035L62.990 516.964L65.922 516.787L67.614 516.642L69.518 516.448" stroke="#000000" stroke-width="45" fill="none" stroke-linecap="round" stroke-linejoin="round"></path><path id="path-8-0" d="M4.562 528.981L4.464 530.718L4.339 532.983L4.216 535.944L4.109 538.950L4.047 541.938L4.011 544.583L4 547.273L4.001 549.569L4.002 552.154L4.003 554.450L4.004 557.034L4.005 559.330L4.007 561.915L4.008 564.211L4.009 566.796L4.010 569.092L4.011 571.676L4.012 573.973L4.013 576.557L4.014 578.853L4.015 581.438L4.016 583.734L4.017 586.319L4.018 588.615L4.020 591.199L4.021 593.496L4.022 596.086L4.023 598.342L4.029 600.955L4.041 603.167L4.099 605.852L4.230 608.222L4.376 610.331L4.551 611.879" stroke="#000000" stroke-width="45" fill="none" stroke-linecap="round" stroke-linejoin="round"></path><path id="path-9-0" d="M13.353 622.638L15.122 622.888L17.403 623.166L20.013 623.499L22.745 623.703L25.036 623.794L27.642 623.811L29.938 623.810L32.522 623.810L34.818 623.810L37.403 623.809L39.699 623.809L42.284 623.808L44.580 623.808L47.164 623.808L49.461 623.807L52.063 623.807L54.359 623.806L56.917 623.821L59.161 623.845L61.895 623.904L63.731 623.941L65.820 624.002" stroke="#000000" stroke-width="45" fill="none" stroke-linecap="round" stroke-linejoin="round"></path><path id="path-10-0" d="M78.986 633.328L79.449 634.920L80.084 637.102L80.832 639.650L81.688 642.509L82.419 644.930L83.228 647.579L83.938 649.882L84.783 652.573L85.570 655.051L86.514 657.971L87.289 660.324L88.216 663.094L88.954 665.252L89.892 667.970L90.651 670.119L91.620 672.819L92.416 674.947L93.421 677.510L94.311 679.591L95.493 682.199L96.596 684.520L97.887 687.191L98.981 689.397L100.295 691.950L101.513 694.216L103.033 696.919L104.355 699.202L105.485 701.122L106.194 702.339" stroke="#000000" stroke-width="45" fill="none" stroke-linecap="round" stroke-linejoin="round"></path><path id="path-11-0" d="M71.700 755.952L72.634 754.905L74.003 753.263L75.818 751.217L77.950 748.861L79.999 746.696L82.376 744.159L84.562 741.789L87.074 739.020L89.293 736.566L91.710 733.888L93.670 731.722L95.826 729.315L97.794 727.122L100.110 724.550L102.232 722.206L103.872 720.398L105.061 719.083" stroke="#000000" stroke-width="45" fill="none" stroke-linecap="round" stroke-linejoin="round"></path><path id="path-12-0" d="M76.584 778.861L78.206 780.597L79.727 782.189L82.067 784.624L84.171 786.783L86.620 789.296L88.876 791.614L91.422 794.233L93.685 796.561L96.233 799.183L98.496 801.512L101.044 804.134L103.307 806.466L105.768 809.003L107.878 811.180L110.171 813.539L112.256 815.679L114.720 818.196L117.352 820.887L119.538 823.114L121.598 825.232" stroke="#000000" stroke-width="45" fill="none" stroke-linecap="round" stroke-linejoin="round"></path><path id="path-13-0" d="M146.149 825.848L147.566 824.579L149.416 822.916L151.621 820.931L154.042 818.746L156.287 816.721L158.938 814.322L161.365 812.119L164.095 809.629L166.477 807.449L169.045 805.088L171.173 803.133L173.442 801.048L175.469 799.199L177.771 797.132L179.783 795.382L181.370 794.028L182.311 793.270" stroke="#000000" stroke-width="45" fill="none" stroke-linecap="round" stroke-linejoin="round"></path><path id="path-14-0" d="M200.442 794.422L202.351 795.398L204.130 796.329L206.810 797.742L208.979 798.887L211.551 800.224L213.840 801.405L216.483 802.759L218.679 803.860L221.143 805.061L223.371 806.104L225.989 807.295L228.370 808.344L231.038 809.476L233.313 810.398L235.938 811.421L238.161 812.255L240.779 813.215L242.880 813.957L245.573 814.865L247.766 815.571L250.620 816.451L252.851 817.112L255.616 817.923L257.181 818.381L258.958 818.914" stroke="#000000" stroke-width="45" fill="none" stroke-linecap="round" stroke-linejoin="round"></path><path id="path-15-0" d="M382.500 263.996L382.540 267.202L382.541 270.852L382.539 275.880L382.512 280.794L382.488 285.675L382.464 290.556L382.444 295.376L382.431 298.812L382.426 301.635" stroke="#000000" stroke-width="45" fill="none" stroke-linecap="round" stroke-linejoin="round"></path><path id="path-16-0" d="M394.714 321.801L398.005 322.824L401.675 323.972L406.748 325.558L411.673 327.110L416.554 328.686L421.488 330.348L426.424 332.110L431.419 334.006L436.350 336.039L441.221 338.239L446.086 340.659L450.914 343.265L454.422 345.236L457.375 346.968" stroke="#000000" stroke-width="45" fill="none" stroke-linecap="round" stroke-linejoin="round"></path><path id="path-17-0" d="M479.666 346.937L482.630 344.257L486.132 341.101L490.878 336.825L495.682 332.501L500.429 328.243L505.221 323.983L508.609 320.995L511.354 318.609" stroke="#000000" stroke-width="45" fill="none" stroke-linecap="round" stroke-linejoin="round"></path><path id="path-18-0" d="M532.606 316.940L535.511 319.660L538.964 323.077L543.792 327.885L548.630 332.813L553.465 337.739L558.299 342.663L563.042 347.493L567.716 352.253L572.291 356.921L576.856 361.628L581.329 366.395L584.460 369.800L587.018 372.741" stroke="#000000" stroke-width="45" fill="none" stroke-linecap="round" stroke-linejoin="round"></path><path id="path-19-0" d="M552.301 427.189L554.806 424.428L557.923 421.163L562.453 416.443L567.164 411.609L571.956 406.649L576.649 401.728L581.205 396.839L584.349 393.435L586.951 390.526" stroke="#000000" stroke-width="45" fill="none" stroke-linecap="round" stroke-linejoin="round"></path><path id="path-20-0" d="M554.402 448.113L555.968 451.110L557.763 454.528L560.313 459.426L562.781 464.247L565.185 469.130L567.431 473.992L569.530 478.890L571.517 483.867L573.386 488.803L575.192 493.723L576.440 497.189L577.493 500.120" stroke="#000000" stroke-width="45" fill="none" stroke-linecap="round" stroke-linejoin="round"></path><path id="path-extension-1" d="M284.803 247.795L274.977 248.977" stroke="#000000" stroke-width="45" fill="none" stroke-linecap="round" stroke-linejoin="round"></path><path id="path-extension-2" d="M366.790 247.350L382.302 248.144" stroke="#000000" stroke-width="45" fill="none" stroke-linecap="round" stroke-linejoin="round"></path><path id="path-extension-3" d="M273.813 307.351L273.627 317.717" stroke="#000000" stroke-width="45" fill="none" stroke-linecap="round" stroke-linejoin="round"></path><path id="path-extension-4" d="M274.172 259.132L274.977 248.977" stroke="#000000" stroke-width="45" fill="none" stroke-linecap="round" stroke-linejoin="round"></path><path id="path-extension-5" d="M192.127 351.299L186.067 353.750" stroke="#000000" stroke-width="45" fill="none" stroke-linecap="round" stroke-linejoin="round"></path><path id="path-extension-6" d="M266.523 320.346L273.627 317.717" stroke="#000000" stroke-width="45" fill="none" stroke-linecap="round" stroke-linejoin="round"></path><path id="path-extension-7" d="M143.655 315.541L134.809 308.400" stroke="#000000" stroke-width="45" fill="none" stroke-linecap="round" stroke-linejoin="round"></path><path id="path-extension-8" d="M180.661 348.950L186.067 353.750" stroke="#000000" stroke-width="45" fill="none" stroke-linecap="round" stroke-linejoin="round"></path><path id="path-extension-9" d="M70.426 373.536L63.622 381.285" stroke="#000000" stroke-width="45" fill="none" stroke-linecap="round" stroke-linejoin="round"></path><path id="path-extension-10" d="M127.485 315.155L134.809 308.400" stroke="#000000" stroke-width="45" fill="none" stroke-linecap="round" stroke-linejoin="round"></path><path id="path-extension-11" d="M70.761 389.602L63.622 381.285" stroke="#000000" stroke-width="45" fill="none" stroke-linecap="round" stroke-linejoin="round"></path><path id="path-extension-12" d="M106.764 428.296L110.501 432.815" stroke="#000000" stroke-width="45" fill="none" stroke-linecap="round" stroke-linejoin="round"></path><path id="path-extension-13" d="M78.677 506.747L75.812 515.808" stroke="#000000" stroke-width="45" fill="none" stroke-linecap="round" stroke-linejoin="round"></path><path id="path-extension-14" d="M107.019 440.116L110.501 432.815" stroke="#000000" stroke-width="45" fill="none" stroke-linecap="round" stroke-linejoin="round"></path><path id="path-extension-15" d="M15.673 518.181L5.117 519.134" stroke="#000000" stroke-width="45" fill="none" stroke-linecap="round" stroke-linejoin="round"></path><path id="path-extension-16" d="M69.518 516.448L75.812 515.808" stroke="#000000" stroke-width="45" fill="none" stroke-linecap="round" stroke-linejoin="round"></path><path id="path-extension-17" d="M4.562 528.981L5.117 519.134" stroke="#000000" stroke-width="45" fill="none" stroke-linecap="round" stroke-linejoin="round"></path><path id="path-extension-18" d="M4.551 611.879L5.642 621.547" stroke="#000000" stroke-width="45" fill="none" stroke-linecap="round" stroke-linejoin="round"></path><path id="path-extension-19" d="M13.353 622.638L5.642 621.547" stroke="#000000" stroke-width="45" fill="none" stroke-linecap="round" stroke-linejoin="round"></path><path id="path-extension-20" d="M65.820 624.002L76.364 624.310" stroke="#000000" stroke-width="45" fill="none" stroke-linecap="round" stroke-linejoin="round"></path><path id="path-extension-21" d="M78.986 633.328L76.364 624.310" stroke="#000000" stroke-width="45" fill="none" stroke-linecap="round" stroke-linejoin="round"></path><path id="path-extension-22" d="M106.194 702.339L111.680 711.766" stroke="#000000" stroke-width="45" fill="none" stroke-linecap="round" stroke-linejoin="round"></path><path id="path-extension-23" d="M71.700 755.952L63.626 764.989" stroke="#000000" stroke-width="45" fill="none" stroke-linecap="round" stroke-linejoin="round"></path><path id="path-extension-24" d="M105.061 719.083L111.680 711.766" stroke="#000000" stroke-width="45" fill="none" stroke-linecap="round" stroke-linejoin="round"></path><path id="path-extension-25" d="M76.584 778.861L63.626 764.989" stroke="#000000" stroke-width="45" fill="none" stroke-linecap="round" stroke-linejoin="round"></path><path id="path-extension-26" d="M121.598 825.232L133.347 837.305" stroke="#000000" stroke-width="45" fill="none" stroke-linecap="round" stroke-linejoin="round"></path><path id="path-extension-27" d="M146.149 825.848L133.347 837.305" stroke="#000000" stroke-width="45" fill="none" stroke-linecap="round" stroke-linejoin="round"></path><path id="path-extension-28" d="M182.311 793.270L188.480 788.305" stroke="#000000" stroke-width="45" fill="none" stroke-linecap="round" stroke-linejoin="round"></path><path id="path-extension-29" d="M200.442 794.422L188.480 788.305" stroke="#000000" stroke-width="45" fill="none" stroke-linecap="round" stroke-linejoin="round"></path><path id="path-extension-30" d="M382.500 263.996L382.302 248.144" stroke="#000000" stroke-width="45" fill="none" stroke-linecap="round" stroke-linejoin="round"></path><path id="path-extension-31" d="M382.426 301.635L382.399 317.972" stroke="#000000" stroke-width="45" fill="none" stroke-linecap="round" stroke-linejoin="round"></path><path id="path-extension-32" d="M394.714 321.801L382.399 317.972" stroke="#000000" stroke-width="45" fill="none" stroke-linecap="round" stroke-linejoin="round"></path><path id="path-extension-33" d="M457.375 346.968L470.876 354.887" stroke="#000000" stroke-width="45" fill="none" stroke-linecap="round" stroke-linejoin="round"></path><path id="path-extension-34" d="M479.666 346.937L470.876 354.887" stroke="#000000" stroke-width="45" fill="none" stroke-linecap="round" stroke-linejoin="round"></path><path id="path-extension-35" d="M511.354 318.609L523.299 308.226" stroke="#000000" stroke-width="45" fill="none" stroke-linecap="round" stroke-linejoin="round"></path><path id="path-extension-36" d="M532.606 316.940L523.299 308.226" stroke="#000000" stroke-width="45" fill="none" stroke-linecap="round" stroke-linejoin="round"></path><path id="path-extension-37" d="M587.018 372.741L594.830 381.721" stroke="#000000" stroke-width="45" fill="none" stroke-linecap="round" stroke-linejoin="round"></path><path id="path-extension-38" d="M552.301 427.189L546.702 433.362" stroke="#000000" stroke-width="45" fill="none" stroke-linecap="round" stroke-linejoin="round"></path><path id="path-extension-39" d="M586.951 390.526L594.830 381.721" stroke="#000000" stroke-width="45" fill="none" stroke-linecap="round" stroke-linejoin="round"></path><path id="path-extension-40" d="M554.402 448.113L546.702 433.362" stroke="#000000" stroke-width="45" fill="none" stroke-linecap="round" stroke-linejoin="round"></path><path id="path-connection-1" d="M274.977 248.977L274.977 248.977" stroke="#000000" stroke-width="45" fill="none" stroke-linecap="round" stroke-linejoin="round"></path><path id="path-connection-2" d="M382.302 248.144L382.302 248.144" stroke="#000000" stroke-width="45" fill="none" stroke-linecap="round" stroke-linejoin="round"></path><path id="path-connection-3" d="M273.627 317.717L273.627 317.717" stroke="#000000" stroke-width="45" fill="none" stroke-linecap="round" stroke-linejoin="round"></path><path id="path-connection-4" d="M186.067 353.750L186.067 353.750" stroke="#000000" stroke-width="45" fill="none" stroke-linecap="round" stroke-linejoin="round"></path><path id="path-connection-5" d="M134.809 308.400L134.809 308.400" stroke="#000000" stroke-width="45" fill="none" stroke-linecap="round" stroke-linejoin="round"></path><path id="path-connection-6" d="M63.622 381.285L63.622 381.285" stroke="#000000" stroke-width="45" fill="none" stroke-linecap="round" stroke-linejoin="round"></path><path id="path-connection-7" d="M110.501 432.815L110.501 432.815" stroke="#000000" stroke-width="45" fill="none" stroke-linecap="round" stroke-linejoin="round"></path><path id="path-connection-8" d="M75.812 515.808L75.812 515.808" stroke="#000000" stroke-width="45" fill="none" stroke-linecap="round" stroke-linejoin="round"></path><path id="path-connection-9" d="M5.117 519.134L5.117 519.134" stroke="#000000" stroke-width="45" fill="none" stroke-linecap="round" stroke-linejoin="round"></path><path id="path-connection-10" d="M5.642 621.547L5.642 621.547" stroke="#000000" stroke-width="45" fill="none" stroke-linecap="round" stroke-linejoin="round"></path><path id="path-connection-11" d="M76.364 624.310L76.364 624.310" stroke="#000000" stroke-width="45" fill="none" stroke-linecap="round" stroke-linejoin="round"></path><path id="path-connection-12" d="M111.680 711.766L111.680 711.766" stroke="#000000" stroke-width="45" fill="none" stroke-linecap="round" stroke-linejoin="round"></path><path id="path-connection-13" d="M63.626 764.989L63.626 764.989" stroke="#000000" stroke-width="45" fill="none" stroke-linecap="round" stroke-linejoin="round"></path><path id="path-connection-14" d="M133.347 837.305L133.347 837.305" stroke="#000000" stroke-width="45" fill="none" stroke-linecap="round" stroke-linejoin="round"></path><path id="path-connection-15" d="M188.480 788.305L188.480 788.305" stroke="#000000" stroke-width="45" fill="none" stroke-linecap="round" stroke-linejoin="round"></path><path id="path-connection-16" d="M382.399 317.972L382.399 317.972" stroke="#000000" stroke-width="45" fill="none" stroke-linecap="round" stroke-linejoin="round"></path><path id="path-connection-17" d="M470.876 354.887L470.876 354.887" stroke="#000000" stroke-width="45" fill="none" stroke-linecap="round" stroke-linejoin="round"></path><path id="path-connection-18" d="M523.299 308.226L523.299 308.226" stroke="#000000" stroke-width="45" fill="none" stroke-linecap="round" stroke-linejoin="round"></path><path id="path-connection-19" d="M594.830 381.721L594.830 381.721" stroke="#000000" stroke-width="45" fill="none" stroke-linecap="round" stroke-linejoin="round"></path><path id="path-connection-20" d="M546.702 433.362L546.702 433.362" stroke="#000000" stroke-width="45" fill="none" stroke-linecap="round" stroke-linejoin="round"></path></g><g id="skeleton-paths" stroke-width="45.0"><path id="path-0-0" d="M222.231 495.273L220.278 498.180L218.174 501.519L215.303 506.318L212.739 511.075L210.396 515.911L208.288 520.774L206.369 525.722L204.697 530.562L203.254 535.358L202.054 540.057L201.035 544.780L200.203 549.528L199.573 554.292L199.138 559.182L198.895 564.086L198.792 568.928L198.817 573.626L198.975 578.323L199.284 583.105L199.770 587.937L200.441 592.709L201.319 597.483L202.419 602.325L203.747 607.239L205.296 612.146L207.030 616.905L209.037 621.719L211.276 626.489L213.862 631.495L216.621 636.350L219.731 641.310L223.095 646.138L226.892 651.091L230.883 655.847L235.206 660.549L239.723 665.025L244.535 669.400L249.456 673.479L254.381 677.191L259.307 680.531L264.188 683.515L269.055 686.197L273.818 688.557L278.631 690.669L283.447 692.549L288.377 694.251L293.231 695.736L298.111 697.027L302.975 698.097L307.852 698.961L312.744 699.598L317.594 700.034L322.466 700.277L327.328 700.376L332.193 700.335L337.074 700.140L341.934 699.730L346.832 699.078L351.710 698.179L356.635 697.089L361.569 695.839L366.521 694.471L371.440 692.946L376.389 691.189L381.365 689.124L386.365 686.762L391.297 684.142L396.125 681.304L401.038 678.103L406.023 674.511L411.088 670.510L415.932 666.304L420.505 661.935L424.852 657.343L429.039 652.469L432.971 647.463L436.499 642.531L439.622 637.704L442.435 632.886L445.040 627.918L447.393 622.936L449.516 617.882L451.359 612.915L452.964 607.962L454.332 603.059L455.492 598.206L456.471 593.317L457.268 588.436L457.885 583.519L458.316 578.598L458.557 573.710L458.618 568.773L458.508 563.887L458.223 558.962L457.760 554.083L457.095 549.149L456.236 544.198L455.181 539.269L453.949 534.406L452.539 529.605L450.937 524.816L449.092 519.971L446.977 515.061L444.595 510.107L441.971 505.192L439.062 500.287L435.840 495.371L432.280 490.433L428.448 485.603L424.284 480.857L419.734 476.175L414.907 471.661L409.948 467.447L405.069 463.709L400.262 460.380L395.456 457.387L390.603 454.652L385.649 452.122L380.691 449.836L375.794 447.808L370.925 446.028L366.077 444.478L361.224 443.131L356.412 442L351.611 441.065L346.783 440.312L341.913 439.732L337.054 439.334L332.187 439.131L327.328 439.126L322.463 439.317L317.837 439.663L313.819 440.085L310.480 440.546L307.458 441.068L303.947 441.795L299.746 442.775L295.067 443.999L290.254 445.440L285.471 447.080L280.599 448.962L275.742 451.066L270.950 453.375L266.198 455.922L261.554 458.671L256.794 461.768L252.049 465.161L247.149 468.984L242.356 473.080L237.651 477.463L234.379 480.679L231.729 483.434" stroke="#000000" stroke-width="45" fill="none" stroke-linecap="round" stroke-linejoin="round"></path><path id="path-extension-1" d="M222.231 495.273L226.600 488.765" stroke="#000000" stroke-width="45" fill="none" stroke-linecap="round" stroke-linejoin="round"></path><path id="path-extension-2" d="M231.729 483.434L226.600 488.765" stroke="#000000" stroke-width="45" fill="none" stroke-linecap="round" stroke-linejoin="round"></path><path id="path-connection-1" d="M226.600 488.765L226.600 488.765" stroke="#000000" stroke-width="45" fill="none" stroke-linecap="round" stroke-linejoin="round"></path></g></svg>