<svg xmlns="http://www.w3.org/2000/svg" viewBox="-30 0 1084 1024" width="1024" height="1024" class="colorable-icon" overflow="visible"><g id="skeleton-paths" stroke-width="45.0"><path id="path-0-0" d="M452.746 305.992L451.289 308.078L449.623 310.372L447.395 313.348L445.128 316.228L442.922 318.903L440.938 321.229L438.978 323.418L437.168 325.361L435.030 327.574L433.030 329.571L430.737 331.773L428.667 333.688L426.379 335.731L424.390 337.451L422.199 339.277L420.166 340.912L417.852 342.712L415.757 344.290L413.528 345.915L411.531 347.318L409.347 348.804L407.317 350.142L405.092 351.559L403.019 352.832L400.671 354.210L398.228 355.570L395.510 357.027L392.702 358.473L389.897 359.866L387.058 361.226L384.190 362.535L381.236 363.810L377.888 365.156L374.158 366.553L370.044 367.993L365.906 369.326L362.210 370.437L359.009 371.322L356.584 371.953L354.169 372.521L352.111 372.979L349.796 373.462L347.876 373.835L345.640 374.240L343.652 374.571L341.340 374.930L339.436 375.195L337.248 375.466L335.374 375.670L333.107 375.891L331.115 376.063L328.843 376.233L326.859 376.356L324.625 376.464L322.641 376.534L320.408 376.584L318.423 376.603L316.190 376.595L314.205 376.562L311.972 376.498L309.988 376.418L307.707 376.302L305.702 376.178L303.411 376.005L301.523 375.837L299.324 375.603L297.441 375.368L295.120 375.043L293.112 374.734L290.722 374.335L288.413 373.891L285.708 373.331L282.990 372.707L280.558 372.115L278.144 371.478L275.752 370.776L272.699 369.825L269.507 368.750L266.227 367.570L263.169 366.359L259.941 364.960L256.744 363.495L253.664 361.986L251.150 360.667L248.760 359.306L246.729 358.084L244.406 356.683L242.024 355.204L238.819 353.208L235.246 350.909L231.630 348.548L228.525 346.464L226.114 344.807L223.922 343.254L221.986 341.851L219.827 340.235L217.774 338.663L215.377 336.733L212.895 334.602L209.959 331.905L207.078 329.106L204.285 326.249L202.054 323.850L199.894 321.387L197.805 318.870L195.274 315.674L192.589 312.106L189.955 308.473L187.679 305.198L185.963 302.623L184.432 300.214L182.987 297.797L181.443 295.152L179.932 292.431L178.673 290.107L177.412 287.644L176.207 285.211L174.853 282.410L173.530 279.562L172.256 276.642L170.927 273.343L169.564 269.656L168.202 265.676L167.043 262.030L166.130 258.892L165.471 256.450L164.885 254.054L164.399 251.940L163.889 249.527L163.439 247.158L162.975 244.509L162.559 241.896L162.223 239.632L161.935 237.373L161.732 235.438L161.535 233.125L161.404 231.134L161.262 228.834L161.161 226.918L161.055 224.731L161.001 222.818L160.970 220.617L160.972 218.695L160.997 216.449L161.051 214.119L161.141 211.351L161.271 208.545L161.418 206.081L161.607 203.736L161.798 201.802L162.051 199.545L162.354 197.218L162.736 194.510L163.184 191.684L163.675 188.925L164.237 186.089L164.815 183.415L165.362 181L165.911 178.738L166.437 176.720L167.072 174.403L167.783 172.033L168.594 169.420L169.431 166.891L170.185 164.671L170.999 162.438L171.745 160.454L172.629 158.218L173.391 156.347L174.354 154.103L175.218 152.141L176.319 149.747L177.226 147.836L178.394 145.497L179.569 143.260L181.038 140.536L182.531 137.883L183.916 135.493L185.328 133.180L186.620 131.144L188.175 128.792L189.904 126.305L191.913 123.512L194.066 120.649L196.023 118.135L197.994 115.723L199.689 113.728L201.569 111.595L203.315 109.681L205.373 107.495L207.315 105.506L209.539 103.307L211.556 101.395L213.766 99.366L215.706 97.652L217.872 95.809L219.897 94.146L222.260 92.278L224.313 90.693L226.515 89.059L228.339 87.739L230.456 86.267L232.409 84.948L234.702 83.461L237.113 81.973L239.751 80.394L242.449 78.843L244.780 77.546L247.184 76.271L249.311 75.192L251.760 73.995L254.278 72.834L257.419 71.464L261.028 69.993L264.956 68.498L268.559 67.215L271.683 66.197L274.103 65.451L276.496 64.784L278.587 64.216L280.943 63.631L282.923 63.151L285.143 62.649L286.973 62.251L289.101 61.826L290.887 61.500L293.127 61.124L295.053 60.828L297.377 60.495L299.312 60.244L301.591 59.977L303.510 59.784L305.647 59.595L307.425 59.463L309.424 59.337L311.374 59.238L313.479 59.154L315.633 59.096L317.614 59.071L319.857 59.082L322.193 59.128L324.948 59.209L327.739 59.333L330.173 59.473L332.606 59.670L334.940 59.905L337.673 60.215L340.433 60.570L342.846 60.910L345.153 61.275L346.956 61.587L349.041 61.978L350.905 62.355L353.164 62.839L355.257 63.319L357.602 63.889L359.690 64.437L362.028 65.084L364.444 65.810L367.580 66.810L371.202 68.067L375.158 69.538L378.810 71.005L382.038 72.402L384.556 73.552L387.042 74.742L389.413 75.911L392.205 77.307L394.952 78.712L397.471 80.027L399.913 81.373L402.439 82.862L405.604 84.832L409.210 87.198L412.828 89.665L416.202 92.089L419.155 94.337L422.022 96.625L424.783 98.940L427.217 101.056L429.592 103.235L431.616 105.178L433.847 107.414L435.789 109.441L437.931 111.760L439.799 113.847L441.790 116.139L443.470 118.135L445.195 120.258L446.693 122.173L448.303 124.309L449.696 126.224L451.205 128.363L452.492 130.259L453.987 132.517L455.302 134.585L456.779 136.979L458.184 139.396L459.688 142.089L461.167 144.880L462.584 147.676L463.967 150.508L465.307 153.364L466.623 156.306L468.014 159.642L469.448 163.365L470.905 167.477L472.237 171.595L473.348 175.335L474.240 178.598L474.882 181.118L475.453 183.554L475.947 185.894L476.483 188.611L476.977 191.372L477.391 193.840L477.749 196.241L478.003 198.149L478.264 200.344L478.464 202.227L478.680 204.505L478.845 206.503L479.002 208.779L479.109 210.763L479.200 212.996L479.253 214.981L479.283 217.214L479.284 219.199L479.257 221.432L479.206 223.416L479.117 225.650L479.012 227.634L478.853 229.909L478.687 231.907L478.466 234.183L478.261 236.064L477.996 238.257L477.740 240.166L477.391 242.568L476.982 245.038L476.492 247.801L475.956 250.518L475.461 252.882L474.918 255.254L474.406 257.347L473.795 259.686L473.219 261.759L472.531 264.082L471.799 266.410L470.908 269.118L469.969 271.840L469.080 274.314L468.152 276.718L467.112 279.209L465.735 282.288L464.225 285.496L462.682 288.630L461.377 291.197L460.073 293.673L459.241 295.248L458.367 296.860" stroke="black" stroke-width="45" fill="none" stroke-linecap="round" stroke-linejoin="round"></path><path id="path-extension-1" d="M452.746 305.992L455.741 301.703" stroke="black" stroke-width="45" fill="none" stroke-linecap="round" stroke-linejoin="round"></path><path id="path-extension-2" d="M458.367 296.860L455.741 301.703" stroke="black" stroke-width="45" fill="none" stroke-linecap="round" stroke-linejoin="round"></path><path id="path-connection-1" d="M455.741 301.703L455.741 301.703" stroke="black" stroke-width="45" fill="none" stroke-linecap="round" stroke-linejoin="round"></path></g><g id="skeleton-paths" stroke-width="45.0"><path id="path-0-0" d="M602.856 283.466L603.347 284.843L604.003 286.681L604.805 288.938L605.686 291.414L606.577 293.917L607.750 297.204L609.084 300.936L610.573 305.097L612.071 309.285L613.568 313.472L615.066 317.659L616.560 321.832L618.027 325.932L619.362 329.662L620.613 333.182L621.734 336.351L622.884 339.626L623.672 341.860L624.322 343.700" stroke="black" stroke-width="45" fill="none" stroke-linecap="round" stroke-linejoin="round"></path><path id="path-1-0" d="M562.124 378.218L564.344 377.409L566.556 376.545L569.179 375.518L571.586 374.541L574.100 373.517L577.214 372.225L580.463 370.854L583.703 369.464L586.727 368.155L590.026 366.721L593.591 365.169L597.157 363.617L600.464 362.186L602.513 361.301L604.291 360.541" stroke="black" stroke-width="45" fill="none" stroke-linecap="round" stroke-linejoin="round"></path><path id="path-2-0" d="M521.901 314.177L522.512 315.941L523.123 317.639L523.929 319.866L524.706 321.961L525.449 323.960L526.287 326.218L527.243 328.792L528.450 332.041L529.847 335.803L531.338 339.812L532.719 343.512L533.924 346.716L534.874 349.217L535.791 351.622L536.749 354.121L537.779 356.802L538.855 359.591L539.787 362.005L540.817 364.675L541.728 367.046L542.463 368.965L542.976 370.306" stroke="black" stroke-width="45" fill="none" stroke-linecap="round" stroke-linejoin="round"></path><path id="path-3-0" d="M525.195 298.069L526.328 297.245L527.935 296.270L530.040 295.082L532.470 293.892L534.972 292.761L537.772 291.544L540.515 290.394L542.956 289.396L545.336 288.445L547.835 287.456L551.034 286.189L554.637 284.763L558.288 283.318L561.510 282.042L564.063 281.030L566.456 280.083L568.980 279.095L571.095 278.267L573.162 277.471" stroke="black" stroke-width="45" fill="none" stroke-linecap="round" stroke-linejoin="round"></path><path id="path-4-0" d="M836.363 163.299L837.399 166.074L838.560 169.184L840.166 173.482L841.722 177.636L843.293 181.824L844.873 186.037L846.494 190.364L848.096 194.647L849.688 198.902L851.251 203.079L852.810 207.246L854.356 211.385L855.917 215.578L857.481 219.798L859.080 224.133L860.655 228.423L862.221 232.685L863.754 236.848L865.309 241.058L866.873 245.292L868.470 249.628L870.041 253.905L871.602 258.155L873.138 262.331L874.682 266.542L875.788 269.558L876.734 272.164" stroke="black" stroke-width="45" fill="none" stroke-linecap="round" stroke-linejoin="round"></path><path id="path-5-0" d="M745.205 340.590L746.512 340.022L748.337 339.235L750.939 338.139L753.803 336.945L756.599 335.809L759.048 334.826L761.442 333.883L763.966 332.892L767.179 331.632L770.806 330.210L774.443 328.785L777.663 327.522L780.201 326.528L782.457 325.643L784.443 324.864L786.704 323.979L789.236 322.985L792.459 321.722L796.087 320.299L799.723 318.875L802.940 317.614L805.474 316.621L807.871 315.682L810.393 314.692L813.605 313.433L817.230 312.011L820.869 310.585L824.087 309.324L826.625 308.330L829.021 307.390L831.540 306.400L834.748 305.137L838.367 303.707L842.004 302.269L845.218 300.995L847.754 299.988L850.149 299.044L852.667 298.060L855.892 296.820L858.434 295.846L860.878 294.923" stroke="black" stroke-width="45" fill="none" stroke-linecap="round" stroke-linejoin="round"></path><path id="path-6-0" d="M652.072 376.570L654.278 375.801L656.491 374.974L659.115 373.991L661.533 373.047L664.065 372.060L667.285 370.805L670.994 369.359L674.980 367.804L678.686 366.358L681.903 365.102L684.431 364.115L686.829 363.180L689.361 362.192L692.576 360.932L696.206 359.503L699.836 358.072L703.053 356.813L705.590 355.836L708.017 354.915L710.466 353.983L713.208 352.937L715.952 351.874L718.410 350.923L720.987 349.922L722.652 349.282L724.438 348.601" stroke="black" stroke-width="45" fill="none" stroke-linecap="round" stroke-linejoin="round"></path><path id="path-7-0" d="M631.369 362.806L632.053 364.361L633.004 366.593L633.855 368.590L634.683 370.629" stroke="black" stroke-width="45" fill="none" stroke-linecap="round" stroke-linejoin="round"></path><path id="path-8-0" d="M592.902 253.387L593.071 254.631L593.476 256.130L594.225 258.663L594.845 260.473L595.464 262.337" stroke="black" stroke-width="45" fill="none" stroke-linecap="round" stroke-linejoin="round"></path><path id="path-9-0" d="M600.015 237.312L601.913 236.377L603.918 235.476L606.835 234.184L609.556 233.044L611.972 232.038L614.338 231.059L616.825 230.029L619.924 228.747L623.182 227.400L626.318 226.103L628.849 225.056L631.227 224.072L633.705 223.047L636.881 221.733L640.475 220.246L644.118 218.740L647.471 217.353L650.517 216.094L653.816 214.728L657.374 213.256L660.978 211.765L664.182 210.440L666.723 209.390L669.102 208.406L671.592 207.375L674.692 206.092L677.950 204.745L681.085 203.449L683.613 202.403L685.993 201.422L688.477 200.402L691.660 199.103L695.264 197.637L698.913 196.156L702.275 194.793L705.328 193.555L708.638 192.213L712.207 190.765L715.822 189.299L719.035 187.997L721.584 186.963L723.969 185.996L726.465 184.984L729.573 183.723L732.841 182.398L735.986 181.123L738.524 180.094L740.909 179.127L743.392 178.120L746.577 176.828L750.162 175.374L753.806 173.897L757.020 172.594L759.571 171.559L761.956 170.592L764.451 169.581L767.558 168.321L770.827 166.997L773.973 165.723L776.514 164.697L778.901 163.734L781.384 162.732L784.570 161.447L788.177 159.991L791.840 158.515L795.211 157.157L798.279 155.920L801.534 154.607L804.843 153.273L807.326 152.273L809.169 151.532" stroke="black" stroke-width="45" fill="none" stroke-linecap="round" stroke-linejoin="round"></path><path id="path-10-0" d="M835.354 126.473L837.926 125.215L840.988 123.890L845.250 122.099L849.531 120.417L853.809 118.756L857.986 117.136L862.137 115.526L866.246 113.931L870.395 112.318L874.560 110.697L878.805 109.044L883.078 107.380L887.386 105.706L891.574 104.081L895.737 102.466L899.869 100.860L904.114 99.207L908.387 97.543L912.695 95.868L916.883 94.244L921.045 92.629L925.177 91.023L929.422 89.370L933.675 87.712L937.724 86.171L940.485 85.128L942.503 84.422" stroke="black" stroke-width="45" fill="none" stroke-linecap="round" stroke-linejoin="round"></path><path id="path-11-0" d="M962.352 95.407L963.360 98.152L964.490 101.228L966.031 105.426L967.401 109.160L968.594 112.410L969.529 114.959L970.366 117.242L971.101 119.245L971.935 121.520L972.874 124.079L974.067 127.330L975.442 131.077L976.944 135.174L978.473 139.341L979.974 143.434L981.343 147.165L982.535 150.415L983.470 152.966L984.307 155.248L985.042 157.250L985.877 159.527L986.815 162.084L988.008 165.335L989.382 169.079L990.884 173.169L992.389 177.259L993.766 180.994L994.966 184.242L995.911 186.793L996.755 189.069L997.498 191.068L998.343 193.343L999.292 195.894L1000.499 199.140L1001.887 202.874L1003.406 206.958L1004.925 211.043L1006.313 214.777L1007.520 218.023L1008.468 220.573L1009.314 222.848L1010.057 224.847L1010.903 227.123L1011.849 229.673L1013.028 232.891L1014.311 236.520L1015.280 239.303L1016.049 241.652" stroke="black" stroke-width="45" fill="none" stroke-linecap="round" stroke-linejoin="round"></path><path id="path-12-0" d="M903.977 299.238L905.476 298.639L907.415 297.873L910.638 296.611L914.339 295.171L918.328 293.625L922.044 292.186L925.272 290.936L927.811 289.954L930.211 289.024L932.735 288.043L935.951 286.795L939.656 285.358L943.645 283.812L947.361 282.372L950.590 281.123L953.130 280.140L955.530 279.210L958.053 278.230L961.269 276.982L964.973 275.545L968.962 273.998L972.679 272.559L975.909 271.307L978.451 270.323L980.710 269.446L982.700 268.675L984.964 267.798L987.499 266.815L990.727 265.564L994.367 264.158L998.037 262.754L1001.533 261.415L1004.345 260.316L1006.422 259.483L1007.610 258.978" stroke="black" stroke-width="45" fill="none" stroke-linecap="round" stroke-linejoin="round"></path><path id="path-13-0" d="M736.389 363.989L736.402 365.265L736.423 367.237L736.444 369.445L736.465 371.862L736.477 373.842L736.491 376.085L736.502 378.069L736.514 380.303L736.525 382.287L736.538 384.521L736.549 386.505L736.562 388.739L736.573 390.723L736.582 392.964L736.589 394.917L736.595 397.129L736.603 398.982L736.616 401.188L736.632 403.107L736.651 405.468L736.665 407.512L736.680 409.828L736.691 411.812L736.703 414.045L736.715 416.030L736.727 418.263L736.738 420.248L736.751 422.481L736.762 424.465L736.774 426.699L736.786 428.683L736.798 430.917L736.809 432.901L736.823 435.139L736.835 437.087L736.846 438.651L736.853 439.682" stroke="black" stroke-width="45" fill="none" stroke-linecap="round" stroke-linejoin="round"></path><path id="path-14-0" d="M494.855 964.642L495.479 963.409L496.276 961.753L497.192 959.818L498.233 957.544L499.158 955.509L500.258 953.095L501.142 951.158L502.128 948.986L502.939 947.192L503.958 944.941L504.880 942.911L505.947 940.573L506.839 938.629L507.828 936.479L508.705 934.576L509.737 932.337L510.670 930.316L511.728 928.024L512.622 926.091L513.683 923.799L514.622 921.770L515.737 919.362L516.633 917.429L517.639 915.268L518.467 913.483L519.507 911.238L520.445 909.202L521.555 906.789L522.448 904.845L523.444 902.681L524.265 900.901L525.298 898.663L526.239 896.628L527.356 894.213L528.258 892.263L529.263 890.103L530.089 888.334L531.125 886.117L532.065 884.098L533.152 881.762L534.058 879.811L535.055 877.666L535.938 875.763L536.974 873.524L537.913 871.492L538.969 869.205L539.858 867.279L540.910 865L541.849 862.963L542.970 860.532L543.872 858.574L544.869 856.412L545.686 854.643L546.707 852.428L547.640 850.406L548.715 848.075L549.609 846.135L550.656 843.865L551.595 841.829L552.714 839.401L553.614 837.448L554.612 835.285L555.429 833.513L556.457 831.285L557.395 829.248L558.512 826.822L559.415 824.861L560.411 822.698L561.225 820.931L562.243 818.719L563.173 816.697L564.244 814.365L565.135 812.422L566.174 810.157L567.103 808.131L568.179 805.782L569.074 803.829L570.060 801.678L570.934 799.772L571.961 797.531L572.892 795.499L573.943 793.208L574.828 791.277L575.874 788.998L576.803 786.972L577.876 784.633L578.766 782.693L579.812 780.418L580.746 778.385L581.854 775.972L582.744 774.035L583.741 771.869L584.564 770.083L585.603 767.838L586.546 765.804L587.667 763.394L588.573 761.453L589.579 759.292L590.405 757.516L591.439 755.289L592.380 753.269L593.466 750.945L594.369 749.011L595.423 746.748L596.364 744.729L597.451 742.398L598.351 740.464L599.403 738.192L600.338 736.162L601.446 733.753L602.333 731.820L603.329 729.654L604.151 727.865L605.187 725.614L606.123 723.579L607.230 721.169L608.121 719.229L609.117 717.064L609.939 715.280L610.972 713.037L611.908 711L613.017 708.585L613.911 706.637L614.906 704.472L615.724 702.694L616.753 700.458L617.689 698.421L618.801 696L619.698 694.045L620.693 691.881L621.508 690.107L622.534 687.879L623.470 685.841L624.584 683.414L625.485 681.452L626.479 679.289L627.292 677.521L628.310 675.308L629.239 673.286L630.327 670.913L631.250 668.901L632.261 666.697L633.136 664.787L634.138 662.601L635.048 660.615L636.083 658.361L636.969 656.437L638.017 654.160L638.955 652.120L640.074 649.684L640.975 647.720L641.971 645.558L642.786 643.792L643.812 641.574L644.751 639.536L645.871 637.103L646.797 635.094L647.806 632.908L648.640 631.106L649.638 628.949L650.559 626.955L651.616 624.663L652.512 622.722L653.556 620.463L654.490 618.439L655.570 616.099L656.465 614.159L657.511 611.897L658.445 609.873L659.524 607.536L660.419 605.597L661.468 603.325L662.406 601.292L663.518 598.874L664.410 596.930L665.403 594.763L666.221 592.978L667.248 590.742L668.183 588.718L669.267 586.384L670.174 584.440L671.175 582.295L672.065 580.395L673.111 578.162L674.061 576.142L675.132 573.861L676.033 571.938L677.101 569.661L678.055 567.631L679.193 565.215L680.108 563.271L681.120 561.115L681.948 559.346L682.983 557.130L683.929 555.113L685.023 552.781L685.938 550.833L686.942 548.690L687.833 546.790L688.879 544.556L689.829 542.528L690.894 540.248L691.788 538.328L692.840 536.063L693.779 534.041L694.868 531.695L695.775 529.743L696.771 527.597L697.654 525.694L698.692 523.457L699.635 521.426L700.692 519.145L701.578 517.230L702.585 515.053L703.518 513.040L704.619 510.680L705.666 508.461L706.903 505.861L707.749 504.093L708.673 502.165" stroke="black" stroke-width="45" fill="none" stroke-linecap="round" stroke-linejoin="round"></path><path id="path-15-0" d="M735.903 964.244L735.929 963.125L735.973 961.533L736.029 959.549L736.088 957.316L736.129 955.331L736.160 953.098L736.177 951.113L736.194 948.880L736.207 946.896L736.223 944.662L736.236 942.678L736.252 940.444L736.266 938.460L736.281 936.227L736.295 934.242L736.310 932.009L736.324 930.024L736.339 927.791L736.353 925.807L736.368 923.573L736.382 921.589L736.398 919.355L736.411 917.371L736.427 915.137L736.440 913.153L736.455 910.910L736.466 908.953L736.478 906.686L736.490 904.722L736.503 902.414L736.514 900.469L736.525 898.227L736.534 896.285L736.544 894.048L736.553 892.064L736.562 889.831L736.571 887.846L736.581 885.613L736.589 883.628L736.599 881.395L736.607 879.411L736.617 877.177L736.626 875.193L736.635 872.959L736.644 870.975L736.654 868.742L736.662 866.757L736.672 864.524L736.680 862.539L736.690 860.306L736.699 858.322L736.711 856.088L736.724 854.104L736.741 851.870L736.757 849.886L736.775 847.652L736.791 845.668L736.809 843.435L736.825 841.450L736.843 839.217L736.859 837.233L736.877 835L736.893 833.015L736.911 830.781L736.927 828.797L736.945 826.563L736.961 824.579L736.979 822.346L736.995 820.361L737.013 818.128L737.029 816.144L737.047 813.910L737.063 811.926L737.081 809.692L737.097 807.708L737.115 805.474L737.131 803.490L737.149 801.257L737.165 799.272L737.183 797.039L737.199 795.054L737.217 792.821L737.233 790.837L737.251 788.603L737.267 786.619L737.284 784.385L737.296 782.401L737.307 780.168L737.314 778.183L737.322 775.950L737.329 773.965L737.336 771.732L737.343 769.748L737.351 767.514L737.357 765.530L737.365 763.296L737.372 761.312L737.379 759.078L737.386 757.094L737.394 754.861L737.400 752.876L737.408 750.643L737.415 748.659L737.422 746.425L737.428 744.441L737.433 742.207L737.436 740.223L737.438 737.989L737.441 736.005L737.443 733.772L737.445 731.787L737.447 729.554L737.449 727.569L737.452 725.336L737.454 723.352L737.456 721.118L737.458 719.134L737.460 716.900L737.462 714.916L737.465 712.683L737.467 710.698L737.469 708.465L737.471 706.480L737.473 704.247L737.475 702.263L737.478 700.029L737.480 698.045L737.482 695.811L737.484 693.827L737.486 691.593L737.488 689.609L737.491 687.376L737.493 685.391L737.495 683.158L737.497 681.174L737.499 678.940L737.501 676.956L737.504 674.722L737.506 672.738L737.508 670.504L737.510 668.520L737.512 666.287L737.515 664.302L737.517 662.069L737.519 660.084L737.521 657.851L737.523 655.867L737.526 653.633L737.528 651.649L737.530 649.415L737.532 647.431L737.534 645.198L737.536 643.213L737.539 640.980L737.541 638.995L737.543 636.762L737.545 634.778L737.547 632.544L737.549 630.560L737.552 628.326L737.554 626.342L737.556 624.108L737.558 622.124L737.560 619.891L737.562 617.906L737.565 615.673L737.567 613.689L737.569 611.455L737.571 609.471L737.573 607.237L737.575 605.253L737.578 603.019L737.580 601.035L737.582 598.802L737.584 596.817L737.586 594.584L737.589 592.599L737.591 590.366L737.593 588.382L737.595 586.148L737.597 584.164L737.600 581.930L737.602 579.946L737.604 577.713L737.606 575.728L737.608 573.495L737.610 571.510L737.613 569.277L737.615 567.293L737.617 565.059L737.619 563.075L737.621 560.841L737.623 558.857L737.626 556.623L737.628 554.639L737.630 552.406L737.632 550.421L737.634 548.188L737.636 546.204L737.639 543.970L737.641 541.986L737.643 539.752L737.645 537.768L737.647 535.534L737.650 533.550L737.652 531.317L737.654 529.332L737.656 527.086L737.659 525.106L737.662 522.895L737.664 520.955L737.667 518.748L737.669 517.305L737.670 515.848" stroke="black" stroke-width="45" fill="none" stroke-linecap="round" stroke-linejoin="round"></path><path id="path-16-0" d="M768.798 509.938L770.276 512.992L771.886 516.348L774.094 520.960L776.154 525.287L778.177 529.540L780.159 533.709L782.137 537.868L784.149 542.104L786.146 546.310L788.194 550.618L790.203 554.829L792.239 559.062L794.249 563.219L796.258 567.363L798.294 571.587L800.304 575.786L802.353 580.094L804.352 584.305L806.400 588.614L808.409 592.825L810.437 597.062L812.436 601.223L814.429 605.376L816.454 609.607L818.452 613.812L820.483 618.127L822.455 622.353L824.433 626.611L826.374 630.797L828.318 634.983L830.269 639.170L832.224 643.352L834.183 647.520L836.178 651.765L838.163 655.984L840.164 660.234L842.140 664.409L844.117 668.565L846.138 672.795L848.145 676.994L850.201 681.298L852.212 685.512L854.235 689.753L856.224 693.922L858.212 698.089L860.197 702.262L862.174 706.436L864.132 710.594L866.124 714.834L868.096 719.042L870.114 723.365L872.079 727.592L874.082 731.922L876.036 736.155L878.037 740.486L879.998 744.716L881.979 748.972L883.933 753.149L885.898 757.327L887.871 761.505L889.849 765.677L891.830 769.847L893.813 774.020L895.793 778.192L897.762 782.348L899.765 786.584L901.751 790.788L903.790 795.101L905.780 799.316L907.812 803.633L909.791 807.860L911.773 812.119L913.715 816.308L915.653 820.497L917.593 824.689L919.531 828.878L921.460 833.057L923.424 837.315L925.375 841.547L927.342 845.814L929.275 850.009L931.202 854.191L933.181 858.441L935.172 862.657L937.210 866.911L939.188 871.015L941.166 875.135L943.110 879.204L945.120 883.422L947.114 887.615L949.158 891.925L951.145 896.141L953.169 900.462L955.141 904.686L957.161 909.008L959.148 913.235L961.164 917.480L963.166 921.644L965.177 925.781L967.233 929.993L969.277 934.171L971.371 938.457L973.416 942.645L975.507 946.932L977.559 951.133L979.638 955.378L981.638 959.514L983.061 962.467L984.196 964.929" stroke="black" stroke-width="45" fill="none" stroke-linecap="round" stroke-linejoin="round"></path><path id="path-extension-1" d="M562.124 378.218L547.970 383.373" stroke="black" stroke-width="45" fill="none" stroke-linecap="round" stroke-linejoin="round"></path><path id="path-extension-2" d="M604.291 360.541L626.963 350.859" stroke="black" stroke-width="45" fill="none" stroke-linecap="round" stroke-linejoin="round"></path><path id="path-extension-3" d="M521.901 314.177L518.107 303.224" stroke="black" stroke-width="45" fill="none" stroke-linecap="round" stroke-linejoin="round"></path><path id="path-extension-4" d="M542.976 370.306L547.970 383.373" stroke="black" stroke-width="45" fill="none" stroke-linecap="round" stroke-linejoin="round"></path><path id="path-extension-5" d="M525.195 298.069L518.107 303.224" stroke="black" stroke-width="45" fill="none" stroke-linecap="round" stroke-linejoin="round"></path><path id="path-extension-6" d="M573.162 277.471L597.484 268.111" stroke="black" stroke-width="45" fill="none" stroke-linecap="round" stroke-linejoin="round"></path><path id="path-extension-7" d="M876.734 272.164L882.086 286.907" stroke="black" stroke-width="45" fill="none" stroke-linecap="round" stroke-linejoin="round"></path><path id="path-extension-8" d="M860.878 294.923L882.086 286.907" stroke="black" stroke-width="45" fill="none" stroke-linecap="round" stroke-linejoin="round"></path><path id="path-extension-9" d="M652.072 376.570L638.955 381.145" stroke="black" stroke-width="45" fill="none" stroke-linecap="round" stroke-linejoin="round"></path><path id="path-extension-10" d="M634.683 370.629L638.955 381.145" stroke="black" stroke-width="45" fill="none" stroke-linecap="round" stroke-linejoin="round"></path><path id="path-extension-11" d="M592.902 253.387L591.306 241.599" stroke="black" stroke-width="45" fill="none" stroke-linecap="round" stroke-linejoin="round"></path><path id="path-extension-12" d="M600.015 237.312L591.306 241.599" stroke="black" stroke-width="45" fill="none" stroke-linecap="round" stroke-linejoin="round"></path><path id="path-extension-13" d="M942.503 84.422L956.516 79.520" stroke="black" stroke-width="45" fill="none" stroke-linecap="round" stroke-linejoin="round"></path><path id="path-extension-14" d="M962.352 95.407L956.516 79.520" stroke="black" stroke-width="45" fill="none" stroke-linecap="round" stroke-linejoin="round"></path><path id="path-extension-15" d="M1016.049 241.652L1020 253.711" stroke="black" stroke-width="45" fill="none" stroke-linecap="round" stroke-linejoin="round"></path><path id="path-extension-16" d="M903.977 299.238L888.767 305.312" stroke="black" stroke-width="45" fill="none" stroke-linecap="round" stroke-linejoin="round"></path><path id="path-extension-17" d="M1007.610 258.978L1020 253.711" stroke="black" stroke-width="45" fill="none" stroke-linecap="round" stroke-linejoin="round"></path><path id="path-extension-18" d="M736.389 363.989L736.186 344.069" stroke="black" stroke-width="45" fill="none" stroke-linecap="round" stroke-linejoin="round"></path><path id="path-connection-1" d="M602.856 283.466L595.464 262.337" stroke="black" stroke-width="45" fill="none" stroke-linecap="round" stroke-linejoin="round"></path><path id="path-connection-2" d="M624.322 343.700L631.369 362.806" stroke="black" stroke-width="45" fill="none" stroke-linecap="round" stroke-linejoin="round"></path><path id="path-connection-3" d="M745.205 340.590L724.438 348.601" stroke="black" stroke-width="45" fill="none" stroke-linecap="round" stroke-linejoin="round"></path><path id="path-connection-4" d="M547.970 383.373L547.970 383.373" stroke="black" stroke-width="45" fill="none" stroke-linecap="round" stroke-linejoin="round"></path><path id="path-connection-5" d="M518.107 303.224L518.107 303.224" stroke="black" stroke-width="45" fill="none" stroke-linecap="round" stroke-linejoin="round"></path><path id="path-connection-6" d="M882.086 286.907L882.086 286.907" stroke="black" stroke-width="45" fill="none" stroke-linecap="round" stroke-linejoin="round"></path><path id="path-connection-7" d="M638.955 381.145L638.955 381.145" stroke="black" stroke-width="45" fill="none" stroke-linecap="round" stroke-linejoin="round"></path><path id="path-connection-8" d="M591.306 241.599L591.306 241.599" stroke="black" stroke-width="45" fill="none" stroke-linecap="round" stroke-linejoin="round"></path><path id="path-connection-9" d="M956.516 79.520L956.516 79.520" stroke="black" stroke-width="45" fill="none" stroke-linecap="round" stroke-linejoin="round"></path><path id="path-connection-10" d="M1020 253.711L1020 253.711" stroke="black" stroke-width="45" fill="none" stroke-linecap="round" stroke-linejoin="round"></path><path id="path-connection-11" d="M809.169 151.532L827.236 138.827" stroke="black" stroke-width="45" fill="none" stroke-linecap="round" stroke-linejoin="round"></path><path id="path-connection-12" d="M835.354 126.473L827.236 138.827" stroke="black" stroke-width="45" fill="none" stroke-linecap="round" stroke-linejoin="round"></path><path id="path-connection-13" d="M836.363 163.299L827.236 138.827" stroke="black" stroke-width="45" fill="none" stroke-linecap="round" stroke-linejoin="round"></path><path id="path-connection-14" d="M768.798 509.938L737.211 444.083" stroke="black" stroke-width="45" fill="none" stroke-linecap="round" stroke-linejoin="round"></path><path id="path-connection-15" d="M736.853 439.682L737.211 444.083" stroke="black" stroke-width="45" fill="none" stroke-linecap="round" stroke-linejoin="round"></path><path id="path-connection-16" d="M708.673 502.165L737.211 444.083" stroke="black" stroke-width="45" fill="none" stroke-linecap="round" stroke-linejoin="round"></path><path id="path-connection-17" d="M737.670 515.848L737.211 444.083" stroke="black" stroke-width="45" fill="none" stroke-linecap="round" stroke-linejoin="round"></path></g><g id="skeleton-paths" stroke-width="45.0"><path id="path-0-0" d="M4 964.219L4.248 962.496L4.472 961.030L4.837 958.636L5.212 956.276L5.643 953.574L6.099 950.740L6.543 947.959L6.989 945.140L7.433 942.314L7.872 939.513L8.314 936.692L8.758 933.866L9.197 931.066L9.639 928.245L10.082 925.419L10.521 922.618L10.963 919.797L11.406 916.971L11.846 914.170L12.288 911.349L12.731 908.523L13.170 905.722L13.612 902.901L14.057 900.062L14.486 897.329L14.921 894.558L15.349 891.832L15.786 889.046L16.228 886.230L16.671 883.406L17.111 880.598L17.554 877.773L17.997 874.949L18.432 872.171L18.871 869.367L19.299 866.631L19.686 864.161L20.071 861.696L20.454 859.252L20.880 856.536L21.323 853.706L21.761 850.914L22.203 848.093L22.646 845.267L23.085 842.466L23.527 839.645L23.970 836.819L24.409 834.018L24.851 831.197L25.293 828.371L25.732 825.571L26.174 822.750L26.617 819.923L27.056 817.123L27.498 814.302L27.941 811.475L28.380 808.675L28.822 805.854L29.266 803.017L29.691 800.310L30.123 797.552L30.548 794.847L30.986 792.054L31.427 789.237L31.869 786.415L32.310 783.606L32.752 780.782L33.194 777.961L33.635 775.151L34.077 772.327L34.510 769.562L34.896 767.101L35.279 764.647L35.661 762.210L36.086 759.494L36.531 756.660L36.968 753.866L37.411 751.045L37.853 748.219L38.292 745.418L38.735 742.597L39.178 739.771L39.618 736.971L40.062 734.150L40.508 731.324L40.949 728.524L41.393 725.703L41.839 722.877L42.280 720.077L42.725 717.256L43.171 714.430L43.612 711.630L44.057 708.809L44.503 705.975L44.930 703.267L45.366 700.505L45.794 697.792L46.235 694.993L46.679 692.176L47.124 689.355L47.567 686.546L48.012 683.723L48.447 680.959L48.835 678.501L49.220 676.053L49.604 673.621L50.032 670.906L50.479 668.070L50.919 665.276L51.364 662.455L51.810 659.629L52.251 656.829L52.696 654.008L53.141 651.182L53.583 648.382L54.028 645.562L54.477 642.727L54.906 640.020L55.344 637.262L55.776 634.555L56.221 631.761L56.670 628.945L57.109 626.182L57.501 623.717L57.891 621.259L58.278 618.820L58.710 616.105L59.161 613.274L59.606 610.482L60.055 607.662L60.504 604.837L60.950 602.037L61.399 599.217L61.850 596.379L62.285 593.647L62.727 590.877L63.162 588.153L63.605 585.369L64.053 582.555L64.494 579.788L64.882 577.343L65.268 574.889L65.637 572.516L66.037 569.915L66.442 567.282L66.796 564.978L67.185 562.470L67.573 560.011L68.025 557.192L68.486 554.429L68.899 551.995L69.332 549.553L69.769 547.198L70.266 544.610L70.784 542.055L71.242 539.869L71.767 537.511L72.249 535.408L72.868 532.817L73.485 530.365L74.181 527.706L74.892 525.145L75.526 522.946L76.215 520.703L76.815 518.805L77.591 516.456L78.427 514.040L79.467 511.182L80.537 508.411L81.527 505.965L82.544 503.612L83.624 501.238L84.912 498.510L86.308 495.690L87.767 492.915L89.285 490.191L90.903 487.464L92.600 484.693L94.396 481.828L96.117 479.117L97.647 476.722L99.209 474.328L100.869 471.800L102.823 468.877L104.780 466.007L106.552 463.555L108.345 461.304L110.088 459.369L112.103 457.305L113.832 455.619L115.655 453.848L117.224 452.264L119.301 450.282L121.304 448.447L123.629 446.459L125.628 444.819L127.779 443.135L129.659 441.714L131.754 440.192L133.646 438.830L135.896 437.274L137.900 435.923L140.233 434.435L142.163 433.238L144.456 431.864L146.278 430.791L148.478 429.553L150.351 428.554L152.622 427.399L154.646 426.422L156.875 425.374L158.807 424.496L161.005 423.538L162.985 422.721L165.345 421.789L167.384 421.026L169.687 420.183L172.027 419.385L174.613 418.514L177.325 417.670L179.537 417.007L181.885 416.376L183.831 415.894L186.282 415.321L188.756 414.787L191.471 414.218L194.209 413.702L196.490 413.303L198.883 412.935L200.836 412.662L203.132 412.370L205.102 412.155L207.432 411.941L209.468 411.790L211.801 411.671L213.712 411.617L215.894 411.594L218.119 411.597L221.075 411.623L224.651 411.726L228.683 411.938L232.895 412.297L237.060 412.790L241.254 413.416L245.447 414.166L249.687 415.052L253.952 416.072L258.231 417.226L262.490 418.508L266.702 419.918L270.930 421.489L275.142 423.207L279.374 425.068L283.550 427.022L287.754 429.106L292.023 431.375L296.336 433.857L300.638 436.526L304.858 439.335L309.081 442.331L313.273 445.487L317.548 448.904L321.767 452.491L326.062 456.353L330.311 460.378L334.565 464.561L338.751 468.810L342.881 473.116L346.971 477.462L351.035 481.827L355.018 486.105L358.944 490.322L362.787 494.454L366.700 498.680L370.587 502.885L374.493 507.118L378.317 511.268L382.219 515.507L386.181 519.805L390.224 524.177L394.198 528.457L398.125 532.666L401.984 536.781L405.947 540.975L409.909 545.135L413.935 549.294L417.885 553.222L420.759 556.021L423.179 558.232" stroke="black" stroke-width="45" fill="none" stroke-linecap="round" stroke-linejoin="round"></path><path id="path-1-0" d="M373.336 702.046L375.952 703.657L378.973 705.517L383.167 708.100L387.308 710.591L391.502 712.987L395.751 715.179L399.995 717.102L404.228 718.738L408.464 720.112L412.726 721.260L417.018 722.179L421.274 722.861L425.532 723.284L429.772 723.447L434.013 723.343L438.276 723.013L442.489 722.438L446.786 721.606L451.051 720.511L455.423 719.163L459.748 717.582L464.135 715.711L468.530 713.513L472.872 710.974L477.103 708.136L481.253 704.979L485.420 701.507L489.688 697.688L493.983 693.661L498.276 689.502L502.521 685.311L506.742 681.097L510.948 676.867L515.142 672.626L519.324 668.372L523.497 664.109L527.664 659.841L531.831 655.572L535.997 651.302L540.163 647.033L544.329 642.763L548.496 638.494L552.662 634.225L556.832 629.949L560.923 625.747L564.949 621.599L568.872 617.546L572.857 613.419L576.902 609.231L581.042 604.945L585.117 600.717L589.127 596.543L593.041 592.454L596.945 588.371L600.852 584.250L604.605 580.168L608.270 575.943L611.655 571.670L614.831 567.248L617.573 562.826L619.868 558.452L621.733 554.037L623.220 549.691L624.374 545.321L625.172 541.043L625.615 536.743L625.732 532.444L625.542 528.148L625.087 523.838L624.364 519.553L623.342 515.233L621.979 510.914L620.265 506.630L618.174 502.365L615.654 498.135L612.594 493.829L608.943 489.527L604.860 485.431L600.514 481.737L596.126 478.606L591.734 475.980L587.372 473.826L583.074 472.099L578.819 470.752L574.583 469.767L570.361 469.088L566.121 468.688L561.943 468.556L557.761 468.679L553.608 469.136L549.436 469.959L545.235 471.242L541.017 472.986L536.760 475.206L532.492 477.911L528.289 481.013L524.177 484.437L520.220 488.015L516.280 491.743L512.265 495.656L508.127 499.737L503.908 503.927L499.678 508.132L495.420 512.330L491.217 516.436L487.043 520.453L482.978 524.364L478.863 528.343L474.705 532.403L470.463 536.560L466.200 540.733L461.905 544.898L457.630 548.972L453.411 552.896L450.465 555.589L448.035 557.771" stroke="black" stroke-width="45" fill="none" stroke-linecap="round" stroke-linejoin="round"></path><path id="path-2-0" d="M262.825 618.460L263.909 619.328L265.374 620.495L267.268 622.012L269.329 623.661L271.231 625.180L273.435 626.926L275.825 628.799L278.581 630.941L281.348 633.062L283.767 634.897L286.009 636.580L287.952 638.036L290.197 639.717L292.625 641.536L295.420 643.629L298.211 645.720L300.641 647.541L302.961 649.279L304.912 650.740L307.155 652.420L309.111 653.888L311.442 655.640L313.477 657.170L315.780 658.900L317.725 660.361L319.961 662.041L321.917 663.513L324.251 665.270L326.292 666.807L328.623 668.563L330.728 670.149L333.228 672.030L335.817 673.978L337.965 675.594L339.873 677.030" stroke="black" stroke-width="45" fill="none" stroke-linecap="round" stroke-linejoin="round"></path><path id="path-3-0" d="M301.324 964.244L301.508 963.125L301.780 961.537L302.115 959.601L302.496 957.388L302.822 955.463L303.202 953.182L303.522 951.251L303.901 948.969L304.224 947.025L304.603 944.752L304.922 942.833L305.291 940.613L305.622 938.611L306 936.327L306.327 934.356L306.690 932.173L307.012 930.230L307.395 927.919L307.727 925.906L308.115 923.559L308.436 921.624L308.816 919.330L309.134 917.409L309.518 915.099L309.836 913.177L310.217 910.882L310.536 908.962L310.911 906.707L311.224 904.823L311.595 902.587L311.928 900.578L312.304 898.305L312.627 896.356L312.993 894.154L313.325 892.157L313.714 889.808L314.047 887.795L314.433 885.465L314.750 883.545L315.132 881.247L315.444 879.360L315.826 877.062L316.138 875.180L316.523 872.857L316.838 870.952L317.222 868.637L317.533 866.752L317.901 864.530L318.215 862.641L318.587 860.403L318.923 858.380L319.298 856.119L319.621 854.170L319.988 851.960L320.321 849.948L320.697 847.682L321.019 845.733L321.386 843.522L321.720 841.510L322.095 839.245L322.418 837.296L322.783 835.100L323.115 833.091L323.498 830.774L323.827 828.787L324.202 826.525L324.522 824.598L324.905 822.293L325.223 820.373L325.602 818.087L325.920 816.167L326.303 813.856L326.621 811.936L327 809.650L327.319 807.731L327.702 805.419L328.020 803.499L328.399 801.214L328.717 799.294L329.101 796.983L329.421 795.062L329.803 792.777L330.127 790.857L330.518 788.547L330.844 786.628L331.233 784.344L331.562 782.425L331.956 780.116L332.285 778.197L332.675 775.914L333.004 773.995L333.398 771.687L333.727 769.767L334.117 767.485L334.446 765.566L334.840 763.257L335.169 761.337L335.559 759.055L335.887 757.136L336.282 754.828L336.611 752.907L337 750.626L337.329 748.706L337.724 746.398L338.053 744.478L338.442 742.196L338.771 740.276L339.166 737.969L339.495 736.048L339.884 733.767L340.213 731.847L340.607 729.539L340.937 727.618L341.326 725.337L341.655 723.417L342.046 721.125L342.371 719.226L342.738 717.059L343.059 715.158L343.452 712.814L343.850 710.459L344.181 708.505L344.442 706.979" stroke="black" stroke-width="45" fill="none" stroke-linecap="round" stroke-linejoin="round"></path><path id="path-extension-1" d="M423.179 558.232L435.244 569.254" stroke="black" stroke-width="45" fill="none" stroke-linecap="round" stroke-linejoin="round"></path><path id="path-extension-2" d="M448.035 557.771L435.244 569.254" stroke="black" stroke-width="45" fill="none" stroke-linecap="round" stroke-linejoin="round"></path><path id="path-connection-1" d="M435.244 569.254L435.244 569.254" stroke="black" stroke-width="45" fill="none" stroke-linecap="round" stroke-linejoin="round"></path><path id="path-connection-2" d="M373.336 702.046L348.201 684.949" stroke="black" stroke-width="45" fill="none" stroke-linecap="round" stroke-linejoin="round"></path><path id="path-connection-3" d="M339.873 677.030L348.201 684.949" stroke="black" stroke-width="45" fill="none" stroke-linecap="round" stroke-linejoin="round"></path><path id="path-connection-4" d="M344.442 706.979L348.201 684.949" stroke="black" stroke-width="45" fill="none" stroke-linecap="round" stroke-linejoin="round"></path></g></svg>